<svg xmlns="http://www.w3.org/2000/svg" id="Capa_1" data-name="Capa 1" viewBox="0 0 535 72"><defs><style>.cls-1{fill:#f0353e}</style></defs><path d="M34.6 58.2a19.5 19.5 0 0 1-5.8-1.1 68 68 0 0 1-6.5-2.6c-2.2-1.1-4.5-2-6.7-2.9a13.2 13.2 0 0 1-3.8 3 7.8 7.8 0 0 1-4.2 1.1 7.6 7.6 0 0 1-4.1-1 9.2 9.2 0 0 1-2.6-2.6 5.7 5.7 0 0 1-.9-2.8A2.8 2.8 0 0 1 1.2 47c.8-.7 2.3-1 4.3-1a33 33 0 0 1 4.2.4l4.7 1.1a41.7 41.7 0 0 0 3.2-7c.9-2.6 1.9-5.4 2.8-8.4s1.9-5.9 2.9-8.8A12.1 12.1 0 0 1 18 20a6.5 6.5 0 0 1-1.9-4.5 5.9 5.9 0 0 1 2.3-4.9 3.9 3.9 0 0 1 2.6-.9 4.4 4.4 0 0 0-.8 2.2 12 12 0 0 0-.3 2.4 7.8 7.8 0 0 0 1.2 4.4 7.2 7.2 0 0 0 2.8 2.7l3-8.1a48 48 0 0 1 3.4-6.8 17.6 17.6 0 0 1 4.2-4.7 8.4 8.4 0 0 1 5-1.7 9.5 9.5 0 0 1 3.2.6A6.5 6.5 0 0 1 45.6 3a7 7 0 0 1 1.3 4.6 15.7 15.7 0 0 1-1.1 5.3 18.4 18.4 0 0 1-3.1 5.4 16.2 16.2 0 0 1-5.5 4.1 18.8 18.8 0 0 1-7.9 1.8h-1.1c-1 2.9-1.9 5.8-3 8.7s-2.2 5.8-3.4 8.5a67 67 0 0 1-3.8 7.1l6.5 2c2.3.7 4.5 1.2 6.7 1.7a32.5 32.5 0 0 0 5.9.7 13.5 13.5 0 0 0 2.9-.4l2.6-.9c-.9 2.4-1.9 4.1-3.3 5.1a7.3 7.3 0 0 1-4.7 1.5M7.1 53.4a5.2 5.2 0 0 0 3-.8 8.9 8.9 0 0 0 2.5-2.3l-4.3-1.5a13.5 13.5 0 0 0-3.7-.6 4.1 4.1 0 0 0-1.9.4 1.3 1.3 0 0 0-.5 1.1 3.4 3.4 0 0 0 1.4 2.5 5.1 5.1 0 0 0 3.5 1.2m21.6-30.9a10.6 10.6 0 0 0 5.8-1.9 20.8 20.8 0 0 0 4.4-4.5 21.6 21.6 0 0 0 2.7-5.5 17 17 0 0 0 1-4.9 3.6 3.6 0 0 0-.8-2.7 2.5 2.5 0 0 0-1.8-.8c-1.4 0-2.8 1-4 2.8a39 39 0 0 0-3.7 7.4c-1.2 3.1-2.4 6.4-3.6 10.1M54 55.1c-3 0-5.2-.8-6.8-2.5a8.5 8.5 0 0 1-2.3-6 18.1 18.1 0 0 1 1.6-6.8 28.7 28.7 0 0 1 4.4-6.7 23.7 23.7 0 0 1 5.9-5.2 12.8 12.8 0 0 1 6.6-1.9 6.2 6.2 0 0 1 3.2.9c.9.6 1.4 1.8 1.4 3.6a9 9 0 0 1-1.5 5.1 17.5 17.5 0 0 1-4.3 4.3 29.3 29.3 0 0 1-5.8 3.1 28.8 28.8 0 0 1-6.3 1.5c-.1.4-.1.8-.2 1.1v1.1a14 14 0 0 0 .2 1.9 5.6 5.6 0 0 0 .8 2 5 5 0 0 0 1.7 1.5 7.6 7.6 0 0 0 2.9.5 11.5 11.5 0 0 0 6.1-1.7 24 24 0 0 0 5.7-4.6 31 31 0 0 0 4.4-6.3l1.1.8a28.6 28.6 0 0 1-5 7.6 23.6 23.6 0 0 1-6.6 4.9 15.7 15.7 0 0 1-7.2 1.8m-3.4-12.4a18.2 18.2 0 0 0 4.3-1.7 27.4 27.4 0 0 0 4.6-2.9 16.5 16.5 0 0 0 3.7-3.8 7.2 7.2 0 0 0 1.5-4.3 1.6 1.6 0 0 0-.3-1.1c-.2-.3-.6-.4-1.2-.4a5.9 5.9 0 0 0-3.5 1.3 16 16 0 0 0-3.7 3.3 25 25 0 0 0-3.2 4.6 21.8 21.8 0 0 0-2.2 5" class="cls-1"/><path d="M76.5 55.2a6.6 6.6 0 0 1-4.9-1.8 7.3 7.3 0 0 1-1.8-5.4 31 31 0 0 1 1.2-7.7 92 92 0 0 1 2.9-9.4l-1.3-.3a2.7 2.7 0 0 1-1.2-.3v-1.6l1.5.2h1.8c1-2.6 2.1-5.1 3.2-7.5s2.3-4.5 3.5-6.4a26.4 26.4 0 0 1 3.2-4.5c1.1-1.1 2-1.7 2.7-1.7a2.1 2.1 0 0 1 1.2.5 1.7 1.7 0 0 1 .5 1.3 10 10 0 0 1-1.5 4l-3.7 6.5c-1.5 2.5-2.9 5.2-4.3 8h7.8l5.2-.4v1.7l-7.1.5-5.8.3h-1a69 69 0 0 0-2.8 7.6 26.1 26.1 0 0 0-1.1 7.7 7.9 7.9 0 0 0 .9 4.3 3.3 3.3 0 0 0 3 1.3 11 11 0 0 0 7.4-3.2 28.3 28.3 0 0 0 6.4-8.9l1 .7a32.5 32.5 0 0 1-4.5 7.4 21.5 21.5 0 0 1-5.8 5.2 12.8 12.8 0 0 1-6.6 1.9M101.9 10.6a6 6 0 0 1-1.2-1.1 1.7 1.7 0 0 1-.5-1.3 4 4 0 0 1 1-2.4l2.2-2.9a13.4 13.4 0 0 0 1.5-2.9 1.7 1.7 0 0 1 1.4.7 1.9 1.9 0 0 1 .7 1.5 4.5 4.5 0 0 1-.9 2.4 27 27 0 0 1-2.1 3ZM107.4 55.6a9.3 9.3 0 0 1-5.6-1.5 8.7 8.7 0 0 1-2.9-3.7 13.2 13.2 0 0 1-.8-4.4 9.5 9.5 0 0 1 .5-3.3A4.9 4.9 0 0 1 100 41l1.6-.8a2.3 2.3 0 0 0 1.1-.7 36 36 0 0 0 3.9-4.7 33 33 0 0 0 3.2-5.5v-.8a6.6 6.6 0 0 1 .9-3.9 2.9 2.9 0 0 1 2.1-1.1 1.2 1.2 0 0 1 1.3 1.1 9 9 0 0 1-.2 1.1 9.2 9.2 0 0 0-.2 1.9 14.8 14.8 0 0 0 1 5.1c.6 1.8 1.3 3.8 1.9 5.8a19.5 19.5 0 0 1 1 6.4c0 .5-.1 1.1-.1 1.7l-.3 1.6a10.8 10.8 0 0 0 4.6-2.4 17.8 17.8 0 0 0 4.3-5.8l.7.8a12.9 12.9 0 0 1-4.1 6.1 12.8 12.8 0 0 1-6 2.8 8.7 8.7 0 0 1-3.7 4.5 11.3 11.3 0 0 1-5.6 1.4m-.1-2.7a4.9 4.9 0 0 0 2.4-.7 4.3 4.3 0 0 0 2.1-2.7 11.5 11.5 0 0 1-5.3-2.3 12.8 12.8 0 0 1-3.5-3.5c-1 .1-1.5.8-1.5 2.3a8 8 0 0 0 1.5 4.7 5.1 5.1 0 0 0 4.3 2.2m4.9-4.8.3-1.4v-1.6a24.8 24.8 0 0 0-.8-6.6c-.5-2.3-1-4.4-1.5-6.4q-1.5 2.5-3.3 5.1a39 39 0 0 1-3.4 4.1 13.9 13.9 0 0 0 3.3 4.1 12.5 12.5 0 0 0 5.4 2.7M147.7 54.1a5.4 5.4 0 0 1-2.6-.7 5.3 5.3 0 0 1-2.2-2 6.3 6.3 0 0 1-.8-3.5 13.6 13.6 0 0 1 1.1-5.3 30.4 30.4 0 0 1 3.1-5.9 29.3 29.3 0 0 1 4.5-5.4 22.2 22.2 0 0 1 5.4-4 11.4 11.4 0 0 1 5.6-1.4 4.1 4.1 0 0 1 2.4.5 1.9 1.9 0 0 1 .9 1.7 1.3 1.3 0 0 1-.1.6.9.9 0 0 1-.3.6 1.8 1.8 0 0 0-1-.7 4.7 4.7 0 0 0-1.7-.3 8.8 8.8 0 0 0-4.5 1.4 15 15 0 0 0-4 3.6 31 31 0 0 0-3.2 4.8 29 29 0 0 0-2.1 4.9 12.5 12.5 0 0 0-.7 4 4.3 4.3 0 0 0 .6 2.4 2.3 2.3 0 0 0 1.9.9c1.3 0 2.8-.8 4.7-2.4a38.3 38.3 0 0 0 5.6-6.8 62 62 0 0 0 5.2-10.3c1-2.8 2.1-5.7 3.2-8.5l3.4-8.3c1.2-2.7 2.3-5 3.4-7.1a29 29 0 0 1 3.2-5q1.5-1.8 2.7-1.8a1.3 1.3 0 0 1 1.1.5 1.5 1.5 0 0 1 .5 1.3 11.3 11.3 0 0 1-1.2 3.9c-.8 1.9-1.8 4-3 6.6s-2.6 5.3-4 8.3-2.8 6-4 9.1a74 74 0 0 0-3.1 9 30.6 30.6 0 0 0-1.2 8.1 9.4 9.4 0 0 0 .3 2.8 1.2 1.2 0 0 0 1.3.9 7.2 7.2 0 0 0 3.5-1.3 18.9 18.9 0 0 0 4.1-3.6 24.8 24.8 0 0 0 3.5-5.8l1.1.9a26.2 26.2 0 0 1-3.9 6.7 21.7 21.7 0 0 1-5.1 4.6 10.3 10.3 0 0 1-5.3 1.7 4.3 4.3 0 0 1-3.9-1.8 7.6 7.6 0 0 1-1-3.9 17 17 0 0 1 .3-2.9c.2-1.2.5-2.4.8-3.8a47.6 47.6 0 0 1-4.8 6.5 26 26 0 0 1-5.1 4.6 8.8 8.8 0 0 1-4.6 1.6" class="cls-1"/><path d="M182.6 54.2c-2.1 0-3.6-.6-4.4-2a7.8 7.8 0 0 1-1.3-4.6 15.1 15.1 0 0 1 .7-4.6 15.4 15.4 0 0 1 2-4.5 11.9 11.9 0 0 1 2.7-3.4 5 5 0 0 1 3-1.3l.9.2a1.6 1.6 0 0 1 .9.3 12.4 12.4 0 0 0-1.7 2.3c-.6 1.1-1.1 2.2-1.7 3.5s-.9 2.5-1.3 3.8a15.6 15.6 0 0 0-.5 3.3 5.6 5.6 0 0 0 .7 2.9 2.4 2.4 0 0 0 1.9 1c1 0 2.1-.6 3.5-1.7a24 24 0 0 0 3.9-3.9 12.5 12.5 0 0 1-3.1-4.4 15.6 15.6 0 0 1-1.1-5.7 11.5 11.5 0 0 1 .8-4.1 7.6 7.6 0 0 1 2.4-3.4 6.1 6.1 0 0 1 4.1-1.3c2 0 3.4.5 4.1 1.6a7.2 7.2 0 0 1 1.1 4 17.1 17.1 0 0 1-1.4 6.2 37.3 37.3 0 0 1-3.5 6.5 7.1 7.1 0 0 0 2.6.5 8.1 8.1 0 0 0 2.5-.4 9.2 9.2 0 0 0 2.9-1.6 7.5 7.5 0 0 0 2.3-3.2l1 .8a10.4 10.4 0 0 1-4.1 5 10.3 10.3 0 0 1-5.1 1.5l-1.8-.2-1.6-.5a30.5 30.5 0 0 1-5.5 5.3 10.4 10.4 0 0 1-5.9 2.1m10.9-10.7a41.4 41.4 0 0 0 2.9-5.5 14.8 14.8 0 0 0 1.2-5.5 6.9 6.9 0 0 0-.5-2.9 1.9 1.9 0 0 0-1.6-.9c-.9 0-1.9.7-2.9 2.1a8.5 8.5 0 0 0-1.5 5.1 15.6 15.6 0 0 0 .6 4.1 8.9 8.9 0 0 0 1.8 3.5M229.2 55.2a6.8 6.8 0 0 1-5-1.8 7.8 7.8 0 0 1-1.7-5.4 26.7 26.7 0 0 1 .6-5.1c.4-2 .9-4.1 1.6-6.4s1.4-4.4 2.2-6.5l-1.3-.5-1.3-.5v-1.6a4.1 4.1 0 0 1 1.6.3l1.7.4a95 95 0 0 1 4.3-9.6 45 45 0 0 1 4.4-7c1.4-1.7 2.6-2.6 3.6-2.6a1.9 1.9 0 0 1 1.2.4 1.9 1.9 0 0 1 .5 1.3 6.1 6.1 0 0 1-.7 2.3 23.5 23.5 0 0 1-1.8 3.5l-2.3 4.3-2.6 4.4c-.8 1.5-1.5 2.8-2.1 4.1l3.5.5a18.7 18.7 0 0 0 3.4.3l4.2-.3 5.1-.9a98 98 0 0 1 4.2-10.1c1.6-3.4 3.2-6.5 4.8-9.2a38 38 0 0 1 4.6-6.5c1.5-1.7 2.8-2.5 3.9-2.5s1.5.5 2 1.6a9.1 9.1 0 0 1 .6 3.2 17.6 17.6 0 0 1-1.2 5.8 42.3 42.3 0 0 1-3.5 7.1 40.3 40.3 0 0 1-5 6.7 28.5 28.5 0 0 1-6.1 5.1 35.4 35.4 0 0 0-1.9 6 58 58 0 0 0-1.3 6.8 26 26 0 0 0-.1 5.5 66 66 0 0 1 3.8-8.9 25.2 25.2 0 0 1 4.9-6.6 8.6 8.6 0 0 1 5.9-2.6 4.9 4.9 0 0 1 4.4 2.2 8.1 8.1 0 0 1 1.3 4.5 12.5 12.5 0 0 1-.7 4.3c-.5 1.4-1 2.7-1.6 4a10.3 10.3 0 0 0-.8 3.7 2.4 2.4 0 0 0 .7 2 2 2 0 0 0 1.4.6 6.5 6.5 0 0 0 3.7-1.6 21.2 21.2 0 0 0 4.1-4.3 27.2 27.2 0 0 0 3.5-5.7l1 1a27.5 27.5 0 0 1-3.7 6.5 19 19 0 0 1-4.8 4.6 10 10 0 0 1-5.5 1.6 5.3 5.3 0 0 1-3.9-1.3 4.9 4.9 0 0 1-1.3-3.3 11.1 11.1 0 0 1 .6-3.4c.4-1.2.7-2.5 1.1-3.7a16.4 16.4 0 0 0 .5-3.7 3.4 3.4 0 0 0-.8-2.5 2.6 2.6 0 0 0-1.9-.8 4.5 4.5 0 0 0-3.2 1.5 17.6 17.6 0 0 0-2.6 3.6c-.8 1.5-1.5 3.1-2.2 4.8s-1.3 3.3-2 4.8a25 25 0 0 1-1.9 3.7c-.7.9-1.3 1.4-2.1 1.4a2 2 0 0 1-1.5-.9 7 7 0 0 1-1-2.3 16 16 0 0 1-.6-3.3c0-1.2 0-2.3.1-3.5a24.7 24.7 0 0 1-6.7 7.6 14 14 0 0 1-8.3 2.9m2.1-2.9c2.5 0 4.9-1.1 7.3-3.3a28.2 28.2 0 0 0 6.3-8.9c.3-1.5.7-3 1-4.4s.8-2.9 1.4-4.6a36 36 0 0 1-4.4.7 31 31 0 0 1-4.2.2 23.6 23.6 0 0 1-3.8-.2l-3.7-.5a69 69 0 0 0-2.8 7.6 29.2 29.2 0 0 0-1.1 7.7 7.6 7.6 0 0 0 .9 4.3 3.4 3.4 0 0 0 3.1 1.4m22.4-25.7a24.6 24.6 0 0 0 4.5-4.6 51 51 0 0 0 3.6-5.4 31.5 31.5 0 0 0 2.6-5.2 13.4 13.4 0 0 0 1.1-3.8 1.1 1.1 0 0 0-.1-.9c-.3 0-1 .5-1.9 1.6a28.3 28.3 0 0 0-3.2 4.2 59 59 0 0 0-3.5 6.3 55 55 0 0 0-3.1 7.8" class="cls-1"/><path d="M283.8 53.9a5.3 5.3 0 0 1-4.4-1.8 7.2 7.2 0 0 1-1.4-4.4 17.6 17.6 0 0 1 .6-4.1 40 40 0 0 1 1.6-5.3 35.6 35.6 0 0 1 2.4-5.2 16.5 16.5 0 0 1 2.9-4 4.1 4.1 0 0 1 3-1.6 2.1 2.1 0 0 1 1.2.4 1.5 1.5 0 0 1 .5 1.3 5.6 5.6 0 0 1-1.1 2.8l-2.6 4.5a42 42 0 0 0-2.6 5.2 14.3 14.3 0 0 0-1.1 5.2c0 1.7.3 2.8.8 3.3a3.4 3.4 0 0 0 2.6.9c1.6 0 3.4-.9 5.2-2.5s3.9-4.5 6-8.6l.7.9a22.1 22.1 0 0 1-6.1 9.6 12.6 12.6 0 0 1-8.2 3.4m8.6-32.8a4 4 0 0 1-2.2-.6 2.1 2.1 0 0 1-1-1.9 3.4 3.4 0 0 1 1.8-2.8 7.2 7.2 0 0 1 3.6-1.1 3.6 3.6 0 0 1 1.9.5 2.1 2.1 0 0 1 .8 1.9 3.6 3.6 0 0 1-1.6 2.7 4.8 4.8 0 0 1-3.3 1.3" class="cls-1"/><path d="M319.5 53.4a5.2 5.2 0 0 1-4-1.4 4.6 4.6 0 0 1-1.4-3.4 8.9 8.9 0 0 1 .6-3.1c.3-1.1.7-2.2 1-3.4a12.6 12.6 0 0 0 .5-3.3 3.3 3.3 0 0 0-.8-2.6 2.6 2.6 0 0 0-1.9-.7 7.7 7.7 0 0 0-4.6 1.8 24.3 24.3 0 0 0-4.4 4.6c-1.4 1.9-2.7 3.8-4 5.8l-3.3 5.3a5.9 5.9 0 0 1-2.3-.4 4.2 4.2 0 0 1-1.8-1.3 12.2 12.2 0 0 1 .8-2.3c.5-1.2 1.1-2.7 1.7-4.5a51 51 0 0 0 1.8-5.5 21.3 21.3 0 0 0 .7-5.2 4 4 0 0 1 1.4-1.1 5.4 5.4 0 0 1 2.1-.5c1.4 0 2.2.6 2.2 1.9a15.7 15.7 0 0 1-.6 3.5 43 43 0 0 1-1.4 5 69 69 0 0 1 4.3-5.5 20.6 20.6 0 0 1 5-4.4 9.1 9.1 0 0 1 5.2-1.8 4.9 4.9 0 0 1 4.3 2 8.1 8.1 0 0 1 1.3 4.5 11.6 11.6 0 0 1-.7 4.2l-1.5 3.6a8.3 8.3 0 0 0-.7 3.4 2.7 2.7 0 0 0 .6 2 2.2 2.2 0 0 0 1.4.5 5.3 5.3 0 0 0 3.6-1.6 19.7 19.7 0 0 0 3.5-4.3 34.7 34.7 0 0 0 3-5.2l1 1a47 47 0 0 1-3.5 6.3 17.4 17.4 0 0 1-4.1 4.4 8.6 8.6 0 0 1-5 1.7" class="cls-1"/><path d="M332.6 72.1a5.7 5.7 0 0 1-3.1-1 3.9 3.9 0 0 1-1.3-3.3 6.7 6.7 0 0 1 1.3-4.1 14.2 14.2 0 0 1 3.5-3.4 29.6 29.6 0 0 1 4.6-2.8l4.8-2.5a49 49 0 0 0 1.7-5c.6-1.8 1.1-3.7 1.6-5.9a33.7 33.7 0 0 1-5.5 6.2 9.4 9.4 0 0 1-5.9 2.4 4.8 4.8 0 0 1-4.2-2 8.1 8.1 0 0 1-1.5-5.1 14.7 14.7 0 0 1 1.8-7.1 21.9 21.9 0 0 1 4.9-6 27.2 27.2 0 0 1 6.3-4.1 15.7 15.7 0 0 1 6.4-1.5 5 5 0 0 1 3.1.8 2.1 2.1 0 0 1 1 1.7 1.8 1.8 0 0 1-.4 1.1l-.6.5a1.8 1.8 0 0 0-1.2-.9 4.8 4.8 0 0 0-1.8-.3 9.8 9.8 0 0 0-5.4 1.7 16.7 16.7 0 0 0-4.6 4.2 22.7 22.7 0 0 0-3.2 5.3 12.5 12.5 0 0 0-1.2 4.9 3.6 3.6 0 0 0 .7 2.5 2.1 2.1 0 0 0 1.8.9c1.3 0 2.9-.9 4.9-2.7a42 42 0 0 0 5.6-6.6 7.5 7.5 0 0 1 .4-1.6c.1-.4.2-1 .4-1.7a8.1 8.1 0 0 1 1.2-2.9 3.1 3.1 0 0 1 2.7-1.4h.8l.9.2a19.5 19.5 0 0 1-.7 4.2c-.5 2-1.1 4.3-1.9 7s-1.8 5.5-2.9 8.3a28.3 28.3 0 0 0 4.6-2.8 23.8 23.8 0 0 0 4.2-4.2 20.4 20.4 0 0 0 2.9-5.2l1.1 1a17.1 17.1 0 0 1-3.5 5.9 32 32 0 0 1-5.1 4.7 28 28 0 0 1-5.1 3 80 80 0 0 1-4.2 8.8 30.3 30.3 0 0 1-4.7 6.3 7.4 7.4 0 0 1-5.2 2.5m-.3-2.7c1 0 2.2-.9 3.8-2.7a34.5 34.5 0 0 0 5.2-9.2c-1.8.9-3.6 1.8-5.2 2.8a22.3 22.3 0 0 0-3.9 3.2 5.3 5.3 0 0 0-1.5 3.6 2.3 2.3 0 0 0 .5 1.7 1.4 1.4 0 0 0 1.1.6" class="cls-1"/><path d="M365.8 55.6a9.3 9.3 0 0 1-5.6-1.5 8.7 8.7 0 0 1-2.9-3.7 13.2 13.2 0 0 1-.8-4.4 9.5 9.5 0 0 1 .5-3.3 4.9 4.9 0 0 1 1.4-1.7l1.6-.8a2.3 2.3 0 0 0 1.1-.7 36 36 0 0 0 3.9-4.7 33 33 0 0 0 3.2-5.5v-.8a6.6 6.6 0 0 1 .9-3.9 2.9 2.9 0 0 1 2.1-1.1 1.2 1.2 0 0 1 1.3 1.1 9 9 0 0 1-.2 1.1 9.2 9.2 0 0 0-.2 1.9 14.8 14.8 0 0 0 1 5.1c.6 1.8 1.3 3.8 1.9 5.8a19.5 19.5 0 0 1 1 6.4c0 .5-.1 1.1-.1 1.7l-.3 1.6a10.8 10.8 0 0 0 4.6-2.4 17.8 17.8 0 0 0 4.3-5.8l.7.8a12.9 12.9 0 0 1-4.1 6.1 12.8 12.8 0 0 1-6 2.8 8.7 8.7 0 0 1-3.7 4.5 11.3 11.3 0 0 1-5.6 1.4m-.1-2.7a4.9 4.9 0 0 0 2.4-.7 4.3 4.3 0 0 0 2.1-2.7 11.5 11.5 0 0 1-5.3-2.3 12.8 12.8 0 0 1-3.5-3.5c-1 .1-1.5.8-1.5 2.3a8 8 0 0 0 1.5 4.7 5.1 5.1 0 0 0 4.3 2.2m4.9-4.8.3-1.4v-1.6a24.8 24.8 0 0 0-.8-6.6c-.5-2.3-1-4.4-1.5-6.4q-1.5 2.5-3.3 5.1a39 39 0 0 1-3.4 4.1 13.9 13.9 0 0 0 3.3 4.1 12.5 12.5 0 0 0 5.4 2.7M414.4 53.8a6 6 0 0 1-4-1.3 4.5 4.5 0 0 1-1.5-3.5 10.5 10.5 0 0 1 1-4.5l2-4.7a11.3 11.3 0 0 0 .9-4.1 4.2 4.2 0 0 0-1.2-3.2 19 19 0 0 0-2.7-2 82 82 0 0 1-3.4 7.9l-3 5.8-.8-1.5 2.6-5.4a81 81 0 0 0 3.2-8.1 2.1 2.1 0 0 1-.7-1.8 5.3 5.3 0 0 1 1.2-3.5c.8-.9 1.4-1.4 1.9-1.4s.9.2 1 .7a9 9 0 0 1 .2 1.1 3.8 3.8 0 0 1-.4 1.4 11 11 0 0 1-.4 1.3 3.2 3.2 0 0 0 1.2 1.8l2.6 1.8a12.3 12.3 0 0 1 2.6 2.5 6.6 6.6 0 0 1 1.1 3.8 11.9 11.9 0 0 1-.9 4.4c-.6 1.5-1.2 2.8-1.8 4.1a8.6 8.6 0 0 0-.9 3.5q0 1.2.6 1.5a2.3 2.3 0 0 0 1.4.4 7 7 0 0 0 3.6-1 21 21 0 0 0 3.6-2.7 25 25 0 0 0 3.1-3.5 15.7 15.7 0 0 0 2-3.4l1.3.9a29 29 0 0 1-3.9 6 20.3 20.3 0 0 1-5.4 4.8 10.9 10.9 0 0 1-6.1 1.9" class="cls-1"/><path d="M432.4 53.9a5.4 5.4 0 0 1-4.4-1.8 7.2 7.2 0 0 1-1.4-4.4 17.6 17.6 0 0 1 .6-4.1 40 40 0 0 1 1.6-5.3 35.6 35.6 0 0 1 2.4-5.2 16.5 16.5 0 0 1 2.9-4 4.1 4.1 0 0 1 3-1.6 2.1 2.1 0 0 1 1.2.4 1.5 1.5 0 0 1 .5 1.3 5.6 5.6 0 0 1-1.1 2.8l-2.6 4.5a42 42 0 0 0-2.6 5.2 14.3 14.3 0 0 0-1.1 5.2c0 1.7.3 2.8.8 3.3a3.4 3.4 0 0 0 2.6.9c1.6 0 3.4-.9 5.3-2.5s3.8-4.5 5.9-8.6l.7.9a22.1 22.1 0 0 1-6.1 9.6 12.6 12.6 0 0 1-8.2 3.4m8.6-32.8a4 4 0 0 1-2.2-.6 2.1 2.1 0 0 1-1-1.9 3.4 3.4 0 0 1 1.8-2.8 7.2 7.2 0 0 1 3.6-1.1 3.6 3.6 0 0 1 1.9.5 2.1 2.1 0 0 1 .8 1.9 3.6 3.6 0 0 1-1.6 2.7 4.8 4.8 0 0 1-3.3 1.3" class="cls-1"/><path d="M447.5 72.1a6 6 0 0 1-3.1-1 3.9 3.9 0 0 1-1.3-3.3 6.7 6.7 0 0 1 1.3-4.1 14.2 14.2 0 0 1 3.5-3.4 29.6 29.6 0 0 1 4.6-2.8l4.8-2.5a49 49 0 0 0 1.7-5c.6-1.8 1.1-3.7 1.6-5.9a33.7 33.7 0 0 1-5.5 6.2 9.4 9.4 0 0 1-5.9 2.4 4.8 4.8 0 0 1-4.2-2 8.1 8.1 0 0 1-1.5-5.1 14.7 14.7 0 0 1 1.8-7.1 21.9 21.9 0 0 1 4.9-6 27.2 27.2 0 0 1 6.3-4.1 15.7 15.7 0 0 1 6.4-1.5 5 5 0 0 1 3.1.8 1.9 1.9 0 0 1 1 1.7 1.8 1.8 0 0 1-.4 1.1l-.6.5a1.8 1.8 0 0 0-1.2-.9 4.8 4.8 0 0 0-1.8-.3 9.8 9.8 0 0 0-5.4 1.7 16.7 16.7 0 0 0-4.6 4.2 26.7 26.7 0 0 0-3.2 5.3 12.5 12.5 0 0 0-1.2 4.9 3.6 3.6 0 0 0 .7 2.5 2.1 2.1 0 0 0 1.8.9c1.3 0 3-.9 4.9-2.7a48.4 48.4 0 0 0 5.7-6.6 7.6 7.6 0 0 1 .3-1.6c.1-.4.2-1 .4-1.7a8.1 8.1 0 0 1 1.2-2.9 3.1 3.1 0 0 1 2.7-1.4h.8l.9.2a19.5 19.5 0 0 1-.7 4.2c-.5 2-1.1 4.3-1.9 7s-1.8 5.5-2.9 8.3a24.6 24.6 0 0 0 4.6-2.8 20.9 20.9 0 0 0 4.2-4.2 24.3 24.3 0 0 0 3-5.2l1 1a17.1 17.1 0 0 1-3.5 5.9 32 32 0 0 1-5.1 4.7 31.4 31.4 0 0 1-5 3 65.4 65.4 0 0 1-4.3 8.8 27.2 27.2 0 0 1-4.7 6.3 7.4 7.4 0 0 1-5.2 2.5m-.2-2.7c.9 0 2.1-.9 3.7-2.7a37.2 37.2 0 0 0 5.3-9.2 52 52 0 0 0-5.3 2.8 22.3 22.3 0 0 0-3.9 3.2 5.3 5.3 0 0 0-1.5 3.6 2.9 2.9 0 0 0 .5 1.7 1.4 1.4 0 0 0 1.2.6" class="cls-1"/><path d="M476.2 54.7c-1 0-1.7-.8-2.2-2.4a16.9 16.9 0 0 1-.8-5.3 34.5 34.5 0 0 1 1.2-8.2 74 74 0 0 1 3-10q2-5.1 4.2-10.2c1.6-3.3 3.2-6.4 4.8-9.1a44 44 0 0 1 4.7-6.5c1.4-1.7 2.7-2.5 3.8-2.5a2.1 2.1 0 0 1 2 1.6 9.1 9.1 0 0 1 .6 3.2 16.5 16.5 0 0 1-.9 4.8 37.5 37.5 0 0 1-2.5 6.1 59 59 0 0 1-3.6 6.5 52 52 0 0 1-4.6 5.7 26.5 26.5 0 0 1-5 4.2 22.5 22.5 0 0 0-1.5 4.6c-.4 1.7-.7 3.2-.9 4.7s-.2 2.9-.2 4.2v1.2c0 .3.1.7.1.9.5-1.3 1.1-2.9 1.8-4.5a35 35 0 0 1 2.3-4.8 26.5 26.5 0 0 1 2.8-4.3 15 15 0 0 1 3.5-3.2 7.4 7.4 0 0 1 4.2-1.2 5.3 5.3 0 0 1 3.4 1.1 6.4 6.4 0 0 1 1.8 2.5 11.8 11.8 0 0 1 .5 3.1 12.7 12.7 0 0 1-.7 4.4 35 35 0 0 1-1.6 3.9 10.2 10.2 0 0 0-.8 3.6 2.5 2.5 0 0 0 .6 2 2.2 2.2 0 0 0 1.5.6 5.9 5.9 0 0 0 3.7-1.6 18.3 18.3 0 0 0 4.1-4.2 27.6 27.6 0 0 0 3.6-5.7l1 1a27 27 0 0 1-3.8 6.4 17.8 17.8 0 0 1-4.8 4.7 9.8 9.8 0 0 1-5.5 1.6 5.3 5.3 0 0 1-3.9-1.3 4.9 4.9 0 0 1-1.3-3.3 11.1 11.1 0 0 1 .6-3.4l1.1-3.8a12 12 0 0 0 .5-3.6 3.7 3.7 0 0 0-.7-2.6 3.5 3.5 0 0 0-2-.7 4.5 4.5 0 0 0-3.2 1.4 12.9 12.9 0 0 0-2.6 3.7c-.8 1.5-1.5 3.1-2.2 4.8l-2 4.7a20.5 20.5 0 0 1-2 3.7 2.5 2.5 0 0 1-2.1 1.5m5.8-25.5a24.4 24.4 0 0 0 3.8-4 45 45 0 0 0 3.4-5.1c1.1-1.8 2-3.5 2.9-5.2a33 33 0 0 0 1.9-4.7 9.8 9.8 0 0 0 .7-3.1v-.3c-.1-.1-.1-.1-.1-.2s-1.1.7-2.1 1.9a53 53 0 0 0-3.4 5.2 78 78 0 0 0-3.9 7.2 75 75 0 0 0-3.2 8.3" class="cls-1"/><path d="M513.8 55.2a6.6 6.6 0 0 1-4.9-1.8c-1.2-1.2-1.7-3-1.7-5.4a30.2 30.2 0 0 1 1.1-7.7 93 93 0 0 1 3-9.4l-1.3-.3a2.8 2.8 0 0 1-1.3-.3v-1.6l1.6.2h1.7c1-2.6 2.1-5.1 3.2-7.5s2.3-4.5 3.5-6.4a22 22 0 0 1 3.3-4.5c1-1.1 1.9-1.7 2.7-1.7a2.1 2.1 0 0 1 1.1.5 1.7 1.7 0 0 1 .5 1.3 10 10 0 0 1-1.5 4c-1 1.8-2.2 4-3.7 6.5s-2.9 5.2-4.3 8h7.8l5.2-.4v1.7l-7.1.5-5.8.3h-1a69 69 0 0 0-2.8 7.6 29.8 29.8 0 0 0-1.1 7.7 7.9 7.9 0 0 0 .9 4.3 3.3 3.3 0 0 0 3 1.3 11 11 0 0 0 7.4-3.3 30.2 30.2 0 0 0 6.5-8.9l.9.7a32.5 32.5 0 0 1-4.5 7.4 20.2 20.2 0 0 1-5.8 5.2 12.8 12.8 0 0 1-6.6 2" class="cls-1"/></svg>