<svg xmlns="http://www.w3.org/2000/svg" data-name="Capa 1" viewBox="0 0 42.284 47.383"><defs><linearGradient id="a" x1="561.813" x2="553.094" y1="-357.317" y2="-307.876" gradientTransform="matrix(1 0 0 -1 -533.72 -310.308)" gradientUnits="userSpaceOnUse"><stop offset="0" stop-color="#f0353e"/><stop offset="1" stop-color="#cb112a"/></linearGradient></defs><path d="M3.831.309h18.292c13.164 0 23.019 10.2 23.019 23.529 0 13.285-9.855 23.853-23.019 23.853h-6.277c.445-.741.992-12.478 1.465-14.888.4-2.068.084-2.281 1.975-3.18a7.73 7.73 0 0 1 5.47-.584c1.464.213 2.679.343 3.94-.668a1.37 1.37 0 0 1 .574-.343c1.317-.13 2.633-.241 3.968-.343 2.346-.769 2.262-1.353 3.023-3.393a3.56 3.56 0 0 0-2.207-4.506c-1.177-.426-2.364-.871-3.569-1.2s-.927-1.984-1.085-3.338c-.232-.445-3.708-2.2-4.413-2.837s-.843.3-1.733-1.3c-.288-.5-.056-1.112-.074-1.7 0-.844.519-1.539-.529-1.511-.76 0-.63.343-1.075.927-.343.454-.77.927-1.1 1.3h-.158a21 21 0 0 1-.158-.872c-.185-.741-.241-.8-.927-.769-.927.055-.676 0-1.288.686-1.447 1.752-1.651 1.594-2.707 3.977-.39.927-.075.769-.992 1.27-2 1.3-5.47 3.5-7.046 5.275-1.919 2.151-2.893 4.988-4.339 6.36V1.264a.93.93 0 0 1 .924-.928Z" style="fill-rule:evenodd;fill:url(#a)" transform="translate(-2.858 -.309)"/></svg>