<svg xmlns="http://www.w3.org/2000/svg" data-name="Capa 1" viewBox="0 0 297.68 51.133"><defs><linearGradient id="a" x1="560.91" x2="551.505" y1="-354.964" y2="-301.633" gradientTransform="matrix(1 0 0 -1 -533.72 -304.59)" gradientUnits="userSpaceOnUse"><stop offset="0" stop-color="#f0353e"/><stop offset="1" stop-color="#cb112a"/></linearGradient></defs><path d="M1.02 0h19.73c14.2 0 24.83 11 24.83 25.38 0 14.33-10.63 25.73-24.83 25.73h-6.77c.48-.8 1.07-13.46 1.58-16.06.43-2.23.09-2.46 2.13-3.43a8.34 8.34 0 0 1 5.9-.63c1.58.23 2.89.37 4.25-.72a1.5 1.5 0 0 1 .62-.37c1.42-.14 2.84-.26 4.28-.37 2.53-.83 2.44-1.46 3.26-3.66a3.84 3.84 0 0 0-2.38-4.86c-1.27-.46-2.55-.94-3.85-1.29s-1-2.14-1.17-3.6c-.25-.48-4-2.37-4.76-3.06s-.91.32-1.87-1.4c-.31-.54-.06-1.2-.08-1.83 0-.91.56-1.66-.57-1.63-.82 0-.68.37-1.16 1-.37.49-.83 1-1.19 1.4h-.17c-.06-.29-.12-.63-.17-.94-.2-.8-.26-.86-1-.83-1 .06-.73 0-1.39.74-1.56 1.89-1.78 1.72-2.92 4.29-.42 1-.08.83-1.07 1.37-2.16 1.4-5.9 3.78-7.6 5.69-2.07 2.32-3.12 5.38-4.68 6.86V1.03a1 1 0 0 1 1-1Z" style="fill-rule:evenodd;fill:url(#a)" transform="translate(.03)"/><path d="M281.28 38.41c-3.72 0-6.55-1-8.56-3s-3-4.86-3-8.52a18.4 18.4 0 0 1 .28-3.34l-4.42 14.49h-8.81l-5.53-18.21v18.21h-6.96v-.45a11.7 11.7 0 0 1-4.51.94c-2.77 0-4.81-.57-6.12-1.69a7.46 7.46 0 0 1-2.46-4.17 35.6 35.6 0 0 1-.46-6.49v-5.12h-1.22c0 .34.06.72.06 1.06v15.92h-4.29l-1.5-1.54a6.72 6.72 0 0 1-5.25 1.94c-2.86 0-5-.68-6.46-2.08a6.9 6.9 0 0 1-2.18-5.21 8.2 8.2 0 0 1 .25-2.14h-13.92a5.24 5.24 0 0 0 .68 2.31 2.55 2.55 0 0 0 1.5 1 10.4 10.4 0 0 0 2.69.26 18.3 18.3 0 0 0 3.72-.34 11.2 11.2 0 0 0 2.57-.83l2.24 4a12.8 12.8 0 0 1-8.92 3 10.93 10.93 0 0 1-8.17-3c-2-2-2.92-4.89-2.92-8.52a14.95 14.95 0 0 1 1-5.91 8.6 8.6 0 0 0-2.61-.49 4.73 4.73 0 0 0-3.6 1.26 6.33 6.33 0 0 0-1.16 4.26v12h-6.92V15.49h5.64l.8 2a6.93 6.93 0 0 1 5.87-2.6 8.2 8.2 0 0 1 3.45.8l-.48 3.41c.29-.38.57-.75.88-1.09a10.7 10.7 0 0 1 8.17-3.12c3.49 0 6 1 7.71 3s2.57 5 2.6 8.78v.43a.6.6 0 0 0 .2-.23 6.6 6.6 0 0 1 3.09-2 31 31 0 0 1 4.42-.89 18.6 18.6 0 0 0 3.26-.65 1.3 1.3 0 0 0 1-1.29 1.25 1.25 0 0 0-1-1.26 8 8 0 0 0-2.07-.28 14.2 14.2 0 0 0-5.07 1.42l-1.79-5.2a30 30 0 0 1 3.89-1.34 14.1 14.1 0 0 1 3.54-.52 11.22 11.22 0 0 1 6.61 1.78 5.1 5.1 0 0 1 1.27 1.23v-2.38h2.38v-7h6.89v7h5.5v5.49h-5.5v5.12a23 23 0 0 0 .26 4 3.35 3.35 0 0 0 .87 2 2.45 2.45 0 0 0 1.82.58 6.42 6.42 0 0 0 3.71-1.32V15.49h12.84l4.05 14.32 4.15-14.32h7.17l-1.64 5.41a9.6 9.6 0 0 1 1.9-2.92c2-2.09 4.84-3.12 8.56-3.12s6.55 1 8.59 3.12 3 5 3 8.83-1 6.52-3 8.52-4.91 3-8.59 3Zm-215.49-6.4a19.8 19.8 0 0 0 5.16-.54 5.34 5.34 0 0 0 3.17-2.66c.82-1.43 1.22-3.58 1.22-6.49s-.4-5-1.19-6.29a4.62 4.62 0 0 0-3-2.35 27.3 27.3 0 0 0-5.28-.4h-2.29v18.73Zm27.41.57a4.52 4.52 0 0 0 3.54-1.31c.77-.89 1.16-2.35 1.16-4.41 0-2.23-.39-3.8-1.16-4.74a4.42 4.42 0 0 0-3.54-1.37 4.25 4.25 0 0 0-3.49 1.42 7.7 7.7 0 0 0-1.16 4.69 6.83 6.83 0 0 0 1.16 4.38 4.4 4.4 0 0 0 3.49 1.34m20.63-4.4a5.5 5.5 0 0 0 3.09-.75 3.12 3.12 0 0 0 1.11-2.77c0-1.57-.37-2.6-1.08-3.14a5.25 5.25 0 0 0-3.12-.77 4 4 0 0 0-2.69.8 3.92 3.92 0 0 0-1 3.11 3.34 3.34 0 0 0 1 2.75 4.34 4.34 0 0 0 2.69.77m22.24 10.23c-3.72 0-6.55-1-8.57-3a11.23 11.23 0 0 1-3-7.86 7.1 7.1 0 0 1-2.38 4.35c-1.76 1.43-4.57 2.14-8.37 2.14h-.85a1.5 1.5 0 0 0-.62.31.56.56 0 0 0-.28.46c0 .26.2.43.59.6a6 6 0 0 0 1.9.2 39.7 39.7 0 0 1 6.12.4 6.9 6.9 0 0 1 3.89 2 7.4 7.4 0 0 1 1.56 5.12q0 8-11.94 8a17 17 0 0 1-6.94-1.34 7.9 7.9 0 0 1-4.23-3.86l4.94-3.23a5 5 0 0 0 2.52 1.94 11.3 11.3 0 0 0 4.08.66c3.18 0 4.76-.74 4.76-2.2a1.52 1.52 0 0 0-.65-1.43 3.66 3.66 0 0 0-1.84-.37h-1.13a11 11 0 0 1-1.14.05 13.5 13.5 0 0 1-6-1.14 4.32 4.32 0 0 1-2.27-4.23 3.82 3.82 0 0 1 1.22-3.06 6.33 6.33 0 0 1-3.09-2.74 10 10 0 0 1-2.69 5.14c-2 2-4.91 3-8.59 3s-6.55-1-8.56-3a10.7 10.7 0 0 1-2.89-6.54 12.5 12.5 0 0 1-1.31 3.2 10.36 10.36 0 0 1-6 4.69 34.7 34.7 0 0 1-10.4 1.28h-7.57V7.12h7.68a37.8 37.8 0 0 1 10.4 1.14 10.25 10.25 0 0 1 5.87 4.46c1.25 2.06 1.93 5 2 8.83a10.2 10.2 0 0 1 2.16-3.57c2-2.09 4.85-3.12 8.56-3.12s6.55 1 8.59 3.12a10.3 10.3 0 0 1 1.93 2.89 8.7 8.7 0 0 1 .68-2 6.25 6.25 0 0 1 3.37-3.08 16.1 16.1 0 0 1 6.06-.95 23 23 0 0 1 4.4.4 9 9 0 0 1 3.29-3.48 8 8 0 0 1 4.25-1.23 6.6 6.6 0 0 1 1.64.17l1 5.63a6.6 6.6 0 0 0-1.87-.29 5.23 5.23 0 0 0-3.85 1.63 9.44 9.44 0 0 1 2.09 6.06 10.9 10.9 0 0 1 2.72-5.77c2-2.09 4.85-3.12 8.57-3.12s6.57 1 8.58 3.12 3 5 3 8.83-1 6.52-3 8.52-4.87 3-8.58 3Zm0-5.83a4.55 4.55 0 0 0 3.54-1.31c.79-.89 1.19-2.35 1.19-4.41 0-2.23-.4-3.8-1.19-4.74a4.45 4.45 0 0 0-3.54-1.37 4.28 4.28 0 0 0-3.49 1.42 7.63 7.63 0 0 0-1.14 4.69 6.78 6.78 0 0 0 1.14 4.38 4.43 4.43 0 0 0 3.49 1.34m30.86-26a18 18 0 0 1 5.14.69 13.5 13.5 0 0 1 3.77 1.69l-1.31 5.77a17.8 17.8 0 0 0-3.54-1.46 14 14 0 0 0-4.06-.6 10.4 10.4 0 0 0-4.56.86 5.45 5.45 0 0 0-2.69 3 20 20 0 0 0 0 12.12 5.4 5.4 0 0 0 2.66 2.92 11 11 0 0 0 4.59.83 13.5 13.5 0 0 0 4.8-.75 15.8 15.8 0 0 0 3.34-1.74l1 6.09a17.7 17.7 0 0 1-9.13 2.49q-7 0-11.14-3.86-4.155-3.87-4.16-12c0-5.42 1.39-9.46 4.19-12.09s6.49-3.95 11.11-3.95Zm80.76 6.18a5.45 5.45 0 0 0 3.35-.92 3.19 3.19 0 0 0 1.16-2.66c0-2.51-1.5-3.8-4.51-3.8a5.07 5.07 0 0 0-3.26 1 3.54 3.54 0 0 0-1.13 2.83 3.18 3.18 0 0 0 1.16 2.66 5.13 5.13 0 0 0 3.23.92Zm-47 8a4.66 4.66 0 0 0-2.84.74 4.12 4.12 0 0 0-1.45 2.43h7.8a4.1 4.1 0 0 0-1-2.52 3.93 3.93 0 0 0-2.55-.65Zm18.4 11.65a4.62 4.62 0 0 0 3.35-.95 3.4 3.4 0 0 0 1-2.11v-1.74a20 20 0 0 1-2 .35 20.2 20.2 0 0 0-3.85 1 1.65 1.65 0 0 0-1.22 1.63 1.52 1.52 0 0 0 .91 1.37 3.9 3.9 0 0 0 1.81.49Zm62.14.11a4.52 4.52 0 0 0 3.54-1.31c.79-.89 1.16-2.35 1.16-4.41 0-2.23-.37-3.8-1.16-4.74a4.42 4.42 0 0 0-3.54-1.37 4.28 4.28 0 0 0-3.49 1.42 7.7 7.7 0 0 0-1.16 4.69 6.83 6.83 0 0 0 1.16 4.38 4.43 4.43 0 0 0 3.49 1.34" style="fill:#fff" transform="translate(.03)"/><path d="M294.15 10.41a3.45 3.45 0 1 1-3.4 3.5v-.04a3.44 3.44 0 0 1 3.4-3.46m0 .66a2.8 2.8 0 1 1-2.77 2.83v-.03a2.8 2.8 0 0 1 2.77-2.8m-.19 3.4h-.29v1.06h-.76v-3.34h1a2.5 2.5 0 0 1 .73.08.79.79 0 0 1 .51.32 1.23 1.23 0 0 1-.361 1.7 1 1 0 0 1-.119.068l1 1.17h-.9Zm.65-1.14c0-.17 0-.26-.06-.34a.43.43 0 0 0-.23-.12 1.1 1.1 0 0 0-.36 0h-.29v1h.29a1.2 1.2 0 0 0 .36 0 .6.6 0 0 0 .23-.15 1 1 0 0 0 .06-.31Z" style="fill-rule:evenodd;fill:#fff" transform="translate(.03)"/></svg>