<svg xmlns="http://www.w3.org/2000/svg" data-name="Capa 1" viewBox="0 0 297.584 40.827"><path d="M19.228 40.872a10 10 0 0 1-3.246-.612 38 38 0 0 1-3.654-1.49q-1.878-.879-3.715-1.7a8.7 8.7 0 0 1-2.123 1.782 4.76 4.76 0 0 1-2.409.632 3.9 3.9 0 0 1-2.225-.612 4.3 4.3 0 0 1-1.388-1.449A3.1 3.1 0 0 1 0 35.933a1.57 1.57 0 0 1 .673-1.266 3.8 3.8 0 0 1 2.307-.531 12.7 12.7 0 0 1 2.347.245q1.287.244 2.674.612a26 26 0 0 0 1.817-4q.837-2.286 1.654-4.858t1.628-5.146a6.73 6.73 0 0 1-2.96-1.8 3.74 3.74 0 0 1-1.082-2.572 3.8 3.8 0 0 1 .306-1.47 3.4 3.4 0 0 1 .878-1.245 1.96 1.96 0 0 1 1.347-.51 2.85 2.85 0 0 0-.408 1.184 9 9 0 0 0-.122 1.347 4.8 4.8 0 0 0 .653 2.593 4.6 4.6 0 0 0 1.674 1.612q.816-2.45 1.694-4.634a25.3 25.3 0 0 1 1.939-3.9A10 10 0 0 1 19.351 8.9a4.48 4.48 0 0 1 2.816-.98 4.7 4.7 0 0 1 1.736.367 3.6 3.6 0 0 1 1.572 1.266 4.25 4.25 0 0 1 .653 2.531 9 9 0 0 1-.572 3 10.2 10.2 0 0 1-1.756 3.068 9.1 9.1 0 0 1-3.022 2.368 9.9 9.9 0 0 1-4.327.959h-.776q-.818 2.492-1.735 5.063T12 31.421a28 28 0 0 1-2.2 4.1q1.877.573 3.8 1.165t3.715.979a15.7 15.7 0 0 0 3.307.389 6.8 6.8 0 0 0 1.551-.164 6.2 6.2 0 0 0 1.348-.49 5.44 5.44 0 0 1-1.735 2.674 4.2 4.2 0 0 1-2.558.798M3.918 38.3a3.2 3.2 0 0 0 1.694-.489 5.2 5.2 0 0 0 1.45-1.389 23 23 0 0 0-2.471-.878 8 8 0 0 0-2.184-.344 1.96 1.96 0 0 0-1.061.2.66.66 0 0 0-.286.572 2.29 2.29 0 0 0 .8 1.51 2.76 2.76 0 0 0 2.058.818m12-17.6a5.7 5.7 0 0 0 3.328-1.041 9.7 9.7 0 0 0 2.534-2.609 13.8 13.8 0 0 0 1.592-3.2 9.1 9.1 0 0 0 .551-2.858 2.22 2.22 0 0 0-.449-1.613 1.44 1.44 0 0 0-1.021-.429 3.01 3.01 0 0 0-2.368 1.634 20.8 20.8 0 0 0-2.1 4.307q-1.004 2.67-2.064 5.809ZM30.087 39.117a4.514 4.514 0 0 1-4.981-4.736 9.5 9.5 0 0 1 .919-3.879 16 16 0 0 1 2.45-3.837 14.1 14.1 0 0 1 3.368-2.92 6.94 6.94 0 0 1 3.634-1.122 3.25 3.25 0 0 1 1.735.489 2.17 2.17 0 0 1 .8 2 5.14 5.14 0 0 1-.919 2.919 9.5 9.5 0 0 1-2.408 2.429 14.4 14.4 0 0 1-3.27 1.74 13.4 13.4 0 0 1-3.532.837c-.055.273-.1.531-.123.777a6 6 0 0 0-.04.693 5.4 5.4 0 0 0 .142 1.226 3.1 3.1 0 0 0 .511 1.122 2.43 2.43 0 0 0 1 .8 3.8 3.8 0 0 0 1.572.287 6.83 6.83 0 0 0 3.47-1A13.3 13.3 0 0 0 37.6 34.3a17.2 17.2 0 0 0 2.49-3.593l.49.368a15.2 15.2 0 0 1-2.8 4.245 13.3 13.3 0 0 1-3.675 2.8 8.8 8.8 0 0 1-4.018.997m-2-6.859a19 19 0 0 0 5.164-2.777 10 10 0 0 0 2.124-2.163 4.25 4.25 0 0 0 .836-2.491 1.25 1.25 0 0 0-.163-.694.79.79 0 0 0-.694-.245 3.73 3.73 0 0 0-2.082.756 10.6 10.6 0 0 0-2.123 1.98 17.3 17.3 0 0 0-1.837 2.694 13.5 13.5 0 0 0-1.225 2.94" style="fill:#f0353e" transform="translate(.001 -7.925)"/><path d="M42.744 39.2a3.48 3.48 0 0 1-2.695-1.02 4.32 4.32 0 0 1-.939-3.022 18.4 18.4 0 0 1 .674-4.429 56 56 0 0 1 1.694-5.41q-.408-.081-.776-.143a4 4 0 0 1-.694-.183v-.736q.326.042.776.082c.45.04.639.055 1.021.082q.856-2.2 1.837-4.267t1.939-3.674a16 16 0 0 1 1.837-2.572q.878-.959 1.491-.96a.9.9 0 0 1 .591.225.83.83 0 0 1 .266.674 5.7 5.7 0 0 1-.857 2.265q-.858 1.573-2.123 3.736t-2.45 4.7h1.511q1.347 0 2.837-.042t3-.2v.735q-2.245.246-4.021.368t-3.164.122h-.613a36 36 0 0 0-1.593 4.451 16.2 16.2 0 0 0-.652 4.45 4.5 4.5 0 0 0 .53 2.511 2 2 0 0 0 1.756.755 6.16 6.16 0 0 0 4.164-1.878 16.7 16.7 0 0 0 3.593-5.1l.531.408a17.3 17.3 0 0 1-2.47 4.124 12.4 12.4 0 0 1-3.287 2.9 7.2 7.2 0 0 1-3.714 1.048M56.747 13.8a3 3 0 0 1-.531-.49.98.98 0 0 1-.245-.653 2.65 2.65 0 0 1 .572-1.368l1.184-1.735a5.7 5.7 0 0 0 .816-1.633.93.93 0 0 1 .715.347 1.17 1.17 0 0 1 .306.8 2.8 2.8 0 0 1-.49 1.347 20 20 0 0 1-1.163 1.715q-.675.898-1.164 1.67M59.483 39.4a5 5 0 0 1-3.042-.837 4.6 4.6 0 0 1-1.592-2.063 6.8 6.8 0 0 1-.469-2.45 4.3 4.3 0 0 1 .327-1.878 2.55 2.55 0 0 1 .8-.98 4.3 4.3 0 0 1 .9-.49 1.7 1.7 0 0 0 .592-.326 28 28 0 0 0 2.245-2.817 22 22 0 0 0 1.8-3.1v-.49a3.46 3.46 0 0 1 .51-2.144 1.42 1.42 0 0 1 1.082-.633.67.67 0 0 1 .49.164.5.5 0 0 1 .163.367 2.9 2.9 0 0 1-.122.653 4.4 4.4 0 0 0-.123 1.144 9.2 9.2 0 0 0 .531 2.919q.529 1.572 1.061 3.307a12.3 12.3 0 0 1 .531 3.613A9 9 0 0 1 65.1 34.4a6.6 6.6 0 0 1-.184.959 5.73 5.73 0 0 0 2.7-1.286 10.6 10.6 0 0 0 2.45-3.327l.367.408a6.95 6.95 0 0 1-2.333 3.41 7.5 7.5 0 0 1-3.389 1.45 4.76 4.76 0 0 1-2.062 2.572 6.2 6.2 0 0 1-3.166.814m.082-1.428a3.8 3.8 0 0 0 1.306-.328 2.49 2.49 0 0 0 1.266-1.673 7.1 7.1 0 0 1-3.037-1.345 8.4 8.4 0 0 1-1.98-2.042q-.9.04-.9 1.43a4.6 4.6 0 0 0 .878 2.715 2.85 2.85 0 0 0 2.467 1.245Zm2.776-2.655a8 8 0 0 0 .122-.856q.04-.45.041-1.062a15.9 15.9 0 0 0-.469-3.817q-.469-1.9-.8-3.573-.94 1.552-1.98 2.96a21 21 0 0 1-1.981 2.347 7.65 7.65 0 0 0 1.9 2.451 6.85 6.85 0 0 0 3.167 1.552ZM82.3 38.545a3.2 3.2 0 0 1-1.4-.345 2.8 2.8 0 0 1-1.184-1.123 3.73 3.73 0 0 1-.47-1.96A8.4 8.4 0 0 1 79.9 32.1a17.4 17.4 0 0 1 1.755-3.328 19.4 19.4 0 0 1 2.531-3.062 13.2 13.2 0 0 1 2.981-2.246 6.4 6.4 0 0 1 3.062-.836 2.43 2.43 0 0 1 1.327.306 1.07 1.07 0 0 1 .469.959 2 2 0 0 1-.02.286 4 4 0 0 1-.062.286 1.14 1.14 0 0 0-.591-.47 2.8 2.8 0 0 0-.96-.143 4.7 4.7 0 0 0-2.552.8 9.6 9.6 0 0 0-2.286 2.082 17.6 17.6 0 0 0-3.021 5.593 8 8 0 0 0-.429 2.307 2.3 2.3 0 0 0 .408 1.429 1.28 1.28 0 0 0 1.062.53 4.46 4.46 0 0 0 2.67-1.393 18.9 18.9 0 0 0 3.2-3.919 32.5 32.5 0 0 0 2.94-5.92q.9-2.367 1.857-4.817t1.94-4.716q.979-2.266 1.9-4.042a17 17 0 0 1 1.755-2.817q.837-1.041 1.491-1.041a.75.75 0 0 1 .571.265.96.96 0 0 1 .245.674 6.8 6.8 0 0 1-.673 2.225q-.675 1.572-1.756 3.756T97.451 19.6q-1.183 2.572-2.266 5.226a45 45 0 0 0-1.755 5.124 17.2 17.2 0 0 0-.674 4.512 9 9 0 0 0 .122 1.714.72.72 0 0 0 .817.572 3.86 3.86 0 0 0 2-.735 10.6 10.6 0 0 0 2.286-2.082 13.8 13.8 0 0 0 2-3.226l.491.368a13.2 13.2 0 0 1-2.122 3.737 12 12 0 0 1-2.879 2.613 5.53 5.53 0 0 1-2.919.959 2.24 2.24 0 0 1-2.1-1 4 4 0 0 1-.592-2.063 11 11 0 0 1 .2-1.837q.2-1.142.571-2.531a30 30 0 0 1-2.776 3.9 15.4 15.4 0 0 1-2.878 2.714 4.73 4.73 0 0 1-2.677.98" style="fill:#f0353e" transform="translate(.001 -7.925)"/><path d="M102.023 38.627a2.79 2.79 0 0 1-2.49-1.082 4.58 4.58 0 0 1-.735-2.634 9 9 0 0 1 .409-2.612 12.2 12.2 0 0 1 1.082-2.531 7.4 7.4 0 0 1 1.51-1.919 2.57 2.57 0 0 1 1.694-.736 1.6 1.6 0 0 1 .429.062 4 4 0 0 1 .429.143 5.2 5.2 0 0 0-.878 1.2 15 15 0 0 0-.959 2 21 21 0 0 0-.756 2.226 7.2 7.2 0 0 0-.306 1.878 3.02 3.02 0 0 0 .408 1.775 1.26 1.26 0 0 0 1.062.552 3.58 3.58 0 0 0 2.041-.919 14 14 0 0 0 2.328-2.347 6.2 6.2 0 0 1-1.777-2.47 8.1 8.1 0 0 1-.633-3.123 6.8 6.8 0 0 1 .47-2.532 4.47 4.47 0 0 1 1.368-1.9 3.37 3.37 0 0 1 2.164-.715 2.47 2.47 0 0 1 2.245.9 4.1 4.1 0 0 1 .572 2.246 9.6 9.6 0 0 1-.776 3.531 21 21 0 0 1-1.96 3.736 3.14 3.14 0 0 0 1.552.409 4.8 4.8 0 0 0 1.469-.266 5 5 0 0 0 1.613-.919 4.7 4.7 0 0 0 1.286-1.755l.49.408a5.25 5.25 0 0 1-2.307 2.715 6.04 6.04 0 0 1-2.837.8 5 5 0 0 1-1.021-.1 4.4 4.4 0 0 1-.939-.306 15.1 15.1 0 0 1-3.041 3.062 5.42 5.42 0 0 1-3.206 1.223m6-6a17.3 17.3 0 0 0 1.695-3.164 8.3 8.3 0 0 0 .673-3.123 3.35 3.35 0 0 0-.347-1.735 1.02 1.02 0 0 0-.878-.552q-.816 0-1.673 1.184a4.95 4.95 0 0 0-.858 2.981 8.6 8.6 0 0 0 .347 2.388 5.36 5.36 0 0 0 1.043 2.019ZM128.193 39.2a3.48 3.48 0 0 1-2.694-1.02 4.32 4.32 0 0 1-.939-3.022 15 15 0 0 1 .347-2.939q.347-1.714.939-3.654t1.286-3.777a3 3 0 0 1-.776-.265 7 7 0 0 0-.694-.306v-.737a3.7 3.7 0 0 1 .776.2 3.8 3.8 0 0 0 1.02.2 56 56 0 0 1 2.43-5.43 25.6 25.6 0 0 1 2.47-4q1.183-1.511 2-1.511a.9.9 0 0 1 .592.225.83.83 0 0 1 .266.674 3.3 3.3 0 0 1-.327 1.163 20 20 0 0 1-.9 1.776q-.573 1.022-1.266 2.246t-1.47 2.613q-.775 1.388-1.469 2.9 1.02.162 1.98.285a16 16 0 0 0 1.98.123 18 18 0 0 0 2.368-.164q1.264-.162 2.9-.49 1.06-2.9 2.388-5.756t2.695-5.206a24 24 0 0 1 2.612-3.756q1.246-1.408 2.144-1.408a1.09 1.09 0 0 1 1.041.877 5.1 5.1 0 0 1 .306 1.7 10 10 0 0 1-.714 3.368 24.4 24.4 0 0 1-1.94 4 23.7 23.7 0 0 1-2.837 3.838 15.8 15.8 0 0 1-3.409 2.878 25 25 0 0 0-1.164 3.593 29 29 0 0 0-.714 4.021 15 15 0 0 0-.041 3.288 42 42 0 0 1 2.205-5.227 14.3 14.3 0 0 1 2.756-3.878 4.73 4.73 0 0 1 3.327-1.47 2.58 2.58 0 0 1 2.389 1.163 4.73 4.73 0 0 1 .714 2.511 7.1 7.1 0 0 1-.429 2.45q-.428 1.184-.878 2.286a5.6 5.6 0 0 0-.449 2.124 1.69 1.69 0 0 0 .347 1.183 1.16 1.16 0 0 0 .878.367 3.6 3.6 0 0 0 2.1-.9 13 13 0 0 0 2.308-2.389 17.3 17.3 0 0 0 1.959-3.246l.532.49a17.2 17.2 0 0 1-2.082 3.614 10.5 10.5 0 0 1-2.7 2.551 5.6 5.6 0 0 1-3.062.939 2.8 2.8 0 0 1-2.1-.735 2.53 2.53 0 0 1-.715-1.836 6.6 6.6 0 0 1 .327-1.919q.325-1.062.632-2.164a7.8 7.8 0 0 0 .307-2.083 2.1 2.1 0 0 0-.449-1.51 1.5 1.5 0 0 0-1.1-.449 2.54 2.54 0 0 0-1.837.816 8.6 8.6 0 0 0-1.49 2.1q-.674 1.287-1.266 2.715t-1.123 2.715a13 13 0 0 1-1.061 2.1q-.531.816-1.1.816a1.05 1.05 0 0 1-.817-.449 3.4 3.4 0 0 1-.592-1.266 8.3 8.3 0 0 1-.265-1.9 13.5 13.5 0 0 1 .122-2.307 14.9 14.9 0 0 1-3.817 4.49 7.66 7.66 0 0 1-4.757 1.771m1.184-1.51a6.17 6.17 0 0 0 4.165-1.878 16.7 16.7 0 0 0 3.593-5.1q.285-1.345.592-2.572t.836-2.735a20 20 0 0 1-2.633.449q-1.245.123-2.388.122a16 16 0 0 1-2.164-.142q-1.021-.144-2.042-.307a36 36 0 0 0-1.592 4.451 16.2 16.2 0 0 0-.653 4.45 4.5 4.5 0 0 0 .531 2.511 2 2 0 0 0 1.755.749Zm12.453-14.455a16 16 0 0 0 2.674-2.756 30 30 0 0 0 2.225-3.307 22 22 0 0 0 1.531-3.144 6.9 6.9 0 0 0 .551-2.225q0-.326-.163-.326-.287 0-1.1.9a20.4 20.4 0 0 0-1.857 2.49 32 32 0 0 0-2.062 3.736 35 35 0 0 0-1.799 4.632" style="fill:#f0353e" transform="translate(.001 -7.925)"/><path d="M158.772 38.382a2.81 2.81 0 0 1-2.368-1 3.85 3.85 0 0 1-.775-2.43 10.4 10.4 0 0 1 .347-2.368 28 28 0 0 1 .919-3 21.5 21.5 0 0 1 1.327-2.96 10.2 10.2 0 0 1 1.612-2.266 2.42 2.42 0 0 1 1.674-.878.95.95 0 0 1 .633.225.83.83 0 0 1 .265.673 3.9 3.9 0 0 1-.633 1.592q-.633 1.1-1.49 2.532a21.4 21.4 0 0 0-1.49 3 8 8 0 0 0-.633 3 2.84 2.84 0 0 0 .49 1.96 2.06 2.06 0 0 0 1.511.49 4.63 4.63 0 0 0 2.96-1.389 16.6 16.6 0 0 0 3.327-4.858l.367.408a11.77 11.77 0 0 1-3.409 5.39 7.12 7.12 0 0 1-4.634 1.879m4.9-18.7a2.1 2.1 0 0 1-1.164-.327 1.12 1.12 0 0 1-.51-1.021 1.79 1.79 0 0 1 1-1.489 3.7 3.7 0 0 1 1.981-.633 1.55 1.55 0 0 1 .979.286 1.17 1.17 0 0 1 .367.98 2 2 0 0 1-.837 1.489 2.74 2.74 0 0 1-1.816.716Z" style="fill:#f0353e" transform="translate(.001 -7.925)"/><path d="M178.859 38.137a2.86 2.86 0 0 1-2.143-.735 2.58 2.58 0 0 1-.716-1.879 5.8 5.8 0 0 1 .307-1.8q.306-.939.591-1.94a7 7 0 0 0 .287-1.939 2.1 2.1 0 0 0-.47-1.572 1.66 1.66 0 0 0-1.164-.428 4.15 4.15 0 0 0-2.573 1.041 15 15 0 0 0-2.531 2.653q-1.224 1.614-2.286 3.328t-1.878 3.062a3.5 3.5 0 0 1-1.245-.225 1.96 1.96 0 0 1-.919-.674 6 6 0 0 1 .429-1.265q.429-1.06 1-2.613t1.02-3.184a11.4 11.4 0 0 0 .45-2.981 2.7 2.7 0 0 1 .775-.572 2.3 2.3 0 0 1 1.1-.285q1.1 0 1.1 1.061a11 11 0 0 1-.368 2.185q-.368 1.53-.939 3.2a38 38 0 0 1 2.47-3.327 15.3 15.3 0 0 1 2.919-2.756 5.33 5.33 0 0 1 3.1-1.1 2.51 2.51 0 0 1 2.306 1.143 4.7 4.7 0 0 1 .714 2.531 6.6 6.6 0 0 1-.408 2.348q-.409 1.083-.837 2.082a5.1 5.1 0 0 0-.429 2.02 1.67 1.67 0 0 0 .348 1.206 1.19 1.19 0 0 0 .877.346 3.02 3.02 0 0 0 2.042-.959 13.2 13.2 0 0 0 1.979-2.429 27 27 0 0 0 1.7-2.981l.449.531A20.7 20.7 0 0 1 184 34.789a9.6 9.6 0 0 1-2.327 2.449 4.75 4.75 0 0 1-2.814.899" style="fill:#f0353e" transform="translate(.001 -7.925)"/><path d="M186.249 48.752a2.66 2.66 0 0 1-1.634-.551 2.13 2.13 0 0 1-.734-1.817 3.8 3.8 0 0 1 .755-2.266 9 9 0 0 1 1.939-1.919 19 19 0 0 1 2.593-1.612q1.407-.735 2.674-1.389.571-1.43 1.082-3.082t1-3.654a20.3 20.3 0 0 1-3.245 3.735 5.18 5.18 0 0 1-3.409 1.491 2.63 2.63 0 0 1-2.266-1.1 4.76 4.76 0 0 1-.8-2.857 8.37 8.37 0 0 1 1.041-4.042 12.2 12.2 0 0 1 2.716-3.389 14 14 0 0 1 3.552-2.307 8.7 8.7 0 0 1 3.51-.837 2.86 2.86 0 0 1 1.695.388 1.13 1.13 0 0 1 .51.919.77.77 0 0 1-.2.571 1.4 1.4 0 0 1-.286.245 1.14 1.14 0 0 0-.612-.469 3.1 3.1 0 0 0-1.021-.143 5.7 5.7 0 0 0-3.083.939 10.2 10.2 0 0 0-2.632 2.409 13.8 13.8 0 0 0-1.818 3.042 7.4 7.4 0 0 0-.673 2.878 2.43 2.43 0 0 0 .388 1.49 1.24 1.24 0 0 0 1.041.511 4.6 4.6 0 0 0 2.837-1.573 24.2 24.2 0 0 0 3.2-3.817q.122-.571.225-1.021c.103-.45.156-.679.265-1.143a4.4 4.4 0 0 1 .592-1.326 1.63 1.63 0 0 1 1.49-.756q.204 0 .409.02a2.2 2.2 0 0 1 .449.1 13.3 13.3 0 0 1-.388 2.389q-.388 1.736-1.1 4.042t-1.654 4.756a14 14 0 0 0 2.633-1.673 14.8 14.8 0 0 0 2.348-2.348 11.1 11.1 0 0 0 1.673-2.879l.532.408a9.5 9.5 0 0 1-1.96 3.349 17.8 17.8 0 0 1-2.878 2.612 19 19 0 0 1-2.8 1.715 49 49 0 0 1-2.409 5 16 16 0 0 1-2.633 3.613 4.12 4.12 0 0 1-2.914 1.348m-.123-1.307q.816 0 2.226-1.612a21.3 21.3 0 0 0 3.041-5.532q-1.633.816-3.041 1.694a11 11 0 0 0-2.307 1.858 3.13 3.13 0 0 0-.9 2.164 1.7 1.7 0 0 0 .287 1.041.84.84 0 0 0 .694.387" style="fill:#f0353e" transform="translate(.001 -7.925)"/><path d="M204.866 39.4a4.98 4.98 0 0 1-3.042-.837 4.6 4.6 0 0 1-1.592-2.061 6.8 6.8 0 0 1-.469-2.45 4.3 4.3 0 0 1 .326-1.878 2.56 2.56 0 0 1 .8-.98 4.3 4.3 0 0 1 .9-.49 1.7 1.7 0 0 0 .593-.326 28 28 0 0 0 2.245-2.817 22 22 0 0 0 1.8-3.1v-.49a3.46 3.46 0 0 1 .511-2.144 1.42 1.42 0 0 1 1.082-.633.67.67 0 0 1 .49.164.5.5 0 0 1 .163.367 2.8 2.8 0 0 1-.123.653 4.5 4.5 0 0 0-.122 1.144 9.2 9.2 0 0 0 .53 2.919q.531 1.572 1.062 3.307a12.3 12.3 0 0 1 .531 3.613 9 9 0 0 1-.062 1.041 6.6 6.6 0 0 1-.183.959A5.73 5.73 0 0 0 213 34.075a10.6 10.6 0 0 0 2.45-3.327l.368.408a6.95 6.95 0 0 1-2.328 3.409 7.5 7.5 0 0 1-3.388 1.45 4.76 4.76 0 0 1-2.062 2.572 6.2 6.2 0 0 1-3.174.813m.081-1.428a3.8 3.8 0 0 0 1.307-.328 2.5 2.5 0 0 0 1.266-1.673 7.06 7.06 0 0 1-3.041-1.347 8.4 8.4 0 0 1-1.981-2.042q-.9.04-.9 1.43a4.6 4.6 0 0 0 .878 2.715 2.85 2.85 0 0 0 2.471 1.247Zm2.777-2.655a8 8 0 0 0 .123-.856q.04-.45.04-1.062a16 16 0 0 0-.469-3.817q-.471-1.9-.8-3.573-.939 1.552-1.979 2.96a21 21 0 0 1-1.981 2.347 7.6 7.6 0 0 0 1.9 2.451 6.85 6.85 0 0 0 3.166 1.552ZM232.342 38.382a3.1 3.1 0 0 1-2.185-.736 2.48 2.48 0 0 1-.8-1.917 6.6 6.6 0 0 1 .572-2.573q.57-1.347 1.123-2.675a6.3 6.3 0 0 0 .55-2.387 2.4 2.4 0 0 0-.754-1.94q-.756-.633-1.532-1.163-.94 2.409-1.96 4.572t-1.673 3.266l-.368-.693q.571-1.062 1.491-3.1t1.816-4.654a1.34 1.34 0 0 1-.408-.98 2.9 2.9 0 0 1 .694-2q.693-.774 1.021-.775a.445.445 0 0 1 .51.388 4 4 0 0 1 .061.592 2.9 2.9 0 0 1-.225.8 3.4 3.4 0 0 0-.224.714 1.31 1.31 0 0 0 .633 1.041q.632.471 1.45 1.062a6.9 6.9 0 0 1 1.449 1.429 3.46 3.46 0 0 1 .633 2.143 6.6 6.6 0 0 1-.511 2.491q-.512 1.266-1.021 2.409a5 5 0 0 0-.51 2 1.1 1.1 0 0 0 .368.979 1.5 1.5 0 0 0 .857.245 4 4 0 0 0 2.021-.612 11 11 0 0 0 2.021-1.552 16 16 0 0 0 1.755-1.979 9 9 0 0 0 1.144-1.94l.53.408a15.4 15.4 0 0 1-2.123 3.368 12.7 12.7 0 0 1-3 2.715 6.24 6.24 0 0 1-3.405 1.054" style="fill:#f0353e" transform="translate(.001 -7.925)"/><path d="M242.426 38.382a2.81 2.81 0 0 1-2.368-1 3.85 3.85 0 0 1-.776-2.43 10.4 10.4 0 0 1 .347-2.368 28 28 0 0 1 .919-3 21.6 21.6 0 0 1 1.327-2.96 10.2 10.2 0 0 1 1.612-2.266 2.42 2.42 0 0 1 1.674-.878.95.95 0 0 1 .633.225.83.83 0 0 1 .266.673 3.9 3.9 0 0 1-.633 1.592q-.635 1.1-1.49 2.532a21 21 0 0 0-1.491 3 8 8 0 0 0-.633 3 2.83 2.83 0 0 0 .491 1.96 2.06 2.06 0 0 0 1.51.49 4.62 4.62 0 0 0 2.96-1.389 16.6 16.6 0 0 0 3.328-4.858l.367.408a11.8 11.8 0 0 1-3.409 5.39 7.12 7.12 0 0 1-4.634 1.879m4.9-18.7a2.1 2.1 0 0 1-1.164-.327 1.12 1.12 0 0 1-.51-1.021 1.79 1.79 0 0 1 1-1.489 3.7 3.7 0 0 1 1.981-.633 1.55 1.55 0 0 1 .979.286 1.17 1.17 0 0 1 .368.98 2 2 0 0 1-.837 1.489 2.74 2.74 0 0 1-1.818.716Z" style="fill:#f0353e" transform="translate(.001 -7.925)"/><path d="M250.877 48.752a2.66 2.66 0 0 1-1.634-.551 2.13 2.13 0 0 1-.734-1.817 3.8 3.8 0 0 1 .755-2.266A9 9 0 0 1 251.2 42.2a19 19 0 0 1 2.593-1.612q1.407-.735 2.674-1.389.571-1.43 1.082-3.082t1-3.654a20.3 20.3 0 0 1-3.245 3.735 5.18 5.18 0 0 1-3.41 1.491 2.63 2.63 0 0 1-2.265-1.1 4.76 4.76 0 0 1-.8-2.857 8.37 8.37 0 0 1 1.041-4.042 12.2 12.2 0 0 1 2.716-3.389 14 14 0 0 1 3.552-2.307 8.7 8.7 0 0 1 3.51-.837 2.86 2.86 0 0 1 1.695.388 1.14 1.14 0 0 1 .51.919.77.77 0 0 1-.2.571 1.4 1.4 0 0 1-.286.245 1.14 1.14 0 0 0-.612-.469 3.1 3.1 0 0 0-1.021-.143 5.7 5.7 0 0 0-3.083.939 10.2 10.2 0 0 0-2.632 2.409 13.8 13.8 0 0 0-1.818 3.042 7.4 7.4 0 0 0-.673 2.878 2.43 2.43 0 0 0 .388 1.49 1.24 1.24 0 0 0 1.041.511 4.6 4.6 0 0 0 2.843-1.577 24.3 24.3 0 0 0 3.2-3.817q.122-.571.225-1.021c.103-.45.156-.679.265-1.143a4.4 4.4 0 0 1 .592-1.326 1.63 1.63 0 0 1 1.49-.756q.204 0 .408.02a2.2 2.2 0 0 1 .45.1 13.3 13.3 0 0 1-.388 2.389q-.389 1.736-1.1 4.042t-1.653 4.756a14.2 14.2 0 0 0 2.633-1.673 14.8 14.8 0 0 0 2.348-2.348 11.1 11.1 0 0 0 1.673-2.879l.532.408a9.5 9.5 0 0 1-1.96 3.349 17.8 17.8 0 0 1-2.878 2.612 19 19 0 0 1-2.8 1.715 49 49 0 0 1-2.409 5A16 16 0 0 1 253.8 47.4a4.12 4.12 0 0 1-2.923 1.352m-.123-1.307q.816 0 2.225-1.612a21.3 21.3 0 0 0 3.042-5.532q-1.634.816-3.042 1.694a11 11 0 0 0-2.306 1.858 3.13 3.13 0 0 0-.9 2.164 1.7 1.7 0 0 0 .287 1.041.84.84 0 0 0 .694.387" style="fill:#f0353e" transform="translate(.001 -7.925)"/><path d="M267.126 38.872q-.777 0-1.225-1.307a9 9 0 0 1-.449-2.939 20.2 20.2 0 0 1 .653-4.654 57 57 0 0 1 1.715-5.672q1.06-2.979 2.388-5.838a57 57 0 0 1 2.716-5.185 25 25 0 0 1 2.612-3.715q1.226-1.388 2.123-1.388a1.09 1.09 0 0 1 1.041.877 5.2 5.2 0 0 1 .307 1.7 9.6 9.6 0 0 1-.511 2.776 26 26 0 0 1-1.408 3.491 32 32 0 0 1-2.082 3.654 25 25 0 0 1-2.572 3.286 13.2 13.2 0 0 1-2.818 2.348 17.6 17.6 0 0 0-.837 2.654 25 25 0 0 0-.509 2.878 22 22 0 0 0-.165 2.511q0 .45.021.775.02.328.062.614.57-1.675 1.245-3.247a26 26 0 0 1 1.449-2.9 15 15 0 0 1 1.653-2.328 7.2 7.2 0 0 1 1.859-1.551 4.2 4.2 0 0 1 2.082-.551 2.78 2.78 0 0 1 1.816.551 3.17 3.17 0 0 1 .98 1.389 5 5 0 0 1 .306 1.734 7.1 7.1 0 0 1-.429 2.45q-.429 1.184-.878 2.286a5.6 5.6 0 0 0-.449 2.124 1.68 1.68 0 0 0 .348 1.183 1.15 1.15 0 0 0 .878.367 3.6 3.6 0 0 0 2.1-.9 13 13 0 0 0 2.307-2.389 17.3 17.3 0 0 0 1.959-3.246l.531.49a17 17 0 0 1-2.082 3.614 10.5 10.5 0 0 1-2.694 2.551 5.6 5.6 0 0 1-3.063.939 2.8 2.8 0 0 1-2.1-.735 2.53 2.53 0 0 1-.715-1.836 6.6 6.6 0 0 1 .327-1.919q.327-1.062.633-2.164a7.8 7.8 0 0 0 .306-2.083 2.08 2.08 0 0 0-.45-1.51 1.5 1.5 0 0 0-1.1-.449 2.54 2.54 0 0 0-1.838.816 8.6 8.6 0 0 0-1.49 2.1q-.673 1.287-1.266 2.715l-1.122 2.715a13 13 0 0 1-1.061 2.1q-.53.818-1.104.818m3.021-14.167a13.2 13.2 0 0 0 2.225-2.287 29 29 0 0 0 2.022-2.96q.938-1.57 1.673-3.082a23 23 0 0 0 1.143-2.735 6.5 6.5 0 0 0 .408-1.838.6.6 0 0 0-.04-.265.14.14 0 0 0-.123-.061q-.285 0-1.163 1.123a32 32 0 0 0-2.021 3 44 44 0 0 0-2.246 4.246 39 39 0 0 0-1.878 4.859" style="fill:#f0353e" transform="translate(.001 -7.925)"/><path d="M288.111 39.2a3.48 3.48 0 0 1-2.695-1.02 4.32 4.32 0 0 1-.938-3.022 18.5 18.5 0 0 1 .673-4.429 56 56 0 0 1 1.695-5.41q-.41-.081-.777-.143a3.8 3.8 0 0 1-.693-.183v-.736q.326.042.775.082c.449.04.639.055 1.021.082q.856-2.2 1.837-4.267t1.939-3.674a16 16 0 0 1 1.838-2.572q.877-.959 1.489-.96a.9.9 0 0 1 .593.225.83.83 0 0 1 .265.674 5.7 5.7 0 0 1-.858 2.265q-.856 1.573-2.123 3.736t-2.449 4.7h1.511q1.347 0 2.838-.042t3-.2v.735q-2.245.246-4.022.368t-3.164.122h-.612a36 36 0 0 0-1.592 4.451 16.2 16.2 0 0 0-.653 4.45 4.5 4.5 0 0 0 .53 2.511 2 2 0 0 0 1.756.755 6.16 6.16 0 0 0 4.164-1.878 16.6 16.6 0 0 0 3.593-5.1l.531.408a17.3 17.3 0 0 1-2.47 4.124 12.4 12.4 0 0 1-3.287 2.9 7.2 7.2 0 0 1-3.715 1.048" style="fill:#f0353e" transform="translate(.001 -7.925)"/></svg>