<svg id="Capa_1" data-name="Capa 1" xmlns="http://www.w3.org/2000/svg" viewBox="0 0 599.71 606.36"><defs><style>.cls-1{fill:#21262a;}.cls-2{fill:#e6e6e6;}</style></defs><path class="cls-1" d="M614,113h3.09l-.05.1a6.84,6.84,0,0,1-3.14,3.33c-1.22.52-1.77-.13-1.25-1.44a6.44,6.44,0,0,1,1.35-2Zm6.47,0h1.64a1.54,1.54,0,0,1-.24.1c-.69.28-1.18.23-1.4-.1Zm14,0h4.13a6.35,6.35,0,0,1-2.91,2.46c-1.39.48-2.1-.24-1.61-1.62a6.31,6.31,0,0,1,.39-.84Zm24.88,0h4.87a5.94,5.94,0,0,1-3.33,2.83c-1.54.46-2.43-.4-2-1.87a4.1,4.1,0,0,1,.44-1Zm10.1,0h1.68l-.15,0a2.22,2.22,0,0,1-1.53,0ZM689,113h4.35a2.09,2.09,0,0,1,0,1.14,5.4,5.4,0,0,1-3.79,3.53c-1.72.38-2.77-.56-2.39-2.12A5,5,0,0,1,689,113Zm9.22,0H704a5.62,5.62,0,0,1-3.27,2.24c-1.75.36-2.88-.6-2.5-2.17Zm45.95,0h6.22a2.1,2.1,0,0,1,0,.66,4.9,4.9,0,0,1-4,3.54c-2,.27-3.3-.83-3-2.49a3.68,3.68,0,0,1,.85-1.71Zm11.7,0h6.81a5.23,5.23,0,0,1-3.69,2.41c-2,.25-3.33-.82-3.12-2.41Zm13.36,0H774a5,5,0,0,1-2.11.75,3.06,3.06,0,0,1-2.67-.75Zm68,0h4.3a2.56,2.56,0,0,1,1.36,2.43c-.12,1.77-2,3.32-4.19,3.43s-3.87-1.19-3.71-3a3.65,3.65,0,0,1,2.24-2.9Zm12.89,0h6.33a2.5,2.5,0,0,1,.57,1.73c-.1,1.77-2,3.27-4.18,3.39s-3.9-1.24-3.79-3a3.14,3.14,0,0,1,1.07-2.11Zm13.61,0H871a2.83,2.83,0,0,1,.26,1.19c-.09,1.76-1.94,3.27-4.16,3.35s-4-1.31-3.88-3.07a2.93,2.93,0,0,1,.52-1.47Zm71.2,0h7.82a2.64,2.64,0,0,1,.17.87c.05,1.77-1.72,3.19-3.95,3.13s-4.08-1.52-4.13-3.3a3.19,3.19,0,0,1,.09-.7Zm14.42,0h7.45a2.64,2.64,0,0,1,.4,1.29c.09,1.77-1.66,3.17-3.88,3.08s-4.09-1.56-4.16-3.34a2.25,2.25,0,0,1,.19-1Zm14.47,0h6.76a2.91,2.91,0,0,1,.83,1.87c.11,1.78-1.61,3.15-3.83,3s-4.09-1.61-4.17-3.39a2.44,2.44,0,0,1,.41-1.52Zm14.75,0h5.22a3.55,3.55,0,0,1,1.72,2.62c.12,1.75-1.55,3.1-3.75,3s-4.09-1.64-4.19-3.4a2.58,2.58,0,0,1,1-2.19Zm92,0h6.7a3.36,3.36,0,0,1,.42,1.08c.29,1.66-1.07,2.78-3,2.5a4.87,4.87,0,0,1-4.08-3.53Zm13.15,0h3.88a4.62,4.62,0,0,1,2.48,3c.31,1.64-1,2.76-2.93,2.44a5,5,0,0,1-4-3.54,2,2,0,0,1,.61-1.91Zm74.57,0H1163c.45,1.47-.47,2.31-2,1.89a5.88,5.88,0,0,1-2.7-1.89Zm9,0h3.15a5.84,5.84,0,0,1,2.33,2.87c.45,1.47-.42,2.29-1.93,1.83a5.76,5.76,0,0,1-3.53-3.46,1.76,1.76,0,0,1,0-1.24ZM577.44,195.38a5.69,5.69,0,0,1-2.83,3.75c-1.14.41-1.73-.58-1.31-2.22a5.68,5.68,0,0,1,2.8-3.73c1.15-.4,1.74.56,1.34,2.2Zm2.7-10.41a5.72,5.72,0,0,1-2.86,3.68c-1.12.44-1.71-.52-1.28-2.11a5.89,5.89,0,0,1,2.84-3.67c1.16-.44,1.73.49,1.3,2.1Zm15.13-48a6.82,6.82,0,0,1-3,3.43c-1.13.5-1.63-.2-1.11-1.58a6.75,6.75,0,0,1,2.95-3.41c1.12-.5,1.61.18,1.12,1.56Zm3.28-8.7a6.85,6.85,0,0,1-3,3.35c-1.12.53-1.59-.14-1.07-1.47a7,7,0,0,1,3-3.34c1.12-.52,1.61.13,1.09,1.46Zm3.36-8.43a7,7,0,0,1-3,3.3c-1.11.53-1.56-.07-1-1.36a7.33,7.33,0,0,1,3-3.27c1.13-.54,1.6,0,1.06,1.33Zm-14.14,62.32a5.84,5.84,0,0,1-2.95,3.7c-1.19.42-1.84-.54-1.39-2.15a5.91,5.91,0,0,1,2.93-3.69c1.22-.43,1.84.51,1.41,2.14Zm8.7-30a6.23,6.23,0,0,1-3,3.56c-1.18.49-1.76-.35-1.28-1.82a6.25,6.25,0,0,1,3-3.54c1.19-.49,1.77.31,1.3,1.8Zm3.08-9.39a6.46,6.46,0,0,1-3,3.49c-1.18.48-1.73-.27-1.23-1.71a6.43,6.43,0,0,1,3-3.48c1.17-.5,1.73.27,1.24,1.7Zm3.19-9.11a6.72,6.72,0,0,1-3,3.45c-1.18.48-1.7-.21-1.21-1.61a6.63,6.63,0,0,1,3-3.41c1.18-.51,1.72.19,1.23,1.57ZM606,125a6.72,6.72,0,0,1-3.05,3.37c-1.17.51-1.69-.16-1.17-1.5a6.76,6.76,0,0,1,3-3.36c1.18-.49,1.71.14,1.19,1.49Zm3.33-8.48a6.91,6.91,0,0,1-3.07,3.3c-1.16.53-1.66-.1-1.14-1.4a7.1,7.1,0,0,1,3-3.28c1.16-.54,1.68.09,1.16,1.38Zm-13.53,63a5.71,5.71,0,0,1-3.07,3.74c-1.23.44-1.93-.57-1.49-2.2a5.71,5.71,0,0,1,3-3.72c1.27-.42,1.94.54,1.53,2.18Zm2.75-10.38a5.92,5.92,0,0,1-3.07,3.69c-1.24.43-1.9-.51-1.47-2.08a5.86,5.86,0,0,1,3.07-3.67c1.25-.46,1.9.47,1.47,2.06ZM601.39,159a6.09,6.09,0,0,1-3.08,3.64c-1.25.44-1.89-.44-1.43-2A6,6,0,0,1,600,157c1.25-.48,1.91.4,1.44,1.95Zm3-9.8a6,6,0,0,1-3.11,3.58c-1.23.49-1.87-.37-1.38-1.85a6.12,6.12,0,0,1,3.08-3.57c1.25-.47,1.87.35,1.41,1.84Zm3-9.48a6.4,6.4,0,0,1-3.12,3.52c-1.23.47-1.84-.3-1.36-1.75A6.35,6.35,0,0,1,606,138c1.23-.49,1.83.28,1.37,1.73Zm3.13-9.17a6.55,6.55,0,0,1-3.13,3.46c-1.24.47-1.81-.25-1.3-1.65a6.37,6.37,0,0,1,3.1-3.44c1.23-.49,1.84.23,1.33,1.63Zm3.21-8.87a6.52,6.52,0,0,1-3.14,3.39c-1.21.51-1.8-.19-1.28-1.53a6.62,6.62,0,0,1,3.12-3.36c1.23-.52,1.8.16,1.3,1.5Zm-6.9,44.58a5.83,5.83,0,0,1-3.17,3.72c-1.3.42-2-.52-1.56-2.13a5.81,5.81,0,0,1,3.14-3.69c1.3-.45,2,.49,1.59,2.1Zm2.83-10.18a6,6,0,0,1-3.19,3.66c-1.3.42-2-.47-1.53-2a5.89,5.89,0,0,1,3.16-3.62c1.3-.45,2,.42,1.56,2Zm2.91-9.89a6,6,0,0,1-3.19,3.6c-1.28.47-2-.4-1.49-1.9a6,6,0,0,1,3.17-3.57c1.3-.47,2,.37,1.51,1.87Zm3-9.56a6.35,6.35,0,0,1-3.2,3.53c-1.3.47-2-.33-1.46-1.8a6.2,6.2,0,0,1,3.17-3.5c1.3-.47,1.94.3,1.49,1.77Zm3.09-9.27a6.37,6.37,0,0,1-3.22,3.46c-1.27.49-1.91-.26-1.43-1.67a6.43,6.43,0,0,1,3.21-3.43c1.28-.49,1.92.25,1.44,1.64Zm3.15-8.93a6.36,6.36,0,0,1-3.22,3.39c-1.27.51-1.89-.19-1.39-1.55a6.55,6.55,0,0,1,3.21-3.38c1.26-.5,1.91.18,1.4,1.54Zm-6.31,45.07a5.7,5.7,0,0,1-3.25,3.72c-1.36.44-2.14-.56-1.69-2.17a5.71,5.71,0,0,1,3.23-3.7c1.37-.42,2.11.52,1.71,2.15Zm2.78-10.3a5.88,5.88,0,0,1-3.28,3.67c-1.35.42-2.06-.47-1.64-2a5.85,5.85,0,0,1,3.25-3.66c1.36-.45,2.1.46,1.67,2Zm2.87-10a6,6,0,0,1-3.29,3.6c-1.35.43-2.06-.42-1.59-1.94a6,6,0,0,1,3.26-3.59c1.35-.45,2.06.39,1.62,1.93Zm3-9.67a6.11,6.11,0,0,1-3.29,3.55c-1.34.45-2.05-.37-1.56-1.84a6,6,0,0,1,3.26-3.51c1.35-.49,2,.33,1.59,1.8Zm3-9.32a6.25,6.25,0,0,1-3.29,3.46c-1.32.49-2-.29-1.52-1.71a6,6,0,0,1,3.27-3.44c1.32-.51,2,.26,1.54,1.69Zm3.11-9a6.33,6.33,0,0,1-3.3,3.41c-1.31.47-2-.23-1.49-1.61a6.43,6.43,0,0,1,3.28-3.37c1.32-.51,2,.21,1.51,1.57Zm-3,35.16a5.71,5.71,0,0,1-3.36,3.67c-1.4.45-2.18-.51-1.75-2.1a5.78,5.78,0,0,1,3.33-3.65c1.42-.44,2.2.48,1.78,2.08Zm2.81-10.07a5.82,5.82,0,0,1-3.36,3.62c-1.41.43-2.17-.44-1.72-2a5.85,5.85,0,0,1,3.35-3.6c1.38-.46,2.18.42,1.73,2Zm2.9-9.74a6,6,0,0,1-3.37,3.55c-1.38.47-2.15-.39-1.68-1.87a6,6,0,0,1,3.35-3.52c1.4-.47,2.16.35,1.7,1.84Zm3-9.4a6.29,6.29,0,0,1-3.38,3.47c-1.39.46-2.12-.31-1.63-1.74a6,6,0,0,1,3.34-3.46c1.39-.48,2.13.29,1.67,1.73Zm3.41,16.29a5.9,5.9,0,0,1-3.45,3.62c-1.45.42-2.27-.48-1.84-2a5.87,5.87,0,0,1,3.44-3.61c1.45-.45,2.28.44,1.85,2Zm2.83-9.81a5.86,5.86,0,0,1-3.44,3.53c-1.45.47-2.25-.4-1.8-1.89a5.87,5.87,0,0,1,3.43-3.53c1.44-.45,2.26.39,1.81,1.89Zm2.91-9.49a6.06,6.06,0,0,1-3.45,3.48c-1.44.45-2.22-.35-1.75-1.79a6,6,0,0,1,3.43-3.46c1.44-.45,2.22.34,1.77,1.77Zm3.9,16.52a5.74,5.74,0,0,1-3.54,3.62c-1.51.42-2.37-.49-1.94-2.07a5.65,5.65,0,0,1,3.5-3.6c1.51-.43,2.39.47,2,2Zm2.75-9.9a5.66,5.66,0,0,1-3.51,3.55c-1.51.46-2.36-.43-1.91-1.94a5.73,5.73,0,0,1,3.5-3.53c1.49-.44,2.37.42,1.92,1.92Zm2.85-9.54a5.8,5.8,0,0,1-3.52,3.46c-1.49.46-2.34-.37-1.87-1.82a5.89,5.89,0,0,1,3.5-3.46c1.47-.45,2.34.35,1.89,1.82ZM659,132a5.62,5.62,0,0,1-3.58,3.62c-1.58.4-2.5-.53-2.08-2.1a5.59,5.59,0,0,1,3.58-3.6c1.56-.42,2.5.51,2.08,2.08Zm2.69-10a5.62,5.62,0,0,1-3.59,3.54c-1.56.43-2.46-.46-2-2a5.65,5.65,0,0,1,3.57-3.53c1.56-.42,2.47.45,2,2Zm7.64,7.33a5.48,5.48,0,0,1-3.67,3.62c-1.63.4-2.6-.56-2.18-2.15a5.45,5.45,0,0,1,3.64-3.6c1.61-.41,2.6.54,2.21,2.13Zm2.6-10a5.62,5.62,0,0,1-3.67,3.54c-1.59.42-2.57-.5-2.13-2a5.53,5.53,0,0,1,3.64-3.51c1.59-.42,2.58.47,2.16,2Zm5.6,17.95a5.4,5.4,0,0,1-3.74,3.7c-1.68.37-2.74-.66-2.36-2.32a5.44,5.44,0,0,1,3.73-3.67c1.68-.39,2.75.64,2.37,2.29ZM680,126.77a5.44,5.44,0,0,1-3.75,3.62c-1.66.39-2.7-.59-2.3-2.2a5.52,5.52,0,0,1,3.72-3.6c1.67-.4,2.73.58,2.33,2.18Zm2.51-10.12a5.47,5.47,0,0,1-3.73,3.55c-1.66.4-2.67-.54-2.27-2.08a5.49,5.49,0,0,1,3.71-3.51c1.67-.4,2.67.5,2.29,2ZM684.12,157a5.17,5.17,0,0,1-3.81,3.84,2.05,2.05,0,0,1-2.57-2.6,5.24,5.24,0,0,1,3.8-3.83,2.05,2.05,0,0,1,2.58,2.59Zm2.2-11.24a5.23,5.23,0,0,1-3.81,3.76A2,2,0,0,1,680,147a5.25,5.25,0,0,1,3.8-3.74,2,2,0,0,1,2.53,2.47Zm2.29-10.91a5.28,5.28,0,0,1-3.82,3.69c-1.73.37-2.84-.68-2.47-2.36a5.3,5.3,0,0,1,3.79-3.67c1.74-.37,2.86.68,2.5,2.34ZM691,124.31a5.31,5.31,0,0,1-3.8,3.62c-1.73.37-2.81-.63-2.42-2.24a5.35,5.35,0,0,1,3.77-3.6c1.72-.38,2.83.63,2.45,2.22Zm4.76,30.56a5.08,5.08,0,0,1-3.88,3.84,2.14,2.14,0,0,1-2.68-2.66,5.09,5.09,0,0,1,3.86-3.81,2.14,2.14,0,0,1,2.7,2.63Zm2.1-11.33a5.16,5.16,0,0,1-3.88,3.77,2.06,2.06,0,0,1-2.64-2.53,5.23,5.23,0,0,1,3.87-3.76c1.8-.33,3,.79,2.65,2.52Zm2.19-11a5.24,5.24,0,0,1-3.87,3.69c-1.78.37-3-.74-2.6-2.41a5.23,5.23,0,0,1,3.87-3.66c1.76-.36,2.94.72,2.6,2.38ZM702.25,122a5.33,5.33,0,0,1-3.87,3.6c-1.76.37-2.91-.67-2.54-2.29a5.35,5.35,0,0,1,3.84-3.59c1.77-.36,2.93.65,2.57,2.28Zm1.59,54.75a5,5,0,0,1-4,4,2.41,2.41,0,0,1-2.89-2.93,5,5,0,0,1,3.93-4,2.44,2.44,0,0,1,2.93,2.94Zm1.84-12.12a5.05,5.05,0,0,1-3.95,3.92,2.33,2.33,0,0,1-2.84-2.83,5,5,0,0,1,3.93-3.9,2.32,2.32,0,0,1,2.86,2.81Zm1.94-11.76a5.07,5.07,0,0,1-4,3.83,2.24,2.24,0,0,1-2.81-2.7,5.1,5.1,0,0,1,3.94-3.82,2.24,2.24,0,0,1,2.82,2.69Zm2-11.42a5.15,5.15,0,0,1-4,3.76c-1.85.32-3.08-.84-2.76-2.57a5.1,5.1,0,0,1,3.94-3.74c1.84-.33,3.07.8,2.77,2.55Zm2.06-11a5.14,5.14,0,0,1-3.91,3.67c-1.84.34-3-.77-2.72-2.46A5.17,5.17,0,0,1,709,128c1.84-.34,3,.75,2.72,2.44Zm2.15-10.68a5.13,5.13,0,0,1-3.91,3.59c-1.82.35-3-.7-2.65-2.33a5.14,5.14,0,0,1,3.89-3.57c1.81-.34,3,.69,2.67,2.31Zm2.41,55.22a5,5,0,0,1-4,4,2.52,2.52,0,0,1-3-3,5,5,0,0,1,4-4,2.51,2.51,0,0,1,3,3Zm1.75-12.2a4.94,4.94,0,0,1-4,3.92,2.43,2.43,0,0,1-3-2.87,5,5,0,0,1,4-3.9,2.42,2.42,0,0,1,3,2.85Zm1.84-11.83a5,5,0,0,1-4,3.83c-1.93.29-3.23-.95-2.93-2.75a5.07,5.07,0,0,1,4-3.81c1.93-.3,3.25.93,3,2.73Zm1.91-11.49a5.07,5.07,0,0,1-4,3.76c-1.89.3-3.17-.87-2.87-2.64a5.05,5.05,0,0,1,4-3.72c1.89-.33,3.19.85,2.9,2.6Zm2-11.1a5.09,5.09,0,0,1-4,3.66c-1.87.31-3.14-.81-2.81-2.5a5,5,0,0,1,4-3.64c1.87-.33,3.14.79,2.83,2.48Zm2-10.73a5.14,5.14,0,0,1-4,3.57c-1.86.31-3.11-.74-2.76-2.38a5.11,5.11,0,0,1,4-3.55c1.86-.33,3.1.72,2.79,2.36ZM722,239.49a4.78,4.78,0,0,1-4.07,4.28,3.12,3.12,0,0,1-3.4-3.6,4.8,4.8,0,0,1,4.06-4.27,3.13,3.13,0,0,1,3.41,3.59Zm1.21-13.85a4.79,4.79,0,0,1-4.07,4.23,3,3,0,0,1-3.34-3.49,4.81,4.81,0,0,1,4.05-4.22,3,3,0,0,1,3.36,3.48Zm1.32-13.56a4.84,4.84,0,0,1-4.09,4.18,2.91,2.91,0,0,1-3.28-3.4,4.81,4.81,0,0,1,4.06-4.16,2.92,2.92,0,0,1,3.31,3.38Zm1.4-13.27a4.89,4.89,0,0,1-4.09,4.13,2.83,2.83,0,0,1-3.24-3.29,4.87,4.87,0,0,1,4.08-4.09,2.8,2.8,0,0,1,3.25,3.25Zm1.5-12.93a4.84,4.84,0,0,1-4.09,4,2.71,2.71,0,0,1-3.19-3.16,4.91,4.91,0,0,1,4.07-4,2.71,2.71,0,0,1,3.21,3.15ZM729,173.25a4.94,4.94,0,0,1-4.09,4,2.63,2.63,0,0,1-3.13-3.06,4.92,4.92,0,0,1,4.07-4,2.61,2.61,0,0,1,3.15,3ZM730.64,161a4.91,4.91,0,0,1-4.07,3.9,2.53,2.53,0,0,1-3.09-2.92,4.91,4.91,0,0,1,4.06-3.88,2.52,2.52,0,0,1,3.1,2.9Zm1.73-11.92a4.94,4.94,0,0,1-4.07,3.83c-2,.28-3.31-1-3-2.8a5,5,0,0,1,4-3.81c2-.28,3.33,1,3.07,2.78Zm1.79-11.54a5,5,0,0,1-4.06,3.75c-1.94.29-3.29-.93-3-2.7a4.93,4.93,0,0,1,4-3.7c1.94-.3,3.29.89,3,2.65ZM736,126.35a4.92,4.92,0,0,1-4,3.64c-1.92.3-3.24-.84-2.93-2.55a5,5,0,0,1,4-3.62c1.92-.31,3.22.82,2.94,2.53Zm1.91-10.8a5,5,0,0,1-4,3.57c-1.93.3-3.23-.79-2.9-2.43a5.06,5.06,0,0,1,4-3.55c1.91-.3,3.19.77,2.9,2.41Zm-3.5,137a4.71,4.71,0,0,1-4.14,4.32,3.3,3.3,0,0,1-3.54-3.74,4.7,4.7,0,0,1,4.12-4.32,3.32,3.32,0,0,1,3.56,3.74Zm1-14.21a4.71,4.71,0,0,1-4.14,4.28,3.19,3.19,0,0,1-3.49-3.65,4.74,4.74,0,0,1,4.13-4.26,3.22,3.22,0,0,1,3.5,3.63Zm1.14-13.93a4.78,4.78,0,0,1-4.14,4.23A3.13,3.13,0,0,1,729,225.1a4.81,4.81,0,0,1,4.13-4.23,3.12,3.12,0,0,1,3.46,3.55Zm1.23-13.67a4.81,4.81,0,0,1-4.14,4.18,3,3,0,0,1-3.4-3.45,4.81,4.81,0,0,1,4.13-4.16,3,3,0,0,1,3.41,3.43Zm1.32-13.36a4.86,4.86,0,0,1-4.14,4.13,2.91,2.91,0,0,1-3.35-3.34,4.84,4.84,0,0,1,4.13-4.09,2.9,2.9,0,0,1,3.36,3.3Zm1.4-13a4.85,4.85,0,0,1-4.14,4,2.81,2.81,0,0,1-3.31-3.22,4.88,4.88,0,0,1,4.13-4,2.82,2.82,0,0,1,3.32,3.2ZM742,171.68a4.94,4.94,0,0,1-4.15,4,2.71,2.71,0,0,1-3.24-3.09,4.86,4.86,0,0,1,4.11-4,2.74,2.74,0,0,1,3.28,3.08Zm1.54-12.34a4.88,4.88,0,0,1-4.13,3.88c-2,.25-3.46-1.08-3.2-3a4.88,4.88,0,0,1,4.11-3.86c2-.25,3.44,1,3.22,3Zm1.61-12a4.9,4.9,0,0,1-4.11,3.81c-2,.26-3.41-1-3.15-2.85a4.9,4.9,0,0,1,4.09-3.79c2-.27,3.41,1,3.17,2.83Zm1.68-11.61a5,5,0,0,1-4.11,3.73c-2,.27-3.38-1-3.08-2.73a4.87,4.87,0,0,1,4.07-3.71c2-.28,3.37.93,3.12,2.71Zm1.74-11.22a4.94,4.94,0,0,1-4.09,3.62c-2,.28-3.32-.89-3-2.61a5,5,0,0,1,4.06-3.62c2-.29,3.33.88,3.07,2.61Zm-1.22,141.62a4.65,4.65,0,0,1-4.17,4.37,3.5,3.5,0,0,1-3.71-3.89,4.69,4.69,0,0,1,4.17-4.36,3.49,3.49,0,0,1,3.71,3.88Zm.89-14.56a4.71,4.71,0,0,1-4.2,4.34,3.43,3.43,0,0,1-3.66-3.79,4.75,4.75,0,0,1,4.2-4.32,3.39,3.39,0,0,1,3.66,3.77Zm1-14.3a4.7,4.7,0,0,1-4.2,4.29,3.28,3.28,0,0,1-3.6-3.69,4.75,4.75,0,0,1,4.19-4.28,3.31,3.31,0,0,1,3.61,3.68Zm1.07-14a4.79,4.79,0,0,1-4.21,4.25,3.21,3.21,0,0,1-3.55-3.61,4.73,4.73,0,0,1,4.17-4.23,3.23,3.23,0,0,1,3.59,3.59Zm1.13-13.74a4.76,4.76,0,0,1-4.2,4.18,3.1,3.1,0,0,1-3.5-3.5,4.76,4.76,0,0,1,4.18-4.14,3.09,3.09,0,0,1,3.52,3.46Zm1.23-13.43a4.8,4.8,0,0,1-4.21,4.11,3,3,0,0,1-3.45-3.37,4.83,4.83,0,0,1,4.18-4.11,3,3,0,0,1,3.48,3.37ZM754,183a4.83,4.83,0,0,1-4.2,4,2.91,2.91,0,0,1-3.41-3.27,4.83,4.83,0,0,1,4.18-4A2.94,2.94,0,0,1,754,183Zm1.37-12.76a4.82,4.82,0,0,1-4.2,3.95,2.82,2.82,0,0,1-3.36-3.14,4.86,4.86,0,0,1,4.18-3.94,2.84,2.84,0,0,1,3.38,3.13Zm1.42-12.41a4.83,4.83,0,0,1-4.16,3.88c-2.08.23-3.55-1.13-3.31-3a4.78,4.78,0,0,1,4.16-3.84,2.72,2.72,0,0,1,3.31,3Zm1.51-12a4.86,4.86,0,0,1-4.16,3.79c-2.05.25-3.5-1.07-3.26-2.92a4.85,4.85,0,0,1,4.14-3.76c2-.24,3.5,1,3.28,2.89Zm1.54-11.68a4.82,4.82,0,0,1-4.13,3.71c-2,.26-3.46-1-3.2-2.78a4.83,4.83,0,0,1,4.11-3.69c2-.26,3.48,1,3.22,2.76Zm1.61-11.29c-.22,1.75-2.1,3.34-4.11,3.62s-3.43-.93-3.15-2.66a4.82,4.82,0,0,1,4.09-3.6c2-.25,3.45.93,3.17,2.64Zm-1.18,172.48a4.59,4.59,0,0,1-4.24,4.44,3.78,3.78,0,0,1-3.89-4.09,4.61,4.61,0,0,1,4.23-4.44,3.77,3.77,0,0,1,3.9,4.09Zm.64-15.07a4.63,4.63,0,0,1-4.26,4.4,3.67,3.67,0,0,1-3.83-4,4.66,4.66,0,0,1,4.23-4.42,3.68,3.68,0,0,1,3.86,4Zm.72-14.88a4.68,4.68,0,0,1-4.25,4.39,3.6,3.6,0,0,1-3.8-3.93,4.69,4.69,0,0,1,4.25-4.37,3.57,3.57,0,0,1,3.8,3.91Zm.81-14.63a4.69,4.69,0,0,1-4.25,4.34,3.49,3.49,0,0,1-3.76-3.85,4.7,4.7,0,0,1,4.25-4.32,3.5,3.5,0,0,1,3.76,3.83Zm.9-14.38a4.7,4.7,0,0,1-4.26,4.28,3.4,3.4,0,0,1-3.71-3.74,4.75,4.75,0,0,1,4.24-4.28,3.42,3.42,0,0,1,3.73,3.74Zm1-14.11a4.73,4.73,0,0,1-4.26,4.23,3.32,3.32,0,0,1-3.66-3.65,4.72,4.72,0,0,1,4.25-4.22,3.3,3.3,0,0,1,3.67,3.64Zm1.06-13.83a4.74,4.74,0,0,1-4.26,4.16,3.19,3.19,0,0,1-3.61-3.53,4.75,4.75,0,0,1,4.23-4.16,3.23,3.23,0,0,1,3.64,3.53Zm1.11-13.51A4.76,4.76,0,0,1,762.2,199a3.11,3.11,0,0,1-3.55-3.43,4.76,4.76,0,0,1,4.23-4.09,3.11,3.11,0,0,1,3.57,3.41Zm1.19-13.18a4.77,4.77,0,0,1-4.23,4,3,3,0,0,1-3.51-3.32,4.73,4.73,0,0,1,4.23-4,3,3,0,0,1,3.51,3.29Zm1.27-12.83a4.76,4.76,0,0,1-4.23,4,2.92,2.92,0,0,1-3.47-3.2,4.79,4.79,0,0,1,4.22-3.93,2.93,2.93,0,0,1,3.48,3.18Zm1.32-12.48a4.79,4.79,0,0,1-4.22,3.88c-2.11.19-3.62-1.17-3.41-3.09a4.75,4.75,0,0,1,4.19-3.83c2.1-.21,3.66,1.13,3.44,3Zm1.37-12.1a4.76,4.76,0,0,1-4.2,3.78c-2.08.23-3.59-1.1-3.36-3a4.76,4.76,0,0,1,4.18-3.75c2.08-.23,3.58,1.08,3.38,2.93ZM773,132.54a4.76,4.76,0,0,1-4.17,3.69c-2.07.23-3.54-1-3.31-2.83a4.77,4.77,0,0,1,4.16-3.67c2-.23,3.55,1,3.32,2.81Zm1.48-11.32c-.23,1.73-2.1,3.33-4.14,3.58s-3.52-1-3.26-2.71,2.08-3.32,4.12-3.57,3.52,1,3.28,2.7ZM774.35,310a4.6,4.6,0,0,1-4.3,4.47,3.94,3.94,0,0,1-4-4.21,4.58,4.58,0,0,1,4.26-4.48,4,4,0,0,1,4,4.22Zm.49-15.35a4.6,4.6,0,0,1-4.3,4.46,3.87,3.87,0,0,1-4-4.15,4.6,4.6,0,0,1,4.28-4.44,3.86,3.86,0,0,1,4,4.13Zm.59-15.16a4.65,4.65,0,0,1-4.32,4.43,3.77,3.77,0,0,1-3.92-4.06,4.64,4.64,0,0,1,4.28-4.42,3.79,3.79,0,0,1,4,4Zm.66-14.94a4.68,4.68,0,0,1-4.32,4.39,3.68,3.68,0,0,1-3.88-4,4.65,4.65,0,0,1,4.3-4.37,3.7,3.7,0,0,1,3.9,4Zm.72-14.72a4.66,4.66,0,0,1-4.3,4.34,3.57,3.57,0,0,1-3.84-3.88A4.66,4.66,0,0,1,773,246a3.58,3.58,0,0,1,3.84,3.88Zm.82-14.47a4.7,4.7,0,0,1-4.3,4.3,3.51,3.51,0,0,1-3.81-3.8,4.7,4.7,0,0,1,4.29-4.28,3.51,3.51,0,0,1,3.82,3.78Zm.88-14.18a4.7,4.7,0,0,1-4.3,4.23,3.42,3.42,0,0,1-3.76-3.69,4.74,4.74,0,0,1,4.3-4.23,3.41,3.41,0,0,1,3.76,3.69Zm1-13.9a4.67,4.67,0,0,1-4.28,4.16,3.3,3.3,0,0,1-3.71-3.58,4.69,4.69,0,0,1,4.29-4.14,3.27,3.27,0,0,1,3.7,3.56Zm1-13.58a4.68,4.68,0,0,1-4.28,4.09,3.2,3.2,0,0,1-3.66-3.48,4.72,4.72,0,0,1,4.26-4.07,3.22,3.22,0,0,1,3.68,3.46Zm1.09-13.23a4.69,4.69,0,0,1-4.28,4,3.11,3.11,0,0,1-3.61-3.35,4.72,4.72,0,0,1,4.27-4,3.15,3.15,0,0,1,3.62,3.36Zm1.14-12.9a4.71,4.71,0,0,1-4.26,3.93,3,3,0,0,1-3.55-3.25,4.71,4.71,0,0,1,4.23-3.92c2.16-.17,3.76,1.26,3.58,3.24Zm1.2-12.54a4.69,4.69,0,0,1-4.25,3.85c-2.13.21-3.69-1.21-3.5-3.13a4.72,4.72,0,0,1,4.21-3.83c2.15-.19,3.71,1.19,3.54,3.11Zm1.25-12.14a4.64,4.64,0,0,1-4.21,3.74c-2.14.21-3.68-1.14-3.47-3a4.69,4.69,0,0,1,4.19-3.72c2.14-.21,3.68,1.12,3.49,3Zm1.3-11.79a4.64,4.64,0,0,1-4.2,3.66c-2.09.23-3.62-1.07-3.41-2.89a4.7,4.7,0,0,1,4.18-3.63c2.09-.19,3.62,1.06,3.43,2.86Zm1.35-11.38c-.23,1.75-2.1,3.34-4.18,3.57s-3.57-1-3.36-2.76a4.69,4.69,0,0,1,4.16-3.55c2.06-.23,3.59,1,3.38,2.74Zm1.42,189.84a4.56,4.56,0,0,1-4.33,4.48,4,4,0,0,1-4.09-4.23,4.61,4.61,0,0,1,4.33-4.5,4,4,0,0,1,4.09,4.25Zm.45-15.42a4.6,4.6,0,0,1-4.35,4.46,3.93,3.93,0,0,1-4.06-4.18,4.64,4.64,0,0,1,4.34-4.45,3.93,3.93,0,0,1,4.07,4.17Zm.52-15.24a4.61,4.61,0,0,1-4.35,4.42,3.85,3.85,0,0,1-4-4.09,4.64,4.64,0,0,1,4.35-4.42,3.83,3.83,0,0,1,4,4.09Zm.59-15a4.64,4.64,0,0,1-4.35,4.39,3.77,3.77,0,0,1-4-4,4.68,4.68,0,0,1,4.33-4.39,3.78,3.78,0,0,1,4,4Zm.68-14.8a4.71,4.71,0,0,1-4.37,4.35,3.7,3.7,0,0,1-3.94-3.93,4.72,4.72,0,0,1,4.35-4.34,3.71,3.71,0,0,1,4,3.92Zm.72-14.53a4.7,4.7,0,0,1-4.35,4.29A3.6,3.6,0,0,1,784,235a4.69,4.69,0,0,1,4.34-4.27,3.6,3.6,0,0,1,3.91,3.83Zm.78-14.26a4.64,4.64,0,0,1-4.33,4.23,3.5,3.5,0,0,1-3.85-3.74,4.69,4.69,0,0,1,4.34-4.21,3.48,3.48,0,0,1,3.84,3.72Zm.87-14a4.65,4.65,0,0,1-4.33,4.14,3.41,3.41,0,0,1-3.82-3.62,4.69,4.69,0,0,1,4.34-4.14,3.41,3.41,0,0,1,3.81,3.62Zm.92-13.63a4.66,4.66,0,0,1-4.33,4.07,3.31,3.31,0,0,1-3.75-3.53,4.66,4.66,0,0,1,4.3-4.06,3.33,3.33,0,0,1,3.78,3.52Zm1-13.31a4.7,4.7,0,0,1-4.32,4,3.25,3.25,0,0,1-3.7-3.43,4.69,4.69,0,0,1,4.29-4,3.26,3.26,0,0,1,3.73,3.41Zm1-12.95a4.67,4.67,0,0,1-4.28,3.92c-2.2.15-3.86-1.32-3.67-3.31a4.64,4.64,0,0,1,4.28-3.88c2.18-.17,3.83,1.29,3.67,3.27Zm1.08-12.59a4.62,4.62,0,0,1-4.27,3.83c-2.18.18-3.79-1.24-3.6-3.18a4.59,4.59,0,0,1,4.24-3.79c2.17-.18,3.8,1.22,3.63,3.14ZM799,141.7a4.59,4.59,0,0,1-4.23,3.73c-2.17.19-3.75-1.19-3.57-3.06a4.62,4.62,0,0,1,4.23-3.71c2.15-.17,3.76,1.17,3.57,3Zm1.18-11.81c-.2,1.81-2.08,3.42-4.23,3.63s-3.73-1.13-3.51-2.93a4.59,4.59,0,0,1,4.2-3.62c2.13-.2,3.71,1.12,3.54,2.92Zm1.19-11.44c-.19,1.77-2.06,3.34-4.18,3.53s-3.65-1-3.46-2.79,2.06-3.32,4.17-3.52,3.64,1,3.47,2.78Zm2.48,222.18a4.57,4.57,0,0,1-4.39,4.53,4.24,4.24,0,0,1-4.22-4.39,4.56,4.56,0,0,1,4.36-4.53,4.24,4.24,0,0,1,4.25,4.39Zm.26-15.77a4.57,4.57,0,0,1-4.39,4.51,4.18,4.18,0,0,1-4.21-4.35,4.57,4.57,0,0,1,4.39-4.49,4.15,4.15,0,0,1,4.21,4.33Zm.33-15.64a4.63,4.63,0,0,1-4.4,4.49,4.08,4.08,0,0,1-4.16-4.28,4.58,4.58,0,0,1,4.36-4.5,4.1,4.1,0,0,1,4.2,4.29Zm.38-15.49a4.6,4.6,0,0,1-4.38,4.46,4,4,0,0,1-4.15-4.22,4.62,4.62,0,0,1,4.39-4.45,4,4,0,0,1,4.14,4.21Zm.47-15.31a4.62,4.62,0,0,1-4.4,4.42,3.91,3.91,0,0,1-4.09-4.13,4.62,4.62,0,0,1,4.38-4.42,3.93,3.93,0,0,1,4.11,4.13Zm.52-15.09a4.65,4.65,0,0,1-4.4,4.39,3.86,3.86,0,0,1-4.06-4.07,4.64,4.64,0,0,1,4.39-4.37,3.85,3.85,0,0,1,4.07,4.05Zm.59-14.86a4.68,4.68,0,0,1-4.4,4.34,3.79,3.79,0,0,1-4-4,4.66,4.66,0,0,1,4.39-4.32,3.78,3.78,0,0,1,4,4Zm.64-14.59a4.64,4.64,0,0,1-4.39,4.26,3.68,3.68,0,0,1-4-3.88A4.64,4.64,0,0,1,803,230a3.69,3.69,0,0,1,4,3.88Zm.69-14.32a4.62,4.62,0,0,1-4.37,4.2,3.59,3.59,0,0,1-3.93-3.78,4.61,4.61,0,0,1,4.35-4.2,3.6,3.6,0,0,1,3.95,3.78Zm.75-14a4.61,4.61,0,0,1-4.35,4.14,3.52,3.52,0,0,1-3.9-3.68,4.63,4.63,0,0,1,4.35-4.13,3.5,3.5,0,0,1,3.9,3.67Zm.81-13.7a4.61,4.61,0,0,1-4.35,4.07,3.42,3.42,0,0,1-3.83-3.57,4.62,4.62,0,0,1,4.33-4.05,3.41,3.41,0,0,1,3.85,3.55Zm.85-13.34a4.58,4.58,0,0,1-4.31,4A3.32,3.32,0,0,1,802,179a4.59,4.59,0,0,1,4.32-4,3.33,3.33,0,0,1,3.79,3.45Zm.9-13a4.56,4.56,0,0,1-4.3,3.9c-2.21.14-3.9-1.34-3.74-3.35a4.57,4.57,0,0,1,4.28-3.87c2.24-.16,3.9,1.33,3.76,3.32Zm1-12.62a4.56,4.56,0,0,1-4.29,3.8c-2.2.15-3.86-1.3-3.69-3.24a4.53,4.53,0,0,1,4.27-3.77c2.2-.16,3.86,1.27,3.71,3.21Zm1-12.25a4.52,4.52,0,0,1-4.24,3.7c-2.19.16-3.82-1.24-3.66-3.11a4.54,4.54,0,0,1,4.25-3.69c2.16-.15,3.81,1.23,3.65,3.1Zm1-11.85c-.16,1.82-2.05,3.42-4.23,3.6s-3.78-1.17-3.59-3,2.06-3.41,4.21-3.58,3.76,1.15,3.61,3Zm1-11.47c-.17,1.77-2,3.32-4.19,3.5s-3.73-1.11-3.55-2.87,2.06-3.29,4.19-3.48,3.73,1.1,3.55,2.85Zm4.2,223.12a4.56,4.56,0,0,1-4.42,4.53,4.3,4.3,0,0,1-4.3-4.41,4.56,4.56,0,0,1,4.42-4.54,4.27,4.27,0,0,1,4.3,4.42Zm.22-15.84a4.56,4.56,0,0,1-4.42,4.51,4.22,4.22,0,0,1-4.28-4.37,4.59,4.59,0,0,1,4.42-4.51,4.23,4.23,0,0,1,4.28,4.37Zm.28-15.71a4.57,4.57,0,0,1-4.42,4.49,4.15,4.15,0,0,1-4.25-4.3,4.61,4.61,0,0,1,4.42-4.49,4.14,4.14,0,0,1,4.25,4.3Zm.35-15.54a4.59,4.59,0,0,1-4.44,4.45,4.06,4.06,0,0,1-4.19-4.24,4.61,4.61,0,0,1,4.42-4.46,4.09,4.09,0,0,1,4.21,4.25Zm.4-15.37a4.64,4.64,0,0,1-4.44,4.42,4,4,0,0,1-4.18-4.17,4.64,4.64,0,0,1,4.44-4.43,4,4,0,0,1,4.18,4.18Zm.45-15.15a4.63,4.63,0,0,1-4.44,4.38,3.93,3.93,0,0,1-4.13-4.1,4.63,4.63,0,0,1,4.41-4.37,4,4,0,0,1,4.16,4.09Zm.5-14.91a4.6,4.6,0,0,1-4.42,4.31,3.86,3.86,0,0,1-4.11-4,4.64,4.64,0,0,1,4.42-4.32,3.86,3.86,0,0,1,4.11,4Zm.55-14.67a4.57,4.57,0,0,1-4.42,4.26,3.75,3.75,0,0,1-4-3.91,4.61,4.61,0,0,1,4.4-4.25,3.77,3.77,0,0,1,4.07,3.9Zm.61-14.37a4.6,4.6,0,0,1-4.4,4.2,3.69,3.69,0,0,1-4-3.81,4.6,4.6,0,0,1,4.38-4.2,3.71,3.71,0,0,1,4,3.81Zm.64-14.05a4.55,4.55,0,0,1-4.38,4.12,3.59,3.59,0,0,1-4-3.72,4.57,4.57,0,0,1,4.37-4.11,3.6,3.6,0,0,1,4,3.71Zm.7-13.74a4.53,4.53,0,0,1-4.37,4,3.5,3.5,0,0,1-3.92-3.61,4.54,4.54,0,0,1,4.35-4,3.5,3.5,0,0,1,3.94,3.6Zm.74-13.41a4.53,4.53,0,0,1-4.35,4,3.44,3.44,0,0,1-3.88-3.52,4.54,4.54,0,0,1,4.33-3.93,3.44,3.44,0,0,1,3.9,3.48Zm.76-13a4.51,4.51,0,0,1-4.31,3.88c-2.26.12-4-1.4-3.83-3.39a4.52,4.52,0,0,1,4.3-3.86c2.25-.13,4,1.38,3.84,3.37Zm.82-12.66a4.45,4.45,0,0,1-4.28,3.76c-2.24.14-3.92-1.33-3.8-3.27a4.51,4.51,0,0,1,4.28-3.76c2.24-.12,3.94,1.33,3.8,3.27Zm.86-12.29c-.13,1.89-2.06,3.54-4.26,3.68s-3.9-1.28-3.74-3.17,2-3.51,4.24-3.65,3.9,1.26,3.76,3.14Zm.89-11.88c-.14,1.82-2.05,3.41-4.25,3.56s-3.83-1.22-3.69-3,2.05-3.39,4.23-3.55,3.85,1.21,3.71,3Zm.9-11.5c-.16,1.76-2,3.32-4.19,3.47s-3.8-1.17-3.64-2.91,2-3.31,4.19-3.45,3.78,1.14,3.64,2.89Zm5.79,240a4.55,4.55,0,0,1-4.46,4.54,4.39,4.39,0,0,1-4.36-4.49,4.53,4.53,0,0,1,4.43-4.54,4.39,4.39,0,0,1,4.39,4.49Zm.14-16a4.55,4.55,0,0,1-4.46,4.53,4.31,4.31,0,0,1-4.35-4.44,4.56,4.56,0,0,1,4.44-4.54,4.35,4.35,0,0,1,4.37,4.45Zm.19-15.9a4.57,4.57,0,0,1-4.47,4.52,4.24,4.24,0,0,1-4.32-4.38,4.58,4.58,0,0,1,4.45-4.53,4.27,4.27,0,0,1,4.34,4.39Zm.22-15.75a4.57,4.57,0,0,1-4.45,4.49,4.21,4.21,0,0,1-4.3-4.34,4.57,4.57,0,0,1,4.45-4.49,4.19,4.19,0,0,1,4.3,4.34Zm.3-15.61a4.58,4.58,0,0,1-4.47,4.45,4.13,4.13,0,0,1-4.27-4.26,4.6,4.6,0,0,1,4.46-4.46,4.15,4.15,0,0,1,4.28,4.27Zm.33-15.42a4.59,4.59,0,0,1-4.46,4.42,4.07,4.07,0,0,1-4.24-4.21,4.6,4.6,0,0,1,4.45-4.41,4.1,4.1,0,0,1,4.25,4.2Zm.38-15.19a4.61,4.61,0,0,1-4.46,4.37,4,4,0,0,1-4.21-4.14,4.59,4.59,0,0,1,4.44-4.36,4,4,0,0,1,4.23,4.13Zm.41-15a4.59,4.59,0,0,1-4.43,4.31,3.93,3.93,0,0,1-4.18-4.05,4.55,4.55,0,0,1,4.44-4.3,3.93,3.93,0,0,1,4.17,4Zm.46-14.7a4.53,4.53,0,0,1-4.42,4.24,3.84,3.84,0,0,1-4.13-4,4.54,4.54,0,0,1,4.42-4.23,3.86,3.86,0,0,1,4.13,4Zm.5-14.43a4.51,4.51,0,0,1-4.4,4.18,3.78,3.78,0,0,1-4.1-3.86,4.55,4.55,0,0,1,4.41-4.16,3.77,3.77,0,0,1,4.09,3.84Zm.55-14.1a4.54,4.54,0,0,1-4.4,4.11,3.71,3.71,0,0,1-4-3.78,4.51,4.51,0,0,1,4.39-4.07,3.68,3.68,0,0,1,4,3.74Zm.57-13.78a4.45,4.45,0,0,1-4.36,4,3.62,3.62,0,0,1-4-3.67,4.51,4.51,0,0,1,4.37-4,3.61,3.61,0,0,1,4,3.65Zm.63-13.44a4.45,4.45,0,0,1-4.35,3.93,3.5,3.5,0,0,1-4-3.55,4.43,4.43,0,0,1,4.33-3.91,3.53,3.53,0,0,1,4,3.53Zm.64-13.07a4.41,4.41,0,0,1-4.32,3.84c-2.27.11-4-1.43-3.91-3.44a4.42,4.42,0,0,1,4.31-3.83c2.27-.11,4,1.43,3.92,3.43Zm.69-12.7a4.38,4.38,0,0,1-4.3,3.75c-2.25.12-4-1.39-3.86-3.34a4.4,4.4,0,0,1,4.28-3.73c2.25-.1,4,1.37,3.88,3.32Zm.71-12.32c-.12,1.89-2,3.51-4.26,3.64s-4-1.31-3.83-3.2,2-3.5,4.26-3.62,3.94,1.29,3.83,3.18Zm.73-11.92c-.12,1.83-2,3.41-4.23,3.53s-3.9-1.26-3.76-3.08,2-3.4,4.21-3.53,3.9,1.26,3.78,3.08Zm8.32,229.18a4.55,4.55,0,0,1-4.49,4.55,4.42,4.42,0,0,1-4.42-4.49,4.58,4.58,0,0,1,4.47-4.57,4.43,4.43,0,0,1,4.44,4.51Zm.11-16a4.57,4.57,0,0,1-4.49,4.54,4.39,4.39,0,0,1-4.41-4.46,4.57,4.57,0,0,1,4.49-4.54,4.38,4.38,0,0,1,4.41,4.46Zm.83-62.85a4.58,4.58,0,0,1-4.47,4.43,4.17,4.17,0,0,1-4.3-4.25,4.56,4.56,0,0,1,4.47-4.41,4.15,4.15,0,0,1,4.3,4.23Zm.31-15.24a4.56,4.56,0,0,1-4.47,4.37,4.1,4.1,0,0,1-4.27-4.18,4.54,4.54,0,0,1,4.46-4.35,4.11,4.11,0,0,1,4.28,4.16Zm.33-15a4.53,4.53,0,0,1-4.46,4.3,4,4,0,0,1-4.23-4.09,4.52,4.52,0,0,1,4.44-4.28A4,4,0,0,1,852,247Zm.36-14.73A4.48,4.48,0,0,1,848,236.5a4,4,0,0,1-4.2-4,4.51,4.51,0,0,1,4.44-4.22,4,4,0,0,1,4.19,4Zm.42-14.46a4.48,4.48,0,0,1-4.42,4.16,3.85,3.85,0,0,1-4.16-3.9,4.48,4.48,0,0,1,4.4-4.16,3.89,3.89,0,0,1,4.18,3.9Zm.43-14.14a4.47,4.47,0,0,1-4.4,4.09A3.81,3.81,0,0,1,844.7,204a4.48,4.48,0,0,1,4.41-4.07,3.8,3.8,0,0,1,4.12,3.79Zm.45-13.81a4.39,4.39,0,0,1-4.37,4,3.7,3.7,0,0,1-4.07-3.71,4.44,4.44,0,0,1,4.37-4,3.72,3.72,0,0,1,4.07,3.69Zm.51-13.48a4.4,4.4,0,0,1-4.36,3.92,3.62,3.62,0,0,1-4-3.6,4.42,4.42,0,0,1,4.35-3.9,3.65,3.65,0,0,1,4,3.58Zm.52-13.09a4.34,4.34,0,0,1-4.32,3.81c-2.31.09-4.09-1.48-4-3.49a4.34,4.34,0,0,1,4.3-3.8c2.29-.09,4.09,1.47,4,3.48Zm.53-12.74c-.07,2-2,3.62-4.28,3.72s-4-1.41-4-3.37a4.29,4.29,0,0,1,4.28-3.69c2.27-.11,4,1.4,4,3.34Zm.57-12.34c-.08,1.9-2,3.51-4.24,3.61s-4-1.36-3.9-3.25,2-3.49,4.24-3.6,4,1.35,3.9,3.24Zm.59-11.94c-.08,1.83-2,3.39-4.21,3.49s-4-1.29-3.85-3.13,2-3.39,4.22-3.47,3.93,1.29,3.84,3.11Zm9.94,229.78a4.57,4.57,0,0,1-4.51,4.56,4.47,4.47,0,0,1-4.47-4.53,4.53,4.53,0,0,1,4.5-4.54,4.47,4.47,0,0,1,4.48,4.51Zm.08-16.07a4.6,4.6,0,0,1-4.52,4.55,4.45,4.45,0,0,1-4.44-4.5,4.58,4.58,0,0,1,4.51-4.54,4.44,4.44,0,0,1,4.45,4.49Zm.61-63a4.55,4.55,0,0,1-4.49,4.41,4.25,4.25,0,0,1-4.35-4.29,4.54,4.54,0,0,1,4.49-4.39A4.24,4.24,0,0,1,867,277Zm.22-15.28a4.5,4.5,0,0,1-4.47,4.35,4.15,4.15,0,0,1-4.31-4.19,4.52,4.52,0,0,1,4.47-4.35,4.16,4.16,0,0,1,4.31,4.19Zm.26-15a4.5,4.5,0,0,1-4.45,4.28,4.1,4.1,0,0,1-4.3-4.12,4.5,4.5,0,0,1,4.46-4.27,4.09,4.09,0,0,1,4.29,4.11Zm.28-14.77a4.44,4.44,0,0,1-4.44,4.21,4,4,0,0,1-4.26-4,4.46,4.46,0,0,1,4.44-4.21,4,4,0,0,1,4.26,4Zm.3-14.48a4.45,4.45,0,0,1-4.42,4.15,4,4,0,0,1-4.22-4,4.43,4.43,0,0,1,4.41-4.13,4,4,0,0,1,4.23,3.93Zm.32-14.17a4.41,4.41,0,0,1-4.4,4.07,3.89,3.89,0,0,1-4.17-3.86,4.38,4.38,0,0,1,4.38-4,3.89,3.89,0,0,1,4.19,3.83Zm.35-13.83a4.38,4.38,0,0,1-4.37,4,3.82,3.82,0,0,1-4.14-3.76,4.36,4.36,0,0,1,4.35-4,3.83,3.83,0,0,1,4.16,3.74Zm.37-13.49a4.32,4.32,0,0,1-4.34,3.88,3.75,3.75,0,0,1-4.11-3.66,4.32,4.32,0,0,1,4.34-3.86,3.76,3.76,0,0,1,4.11,3.64Zm.38-13.13a4.26,4.26,0,0,1-4.3,3.77c-2.32.07-4.14-1.52-4.06-3.53a4.25,4.25,0,0,1,4.3-3.75c2.31-.07,4.13,1.5,4.06,3.51Zm.41-12.76a4.23,4.23,0,0,1-4.28,3.69c-2.29.07-4.07-1.47-4-3.43s2-3.58,4.26-3.65,4.07,1.45,4,3.39Zm.42-12.36c-.07,1.9-2,3.5-4.23,3.58s-4.06-1.41-4-3.3,2-3.5,4.23-3.57,4,1.4,4,3.29Zm.43-12c0,1.84-1.94,3.39-4.19,3.46s-4-1.34-3.92-3.18,2-3.37,4.2-3.44,4,1.33,3.91,3.16Zm11.51,246.42a4.52,4.52,0,1,1-4.51-4.56,4.55,4.55,0,0,1,4.51,4.56Zm0-16.17a4.57,4.57,0,0,1-4.53,4.57,4.55,4.55,0,1,1,4.53-4.57Zm0-16.1a4.55,4.55,0,0,1-4.53,4.55,4.44,4.44,0,0,1-4.47-4.49,4.53,4.53,0,0,1,4.51-4.55,4.45,4.45,0,0,1,4.49,4.49Zm.07-16a4.54,4.54,0,0,1-4.53,4.51,4.41,4.41,0,0,1-4.45-4.46,4.55,4.55,0,0,1,4.52-4.51,4.43,4.43,0,0,1,4.46,4.46Zm.33-47.07a4.5,4.5,0,0,1-4.49,4.38,4.28,4.28,0,0,1-4.39-4.3,4.5,4.5,0,0,1,4.49-4.38,4.26,4.26,0,0,1,4.39,4.3Zm.15-15.3a4.49,4.49,0,0,1-4.47,4.34,4.25,4.25,0,0,1-4.37-4.24,4.48,4.48,0,0,1,4.47-4.33,4.25,4.25,0,0,1,4.37,4.23Zm.16-15a4.43,4.43,0,0,1-4.46,4.26,4.18,4.18,0,0,1-4.33-4.16,4.45,4.45,0,0,1,4.46-4.26,4.17,4.17,0,0,1,4.33,4.16Zm.19-14.81a4.4,4.4,0,0,1-4.44,4.2,4.08,4.08,0,0,1-4.3-4.06,4.41,4.41,0,0,1,4.42-4.19,4.11,4.11,0,0,1,4.32,4Zm.19-14.49a4.34,4.34,0,0,1-4.4,4.11,4,4,0,0,1-4.28-4,4.36,4.36,0,0,1,4.42-4.11,4,4,0,0,1,4.26,4Zm.22-14.19a4.32,4.32,0,0,1-4.38,4,4,4,0,0,1-4.25-3.9,4.33,4.33,0,0,1,4.39-4,4,4,0,0,1,4.24,3.86Zm.23-13.85a4.27,4.27,0,0,1-4.37,3.94,3.91,3.91,0,0,1-4.19-3.8,4.26,4.26,0,0,1,4.35-3.91,3.91,3.91,0,0,1,4.21,3.77Zm.23-13.51a4.23,4.23,0,0,1-4.32,3.85,3.84,3.84,0,0,1-4.16-3.69A4.24,4.24,0,0,1,880,172a3.82,3.82,0,0,1,4.16,3.67Zm.26-13.14a4.17,4.17,0,0,1-4.29,3.74,3.76,3.76,0,0,1-4.12-3.57,4.19,4.19,0,0,1,4.28-3.74c2.32,0,4.18,1.56,4.13,3.57Zm.27-12.76c0,2-2,3.58-4.26,3.63s-4.13-1.5-4.07-3.46,1.95-3.58,4.24-3.62,4.13,1.49,4.09,3.45Zm.28-12.4c-.05,1.91-1.94,3.5-4.23,3.55s-4.09-1.45-4-3.36,1.94-3.46,4.21-3.51,4.07,1.43,4,3.32Zm.28-12c0,1.83-1.93,3.39-4.18,3.42s-4-1.39-4-3.23,1.93-3.34,4.16-3.39,4,1.38,4,3.2Zm13.1,263a4.53,4.53,0,1,1-4.52-4.58,4.54,4.54,0,0,1,4.52,4.58Zm0-16.22a4.53,4.53,0,1,1-4.52-4.57,4.55,4.55,0,0,1,4.52,4.57Zm0-16.19a4.53,4.53,0,1,1-4.51-4.55,4.56,4.56,0,0,1,4.51,4.55Zm.07-32.13a4.52,4.52,0,0,1-4.53,4.51,4.46,4.46,0,0,1-4.49-4.48,4.55,4.55,0,0,1,4.53-4.51,4.48,4.48,0,0,1,4.49,4.48Zm.15-47.11a4.47,4.47,0,0,1-4.49,4.37,4.33,4.33,0,0,1-4.42-4.33,4.46,4.46,0,0,1,4.48-4.36,4.35,4.35,0,0,1,4.43,4.32Zm.07-15.31a4.44,4.44,0,0,1-4.47,4.32,4.31,4.31,0,0,1-4.4-4.27,4.43,4.43,0,0,1,4.47-4.3,4.31,4.31,0,0,1,4.4,4.25Zm.07-15.07a4.38,4.38,0,0,1-4.43,4.25,4.22,4.22,0,0,1-4.37-4.18,4.38,4.38,0,0,1,4.43-4.25,4.23,4.23,0,0,1,4.37,4.18Zm.09-14.81a4.34,4.34,0,0,1-4.42,4.18,4.15,4.15,0,0,1-4.33-4.11,4.32,4.32,0,0,1,4.4-4.14,4.17,4.17,0,0,1,4.35,4.07Zm.1-14.5a4.31,4.31,0,0,1-4.4,4.09,4.13,4.13,0,0,1-4.32-4,4.32,4.32,0,0,1,4.39-4.09,4.16,4.16,0,0,1,4.33,4Zm.09-14.2a4.23,4.23,0,0,1-4.35,4,4,4,0,0,1-4.28-3.93,4.23,4.23,0,0,1,4.35-4,4.07,4.07,0,0,1,4.28,3.91Zm.1-13.86a4.16,4.16,0,0,1-4.31,3.9,4,4,0,0,1-4.25-3.83,4.19,4.19,0,0,1,4.32-3.88,4,4,0,0,1,4.24,3.81Zm.12-13.53a4.12,4.12,0,0,1-4.29,3.81,3.9,3.9,0,0,1-4.2-3.72,4.14,4.14,0,0,1,4.28-3.8,3.94,3.94,0,0,1,4.21,3.71Zm.13-13.15a4.08,4.08,0,0,1-4.27,3.71,3.85,3.85,0,0,1-4.16-3.62,4.06,4.06,0,0,1,4.25-3.69,3.88,3.88,0,0,1,4.18,3.6Zm.12-12.77c0,1.95-1.91,3.58-4.21,3.6s-4.18-1.54-4.13-3.52,1.91-3.53,4.21-3.58,4.16,1.54,4.13,3.5Zm.14-12.38c0,1.89-1.91,3.46-4.2,3.48s-4.11-1.49-4.07-3.39,1.91-3.45,4.18-3.48,4.1,1.48,4.09,3.39Zm14.83,251.23a4.54,4.54,0,1,1-4.54-4.58,4.56,4.56,0,0,1,4.54,4.58Zm0-16.22a4.54,4.54,0,1,1-4.53-4.58,4.55,4.55,0,0,1,4.53,4.58Zm0-16.19a4.53,4.53,0,1,1-4.53-4.56,4.55,4.55,0,0,1,4.53,4.56Zm0-79.27a4.44,4.44,0,0,1-4.47,4.35,4.35,4.35,0,1,1,4.47-4.35Zm0-15.32a4.44,4.44,0,1,1-4.44-4.26,4.37,4.37,0,0,1,4.44,4.26Zm0-15.07a4.43,4.43,0,1,1-4.42-4.19,4.32,4.32,0,0,1,4.42,4.19Zm0-14.8a4.39,4.39,0,1,1-4.38-4.11,4.26,4.26,0,0,1,4.38,4.11Zm0-14.51a4.22,4.22,0,0,1-4.35,4.06,4.17,4.17,0,0,1-4.35-4,4.36,4.36,0,0,1,8.7,0Zm0-14.21a4.35,4.35,0,1,1-4.34-3.93,4.18,4.18,0,0,1,4.34,3.93Zm0-13.86a4.12,4.12,0,0,1-4.3,3.88,3.89,3.89,0,1,1,4.3-3.88Zm0-13.53a4.29,4.29,0,1,1-4.25-3.74,4,4,0,0,1,4.25,3.74Zm0-13.15a4.27,4.27,0,1,1-4.21-3.63,3.94,3.94,0,0,1,4.21,3.63Zm0-12.78c0,2-1.88,3.57-4.18,3.57s-4.18-1.59-4.18-3.55a3.93,3.93,0,0,1,4.2-3.55c2.28,0,4.16,1.58,4.16,3.53Zm0-12.39c0,1.91-1.86,3.46-4.14,3.46S906,139,906,137.09s1.86-3.45,4.14-3.45,4.13,1.54,4.13,3.43Zm16.12,331.86a4.5,4.5,0,0,1-4.51,4.48,4.46,4.46,0,0,1-4.49-4.46,4.54,4.54,0,0,1,4.51-4.49,4.45,4.45,0,0,1,4.49,4.47Zm0-15.94a4.52,4.52,0,1,1-4.51-4.51,4.53,4.53,0,0,1,4.51,4.51Zm0-16.06A4.53,4.53,0,1,1,926,432.4a4.53,4.53,0,0,1,4.51,4.53Zm0-32.34A4.54,4.54,0,1,1,926,400a4.58,4.58,0,0,1,4.54,4.58Zm0-16.22a4.54,4.54,0,1,1-4.54-4.58,4.55,4.55,0,0,1,4.54,4.58Zm-.11-64.52a4.51,4.51,0,1,1-4.52-4.51,4.49,4.49,0,0,1,4.52,4.51Zm-.19-47.11a4.39,4.39,0,0,1-4.45,4.33,4.45,4.45,0,0,1-4.47-4.37,4.35,4.35,0,0,1,4.43-4.33,4.47,4.47,0,0,1,4.49,4.37Zm-.08-15.31a4.32,4.32,0,0,1-4.42,4.26,4.39,4.39,0,0,1-4.46-4.3,4.32,4.32,0,0,1,4.4-4.27,4.47,4.47,0,0,1,4.48,4.31ZM930,246.36a4.26,4.26,0,0,1-4.38,4.19,4.34,4.34,0,0,1-4.44-4.23,4.24,4.24,0,0,1,4.38-4.18,4.36,4.36,0,0,1,4.44,4.22Zm-.1-14.79a4.2,4.2,0,0,1-4.37,4.11,4.3,4.3,0,0,1-4.4-4.16,4.22,4.22,0,0,1,4.37-4.11,4.34,4.34,0,0,1,4.4,4.16Zm-.12-14.51a4.15,4.15,0,0,1-4.34,4,4.27,4.27,0,0,1-4.38-4.07,4.16,4.16,0,0,1,4.33-4,4.29,4.29,0,0,1,4.39,4.07Zm-.12-14.21a4.1,4.1,0,0,1-4.3,4,4.21,4.21,0,0,1-4.35-4,4.08,4.08,0,0,1,4.29-3.92,4.24,4.24,0,0,1,4.36,4ZM929.55,189a4,4,0,0,1-4.27,3.84,4.16,4.16,0,0,1-4.31-3.9,4,4,0,0,1,4.26-3.82,4.17,4.17,0,0,1,4.32,3.88Zm-.14-13.52a4,4,0,0,1-4.23,3.75,4.1,4.1,0,0,1-4.28-3.82,3.94,3.94,0,0,1,4.23-3.7,4.09,4.09,0,0,1,4.28,3.77Zm-.16-13.14a3.88,3.88,0,0,1-4.18,3.62,4,4,0,0,1-4.24-3.69,3.88,3.88,0,0,1,4.18-3.62,4,4,0,0,1,4.24,3.69Zm16.81,337.91a4.47,4.47,0,0,1-4.48,4.39,4.31,4.31,0,0,1-4.42-4.32,4.49,4.49,0,0,1,4.48-4.42,4.32,4.32,0,0,1,4.42,4.35Zm.14-15.61a4.51,4.51,0,0,1-4.5,4.46,4.38,4.38,0,0,1-4.44-4.39,4.53,4.53,0,0,1,4.51-4.47,4.36,4.36,0,0,1,4.43,4.4Zm.12-15.78a4.55,4.55,0,0,1-4.52,4.49,4.39,4.39,0,0,1-4.45-4.44,4.51,4.51,0,0,1,4.5-4.49,4.41,4.41,0,0,1,4.47,4.44Zm.09-15.91a4.54,4.54,0,0,1-4.52,4.51,4.45,4.45,0,0,1-4.47-4.48,4.55,4.55,0,0,1,4.5-4.54,4.47,4.47,0,0,1,4.49,4.51Zm.07-16.05a4.56,4.56,0,0,1-4.52,4.55,4.47,4.47,0,0,1-4.49-4.53,4.55,4.55,0,0,1,4.52-4.55,4.47,4.47,0,0,1,4.49,4.53Zm0-16.13a4.52,4.52,0,1,1-4.5-4.55,4.54,4.54,0,0,1,4.5,4.55Zm0-16.19A4.53,4.53,0,1,1,942,400a4.58,4.58,0,0,1,4.53,4.56Zm0-16.2a4.53,4.53,0,1,1-4.53-4.58,4.55,4.55,0,0,1,4.53,4.58Zm-.12-48.46a4.47,4.47,0,0,1-4.49,4.51,4.57,4.57,0,0,1-4.53-4.54,4.48,4.48,0,0,1,4.49-4.51,4.55,4.55,0,0,1,4.53,4.54Zm-.07-16a4.46,4.46,0,0,1-4.48,4.47,4.55,4.55,0,0,1-4.52-4.51,4.42,4.42,0,0,1,4.47-4.47,4.55,4.55,0,0,1,4.53,4.51Zm-.73-77.41a4.17,4.17,0,0,1-4.35,4.16,4.44,4.44,0,0,1-4.46-4.26,4.2,4.2,0,0,1,4.35-4.14,4.41,4.41,0,0,1,4.46,4.24Zm-.21-14.78a4.12,4.12,0,0,1-4.32,4.09,4.39,4.39,0,0,1-4.42-4.2,4.14,4.14,0,0,1,4.32-4.07,4.38,4.38,0,0,1,4.42,4.18Zm-.21-14.5a4.06,4.06,0,0,1-4.3,4,4.33,4.33,0,0,1-4.4-4.11,4.09,4.09,0,0,1,4.3-4,4.35,4.35,0,0,1,4.4,4.09ZM945,203a4,4,0,0,1-4.25,3.92,4.32,4.32,0,0,1-4.38-4,4,4,0,0,1,4.26-3.88,4.29,4.29,0,0,1,4.37,4Zm-.26-13.84a3.9,3.9,0,0,1-4.21,3.79,4.22,4.22,0,0,1-4.35-3.93,4,4,0,0,1,4.23-3.78,4.23,4.23,0,0,1,4.33,3.92Zm-.26-13.52a3.87,3.87,0,0,1-4.18,3.71,4.18,4.18,0,0,1-4.31-3.85,3.87,3.87,0,0,1,4.17-3.67,4.21,4.21,0,0,1,4.32,3.81Zm-.29-13.12c.05,2-1.81,3.61-4.13,3.58a4.12,4.12,0,0,1-4.28-3.74,3.79,3.79,0,0,1,4.14-3.57,4.14,4.14,0,0,1,4.27,3.73Zm-.3-12.78c0,2-1.78,3.51-4.09,3.48s-4.19-1.66-4.25-3.62,1.81-3.5,4.11-3.46,4.2,1.66,4.23,3.6Zm-.31-12.38c0,1.91-1.75,3.43-4,3.38s-4.18-1.63-4.21-3.52,1.78-3.41,4-3.35,4.16,1.6,4.2,3.49Zm11.78,570.1c-.08,1.54-1.87,2.84-4,2.92s-3.8-1.1-3.73-2.64,1.86-2.85,4-2.91,3.79,1.1,3.7,2.63Zm.54-10.06c-.07,1.6-1.89,2.95-4,3s-3.83-1.15-3.76-2.74,1.87-3,4-3.05,3.85,1.16,3.76,2.77Zm.52-10.49c-.07,1.66-1.9,3.07-4.07,3.13s-3.88-1.21-3.83-2.87,1.9-3.08,4.09-3.16,3.9,1.22,3.81,2.9Zm.52-10.93c-.08,1.73-1.92,3.18-4.12,3.25s-3.94-1.25-3.87-3,1.91-3.19,4.13-3.28,3.93,1.29,3.86,3Zm.5-11.32c-.08,1.78-1.94,3.28-4.17,3.37s-4-1.33-3.92-3.13,1.94-3.32,4.18-3.39,4,1.34,3.91,3.15Zm.49-11.75c-.07,1.85-2,3.41-4.21,3.48s-4-1.38-4-3.24,1.94-3.42,4.21-3.49,4,1.38,4,3.25Zm3.67-137.52a4.5,4.5,0,0,1-4.47,4.35,4.2,4.2,0,0,1-4.35-4.23,4.52,4.52,0,0,1,4.47-4.38,4.22,4.22,0,0,1,4.35,4.26Zm.23-15.38a4.55,4.55,0,0,1-4.49,4.42,4.27,4.27,0,0,1-4.38-4.3,4.55,4.55,0,0,1,4.5-4.44,4.28,4.28,0,0,1,4.37,4.32Zm.21-15.58a4.6,4.6,0,0,1-4.51,4.48,4.33,4.33,0,0,1-4.4-4.39,4.55,4.55,0,0,1,4.51-4.46,4.33,4.33,0,0,1,4.4,4.37Zm.15-15.75a4.53,4.53,0,0,1-4.49,4.5,4.37,4.37,0,0,1-4.43-4.43,4.54,4.54,0,0,1,4.5-4.49,4.36,4.36,0,0,1,4.42,4.42Zm.14-15.89a4.58,4.58,0,0,1-4.5,4.53,4.42,4.42,0,0,1-4.46-4.47,4.61,4.61,0,0,1,4.53-4.55,4.42,4.42,0,0,1,4.43,4.49Zm.11-16a4.56,4.56,0,0,1-4.51,4.55,4.45,4.45,0,0,1-4.47-4.49,4.6,4.6,0,0,1,4.52-4.57,4.47,4.47,0,0,1,4.46,4.51Zm.08-16.09a4.56,4.56,0,0,1-4.52,4.56,4.46,4.46,0,0,1-4.47-4.53,4.54,4.54,0,0,1,4.5-4.56,4.49,4.49,0,0,1,4.49,4.53Zm0-16.16a4.5,4.5,0,1,1-4.49-4.56,4.54,4.54,0,0,1,4.49,4.56Zm0-16.18a4.5,4.5,0,1,1-4.49-4.57,4.53,4.53,0,0,1,4.49,4.57ZM962.39,340a4.43,4.43,0,0,1-4.45,4.49,4.55,4.55,0,0,1-4.53-4.54,4.46,4.46,0,0,1,4.46-4.5,4.58,4.58,0,0,1,4.52,4.55Zm-.12-16a4.4,4.4,0,0,1-4.44,4.44,4.56,4.56,0,0,1-4.52-4.51,4.42,4.42,0,0,1,4.45-4.46,4.59,4.59,0,0,1,4.51,4.53Zm-1.68-106.53a4,4,0,0,1-4.23,4,4.39,4.39,0,0,1-4.42-4.14,4,4,0,0,1,4.25-4,4.41,4.41,0,0,1,4.4,4.12Zm-.35-14.15a3.91,3.91,0,0,1-4.19,3.86,4.37,4.37,0,0,1-4.4-4.06,3.91,3.91,0,0,1,4.21-3.84,4.38,4.38,0,0,1,4.38,4Zm-.38-13.85a3.85,3.85,0,0,1-4.16,3.78,4.31,4.31,0,0,1-4.35-4,3.83,3.83,0,0,1,4.16-3.74,4.32,4.32,0,0,1,4.35,3.93Zm-.4-13.48a3.74,3.74,0,0,1-4.11,3.66,4.27,4.27,0,0,1-4.33-3.87,3.77,3.77,0,0,1,4.13-3.63,4.25,4.25,0,0,1,4.31,3.84Zm-.41-13.12c.07,2-1.75,3.61-4.08,3.54a4.21,4.21,0,0,1-4.3-3.75c0-2,1.79-3.6,4.1-3.53a4.2,4.2,0,0,1,4.28,3.74Zm-.44-12.75c.07,2-1.73,3.5-4,3.45s-4.21-1.72-4.28-3.67,1.75-3.48,4-3.43,4.19,1.7,4.26,3.65Zm-.45-12.36c.07,1.89-1.71,3.38-4,3.33s-4.18-1.66-4.23-3.57,1.73-3.36,4-3.3,4.15,1.66,4.23,3.54Zm-.48-12c.08,1.83-1.68,3.28-3.94,3.2s-4.12-1.61-4.19-3.45,1.71-3.23,4-3.18,4.13,1.59,4.18,3.43Zm10.59,590.66c-.11,1.47-1.89,2.72-4,2.85s-3.69-1-3.59-2.47,1.87-2.74,4-2.85,3.73,1,3.61,2.47Zm.71-9.63c-.12,1.53-1.91,2.86-4,3s-3.75-1.05-3.64-2.59,1.89-2.86,4-3,3.74,1.05,3.64,2.59Zm.71-10.06c-.11,1.59-1.93,3-4.07,3.06s-3.8-1.1-3.7-2.69,1.91-3,4.06-3.09,3.81,1.12,3.71,2.72Zm.69-10.48c-.1,1.66-1.94,3.09-4.11,3.18s-3.84-1.16-3.76-2.82,1.94-3.11,4.11-3.21,3.87,1.19,3.76,2.85Zm.68-10.91c-.11,1.73-2,3.2-4.16,3.3s-3.88-1.22-3.8-2.93,1.94-3.24,4.14-3.33,3.92,1.23,3.82,3Zm.64-11.31c-.09,1.78-2,3.32-4.18,3.41s-3.95-1.28-3.85-3.06,2-3.34,4.18-3.45,4,1.3,3.85,3.1Zm.64-11.73c-.1,1.85-2,3.43-4.23,3.51s-4-1.33-3.9-3.18,2-3.42,4.23-3.53,4,1.35,3.9,3.2Zm.61-12.13c-.09,1.92-2,3.53-4.25,3.63s-4-1.39-4-3.3a4.22,4.22,0,0,1,4.26-3.65c2.27-.11,4,1.4,3.94,3.32Zm.59-12.52a4.27,4.27,0,0,1-4.28,3.73c-2.29.08-4.08-1.46-4-3.43a4.29,4.29,0,0,1,4.3-3.74c2.31-.09,4.07,1.45,4,3.44Zm.57-12.9a4.38,4.38,0,0,1-4.33,3.83c-2.31.07-4.11-1.5-4-3.53a4.33,4.33,0,0,1,4.33-3.86,3.63,3.63,0,0,1,4,3.56Zm.54-13.28a4.4,4.4,0,0,1-4.35,3.93,3.73,3.73,0,0,1-4.1-3.65,4.39,4.39,0,0,1,4.36-3.94,3.71,3.71,0,0,1,4.09,3.66Zm.5-13.62a4.39,4.39,0,0,1-4.39,4,3.77,3.77,0,0,1-4.12-3.74,4.43,4.43,0,0,1,4.38-4,3.8,3.8,0,0,1,4.13,3.78Zm1.7-57.69a4.55,4.55,0,0,1-4.46,4.32,4.1,4.1,0,0,1-4.28-4.12,4.54,4.54,0,0,1,4.47-4.34,4.07,4.07,0,0,1,4.27,4.14Zm.34-15.1a4.55,4.55,0,0,1-4.47,4.37,4.15,4.15,0,0,1-4.31-4.21,4.55,4.55,0,0,1,4.47-4.39,4.14,4.14,0,0,1,4.31,4.23Zm.3-15.35a4.57,4.57,0,0,1-4.47,4.43,4.21,4.21,0,0,1-4.35-4.29,4.55,4.55,0,0,1,4.48-4.42,4.18,4.18,0,0,1,4.34,4.28Zm.26-15.54a4.59,4.59,0,0,1-4.49,4.48,4.3,4.3,0,0,1-4.37-4.35,4.59,4.59,0,0,1,4.49-4.48,4.28,4.28,0,0,1,4.37,4.35Zm.22-15.71a4.57,4.57,0,0,1-4.49,4.49,4.31,4.31,0,0,1-4.4-4.39,4.58,4.58,0,0,1,4.51-4.51,4.33,4.33,0,0,1,4.38,4.41Zm.18-15.86a4.58,4.58,0,0,1-4.49,4.53,4.39,4.39,0,0,1-4.42-4.46,4.59,4.59,0,0,1,4.5-4.54,4.37,4.37,0,0,1,4.41,4.47Zm.14-16a4.55,4.55,0,0,1-4.49,4.54,4.41,4.41,0,0,1-4.44-4.47,4.57,4.57,0,0,1,4.51-4.56,4.41,4.41,0,0,1,4.42,4.49Zm.15-32.18a4.52,4.52,0,0,1-4.49,4.56,4.47,4.47,0,0,1-4.45-4.54,4.47,4.47,0,1,1,8.94,0Zm0-16.14a4.47,4.47,0,1,1-4.47-4.56,4.49,4.49,0,0,1,4.47,4.56Zm0-16.13a4.48,4.48,0,0,1-4.45,4.53,4.53,4.53,0,0,1-4.49-4.56,4.45,4.45,0,0,1,4.45-4.53,4.53,4.53,0,0,1,4.49,4.56Zm-.19-32.13a4.42,4.42,0,0,1-4.42,4.48,4.58,4.58,0,0,1-4.5-4.55,4.39,4.39,0,0,1,4.42-4.47,4.55,4.55,0,0,1,4.5,4.54Zm-.15-15.92a4.36,4.36,0,0,1-4.41,4.42,4.57,4.57,0,0,1-4.5-4.53,4.37,4.37,0,0,1,4.4-4.42,4.59,4.59,0,0,1,4.51,4.53ZM974.91,190a3.74,3.74,0,0,1-4.09,3.72,4.39,4.39,0,0,1-4.37-4,3.74,3.74,0,0,1,4.09-3.7,4.38,4.38,0,0,1,4.37,4Zm-.52-13.46c.08,2.08-1.72,3.68-4.06,3.61a4.32,4.32,0,0,1-4.33-3.89,3.65,3.65,0,0,1,4-3.6,4.35,4.35,0,0,1,4.34,3.88Zm-.54-13.1c.08,2-1.72,3.59-4,3.5a4.32,4.32,0,0,1-4.32-3.79c-.07-2,1.73-3.57,4-3.5a4.34,4.34,0,0,1,4.32,3.79Zm-.59-12.72c.09,2-1.68,3.48-4,3.39a4.24,4.24,0,0,1-4.26-3.71c-.09-1.94,1.69-3.46,4-3.37a4.25,4.25,0,0,1,4.26,3.69Zm-.59-12.34c.09,1.88-1.66,3.35-3.92,3.27s-4.17-1.7-4.24-3.59,1.66-3.35,3.91-3.27,4.15,1.7,4.25,3.59Zm-.62-11.94c.08,1.83-1.63,3.25-3.89,3.14s-4.12-1.64-4.21-3.47,1.67-3.24,3.88-3.13,4.11,1.64,4.22,3.46Zm9.56,589.28c-.14,1.46-1.92,2.76-4,2.9s-3.66-1-3.54-2.42,1.92-2.77,4-2.9,3.66,1,3.52,2.42Zm.9-9.62c-.15,1.54-1.94,2.89-4,3s-3.71-1-3.59-2.54,1.94-2.86,4.05-3,3.7,1,3.57,2.55Zm1.72-20.5c-.12,1.66-2,3.11-4.12,3.23s-3.78-1.12-3.68-2.78,2-3.13,4.13-3.25,3.79,1.14,3.67,2.8Zm.83-10.89c-.12,1.73-2,3.21-4.16,3.34s-3.83-1.16-3.72-2.89,2-3.23,4.16-3.36,3.86,1.18,3.72,2.91Zm.82-11.3c-.14,1.79-2,3.34-4.2,3.47s-3.88-1.25-3.78-3,2-3.35,4.2-3.48,3.92,1.26,3.78,3Zm.78-11.69c-.11,1.85-2,3.44-4.23,3.55s-3.94-1.28-3.83-3.13,2-3.46,4.24-3.58,4,1.31,3.82,3.16Zm.76-12.1c-.12,1.89-2,3.53-4.26,3.66s-4-1.35-3.89-3.27a4.31,4.31,0,0,1,4.28-3.67c2.26-.13,4,1.36,3.87,3.28Zm.73-12.49a4.4,4.4,0,0,1-4.3,3.75c-2.27.09-4-1.41-3.92-3.37a4.37,4.37,0,0,1,4.3-3.78c2.27-.12,4,1.4,3.92,3.4Zm.69-12.87a4.43,4.43,0,0,1-4.31,3.85c-2.29.08-4.08-1.47-4-3.5a4.38,4.38,0,0,1,4.33-3.88,3.53,3.53,0,0,1,4,3.53ZM989.5,601a4.45,4.45,0,0,1-4.35,3.95,3.58,3.58,0,0,1-4-3.6,4.43,4.43,0,0,1,4.35-4,3.59,3.59,0,0,1,4,3.62Zm.62-13.6a4.44,4.44,0,0,1-4.36,4,3.69,3.69,0,0,1-4.06-3.71,4.46,4.46,0,0,1,4.39-4.05,3.64,3.64,0,0,1,4,3.72Zm.59-13.91a4.48,4.48,0,0,1-4.38,4.1,3.76,3.76,0,0,1-4.11-3.81,4.53,4.53,0,0,1,4.4-4.14,3.76,3.76,0,0,1,4.09,3.85Zm.56-14.25a4.5,4.5,0,0,1-4.42,4.18,3.82,3.82,0,0,1-4.13-3.9,4.51,4.51,0,0,1,4.42-4.21,3.85,3.85,0,0,1,4.13,3.93Zm.5-14.54a4.56,4.56,0,0,1-4.42,4.26,3.94,3.94,0,0,1-4.18-4,4.54,4.54,0,0,1,4.44-4.28,3.91,3.91,0,0,1,4.16,4Zm.47-14.83a4.57,4.57,0,0,1-4.44,4.32,4,4,0,0,1-4.23-4.09,4.58,4.58,0,0,1,4.46-4.34,4,4,0,0,1,4.21,4.11Zm.41-15.07a4.56,4.56,0,0,1-4.45,4.39A4.07,4.07,0,0,1,984,515a4.6,4.6,0,0,1,4.46-4.4,4.08,4.08,0,0,1,4.24,4.19Zm.37-15.29a4.57,4.57,0,0,1-4.46,4.42,4.12,4.12,0,0,1-4.28-4.23,4.57,4.57,0,0,1,4.47-4.44,4.11,4.11,0,0,1,4.27,4.25Zm.33-15.51a4.6,4.6,0,0,1-4.47,4.48,4.19,4.19,0,0,1-4.3-4.32,4.55,4.55,0,0,1,4.47-4.47,4.2,4.2,0,0,1,4.3,4.31Zm.27-15.66a4.56,4.56,0,0,1-4.47,4.49,4.23,4.23,0,0,1-4.33-4.37,4.6,4.6,0,0,1,4.47-4.51,4.27,4.27,0,0,1,4.33,4.39Zm.23-15.82a4.57,4.57,0,0,1-4.47,4.53,4.31,4.31,0,0,1-4.37-4.42,4.58,4.58,0,0,1,4.47-4.55,4.35,4.35,0,0,1,4.37,4.44Zm.16-15.92a4.56,4.56,0,0,1-4.46,4.54,4.37,4.37,0,0,1-4.38-4.47,4.54,4.54,0,0,1,4.47-4.55,4.37,4.37,0,0,1,4.37,4.48Zm.12-16a4.54,4.54,0,0,1-4.46,4.56,4.42,4.42,0,0,1-4.4-4.51,4.51,4.51,0,0,1,4.45-4.54,4.4,4.4,0,0,1,4.41,4.49Zm.07-16.07a4.51,4.51,0,0,1-4.44,4.55,4.45,4.45,0,0,1-4.44-4.51,4.54,4.54,0,0,1,4.46-4.56,4.45,4.45,0,0,1,4.42,4.52Zm0-16.08a4.44,4.44,0,1,1-4.43-4.54,4.47,4.47,0,0,1,4.43,4.54Zm-.27-48.12a4.36,4.36,0,0,1-4.37,4.46,4.58,4.58,0,0,1-4.47-4.55,4.34,4.34,0,0,1,4.38-4.46,4.59,4.59,0,0,1,4.46,4.55Zm-4.09-149.74a3.66,3.66,0,0,1-4,3.67,4.45,4.45,0,0,1-4.37-4,3.65,3.65,0,0,1,4-3.67,4.49,4.49,0,0,1,4.37,4Zm-.65-13.42a3.56,3.56,0,0,1-4,3.56,4.39,4.39,0,0,1-4.35-3.93,3.56,3.56,0,0,1,4-3.55,4.44,4.44,0,0,1,4.35,3.92ZM988.51,164c.12,2-1.65,3.57-3.93,3.46a4.37,4.37,0,0,1-4.32-3.82c-.1-2,1.67-3.54,4-3.45a4.39,4.39,0,0,1,4.3,3.81Zm-.71-12.69c.1,1.94-1.61,3.45-3.88,3.34a4.35,4.35,0,0,1-4.3-3.74c-.1-1.94,1.65-3.43,3.9-3.32s4.18,1.78,4.28,3.72Zm-.73-12.3c.11,1.88-1.61,3.33-3.84,3.21s-4.18-1.73-4.27-3.63,1.61-3.31,3.85-3.2,4.14,1.73,4.26,3.62Zm-.78-11.93c.12,1.84-1.57,3.2-3.79,3.12s-4.11-1.7-4.23-3.54,1.59-3.19,3.81-3.09,4.09,1.7,4.21,3.51Zm8.58,587.59c-.17,1.45-2,2.78-4,2.92s-3.59-.9-3.43-2.35,1.94-2.81,4-2.95,3.63.91,3.45,2.38Zm5.06-52.2c-.15,1.78-2,3.36-4.21,3.48s-3.85-1.19-3.71-3,2-3.34,4.21-3.5,3.87,1.21,3.71,3Zm.92-11.68c-.12,1.86-2,3.46-4.23,3.59s-3.9-1.24-3.74-3.08,2-3.48,4.23-3.62,3.9,1.26,3.74,3.11Zm.9-12.06a4.44,4.44,0,0,1-4.26,3.69c-2.22.12-3.93-1.31-3.8-3.22s2-3.6,4.29-3.7,3.91,1.31,3.77,3.23Zm.87-12.46a4.42,4.42,0,0,1-4.3,3.77c-2.23.14-4-1.34-3.85-3.32a4.48,4.48,0,0,1,4.32-3.81c2.25-.1,4,1.38,3.83,3.36Zm.83-12.83a4.47,4.47,0,0,1-4.33,3.86,3.4,3.4,0,0,1-3.88-3.42,4.46,4.46,0,0,1,4.33-3.92,3.43,3.43,0,0,1,3.88,3.48Zm.78-13.22a4.5,4.5,0,0,1-4.35,4,3.49,3.49,0,0,1-3.93-3.55,4.49,4.49,0,0,1,4.35-4,3.49,3.49,0,0,1,3.93,3.56Zm.75-13.54a4.55,4.55,0,0,1-4.37,4,3.61,3.61,0,0,1-4-3.67A4.54,4.54,0,0,1,1001,583a3.58,3.58,0,0,1,4,3.69Zm.69-13.88a4.55,4.55,0,0,1-4.38,4.12,3.69,3.69,0,0,1-4-3.76,4.57,4.57,0,0,1,4.39-4.16,3.67,3.67,0,0,1,4,3.8Zm.66-14.22a4.57,4.57,0,0,1-4.4,4.22,3.76,3.76,0,0,1-4.08-3.87,4.59,4.59,0,0,1,4.42-4.23,3.77,3.77,0,0,1,4.06,3.88Zm.61-14.49a4.62,4.62,0,0,1-4.42,4.29,3.84,3.84,0,0,1-4.11-4,4.56,4.56,0,0,1,4.42-4.28,3.84,3.84,0,0,1,4.11,4Zm.53-14.77a4.58,4.58,0,0,1-4.42,4.34,3.91,3.91,0,0,1-4.14-4.06,4.61,4.61,0,0,1,4.42-4.35,3.91,3.91,0,0,1,4.14,4.07Zm.51-15a4.62,4.62,0,0,1-4.44,4.38,4,4,0,0,1-4.18-4.12,4.61,4.61,0,0,1,4.44-4.42,4,4,0,0,1,4.18,4.16Zm.43-15.25a4.62,4.62,0,0,1-4.44,4.44,4.06,4.06,0,0,1-4.21-4.21,4.62,4.62,0,0,1,4.44-4.46,4.08,4.08,0,0,1,4.21,4.23Zm.38-15.43a4.59,4.59,0,0,1-4.44,4.47,4.13,4.13,0,0,1-4.24-4.28,4.59,4.59,0,0,1,4.43-4.49,4.13,4.13,0,0,1,4.25,4.3Zm.33-15.63a4.6,4.6,0,0,1-4.44,4.51,4.21,4.21,0,0,1-4.28-4.35,4.56,4.56,0,0,1,4.44-4.49,4.17,4.17,0,0,1,4.28,4.33Zm.26-15.75a4.58,4.58,0,0,1-4.42,4.53,4.3,4.3,0,0,1-4.32-4.41,4.58,4.58,0,0,1,4.44-4.52,4.27,4.27,0,0,1,4.3,4.4Zm.21-15.87a4.58,4.58,0,0,1-4.42,4.53,4.33,4.33,0,0,1-4.35-4.44,4.56,4.56,0,0,1,4.43-4.55,4.35,4.35,0,0,1,4.34,4.46Zm.14-16a4.52,4.52,0,0,1-4.41,4.53,4.37,4.37,0,0,1-4.36-4.48,4.51,4.51,0,0,1,4.42-4.54,4.39,4.39,0,0,1,4.35,4.49Zm.08-16a4.49,4.49,0,0,1-4.4,4.53,4.52,4.52,0,1,1,4.4-4.53Zm0-16.05a4.4,4.4,0,1,1-4.4-4.53,4.46,4.46,0,0,1,4.4,4.53Zm-.33-47.93a4.3,4.3,0,0,1-4.31,4.42,4.56,4.56,0,0,1-4.44-4.54,4.27,4.27,0,0,1,4.31-4.42,4.56,4.56,0,0,1,4.44,4.54Zm-4.85-149.25a3.58,3.58,0,0,1-4,3.66,4.56,4.56,0,0,1-4.39-4.06,3.57,3.57,0,0,1,4-3.62,4.56,4.56,0,0,1,4.37,4Zm-.78-13.39a3.47,3.47,0,0,1-3.92,3.54,4.5,4.5,0,0,1-4.33-4c-.12-2.06,1.64-3.61,3.91-3.51a4.53,4.53,0,0,1,4.34,3.93Zm-1.65-25.67c.12,1.94-1.58,3.4-3.81,3.28a4.43,4.43,0,0,1-4.3-3.76c-.12-1.94,1.59-3.4,3.83-3.26a4.44,4.44,0,0,1,4.28,3.74Zm-.88-12.29c.14,1.89-1.54,3.3-3.78,3.18s-4.14-1.78-4.25-3.67,1.56-3.29,3.78-3.15a4.44,4.44,0,0,1,4.25,3.64Zm-.92-11.87c.15,1.82-1.51,3.18-3.73,3s-4.09-1.73-4.21-3.55,1.53-3.16,3.73-3,4.07,1.73,4.21,3.55Zm-.94-11.49c.14,1.75-1.5,3.08-3.67,2.92s-4.06-1.69-4.2-3.44,1.51-3.08,3.68-2.92,4,1.68,4.19,3.44Zm15.41,533.33c-.15,1.85-2,3.44-4.23,3.62s-3.81-1.19-3.65-3.05,2-3.47,4.22-3.63,3.82,1.2,3.66,3.06Zm1-12a4.47,4.47,0,0,1-4.26,3.71c-2.19.17-3.85-1.26-3.71-3.15a4.47,4.47,0,0,1,4.26-3.74c2.22-.16,3.88,1.26,3.71,3.18Zm1-12.43a4.55,4.55,0,0,1-4.3,3.81c-2.2.16-3.9-1.31-3.76-3.27a4.57,4.57,0,0,1,4.3-3.84c2.23-.12,3.91,1.33,3.76,3.3Zm.95-12.79a4.6,4.6,0,0,1-4.32,3.91c-2.23.12-3.93-1.38-3.81-3.39a4.56,4.56,0,0,1,4.32-3.93c2.25-.14,3.95,1.38,3.81,3.41Zm.9-13.17a4.55,4.55,0,0,1-4.33,4,3.39,3.39,0,0,1-3.85-3.52,4.54,4.54,0,0,1,4.33-4,3.38,3.38,0,0,1,3.85,3.51Zm.87-13.49a4.63,4.63,0,0,1-4.35,4.07,3.49,3.49,0,0,1-3.9-3.62,4.55,4.55,0,0,1,4.35-4.09,3.49,3.49,0,0,1,3.9,3.64Zm.8-13.83a4.63,4.63,0,0,1-4.37,4.15,3.59,3.59,0,0,1-3.94-3.73,4.63,4.63,0,0,1,4.37-4.18,3.59,3.59,0,0,1,3.94,3.76Zm.76-14.16a4.64,4.64,0,0,1-4.39,4.23,3.65,3.65,0,0,1-4-3.82,4.57,4.57,0,0,1,4.38-4.23,3.65,3.65,0,0,1,4,3.82Zm.69-14.44a4.65,4.65,0,0,1-4.4,4.3,3.76,3.76,0,0,1-4-3.93,4.6,4.6,0,0,1,4.38-4.3,3.75,3.75,0,0,1,4,3.93Zm.63-14.7a4.63,4.63,0,0,1-4.39,4.34,3.82,3.82,0,0,1-4.07-4,4.59,4.59,0,0,1,4.4-4.35,3.82,3.82,0,0,1,4.06,4Zm.57-15a4.67,4.67,0,0,1-4.41,4.41,3.94,3.94,0,0,1-4.1-4.11,4.64,4.64,0,0,1,4.4-4.41,3.92,3.92,0,0,1,4.11,4.11Zm.52-15.19a4.64,4.64,0,0,1-4.41,4.44,4,4,0,0,1-4.16-4.18,4.62,4.62,0,0,1,4.41-4.44,4,4,0,0,1,4.16,4.18Zm.43-15.37a4.64,4.64,0,0,1-4.4,4.48,4.08,4.08,0,0,1-4.18-4.27,4.6,4.6,0,0,1,4.4-4.47,4.08,4.08,0,0,1,4.18,4.26Zm.38-15.55a4.59,4.59,0,0,1-4.4,4.49,4.13,4.13,0,0,1-4.21-4.32,4.56,4.56,0,0,1,4.38-4.49,4.16,4.16,0,0,1,4.23,4.32Zm.3-15.7a4.6,4.6,0,0,1-4.39,4.53,4.24,4.24,0,0,1-4.25-4.37,4.59,4.59,0,0,1,4.39-4.53,4.23,4.23,0,0,1,4.25,4.37Zm.24-15.8a4.57,4.57,0,0,1-4.39,4.53,4.31,4.31,0,0,1-4.28-4.43,4.52,4.52,0,0,1,4.39-4.52,4.28,4.28,0,0,1,4.28,4.42Zm.16-15.89a4.52,4.52,0,0,1-4.37,4.53,4.34,4.34,0,0,1-4.3-4.46,4.5,4.5,0,0,1,4.37-4.53,4.34,4.34,0,0,1,4.3,4.46Zm.08-15.94a4.45,4.45,0,0,1-4.35,4.51,4.37,4.37,0,0,1-4.31-4.48,4.45,4.45,0,0,1,4.35-4.53,4.39,4.39,0,0,1,4.31,4.5Zm0-16a4.34,4.34,0,1,1-4.33-4.51,4.42,4.42,0,0,1,4.33,4.51Zm-6-196.39a3.47,3.47,0,0,1-3.88,3.6,4.59,4.59,0,0,1-4.35-4.06,3.47,3.47,0,0,1,3.88-3.58,4.63,4.63,0,0,1,4.35,4Zm-2.79-38.95c.15,1.94-1.53,3.41-3.75,3.25a4.53,4.53,0,0,1-4.28-3.79c-.13-1.92,1.55-3.36,3.75-3.22a4.55,4.55,0,0,1,4.28,3.76Zm-1-12.23c.17,1.88-1.49,3.26-3.68,3.12s-4.12-1.81-4.26-3.68,1.51-3.25,3.69-3.11,4.11,1.8,4.25,3.67ZM1014.39,129c.17,1.82-1.46,3.17-3.64,3s-4.06-1.76-4.21-3.58,1.47-3.17,3.64-3,4,1.76,4.21,3.56Zm15.55,507.72a4.6,4.6,0,0,1-4.25,3.74c-2.17.17-3.78-1.21-3.62-3.11a4.56,4.56,0,0,1,4.24-3.76c2.19-.17,3.8,1.22,3.63,3.13Zm1.12-12.38a4.56,4.56,0,0,1-4.26,3.83c-2.18.18-3.85-1.26-3.68-3.21a4.61,4.61,0,0,1,4.29-3.87c2.18-.16,3.84,1.3,3.65,3.25Zm1.08-12.74a4.62,4.62,0,0,1-4.28,3.93c-2.2.14-3.89-1.34-3.73-3.35a4.61,4.61,0,0,1,4.3-3.95c2.22-.14,3.88,1.36,3.71,3.37Zm1-13.11a4.69,4.69,0,0,1-4.32,4,3.32,3.32,0,0,1-3.78-3.46,4.68,4.68,0,0,1,4.34-4,3.31,3.31,0,0,1,3.76,3.48Zm1-13.44a4.64,4.64,0,0,1-4.34,4.09,3.4,3.4,0,0,1-3.81-3.59,4.64,4.64,0,0,1,4.33-4.1,3.4,3.4,0,0,1,3.82,3.6Zm.9-13.78a4.66,4.66,0,0,1-4.33,4.16,3.47,3.47,0,0,1-3.87-3.67,4.66,4.66,0,0,1,4.35-4.19,3.47,3.47,0,0,1,3.85,3.7Zm.85-14.09a4.65,4.65,0,0,1-4.35,4.23,3.55,3.55,0,0,1-3.9-3.77,4.63,4.63,0,0,1,4.35-4.25,3.57,3.57,0,0,1,3.9,3.79Zm.78-14.38a4.64,4.64,0,0,1-4.35,4.3,3.65,3.65,0,0,1-3.95-3.88,4.62,4.62,0,0,1,4.36-4.3,3.64,3.64,0,0,1,3.94,3.88Zm.73-14.63a4.65,4.65,0,0,1-4.37,4.33,3.73,3.73,0,0,1-4-4,4.68,4.68,0,0,1,4.37-4.37,3.79,3.79,0,0,1,4,4Zm.64-14.9a4.64,4.64,0,0,1-4.37,4.39,3.83,3.83,0,0,1-4-4,4.65,4.65,0,0,1,4.39-4.41,3.83,3.83,0,0,1,4,4.07Zm.57-15.12a4.62,4.62,0,0,1-4.35,4.44,3.93,3.93,0,0,1-4.09-4.14,4.63,4.63,0,0,1,4.38-4.44,3.91,3.91,0,0,1,4.06,4.14Zm.5-15.29a4.63,4.63,0,0,1-4.35,4.46,4,4,0,0,1-4.12-4.22,4.61,4.61,0,0,1,4.36-4.47,4,4,0,0,1,4.11,4.23Zm.42-15.49a4.59,4.59,0,0,1-4.35,4.49,4.06,4.06,0,0,1-4.14-4.28,4.57,4.57,0,0,1,4.36-4.49,4.07,4.07,0,0,1,4.13,4.28Zm.34-15.61a4.53,4.53,0,0,1-4.33,4.49,4.12,4.12,0,0,1-4.18-4.33,4.54,4.54,0,0,1,4.36-4.51,4.14,4.14,0,0,1,4.15,4.35Zm.26-15.73a4.51,4.51,0,0,1-4.31,4.51,4.21,4.21,0,0,1-4.21-4.39,4.53,4.53,0,0,1,4.33-4.53,4.22,4.22,0,0,1,4.19,4.41Zm.2-15.82a4.51,4.51,0,0,1-4.3,4.51,4.27,4.27,0,0,1-4.25-4.44,4.47,4.47,0,0,1,4.32-4.51,4.3,4.3,0,0,1,4.23,4.44Zm.1-15.87a4.45,4.45,0,0,1-4.28,4.51,4.36,4.36,0,0,1-4.28-4.48,4.41,4.41,0,0,1,4.3-4.49,4.35,4.35,0,0,1,4.26,4.46Zm-7.75-224.66a3.25,3.25,0,0,1-3.74,3.43,4.66,4.66,0,0,1-4.32-4,3.27,3.27,0,0,1,3.76-3.41,4.61,4.61,0,0,1,4.3,4Zm-2.15-25.5c.18,1.92-1.45,3.35-3.64,3.19a4.61,4.61,0,0,1-4.28-3.82c-.15-1.93,1.48-3.34,3.66-3.17a4.6,4.6,0,0,1,4.26,3.8ZM1029.38,142c.19,1.88-1.42,3.26-3.59,3.08a4.59,4.59,0,0,1-4.24-3.72c-.18-1.87,1.45-3.24,3.6-3.06a4.59,4.59,0,0,1,4.23,3.7Zm16.81,468.51a4.66,4.66,0,0,1-4.26,3.93,3.09,3.09,0,0,1-3.62-3.28,4.69,4.69,0,0,1,4.26-4,3.11,3.11,0,0,1,3.62,3.32Zm1.15-13.06a4.72,4.72,0,0,1-4.28,4,3.21,3.21,0,0,1-3.68-3.42,4.67,4.67,0,0,1,4.28-4,3.19,3.19,0,0,1,3.68,3.42Zm1.07-13.39a4.68,4.68,0,0,1-4.3,4.11,3.3,3.3,0,0,1-3.72-3.53,4.68,4.68,0,0,1,4.3-4.11,3.29,3.29,0,0,1,3.72,3.53Zm1-13.7a4.69,4.69,0,0,1-4.3,4.18,3.4,3.4,0,0,1-3.78-3.64,4.7,4.7,0,0,1,4.32-4.19,3.37,3.37,0,0,1,3.76,3.65Zm.95-14a4.71,4.71,0,0,1-4.31,4.25,3.48,3.48,0,0,1-3.82-3.74,4.68,4.68,0,0,1,4.32-4.27,3.48,3.48,0,0,1,3.81,3.76Zm.87-14.3a4.69,4.69,0,0,1-4.32,4.3,3.58,3.58,0,0,1-3.86-3.84,4.68,4.68,0,0,1,4.33-4.32,3.58,3.58,0,0,1,3.85,3.86Zm.8-14.58a4.69,4.69,0,0,1-4.32,4.36,3.66,3.66,0,0,1-3.9-3.94,4.65,4.65,0,0,1,4.32-4.37,3.67,3.67,0,0,1,3.9,3.95Zm.71-14.8a4.64,4.64,0,0,1-4.3,4.38,3.73,3.73,0,0,1-4-4,4.63,4.63,0,0,1,4.31-4.4,3.73,3.73,0,0,1,3.94,4Zm.64-15a4.62,4.62,0,0,1-4.32,4.43,3.84,3.84,0,0,1-4-4.09,4.65,4.65,0,0,1,4.32-4.46,3.85,3.85,0,0,1,4,4.12Zm.55-15.24a4.63,4.63,0,0,1-4.3,4.48,3.92,3.92,0,0,1-4-4.18,4.58,4.58,0,0,1,4.3-4.48,3.91,3.91,0,0,1,4,4.18Zm.47-15.38a4.59,4.59,0,0,1-4.28,4.47,4,4,0,0,1-4.07-4.24,4.54,4.54,0,0,1,4.29-4.48,4,4,0,0,1,4.06,4.25Zm.38-15.54a4.52,4.52,0,0,1-4.28,4.49,4.07,4.07,0,0,1-4.09-4.3,4.52,4.52,0,0,1,4.28-4.51,4.08,4.08,0,0,1,4.09,4.32Zm.3-15.65a4.49,4.49,0,0,1-4.27,4.5,4.15,4.15,0,0,1-4.12-4.36,4.51,4.51,0,0,1,4.26-4.51,4.19,4.19,0,0,1,4.13,4.37Zm.2-15.73a4.4,4.4,0,0,1-4.24,4.49,4.2,4.2,0,0,1-4.16-4.4,4.42,4.42,0,0,1,4.24-4.49,4.21,4.21,0,0,1,4.16,4.4Zm-8.49-239.29a3.17,3.17,0,0,1-3.66,3.39,4.67,4.67,0,0,1-4.26-4,3.13,3.13,0,0,1,3.64-3.35,4.67,4.67,0,0,1,4.28,4Zm-1.16-12.86c.19,2-1.42,3.44-3.61,3.25a4.68,4.68,0,0,1-4.26-3.92c-.17-2,1.44-3.42,3.61-3.25a4.69,4.69,0,0,1,4.26,3.92Zm-1.23-12.54c.21,1.93-1.39,3.34-3.55,3.15a4.65,4.65,0,0,1-4.25-3.83c-.17-1.92,1.42-3.34,3.55-3.13a4.7,4.7,0,0,1,4.25,3.81ZM1060,609.23a4.7,4.7,0,0,1-4.23,3.95,3,3,0,0,1-3.54-3.23,4.73,4.73,0,0,1,4.25-4,3,3,0,0,1,3.52,3.27Zm1.25-13a4.71,4.71,0,0,1-4.23,4,3.09,3.09,0,0,1-3.59-3.36,4.69,4.69,0,0,1,4.26-4,3.09,3.09,0,0,1,3.56,3.37Zm1.19-13.32a4.7,4.7,0,0,1-4.24,4.11,3.17,3.17,0,0,1-3.64-3.46,4.73,4.73,0,0,1,4.26-4.14,3.18,3.18,0,0,1,3.62,3.49Zm1.11-13.63a4.75,4.75,0,0,1-4.26,4.18,3.3,3.3,0,0,1-3.68-3.59,4.69,4.69,0,0,1,4.27-4.19,3.29,3.29,0,0,1,3.67,3.6Zm1-13.95a4.73,4.73,0,0,1-4.24,4.25,3.39,3.39,0,0,1-3.75-3.69,4.75,4.75,0,0,1,4.28-4.27,3.38,3.38,0,0,1,3.71,3.71Zm1-14.23a4.69,4.69,0,0,1-4.25,4.3,3.46,3.46,0,0,1-3.78-3.79,4.7,4.7,0,0,1,4.28-4.3,3.45,3.45,0,0,1,3.75,3.79Zm.88-14.49a4.68,4.68,0,0,1-4.26,4.35,3.56,3.56,0,0,1-3.82-3.88,4.7,4.7,0,0,1,4.29-4.37,3.58,3.58,0,0,1,3.79,3.9Zm.78-14.72a4.66,4.66,0,0,1-4.25,4.39,3.67,3.67,0,0,1-3.86-4,4.65,4.65,0,0,1,4.26-4.4,3.66,3.66,0,0,1,3.85,4Zm.69-14.95a4.62,4.62,0,0,1-4.22,4.43,3.78,3.78,0,0,1-3.92-4.08,4.64,4.64,0,0,1,4.26-4.42,3.74,3.74,0,0,1,3.88,4.07Zm.61-15.13a4.58,4.58,0,0,1-4.23,4.44,3.86,3.86,0,0,1-4-4.15,4.6,4.6,0,0,1,4.26-4.45,3.83,3.83,0,0,1,3.92,4.16Zm.52-15.32a4.53,4.53,0,0,1-4.21,4.46,3.91,3.91,0,0,1-4-4.19,4.51,4.51,0,0,1,4.23-4.48,3.92,3.92,0,0,1,4,4.21Zm.42-15.43a4.53,4.53,0,0,1-4.2,4.47,4,4,0,0,1-4-4.26,4.48,4.48,0,0,1,4.21-4.49,4,4,0,0,1,4,4.28Zm.33-15.56a4.48,4.48,0,0,1-4.2,4.48,4.08,4.08,0,0,1-4-4.32,4.44,4.44,0,0,1,4.21-4.49,4.1,4.1,0,0,1,4,4.33Zm.22-15.63a4.39,4.39,0,0,1-4.16,4.46,4.15,4.15,0,0,1-4.09-4.37,4.39,4.39,0,0,1,4.18-4.47,4.18,4.18,0,0,1,4.07,4.38ZM1060.68,182a3.06,3.06,0,0,1-3.55,3.34,4.73,4.73,0,0,1-4.25-4,3.06,3.06,0,0,1,3.57-3.32,4.74,4.74,0,0,1,4.23,4Zm14.25,413a4.77,4.77,0,0,1-4.19,4,3,3,0,0,1-3.49-3.3,4.81,4.81,0,0,1,4.21-4.07,3,3,0,0,1,3.47,3.34Zm1.28-13.25a4.76,4.76,0,0,1-4.19,4.12,3.09,3.09,0,0,1-3.54-3.42,4.8,4.8,0,0,1,4.22-4.15,3.09,3.09,0,0,1,3.51,3.45Zm1.22-13.55a4.8,4.8,0,0,1-4.21,4.18,3.21,3.21,0,0,1-3.59-3.55,4.8,4.8,0,0,1,4.23-4.2,3.2,3.2,0,0,1,3.57,3.57Zm1.12-13.88a4.75,4.75,0,0,1-4.21,4.25,3.28,3.28,0,0,1-3.62-3.64,4.72,4.72,0,0,1,4.21-4.26,3.28,3.28,0,0,1,3.62,3.65Zm1-14.14a4.69,4.69,0,0,1-4.2,4.3,3.37,3.37,0,0,1-3.67-3.74,4.71,4.71,0,0,1,4.21-4.32,3.39,3.39,0,0,1,3.66,3.76Zm1-14.41a4.71,4.71,0,0,1-4.19,4.36,3.48,3.48,0,0,1-3.73-3.85,4.66,4.66,0,0,1,4.21-4.35,3.47,3.47,0,0,1,3.71,3.84Zm.85-14.63a4.67,4.67,0,0,1-4.2,4.39,3.58,3.58,0,0,1-3.76-3.93,4.68,4.68,0,0,1,4.22-4.41,3.58,3.58,0,0,1,3.74,3.95Zm.76-14.85a4.62,4.62,0,0,1-4.19,4.42,3.68,3.68,0,0,1-3.8-4,4.6,4.6,0,0,1,4.2-4.43,3.68,3.68,0,0,1,3.79,4Zm.66-15a4.59,4.59,0,0,1-4.18,4.44,3.77,3.77,0,0,1-3.84-4.11,4.56,4.56,0,0,1,4.19-4.44,3.76,3.76,0,0,1,3.83,4.11Zm.55-15.21a4.52,4.52,0,0,1-4.16,4.44,3.82,3.82,0,0,1-3.88-4.16,4.52,4.52,0,0,1,4.16-4.45,3.86,3.86,0,0,1,3.88,4.17Zm.46-15.33a4.47,4.47,0,0,1-4.13,4.44,3.91,3.91,0,0,1-3.93-4.23,4.46,4.46,0,0,1,4.14-4.45,3.93,3.93,0,0,1,3.92,4.24Zm.36-15.45a4.44,4.44,0,0,1-4.13,4.44,4,4,0,0,1-4-4.28,4.4,4.4,0,0,1,4.12-4.46,4,4,0,0,1,4,4.3Zm.22-15.54a4.34,4.34,0,0,1-4.09,4.44,4.07,4.07,0,0,1-4-4.33,4.32,4.32,0,0,1,4.09-4.44,4.1,4.1,0,0,1,4,4.33ZM1091,567a4.81,4.81,0,0,1-4.16,4.17,3.08,3.08,0,0,1-3.47-3.48,4.74,4.74,0,0,1,4.16-4.21A3.1,3.1,0,0,1,1091,567Zm1.19-13.78a4.71,4.71,0,0,1-4.14,4.23,3.17,3.17,0,0,1-3.52-3.58,4.74,4.74,0,0,1,4.16-4.27,3.18,3.18,0,0,1,3.5,3.62Zm1.13-14a4.78,4.78,0,0,1-4.14,4.3,3.31,3.31,0,0,1-3.59-3.71,4.71,4.71,0,0,1,4.18-4.3,3.29,3.29,0,0,1,3.55,3.71Zm1-14.32a4.65,4.65,0,0,1-4.12,4.34,3.39,3.39,0,0,1-3.62-3.8,4.68,4.68,0,0,1,4.16-4.35,3.38,3.38,0,0,1,3.58,3.81Zm.92-14.53a4.64,4.64,0,0,1-4.12,4.37,3.48,3.48,0,0,1-3.66-3.88,4.66,4.66,0,0,1,4.14-4.4,3.49,3.49,0,0,1,3.64,3.91Zm.82-14.75a4.64,4.64,0,0,1-4.11,4.41,3.59,3.59,0,0,1-3.71-4,4.59,4.59,0,0,1,4.12-4.4,3.57,3.57,0,0,1,3.7,4Zm.71-14.94a4.58,4.58,0,0,1-4.09,4.42,3.7,3.7,0,0,1-3.76-4.06,4.54,4.54,0,0,1,4.12-4.42,3.69,3.69,0,0,1,3.73,4.06Zm.6-15.09a4.49,4.49,0,0,1-4.09,4.42,3.78,3.78,0,0,1-3.79-4.12,4.52,4.52,0,0,1,4.11-4.44,3.77,3.77,0,0,1,3.77,4.14Zm.49-15.23a4.47,4.47,0,0,1-4.06,4.43,3.86,3.86,0,0,1-3.84-4.2,4.45,4.45,0,0,1,4.09-4.44,3.87,3.87,0,0,1,3.81,4.21Zm7.71,101.7a4.8,4.8,0,0,1-4.09,4.24,3.09,3.09,0,0,1-3.41-3.55,4.74,4.74,0,0,1,4.11-4.25,3.09,3.09,0,0,1,3.39,3.56Zm1.18-14a4.75,4.75,0,0,1-4.07,4.3,3.2,3.2,0,0,1-3.47-3.66,4.73,4.73,0,0,1,4.09-4.3,3.2,3.2,0,0,1,3.45,3.66Zm1.09-14.2a4.71,4.71,0,0,1-4.07,4.32,3.26,3.26,0,0,1-3.5-3.74,4.68,4.68,0,0,1,4.07-4.35,3.31,3.31,0,0,1,3.5,3.77Zm1-14.43a4.64,4.64,0,0,1-4,4.35,3.4,3.4,0,0,1-3.56-3.83,4.67,4.67,0,0,1,4.08-4.39,3.42,3.42,0,0,1,3.53,3.87Zm.87-14.64a4.55,4.55,0,0,1-4,4.37,3.49,3.49,0,0,1-3.6-3.93,4.59,4.59,0,0,1,4-4.39,3.51,3.51,0,0,1,3.59,4Zm.76-14.84a4.53,4.53,0,0,1-4,4.41,3.59,3.59,0,0,1-3.66-4,4.57,4.57,0,0,1,4-4.43,3.62,3.62,0,0,1,3.64,4Zm.63-15a4.47,4.47,0,0,1-4,4.41,3.67,3.67,0,0,1-3.69-4.07,4.48,4.48,0,0,1,4-4.43,3.7,3.7,0,0,1,3.68,4.09Zm.52-15.1a4.42,4.42,0,0,1-4,4.41,3.79,3.79,0,0,1-3.73-4.17,4.44,4.44,0,0,1,4-4.42,3.8,3.8,0,0,1,3.71,4.18Zm7,100.86a4.8,4.8,0,0,1-4,4.23,3,3,0,0,1-3.31-3.49,4.79,4.79,0,0,1,4-4.25,3,3,0,0,1,3.28,3.51Zm1.26-13.84a4.73,4.73,0,0,1-4,4.26,3.08,3.08,0,0,1-3.36-3.6,4.74,4.74,0,0,1,4-4.28,3.1,3.1,0,0,1,3.34,3.62Zm1.15-14.11a4.71,4.71,0,0,1-4,4.32,3.19,3.19,0,0,1-3.4-3.71,4.69,4.69,0,0,1,4-4.32,3.21,3.21,0,0,1,3.38,3.71Zm1-14.32a4.67,4.67,0,0,1-4,4.36,3.3,3.3,0,0,1-3.45-3.8,4.64,4.64,0,0,1,4-4.37,3.33,3.33,0,0,1,3.44,3.81Zm.91-14.52a4.59,4.59,0,0,1-4,4.37,3.4,3.4,0,0,1-3.5-3.88,4.55,4.55,0,0,1,4-4.37,3.4,3.4,0,0,1,3.48,3.88Zm.8-14.7a4.54,4.54,0,0,1-3.93,4.38c-2.07.11-3.64-1.66-3.54-4a4.48,4.48,0,0,1,3.94-4.39c2.06-.12,3.64,1.66,3.53,4Zm.68-14.86a4.45,4.45,0,0,1-3.92,4.39,3.65,3.65,0,0,1-3.59-4.06,4.47,4.47,0,0,1,3.94-4.39,3.64,3.64,0,0,1,3.57,4.06Zm9.41,57.28a4.65,4.65,0,0,1-3.92,4.28c-2,.2-3.45-1.43-3.29-3.63a4.69,4.69,0,0,1,3.93-4.32c2-.17,3.43,1.47,3.28,3.67Zm1.07-14.19a4.61,4.61,0,0,1-3.88,4.32,3.23,3.23,0,0,1-3.33-3.75,4.62,4.62,0,0,1,3.9-4.35c2-.16,3.49,1.54,3.31,3.78Zm1-14.42a4.55,4.55,0,0,1-3.86,4.35c-2,.16-3.52-1.57-3.38-3.85a4.55,4.55,0,0,1,3.88-4.35c2-.12,3.5,1.59,3.36,3.85Zm.85-14.58a4.52,4.52,0,0,1-3.84,4.37c-2,.12-3.56-1.65-3.44-3.94a4.49,4.49,0,0,1,3.87-4.35c2-.12,3.53,1.65,3.41,3.92Zm.71-14.74a4.42,4.42,0,0,1-3.83,4.37c-2,.11-3.57-1.68-3.46-4a4.37,4.37,0,0,1,3.83-4.35c2-.11,3.57,1.69,3.46,4Zm11.89,13.95c-.13,2.26-1.8,4.2-3.74,4.32s-3.45-1.61-3.31-3.86a4.46,4.46,0,0,1,3.76-4.36c2-.1,3.42,1.63,3.29,3.9Zm.75-14.61a4.37,4.37,0,0,1-3.71,4.33c-2,.09-3.48-1.66-3.36-3.95a4.34,4.34,0,0,1,3.72-4.33c2-.09,3.47,1.68,3.35,3.95Z" transform="translate(-573.16 -113)"/><path class="cls-2" d="M979.17,203.88c.14,4.11-3.35,7.31-7.8,7.18s-8.11-3.54-8.27-7.65,3.38-7.29,7.8-7.17,8.11,3.55,8.27,7.64Z" transform="translate(-573.16 -113)"/><path class="cls-2" d="M934.23,292.26a8.27,8.27,0,0,1-8.39,8.27,8.39,8.39,0,0,1-8.44-8.32,8.28,8.28,0,0,1,8.39-8.25,8.42,8.42,0,0,1,8.44,8.3Z" transform="translate(-573.16 -113)"/><path class="cls-2" d="M982.32,420.62a8.57,8.57,0,0,1-8.44,8.58,8.37,8.37,0,0,1-8.37-8.49,8.58,8.58,0,0,1,8.44-8.59,8.4,8.4,0,0,1,8.37,8.5Z" transform="translate(-573.16 -113)"/><path class="cls-2" d="M1048.45,622.86c-.37,3.66-3.94,6.91-8,7.26s-7.09-2.31-6.73-6,3.92-6.92,8-7.29,7.07,2.34,6.73,6Z" transform="translate(-573.16 -113)"/></svg>