<svg xmlns="http://www.w3.org/2000/svg" data-name="Capa 1" viewBox="0 0 150.01 125.79"><defs><clipPath id="a" transform="translate(-565.96 -314.18)"><path d="M565.96 314.18h150.01v125.79H565.96z" style="fill:none"/></clipPath></defs><path d="M0 0h150.01v125.79H0z" style="fill:#fff"/><g style="clip-path:url(#a)"><path d="M604.6 371.5a1.79 1.79 0 0 1 2 .94 1.8 1.8 0 0 1-2.1 2.55 1.85 1.85 0 0 1-1.28-1.66 1.8 1.8 0 0 1 1.42-1.83Z" style="fill:#8bb837;fill-rule:evenodd" transform="translate(-565.96 -314.18)"/><path d="M604.6 367.24a1.77 1.77 0 0 1 2 1.12 1.78 1.78 0 0 1-2.6 2.14 1.8 1.8 0 0 1-.71-2.12 1.75 1.75 0 0 1 1.3-1.14Z" style="fill-rule:evenodd;fill:#ea851c" transform="translate(-565.96 -314.18)"/><path d="M604.6 363a1.79 1.79 0 0 1 1.13 3.37 1.78 1.78 0 0 1-2.52-1.4 1.6 1.6 0 0 1 .06-.77 1.78 1.78 0 0 1 1.33-1.2" style="fill-rule:evenodd;fill:#005e96" transform="translate(-565.96 -314.18)"/><path d="M617.84 379.36a3.93 3.93 0 0 0-2.27.92 3 3 0 0 0-.85 2.31 2.86 2.86 0 0 0 1 2.35 4.8 4.8 0 0 0 2.92.85 9.8 9.8 0 0 0 2.8-.31 4.65 4.65 0 0 0 1.76-1.12 3 3 0 0 0 .74-1.45 17.4 17.4 0 0 0 .23-3.61h-5.05a10 10 0 0 0-1.33.06Zm44.39-13.86a9.55 9.55 0 0 1 7.09-2.89 9.4 9.4 0 0 1 4.5 1 8.74 8.74 0 0 1 4 4.29 12.6 12.6 0 0 1 .91 4.31v19.1h-7v-16.84a7.6 7.6 0 0 0-.32-2.51 4.1 4.1 0 0 0-1.33-2 4.74 4.74 0 0 0-2.32-1 5.37 5.37 0 0 0-2.75.4 4 4 0 0 0-1.9 1.75 6.3 6.3 0 0 0-.71 3.14v17h-7v-28.33h6.89v2.58ZM640 369.16v15.92h2.15a7.4 7.4 0 0 0 2.52-.26 3.44 3.44 0 0 0 2-2A11.3 11.3 0 0 0 647 380v-6.17a11.4 11.4 0 0 0-.2-1.92 3.35 3.35 0 0 0-1.22-2 3.94 3.94 0 0 0-2.64-.77Zm-6.92 22.12v-28.36h10.69a11.24 11.24 0 0 1 6.15 1.8 9.4 9.4 0 0 1 2.29 2.38 9 9 0 0 1 1.53 3.69 35.4 35.4 0 0 1 .26 6.51 33 33 0 0 1-.26 6.06 9 9 0 0 1-1.53 3.78 8.7 8.7 0 0 1-2.21 2.28 11 11 0 0 1-6.43 1.86zm-15.51-28.64c.8 0 1.56-.09 2.33 0a19.2 19.2 0 0 1 4.9.74 9 9 0 0 1 4.45 2.83 9.3 9.3 0 0 1 1.93 5.12c.06.63.06 1.23.06 1.86v18.12h-6.86v-2.46a8.9 8.9 0 0 1-2.84 2 10 10 0 0 1-3.11.69 17 17 0 0 1-3.41-.17 8.83 8.83 0 0 1-4.13-1.77 8.13 8.13 0 0 1-2.64-4.43 10.3 10.3 0 0 1 0-4.75 7.44 7.44 0 0 1 2.75-4.12 10.84 10.84 0 0 1 6.09-1.83h7.15a15.3 15.3 0 0 0-.17-2.94 3.43 3.43 0 0 0-1.14-1.92 3.9 3.9 0 0 0-1.64-.77 10.5 10.5 0 0 0-3-.23 6.2 6.2 0 0 0-3.17.92 7.4 7.4 0 0 0-1.5 1.4c-1.51-1.46-3-2.95-4.51-4.4a11.2 11.2 0 0 1 4.28-3.09 13.7 13.7 0 0 1 4.19-.8" style="fill-rule:evenodd;fill:#231f20" transform="translate(-565.96 -314.18)"/><path d="M604.49 375.79a1.76 1.76 0 0 1 2.09.94A1.83 1.83 0 0 1 606 379a1.77 1.77 0 0 1-1.76.17 1.83 1.83 0 0 1-1-1.37 1.84 1.84 0 0 1 1.28-2Z" style="fill-rule:evenodd;fill:#d7181e" transform="translate(-565.96 -314.18)"/></g></svg>