<svg xmlns="http://www.w3.org/2000/svg" id="Capa_1" data-name="Capa 1" viewBox="0 0 150.01 125.79"><defs><clipPath id="clip-path" transform="translate(-565.96 -314.18)"><path d="M565.96 314.18h150.01v125.79H565.96z" style="fill:none"/></clipPath><style>.cls-5{fill:#ffd530}.cls-6{fill:#fefefe}</style></defs><path d="M0 0h150.01v125.79H0z" style="fill:#fff"/><g style="clip-path:url(#clip-path)"><path d="M636.35 372.33v3.09c0 .14 0 .17.17.17h1c.14 0 .2 0 .2-.2v-6.15c0-.14 0-.2-.23-.2a5 5 0 0 1-1 0c-.14 0-.2.06-.2.2v3.09Zm24 0v3.09c0 .11 0 .17.17.17H665c.14 0 .17 0 .17-.14v-.95c0-.17-.06-.2-.2-.2h-3c-.2 0-.26 0-.26-.23v-4.8c0-.14 0-.2-.17-.2a6 6 0 0 1-1 0c-.14 0-.17.06-.17.2v3.06Zm-27.92-3.23h-2.5c-.11 0-.17 0-.17.14v1c0 .15 0 .17.17.15h1.56c.17 0 .2 0 .2.23v4.8c0 .17.06.2.23.2h.93c.17 0 .23 0 .2-.2v-4.8c0-.21.09-.23.26-.23h1.56c.14 0 .17 0 .17-.18v-.94c0-.14-.06-.17-.17-.17h-2.47Zm-3.18 6.49h.57c.14 0 .2 0 .14-.14-.85-2.09-1.67-4.15-2.49-6.24a.23.23 0 0 0-.2-.14h-1a.26.26 0 0 0-.29.2c-.28.77-.62 1.57-.93 2.34-.49 1.26-1 2.55-1.51 3.81-.08.17 0 .17.12.17h1.07a.23.23 0 0 0 .26-.14c.14-.41.28-.78.4-1.15a.21.21 0 0 1 .22-.17h2.19a.2.2 0 0 1 .19.17 6 6 0 0 1 .37 1 .31.31 0 0 0 .34.26Zm29.31 0h.57c.17 0 .2 0 .14-.17l-2.46-6.21a.23.23 0 0 0-.2-.14h-1a.22.22 0 0 0-.2.14c-.85 2.09-1.7 4.15-2.5 6.24 0 .11 0 .14.12.14h1.16a.16.16 0 0 0 .17-.14c.14-.38.31-.78.45-1.18a.16.16 0 0 1 .17-.14h2.21a.21.21 0 0 1 .2.17l.43 1.15c0 .11.08.17.2.14ZM645 372.36a3.3 3.3 0 0 0 0-.63 2.85 2.85 0 0 0-2.84-2.69 2.73 2.73 0 0 0-2.83 2.12 4.7 4.7 0 0 0-.12 2 2.84 2.84 0 0 0 2.84 2.63 2.72 2.72 0 0 0 2.72-1.72 3.85 3.85 0 0 0 .25-1.71Zm5.38.86-2.78-4c0-.09-.14-.14-.25-.14h-1c-.12 0-.15 0-.15.14v6.2c0 .15.06.18.17.18h1c.17 0 .2-.06.2-.2v-4c.9 1.4 1.87 2.72 2.8 4.09a.35.35 0 0 0 .29.15h.9c.12 0 .14 0 .14-.18v-6.2c0-.11 0-.14-.14-.14h-1c-.14 0-.17.05-.17.17v1.31Zm-29.31 0-.06-.06c-.85-1.35-1.81-2.63-2.72-4 0-.08-.11-.14-.22-.11h-1c-.15 0-.17 0-.17.14v6.21c0 .11 0 .14.17.14h1c.17 0 .2 0 .2-.17v-4.09l.08.08c.91 1.38 1.87 2.69 2.81 4a.22.22 0 0 0 .2.14h.93c.12 0 .14 0 .14-.14v-6.21c0-.14 0-.17-.14-.17h-1c-.17 0-.23.06-.23.23v3.92Zm14.66 25.41c0 .06.14.11.19.17l2.84 2.06a.25.25 0 0 1 .14.34c-.4 1.18-.76 2.32-1.13 3.43 0 .06-.06.09 0 .18l.17-.15 2.86-2a.21.21 0 0 1 .31 0c.94.72 1.93 1.4 2.89 2.12l.2.14a.4.4 0 0 0-.06-.17c-.36-1.17-.73-2.32-1.13-3.49a.26.26 0 0 1 .14-.34l2.85-2.12c.06 0 .14-.08.17-.17h-3.8a.24.24 0 0 1-.25-.2c-.37-1.14-.74-2.29-1.11-3.4 0-.09 0-.17-.11-.2s0 .11-.06.2c-.36 1.14-.73 2.29-1.1 3.4 0 .11-.11.2-.26.2H636a.36.36 0 0 0-.25 0Zm23.69-38v-.11l-2.64-4.32a.28.28 0 0 0-.31-.2h-2.32s0 .15.08.2q2 3 4 6.09a1.4 1.4 0 0 1 .11.43v3.78c0 .17.06.2.2.2h1.84c.17 0 .2-.06.2-.2v-3.81a.84.84 0 0 1 .14-.43l4-6.08c0-.06.08-.12.05-.18s-.11 0-.17 0h-2.2a.26.26 0 0 0-.28.18l-2.56 4.25a2 2 0 0 1-.17.2Zm-15 27.54h1c.14 0 .14 0 .11-.18-1.28-3.31-2.5-6.6-3.74-9.92a.24.24 0 0 0-.23-.17h-1.64a.25.25 0 0 0-.26.17l-1.61 4.29-2.24 5.64c-.09.23-.09.23.17.23h1.76a.23.23 0 0 0 .26-.23c.2-.65.43-1.28.65-1.94a.23.23 0 0 1 .23-.17h3.4a.18.18 0 0 1 .23.17l.68 2a.24.24 0 0 0 .23.17h.93Zm-17.71-7v2.49a6.3 6.3 0 0 0 .19 1.6 3.79 3.79 0 0 0 2.3 2.77 4.4 4.4 0 0 0 2.52.2 3.53 3.53 0 0 0 2.89-2.37 6 6 0 0 0 .32-2.09v-5.69c0-.17-.06-.2-.2-.2H633c-.17 0-.19.06-.19.23v5.46a4 4 0 0 1-.09.86 2 2 0 0 1-1.93 1.89 1.93 1.93 0 0 1-1.7-.92 3.44 3.44 0 0 1-.42-1.74v-5.55c0-.17 0-.23-.2-.2h-1.65c-.17 0-.19 0-.19.2v3.06ZM641 391.74h24.15a.17.17 0 0 1 .17 0c.09 0 .14 0 .11-.14v-.6c0-.17 0-.26-.25-.26h-48.39a.12.12 0 0 1-.14 0c-.09 0-.12 0-.12.14v.6c0 .2.06.26.23.26zm-17.77-8.86h-1.65c-.14 0-.2 0-.17.17v1.6c0 .14 0 .14.17.14h1.28c.08 0 .17 0 .14.12a1.63 1.63 0 0 1-.65 1.14 2.32 2.32 0 0 1-3.18-.77 3.64 3.64 0 0 1-.56-1.83 4.5 4.5 0 0 1 .59-2.69 2.16 2.16 0 0 1 3-.57l.25.2a4.3 4.3 0 0 1 .46.66c0 .06 0 .11.14.06l1.7-.72c.08 0 .08-.06 0-.11a3.78 3.78 0 0 0-2.09-2.2 5.1 5.1 0 0 0-2.3-.26 4.28 4.28 0 0 0-3.57 3 7.07 7.07 0 0 0-.2 3.92 4.74 4.74 0 0 0 1.36 2.51 4.06 4.06 0 0 0 3.35 1.15 3.75 3.75 0 0 0 3.65-3.21 17 17 0 0 0 .06-2.14c0-.14-.06-.11-.14-.11ZM641 352.72h-24.32c-.15 0-.15 0-.15.14v.57c0 .2.06.26.26.26h48.53c.11 0 .14 0 .14-.11a2 2 0 0 1 0-.61c0-.22-.06-.25-.25-.25Zm16.18 30.39v4.94c0 .15 0 .17.2.17h2.81a5.7 5.7 0 0 0 2.47-.48 4.38 4.38 0 0 0 2.46-2.69 6.48 6.48 0 0 0 0-4.26 3.81 3.81 0 0 0-2.32-2.43 5.2 5.2 0 0 0-2-.4h-3.4c-.17 0-.23 0-.23.2v4.95Zm-30.84-16.3h1.08c.14 0 .2 0 .11-.17l-4.13-10.46a.17.17 0 0 0-.2-.15h-1.9c-.09 0-.2.06-.2.15-.29.74-.57 1.45-.85 2.14l-3.25 8.23c-.09.2-.09.2.14.2h2a.23.23 0 0 0 .28-.17c.23-.68.51-1.37.74-2.06a.25.25 0 0 1 .22-.17h3.77a.22.22 0 0 1 .23.17l.77 2.06a.17.17 0 0 0 .22.17Zm20.58 16.3v4.94c0 .15 0 .2.17.2h1.7c.17 0 .17-.05.17-.2v-3.34c0-.15 0-.17.2-.17h1.7a.24.24 0 0 1 .26.17c.54 1.11 1.1 2.23 1.7 3.34a.21.21 0 0 0 .28.17h1.9c.23 0 .23 0 .14-.17-.59-1.2-1.16-2.4-1.75-3.57-.09-.17-.09-.26.11-.32a2.73 2.73 0 0 0 1.56-1.71 4.14 4.14 0 0 0 .06-2.26 2.7 2.7 0 0 0-1.08-1.54 3.07 3.07 0 0 0-1.9-.66c-1.64-.09-3.29 0-4.93 0-.17 0-.23 0-.23.2v4.92Zm-17.15-21.7v5.2c0 .14 0 .2.2.2h1.84c.17 0 .2 0 .2-.23v-3.4c0-.17.06-.2.23-.2h1.84a.23.23 0 0 1 .29.17l1.81 3.49a.35.35 0 0 0 .28.2h2.16c.22 0 .22 0 .11-.2-.62-1.29-1.27-2.57-1.93-3.8 0-.12-.08-.17.06-.23a3 3 0 0 0 2-2.66 3.38 3.38 0 0 0-.85-2.77 3.55 3.55 0 0 0-2.49-1c-1.81-.09-3.69 0-5.53 0-.17 0-.17.06-.17.2v5.14Zm20.21-.83v6c0 .15 0 .17.23.17H652c.17 0 .22 0 .22-.2v-10.29c0-.2-.05-.23-.22-.23h-1.82a.21.21 0 0 0-.25.15c-.94 2.11-2 4.2-2.89 6.37a.3.3 0 0 1 0 .09l-.17-.35c-.83-2.08-1.93-4.11-2.89-6.14 0-.12-.12-.12-.2-.12h-1.87c-.15 0-.17 0-.17.2v10.35c0 .15 0 .17.17.17h1.78c.17 0 .26 0 .26-.2 0-1.94 0-3.88-.06-5.83v-.2c1 2.2 2 4.32 3.06 6.49 1-2.17 2.07-4.29 3-6.43Zm-9-19.21h29.08a2.39 2.39 0 0 1 2.36 2.31v52a3.82 3.82 0 0 1-2.44 3.63l-15.17 6.63-12.81 5.61a2.22 2.22 0 0 1-2 0l-28-12.29a4 4 0 0 1-2.41-3 4.5 4.5 0 0 1-.06-.63v-51.86a2.34 2.34 0 0 1 2-2.37h.31Z" style="fill:#030000" transform="translate(-565.96 -314.18)"/><path d="M84.04 46.4c-1 2.14-2 4.26-3 6.43-1-2.17-2.1-4.26-3.06-6.49v.2c.06 1.95 0 3.89 0 5.83 0 .2 0 .23-.2.2H76c-.15 0-.17 0-.17-.17V42.05c0-.17 0-.2.17-.2h1.84a.18.18 0 0 1 .2.12c1 2.06 2 4.06 2.89 6.14.06.12.08.23.14.35l.06-.09c.85-2.17 2-4.26 2.89-6.37a.21.21 0 0 1 .25-.15h1.77c.17 0 .22 0 .22.23v10.29c0 .18 0 .2-.22.2h-1.85c-.14 0-.19 0-.19-.17v-5.8a.7.7 0 0 0 0-.2ZM67.72 46.69h1.17a2 2 0 0 0 .68-.06 1.11 1.11 0 0 0 1-.95 1.35 1.35 0 0 0-.4-1.42 1.58 1.58 0 0 0-1.07-.32h-2.87c-.11 0-.17 0-.17.14v2.46c0 .15 0 .17.17.17Zm-3.91.51v-5.12c0-.11 0-.2.17-.2h5.53a3.52 3.52 0 0 1 2.47 1 3.25 3.25 0 0 1 .85 2.77 2.94 2.94 0 0 1-2 2.66c-.17.06-.14.12-.08.23.65 1.29 1.3 2.55 2 3.8.09.2.09.2-.14.2h-2.13a.3.3 0 0 1-.31-.17c-.57-1.17-1.19-2.34-1.78-3.51a.33.33 0 0 0-.32-.18h-1.81c-.17 0-.23 0-.23.23v3.41c0 .17 0 .22-.2.22h-1.87c-.14 0-.19-.05-.19-.2v-5.17Z" class="cls-5"/><path d="M84.51 68.38h1.36a1.1 1.1 0 0 0 1.19-1.05v-.06a1.15 1.15 0 0 0-.83-1.43 1.1 1.1 0 0 0-.45-.06h-2.66c-.12 0-.15 0-.15.14v2.35c0 .11 0 .14.15.14Zm-3.58.52v-4.92c0-.2.06-.23.23-.23h4.93a3.57 3.57 0 0 1 1.9.66 2.8 2.8 0 0 1 1 1.57 3.8 3.8 0 0 1 0 2.26 2.83 2.83 0 0 1-1.56 1.72c-.2.08-.2.14-.11.31.59 1.17 1.16 2.37 1.76 3.57.08.2.08.2-.14.2h-1.9a.32.32 0 0 1-.32-.17l-1.68-3.37a.29.29 0 0 0-.28-.17h-1.7c-.14 0-.17 0-.17.2v3.29c0 .15 0 .2-.2.2h-1.65c-.17 0-.2-.05-.2-.2.08-1.65.08-3.31.08-4.94Z" class="cls-6"/><path d="m56.24 44.57-.05.09L55.04 48c0 .14 0 .14.11.14h2.21c.2 0 .17-.05.14-.17-.2-.51-.37-1-.54-1.51l-.68-1.89Zm4.11 8h-1a.19.19 0 0 1-.25-.17l-.77-2.06c0-.11-.11-.17-.23-.14h-3.74a.23.23 0 0 0-.25.14c-.23.69-.48 1.38-.74 2.06a.21.21 0 0 1-.25.17h-2c-.23 0-.23 0-.14-.2l3.29-8.23c.25-.71.56-1.4.82-2.14a.22.22 0 0 1 .23-.15h1.87a.17.17 0 0 1 .2.15l4.13 10.43c.09.14 0 .14-.11.14Z" class="cls-5"/><path d="M93.24 68.9v2.92c0 .09 0 .2.11.2a12 12 0 0 0 1.7-.05 2.57 2.57 0 0 0 2.18-2 4.5 4.5 0 0 0 0-2.12 2.28 2.28 0 0 0-2-2 18 18 0 0 0-1.79-.09c-.17 0-.19.06-.19.23v2.92Zm-2.05 0v-4.92c0-.2.09-.23.26-.23h3.37a5.8 5.8 0 0 1 2 .43 3.82 3.82 0 0 1 2.26 2.4 6.84 6.84 0 0 1 0 4.29 4.39 4.39 0 0 1-2.49 2.69 6.1 6.1 0 0 1-2.44.48h-2.78c-.17 0-.2-.05-.2-.2Z" class="cls-6"/><path d="M75.04 38.54h24.21c.2 0 .25 0 .22.23a6 6 0 0 0 0 .6c0 .23 0 .14-.11.14H50.8c-.17 0-.25-.06-.23-.26v-.57c0-.11 0-.17.15-.17h24.32Z" class="cls-5"/><path d="M57.24 68.7h1.7c.05 0 .14 0 .14.11a13 13 0 0 1-.09 2.15 3.69 3.69 0 0 1-3.65 3.2 4.12 4.12 0 0 1-3.29-1.09 4.8 4.8 0 0 1-1.33-2.51 7 7 0 0 1 .17-3.92 4.26 4.26 0 0 1 3.6-3 4.35 4.35 0 0 1 2.29.26 3.83 3.83 0 0 1 2.1 2.17c0 .08 0 .11-.06.14l-1.78.72c-.12 0-.14 0-.17-.09a2.6 2.6 0 0 0-.46-.66 2.16 2.16 0 0 0-3 .15l-.2.25a4.2 4.2 0 0 0-.56 2.69 3.6 3.6 0 0 0 .51 1.83 2.33 2.33 0 0 0 3.2.74 1.49 1.49 0 0 0 .71-1.11c0-.12-.06-.12-.14-.12h-1.31c-.14 0-.17 0-.17-.14v-1.6c0-.14 0-.17.17-.17Z" class="cls-6"/><path d="M74.98 77.53H50.8c-.2 0-.25 0-.23-.23v-.63c0-.08 0-.11.12-.11h48.5c.31 0 .25 0 .25.26v.6c0 .08 0 .14-.11.11Z" class="cls-5"/><path d="M60.67 67.04v-3.06c0-.17 0-.23.19-.23h1.65c.17 0 .2 0 .2.23v5.52a3 3 0 0 0 .42 1.74 1.78 1.78 0 0 0 1.7.92 2 2 0 0 0 2-1.86 8 8 0 0 0 .06-.86v-5.46c0-.17 0-.23.22-.23h1.62c.14 0 .2 0 .2.2v5.69a5.5 5.5 0 0 1-.37 2.09 3.57 3.57 0 0 1-2.87 2.4 4.55 4.55 0 0 1-2.55-.23 3.78 3.78 0 0 1-2.29-2.77 7 7 0 0 1-.17-1.6v-2.49ZM75.77 69.76c-.39-1.15-.82-2.26-1.16-3.43-.34 1.17-.79 2.25-1.16 3.43Zm2.61 4.26h-.93a.18.18 0 0 1-.23-.15c-.23-.66-.48-1.31-.68-2a.25.25 0 0 0-.26-.17h-3.37a.23.23 0 0 0-.23.17c-.22.66-.45 1.29-.68 1.94a.26.26 0 0 1-.25.2h-1.71c-.26 0-.26 0-.17-.25l2.12-5.58c.54-1.43 1.08-2.86 1.62-4.26 0-.11.11-.2.23-.17h1.67a.19.19 0 0 1 .23.14c1.24 3.32 2.49 6.64 3.74 9.92 0 .15 0 .2-.14.2Z" class="cls-6"/><path d="m93.43 46.48.15-.2L96.1 42a.36.36 0 0 1 .31-.18h2.3s0 .15-.09.18c-1.33 2.05-2.63 4.08-4 6.09a1 1 0 0 0-.14.45v3.81c0 .14 0 .2-.2.2h-1.81c-.17 0-.2 0-.2-.2v-3.78a1.4 1.4 0 0 0-.11-.43c-1.34-2-2.67-4.06-4-6.11 0-.06-.11-.12-.08-.18s.14 0 .22 0h2.1a.28.28 0 0 1 .31.18c.85 1.45 1.7 2.91 2.61 4.34ZM69.74 84.45h3.82a.22.22 0 0 0 .26-.17c.34-1.14.74-2.29 1.08-3.43l.08-.17c.06 0 .06.11.09.17.36 1.14.76 2.31 1.1 3.43a.22.22 0 0 0 .26.17h3.79c0 .11-.11.14-.17.17l-2.86 2.09a.31.31 0 0 0-.11.37c.37 1.14.74 2.32 1.13 3.49v.17l-.2-.14-2.89-2.15a.23.23 0 0 0-.31 0l-2.89 2.12-.17.11c-.06-.05 0-.11 0-.17.34-1.14.71-2.29 1.1-3.4a.27.27 0 0 0-.11-.34l-2.84-2.15Z" class="cls-5"/><path d="M55.04 59.04v-3.92c0-.17.06-.23.26-.2h.93c.14 0 .17 0 .17.14v6.21c0 .11 0 .14-.14.14h-1a.32.32 0 0 1-.23-.09c-.91-1.37-1.9-2.69-2.78-4.06l-.08-.08v4.06c0 .14 0 .2-.2.17h-1c-.12 0-.14 0-.14-.14v-6.21c0-.11 0-.14.14-.14h1c.11 0 .14.06.2.11.9 1.32 1.87 2.58 2.74 4a.06.06 0 0 0 .06.06ZM84.39 59.01v-3.92c0-.14 0-.2.17-.17h1c.12 0 .14 0 .14.14v6.21c0 .11 0 .14-.14.14h-.88a.25.25 0 0 1-.28-.14c-.94-1.35-1.9-2.69-2.83-4-.06 0 0 .09 0 .12v3.89c0 .14 0 .2-.17.17h-1c-.08 0-.17 0-.17-.14V55.1c0-.11 0-.14.17-.14h1a.29.29 0 0 1 .25.14ZM74.56 58.15a2.5 2.5 0 0 0 .34 1.43 1.45 1.45 0 0 0 2 .37 2.6 2.6 0 0 0 .37-.37 2.81 2.81 0 0 0 0-2.83 1.46 1.46 0 0 0-2-.46 1.8 1.8 0 0 0-.45.46 2.6 2.6 0 0 0-.31 1.4Zm4.47 0a4 4 0 0 1-.28 1.63 2.71 2.71 0 0 1-2.72 1.71 2.81 2.81 0 0 1-2.84-2.6 4.8 4.8 0 0 1 .12-2 2.78 2.78 0 0 1 2.86-2.11 2.86 2.86 0 0 1 2.84 2.68v.69ZM90.04 56.55c-.25.71-.48 1.37-.74 2 0 .14 0 .14.12.14h1.22c.14 0 .17 0 .11-.14a3 3 0 0 0-.17-.49c-.17-.48-.37-1-.54-1.54Zm2.52 4.86h-.52c-.12 0-.2 0-.2-.14-.14-.38-.29-.78-.43-1.18a.22.22 0 0 0-.2-.14h-2.23a.22.22 0 0 0-.2.14c-.14.4-.29.8-.43 1.18a.22.22 0 0 1-.2.14h-1.16c-.14 0-.14 0-.08-.14.85-2.09 1.7-4.15 2.46-6.24a.24.24 0 0 1 .23-.14h1a.23.23 0 0 1 .2.14c.82 2.09 1.61 4.15 2.46 6.21.06.17 0 .17-.14.17ZM60.72 56.55c-.25.71-.48 1.37-.73 2.06 0 .08 0 .11.08.11h1.3c.09 0 .12 0 .09-.11-.2-.69-.45-1.35-.71-2.06Zm2.55 4.86h-.45a.34.34 0 0 1-.4-.2 6.4 6.4 0 0 0-.37-1.06c0-.09-.11-.14-.19-.14h-2.19a.18.18 0 0 0-.22.14c-.12.37-.29.77-.4 1.14a.25.25 0 0 1-.26.18h-1.07c-.17 0-.2 0-.12-.2l1.51-3.81c.31-.77.65-1.54.93-2.34a.22.22 0 0 1 .26-.17h1a.19.19 0 0 1 .23.14c.85 2.06 1.64 4.15 2.46 6.2.06.18 0 .18-.11.18ZM66.42 54.92h2.47c.14 0 .19 0 .17.17v.94c0 .12 0 .17-.17.17h-1.56c-.17 0-.26 0-.23.23v4.81c0 .17-.06.2-.23.2a5 5 0 0 0-.93 0c-.17 0-.23 0-.23-.23v-4.78c0-.2 0-.23-.2-.23h-1.58c-.12 0-.17 0-.17-.17v-1c0-.11 0-.14.17-.14ZM94.34 58.15v-3.06c0-.14 0-.2.2-.17h1c.14 0 .17 0 .17.17v4.8c0 .2.06.26.26.26h3c.15 0 .2 0 .2.17v.95c0 .11 0 .17-.14.17h-4.51c-.14 0-.14-.09-.14-.2ZM70.36 58.15v-3.06c0-.14 0-.2.2-.2a5 5 0 0 0 1 0c.17 0 .2.06.2.23v6.15c0 .14 0 .17-.2.17h-.93c-.14 0-.2 0-.2-.17v-3.12Z" class="cls-6"/><path d="M67.7 46.69h-1.54c-.11 0-.17 0-.17-.15v-2.46c0-.11 0-.14.17-.14h2.88a1.62 1.62 0 0 1 1.08.32 1.42 1.42 0 0 1 .39 1.42 1.18 1.18 0 0 1-1 .95 2.7 2.7 0 0 1-.68.06ZM84.51 68.38h-1.39c-.12 0-.15 0-.15-.14V65.9c0-.12 0-.15.15-.15h2.63a2 2 0 0 1 .43.06 1.16 1.16 0 0 1 .9 1.4 1.16 1.16 0 0 1-1.16 1.14h-1.39ZM56.24 44.57c.23.63.43 1.26.68 1.89l.51 1.51c.06.14.06.2-.11.2h-2.21c-.11 0-.14 0-.11-.17l1.19-3.34ZM93.24 68.87v-2.92c0-.14 0-.2.22-.2a9 9 0 0 1 1.79.09 2.28 2.28 0 0 1 2 2 4.6 4.6 0 0 1 0 2.15 2.55 2.55 0 0 1-2.24 2 11.5 11.5 0 0 1-1.67.08c-.17 0-.11-.11-.11-.2ZM75.77 69.82h-2.32c.4-1.14.85-2.23 1.16-3.43.34 1.18.77 2.29 1.16 3.43M74.53 58.15a2.6 2.6 0 0 1 .28-1.4 1.42 1.42 0 0 1 2-.49s0 0 .06 0a1.5 1.5 0 0 1 .43.46 2.75 2.75 0 0 1 0 2.8 1.45 1.45 0 0 1-2.41 0 2.45 2.45 0 0 1-.34-1.43ZM90.04 56.55c.17.54.37 1.06.54 1.54l.17.49c.06.14 0 .14-.09.14h-1.22c-.12 0-.17 0-.12-.14.26-.66.49-1.32.74-2ZM60.75 56.55c.26.71.51 1.37.74 2.06 0 .11 0 .11-.12.11H60.1c-.11 0-.11 0-.09-.11.26-.69.49-1.35.74-2.06"/></g></svg>