<svg xmlns="http://www.w3.org/2000/svg" data-name="Capa 1" viewBox="0 0 150.01 125.79"><defs><clipPath id="a" transform="translate(-565.96 -314.18)"><path d="M565.96 314.18h150.01v125.79H565.96z" style="fill:none"/></clipPath></defs><path d="M0 0h150.01v125.79H0z" style="fill:#fff"/><g style="clip-path:url(#a)"><path d="M622 370.64c1.59 0 7.2-.23 8.34.17 1.56.55 3.09 2.83 3.14 5.24.09 6.26-6.37 4.94-11.48 5Zm38.81 21.7.06 9.26H662c.74-1.17.12-7.32.31-9.29h1.79c1.56-.08 1 .2 1.36-.6-.37-.83.31-.57-1.36-.66l-6.38.06c.09 2.17-.08.77 3.12 1.23Zm-22.34 8.23c-.93-.51-6.06 1.46-6.29-3.91-.17-4.23 2.49-4.75 6.18-4.23l.28-1c-8.22-3.78-11.34 10.12-2.83 10.32a9.7 9.7 0 0 0 1.81-.12c1.36-.4.82 0 .85-1.06m10.58-7.94 1.47 4.6-3-.09Zm-4.34 9c1.5 0 1.42 0 1.81-1.17a16 16 0 0 1 .74-2.11h3.52l1.24 3.28h1.33l-3.45-10.43h-1.73ZM674 393l1.62 4.23h-3Zm-4.11 8.52 1.28.08 1.16-3.29h3.57c1.45 3.08.26 3.25 2.5 3.31l-3.4-10.48c-2.27-.09-1.62-.2-3.35 5a49 49 0 0 0-1.76 5.41Zm-49.23-8.92 1.44 4.6-3-.06Zm-4.37 8.94c1.56 0 1.42.2 1.82-1.17a16 16 0 0 1 .73-2.08h3.55l1.21 3.28h1.34a51 51 0 0 0-1.7-5.2c-1.85-5.54-1.25-5.29-3.49-5.26Zm-11.34-5c1.87 0 3.89.06 3.77 2.17-.11 1.83-1.93 1.89-3.74 1.83Zm.14-4.34c4.57-.83 4.45 3.91-.14 3.23Zm-1.47 9.29c2 .4 4.73.25 5.84-1a2.9 2.9 0 0 0 .59-2.66c-.19-.78-.56-1-1.1-1.49l-.6-.51c1.11-1 2.36-2.46.68-4-1.16-1.08-3.62-1.06-5.38-.63Zm44.76-43.43c3.71-.2 6.52.52 8.47 2.83a13.42 13.42 0 0 1 2.64 8.61 19.2 19.2 0 0 1-2.64 8.6c-1.53 2.18-4.84 2.6-8.53 2.49Zm-6.15 23h5.95l.06 5.52c7.28.14 10.17-.83 13.77-5.06 6-6.95 5.5-20.5-3-26.71-4.39-3.2-10.69-2.2-16.75-2.23Zm-20.13-22.53c3.74 0 9.47-.89 9.36 3.43-.12 4.12-5.93 3.17-9.39 3.2Zm-6 22.47 5.93.14v5.69c11.42 1.32 19.58-3.8 17.37-13-.93-3.86-2.07-4.35-4-6.61 1-2.4 2.63-3.51 1.73-7.52-2.07-9.34-14.21-6.94-21-7.09Z" style="fill:#333;fill-rule:evenodd" transform="translate(-565.96 -314.18)"/></g></svg>