<svg xmlns="http://www.w3.org/2000/svg" data-name="Capa 1" viewBox="0 0 150.01 125.79"><defs><clipPath id="a" transform="translate(-565.96 -314.18)"><path d="M565.96 314.18h150.01v125.79H565.96z" style="fill:none"/></clipPath></defs><path d="M0 0h150.01v125.79H0z" style="fill:#fff"/><g style="clip-path:url(#a)"><path d="M591.62 390.77h12.92v-13c-1.25 0-12.73-.06-12.85.06s0 11.72 0 13Z" style="fill:#ffb61f;fill-rule:evenodd" transform="translate(-565.96 -314.18)"/><path d="M615.32 372.67a7.7 7.7 0 0 1 .7 1.6c1.31 3.32 3.32 8 4.4 11 2.29 0 1.93.23 2.29-.74l4.37-11.1a1.8 1.8 0 0 1 .4-.77v12.61h2.8v-16.4h-3.63c-.45 0-.59.8-.85 1.46l-3.09 7.67c-.25.6-1 2.57-1.24 3l-4.74-12.09h-4.08v16.38h2.67Zm89.23 12.5v-2.29c-1.79.77-2.75.43-2.78-1.75v-5.34h2.78v-2.29h-2.78V370l-2.55.78c-.17.08-.11 0-.23.17v2.48a30 30 0 0 1-4.08.06c0-1-.14-2.34.46-3s1.64-.51 2.58-.2v-2.4a4.77 4.77 0 0 0-4.6.91c-1.21 1.18-1.21 2.63-1.21 4.72h-1.87a7.3 7.3 0 0 0 0 2.29h1.87v9.46h2.8v-9.49a30 30 0 0 1 4.08.06c0 1.71-.19 6.34.26 7.66.74 2.2 3 2.4 5.3 1.66Zm-26.62-5.35a5.52 5.52 0 0 0 5.67 5.75h.46a5.71 5.71 0 0 0 5.86-6V379a5.41 5.41 0 0 0-5.61-5.74h-.4a5.69 5.69 0 0 0-6 6Zm5.62-4.26c2.23-.29 3.37 1.26 3.51 3.34.14 2.23-.57 4.12-2.64 4.32-2.29.26-3.45-1.23-3.62-3.32-.15-2.28.68-4 2.75-4.34m-21.75 10a5.75 5.75 0 0 0 5.9-6.07c0-3.77-1.9-6.28-5.67-6.28s-6.35 2.25-6.35 6.11 2.1 6.24 5.73 6.24Zm-.53-10c2.23-.29 3.45 1.23 3.54 3.32.14 2.28-.51 4.14-2.64 4.37s-3.48-1.26-3.6-3.37c-.14-2.32.68-4 2.7-4.32m7.71 9.29c1.36.94 4.5.89 5.95.09a3.45 3.45 0 0 0 1.33-4.84c-1-1.54-3.8-1.91-4.34-2.83-.62-1.11.46-1.85 1.51-1.82a5.2 5.2 0 0 1 2.69.82v-2.54a6.19 6.19 0 0 0-5.81.43 3.41 3.41 0 0 0-.43 5c1.5 1.54 4.23 1.37 4.08 3.12-.08 1.05-1.44 1.17-2.49 1a8.3 8.3 0 0 1-2.49-1Zm-22.29-2.6a7.3 7.3 0 0 1-1.92.89c-4.91 1.2-5.73-5.92-2.3-7.32 2-.8 3.15.14 4.22.68v-2.57c-.17-.6-4.05-1.34-6.46.26a6.11 6.11 0 0 0-2.69 5.31 5.7 5.7 0 0 0 2.72 5.29c2.41 1.46 6.26.46 6.43-.14Zm4.8 3c0-1.29-.06-6 .08-6.95.31-2 1.93-3.23 4-2.06v-2.8a3.15 3.15 0 0 0-4 2v-2h-2.75v11.78Zm-18.6 0h2.78V373.5a15 15 0 0 0-2.78.09Zm1.16-16.72a1.61 1.61 0 1 0 .65 3.14 1.61 1.61 0 1 0-.65-3.14" style="fill-rule:evenodd;fill:#747474" transform="translate(-565.96 -314.18)"/><path d="M591.67 363.38h-.08v13c.51.08 5.53 0 6.49 0h6.12c.29 0 .2.05.31-.09v-13Z" style="fill-rule:evenodd;fill:#73ba1c" transform="translate(-565.96 -314.18)"/><path d="M24.29 76.59h.09l-.03-13.07H11.42v13.07z" style="fill-rule:evenodd;fill:#02a5ee"/><path d="M577.39 376.42c1.42 0 12.53.11 12.87-.06.17-.34 0-11.55 0-13h-12.87Z" style="fill-rule:evenodd;fill:#ff4426" transform="translate(-565.96 -314.18)"/></g></svg>