<svg xmlns="http://www.w3.org/2000/svg" id="Capa_1" data-name="Capa 1" viewBox="0 0 150.01 125.79"><defs><clipPath id="clip-path" transform="translate(-565.96 -314.18)"><path d="M565.96 314.18h150.01v125.79H565.96z" style="fill:none"/></clipPath><style>.cls-6,.cls-7,.cls-8{fill-rule:evenodd}.cls-6{fill:#fc0}.cls-7{fill:#8bb837}</style></defs><path d="M0 0h150.01v125.79H0z" style="fill:#fff"/><g style="clip-path:url(#clip-path)"><path d="M620.13 370.3a17 17 0 0 0 0-3.2 12.84 12.84 0 0 0-2.78-7 13.25 13.25 0 0 0-13.86-4.63 14 14 0 0 0-4.39 2.14 13.57 13.57 0 0 0-5.1 7.84 13.56 13.56 0 0 0 2 10.45 10 10 0 0 0 .71 1 11.7 11.7 0 0 0 2.47 2.37 13.09 13.09 0 0 0 14.85.57 13.5 13.5 0 0 0 3.4-3.06c.46-.6.69-1.11 1.11-1.34a11 11 0 0 1 2.92-1 14.5 14.5 0 0 1-1.25 2.49 15.84 15.84 0 0 1-5.78 5.46 15.58 15.58 0 0 1-20.66-5.55 16.1 16.1 0 0 1-1.88-12.21A15.62 15.62 0 0 1 609.75 353a15.2 15.2 0 0 1 5.42 2.08 15.6 15.6 0 0 1 3.12 2.52 15.88 15.88 0 0 1 4.23 12.4 11 11 0 0 0-1.2.14c-.36.06-.85.17-1.19.2Z" style="fill:#0e65a5;fill-rule:evenodd" transform="translate(-565.96 -314.18)"/><path d="M661.66 370.3a24 24 0 0 1 0-3.2 13.29 13.29 0 0 1 16.67-11.61 13.8 13.8 0 0 1 4.37 2.14 13.2 13.2 0 0 1 3.17 3.32 13.3 13.3 0 0 1 1.93 4.52 13.56 13.56 0 0 1-1.93 10.43 10 10 0 0 1-.68 1 12.3 12.3 0 0 1-2.49 2.37 13.06 13.06 0 0 1-14.83.57 13.5 13.5 0 0 1-3.43-3.06c-.45-.6-.65-1.11-1.1-1.34a11 11 0 0 0-2.92-1 14.4 14.4 0 0 0 1.24 2.49 16.1 16.1 0 0 0 5.81 5.46 15.54 15.54 0 0 0 20.64-5.55 16 16 0 0 0 1.89-12.29 15.6 15.6 0 0 0-17.86-11.63 15.4 15.4 0 0 0-5.41 2.08 14.9 14.9 0 0 0-3.09 2.52 15.81 15.81 0 0 0-4.33 12.48 12 12 0 0 1 1.16.14c.37.06.85.17 1.19.2Z" style="fill-rule:evenodd;fill:#eb172b" transform="translate(-565.96 -314.18)"/><path d="M44.82 70.5a13.42 13.42 0 0 0 1.42 8.15 15.4 15.4 0 0 0 2 2.88 15 15 0 0 0 2.66 2.21 13.14 13.14 0 0 0 14.94-.6 13.43 13.43 0 0 0 5-13.81 13.2 13.2 0 0 0-6.21-8.49c-.62-.4-1.41-2.63-1.56-3.29 1.25.11 4.2 2.11 5.28 3.09a17.1 17.1 0 0 1 3.6 4.83 13.3 13.3 0 0 1 1.36 4.23A15.7 15.7 0 0 1 72 79.19a15.55 15.55 0 0 1-28.6-1.06 15.7 15.7 0 0 1-1-7.23c.4-.09.82-.12 1.22-.17s.73-.17 1.16-.23Z" class="cls-6"/><path d="M105.04 70.5a13.42 13.42 0 0 1-1.44 8.15 15.8 15.8 0 0 1-2 2.88 14 14 0 0 1-2.67 2.21 13.09 13.09 0 0 1-14.91-.6 13.36 13.36 0 0 1-5-13.81 13.18 13.18 0 0 1 5.81-8.24 14.3 14.3 0 0 1 6-2c.65-.38.45-1.72.59-2.38a24.7 24.7 0 0 0-6.09 1.43 17.4 17.4 0 0 0-3.77 2.55 17 17 0 0 0-3.6 4.83 14.1 14.1 0 0 0-1.36 4.23 15.77 15.77 0 0 0 6.43 15.58 15.58 15.58 0 0 0 23.5-7.15 16.4 16.4 0 0 0 1-7.23c-.4-.09-.85-.12-1.22-.17s-.77-.17-1.17-.23Z" class="cls-7"/><path d="M90.51 55.82a17 17 0 0 0-2.35.37 17 17 0 0 0 .06-3.26 13 13 0 0 0-2.33-6.29 11 11 0 0 0-2.46-2.69 11 11 0 0 0-1-.74 13.66 13.66 0 0 0-6.35-2.26 13.27 13.27 0 0 0-10.04 3.48 13.47 13.47 0 0 0-4.25 9.55v.54a13.43 13.43 0 0 0 6 10.95c1 .66.68.23 1.33 1.54a9.8 9.8 0 0 1 .8 2.09 13.8 13.8 0 0 1-4.06-2.15 16 16 0 0 1-3.14-3.05 16.2 16.2 0 0 1-2.24-4 15.84 15.84 0 0 1 2-15.06 15.58 15.58 0 0 1 24.21-1.02 16.6 16.6 0 0 1 3 5 15.7 15.7 0 0 1 .85 7Z" class="cls-8"/><path d="M59.13 59.04a13.8 13.8 0 0 0-5.13.57 13.5 13.5 0 0 0-5.38 3.28 15 15 0 0 0-1.36 1.58c-.63.91-.34.8-1.59 1.31a8.1 8.1 0 0 1-2.15.66 13 13 0 0 1 1-2.12 17.5 17.5 0 0 1 2.77-3.46 15.5 15.5 0 0 1 11.31-4.2Z" class="cls-6"/><path d="M90.77 59.04a13.26 13.26 0 0 1 10.52 3.85 16 16 0 0 1 1.33 1.58c.65.91.37.8 1.59 1.31a8.1 8.1 0 0 0 2.15.66 11.5 11.5 0 0 0-1-2.12 15.7 15.7 0 0 0-2.78-3.46 15.46 15.46 0 0 0-11.31-4.2Z" class="cls-7"/><path d="M89.47 60.18a16.3 16.3 0 0 1-2.3 4 16.6 16.6 0 0 1-3.2 3 15.3 15.3 0 0 1-9.61 2.81l-.51-2.38a13.7 13.7 0 0 0 5.1-.54 13.23 13.23 0 0 0 6.09-4l1.25-1.66a11.9 11.9 0 0 1 3.18-1.17Z" class="cls-8"/></g></svg>