<svg xmlns="http://www.w3.org/2000/svg" data-name="Capa 1" viewBox="0 0 150.01 125.79"><defs><clipPath id="a" transform="translate(-565.96 -314.18)"><path d="M565.96 314.18h150.01v125.79H565.96z" style="fill:none"/></clipPath></defs><path d="M0 0h150.01v125.79H0z" style="fill:#fff"/><g style="clip-path:url(#a)"><path d="M589.32 371.53c6.63-.74 12.22 4.66 12.87 10.58a12.06 12.06 0 0 1-10.63 13.15c-6.77.71-12.33-4.72-12.95-10.72a12 12 0 0 1 10.71-13ZM636.49 358c.26.17.68.08 1.11.14v4.43h.53v-4.43c.85-.11 1.17.26 1.19-.49h-1.55c-.71 0-1-.2-1.28.35m9.41 4.51a7 7 0 0 0 1.36.06c.85 0 .94.2 1.14-.48h-2v-1.92h1.81v-.49h-1.81v-1.57h2.24c-.11-.68-.4-.48-1.16-.46a8 8 0 0 0-1.62.06Zm-5.13 0h.51v-2.37h2.5v2.34l.54.06v-4.92l-.54.06v1.95h-2.41l-.06-2h-.42c-.32.63-.09 3.92-.09 4.89Zm18.51 20.59c-.06-.78.28-.83 0-1.75a1 1 0 0 0-1.08 0c-.2.83.12 1.06 0 1.57-.57.78-1.3.2-1.19 1.6.06.75.2 1.72.79 1.95-.25 1.54.57 6.35.29 6.8-.46.37-.63.06-1.22.43s-.65.23-1.33.23l-.88 2.23h8.1c-.68-2.83-1.36-2.09-1.87-2.23s.12.06-.42-.26a5.2 5.2 0 0 0-1.14-.31c-.22-1 .2-2.12.15-3.34s.56-2 .14-3.35c.31-.43.37-.11.56-.86.68-2.57-.11-2.23-1-2.71Zm-53.4 7.94c-.26.35-.63 1.15-.49 1.49a8.27 8.27 0 0 0 3.58 3.23 8.89 8.89 0 0 0 7.48-.11c4.59-2.29 5.5-8 1.16-11.38-2.58-2-6.8-3.32-8.42-5-3.77-4 1.5-11.09 8.39-6.06a9 9 0 0 1 1.19.94 3.77 3.77 0 0 0-1.56-2.74c-3.2-2-7.54-1.46-9.49 1.4a5.78 5.78 0 0 0 .08 6.77c2.47 3.12 8.34 4.12 10.49 7.32 2.61 3.89-1.53 9.61-7.45 8.21-2.92-.72-3.66-2.41-5-4Zm86.34-14.83c0-4.49 5.13-6.46 9.67-3a8.3 8.3 0 0 0 1.19.88c-.4-1.68-.74-2.2-1.87-2.83-4.46-2.54-10.27-.28-10.27 4.86 0 7.21 11.17 6.61 12.33 12.38 1.08 5.43-6 8.63-10.29 5.69-1.92-1.34-1.61-1.66-2.86-3.17-.59 1.34-.65 1.4.14 2.43 4.45 5.71 14.46 3 14.46-3.78 0-3.91-3-5.74-5.92-7.23-2.64-1.31-6.58-2.83-6.58-6.2Zm-44.84 20c.25-.14.19-.09.34-.31l8.22-18.84c.45-1.06 1-2.21 1.41-3.26l1.45-3.09c.42.63 5.27 11.95 5.64 12.81.6 1.4 5.27 12.35 5.67 12.69h1.16l-12.47-28.48-.45.85c-1.54 3.46-11.77 26.73-12 27.62Zm-3.38-2.75c-1 .34-2 .82-3.12 1.17-9 2.69-16.67-3.83-16-12.3s9.78-14.09 18.94-8.69c.37.2.94.66 1.22.75-.71-1.69-.37-1.83-2-2.63a13.69 13.69 0 0 0-11.54-.52 13.22 13.22 0 0 0 6.12 25.3c1.34-.08 5-.83 5.73-1.48.26-.2.26-.38.4-.78a3.8 3.8 0 0 0 .28-.82Zm31.18-21.67c2.55 0 6.21-.35 7.85 1.31a4.9 4.9 0 0 1 1.22 1.66c1.08 2.54.46 6.12-2.29 7.32-1.85.8-4.57.6-6.75.6v-.46Zm-1.27 24.35 1.27.06V384c4.17 0 3-.4 4.2 1.35l6.74 10.86h1.48c-.17-.54-3.4-5.55-3.83-6.2-.65-1.09-1.3-2-1.93-3.09-.28-.46-1.9-2.83-1.75-3 .42-.23 1.67-.37 2.29-.66 5-2.32 4.74-9.86.14-12-1.64-.77-6.63-1-8.61-.68Zm-83.17.4a13.33 13.33 0 0 0 12.84-12.89 13.19 13.19 0 0 0-22.39-9.65 14.9 14.9 0 0 0-2.67 3.77 12.4 12.4 0 0 0-1.3 6.15c0 6.52 6.21 12.63 12.73 12.63Z" style="fill:#af9852;fill-rule:evenodd" transform="translate(-565.96 -314.18)"/></g></svg>