<svg xmlns="http://www.w3.org/2000/svg" id="Capa_1" data-name="Capa 1" viewBox="0 0 150.01 125.79"><defs><clipPath id="clip-path" transform="translate(-565.96 -314.18)"><path d="M565.96 314.18h150.01v125.79H565.96z" style="fill:none"/></clipPath><style>.cls-4{fill:#1a1a1a;fill-rule:evenodd}</style></defs><path d="M0 0h150.01v125.79H0z" style="fill:#fff"/><g style="clip-path:url(#clip-path)"><path d="M104.38 51.82c.48 1.94 1 1.77 1 4.86v12.14c0 3.92-.57 4.06-.57 5.15l2.49-.06.06-16.64 8.48 12.7c.9 1.31 1.87 2.91 2.75 4 1.33 0 2 .37 2.21-.72V57.52c0-1.4.37-4.92.28-5.66h-2.15c-.74 2.8.17 11.75-.2 15.52-2.69-3.17-7.69-12.56-10.41-15.56ZM48.87 51.82c.49 2.23 1 .63 1 4.86v12.14c0 4.61-.43 3.29-.63 5.06 2.64.37 2.64.37 2.61-1.91V57.38l.63.63a5 5 0 0 1 .42.65c.31.52.34.63.68 1.15l7.46 11.12c.53.77 1 1.51 1.44 2.23.74 1.14 1.16.83 2.67.77.42-1.8.14-9.06.14-11.44v-5.77c0-1.46.42-4 .34-4.86H63.5c-.56 2.14 0 12.44-.22 15.64L52.81 51.82ZM16.04 53.4c2.32-.05 4.62-.25 6.23.86 2.89 2 3.12 6.75-.2 9.44-1.58 1.28-3.82 1-6.12.91Zm-4.61-1.58c1 3 .56 12.78.59 17.21s-.48 3.43-.56 4.89l5.13-.09c-.43-3.54-.8-1.74-.6-7.69 3.91-.11 6.12.37 9-1.71a6.9 6.9 0 0 0 2.46-7.52c-1.75-6.29-9.18-5.12-16-5.09ZM32.89 64.64c.25-1.52 2.15-7.23 2.89-8.21l2.86 8.21Zm.93-12.75c1 2.91.46 2.66-.59 5.69l-4 11.46a26 26 0 0 1-2.44 4.89h2.86a26.6 26.6 0 0 0 1.39-4.11c.37-1.06.6-3.14 1.59-3.66h6.24c1.19.32 2.12 6.15 3.17 7.78l5-.09c-.06-.25-1.33-1.91-1.7-2.68l-3.52-9.81c-3.85-10.64-2-9.83-8-9.49ZM87.62 73.96h13.42l.09-2.43c-2.75 1.28-5.56.94-9.05.86L92 63.27l6.74-.06.12-1.52h-6.82V53.4h5c2.78 0 2.15.26 4 .86v-2.34l-13.36-.1a9.6 9.6 0 0 0 .43 2.26V71.4c-.11.95-.48 1.63-.51 2.52ZM136.86 72.19c-1.16.85-7 .42-7.57.22-.11-1.54-.22-8 .12-9.29l6.91-.11-.08-1.32-6.86-.14v-8.06a37 37 0 0 1 5-.09 5.9 5.9 0 0 1 4 .89l-.17-2.43-13.17.06c0 .57.4 1.43.51 2.23v17.69c-.14.83-.45 1.43-.51 2.12l13.55-.06.06-2.37ZM79.15 73.93c-.12-1.52-.65-2.32-.65-4.6v-5.26c0-3-.29-7.89.08-10.64 3.35-.14 3.35-.14 6 .83l-.11-2.4-15.79.06v2.37c1-.34 1-.74 2.49-.86 1-.08 2.44 0 3.52 0v15.93c0 1.91-.57 3.48-.57 4.63Z" class="cls-4"/><path d="m136.86 72.19-7.34.14v-8.95h3.6c.85 0 2.66.37 3.17-.37l-6.91.11c-.34 1.29-.23 7.75-.12 9.29.6.2 6.41.63 7.57-.22Z" class="cls-4"/></g></svg>