<svg xmlns="http://www.w3.org/2000/svg" id="Capa_1" data-name="Capa 1" viewBox="0 0 150.01 125.79"><defs><clipPath id="clip-path" transform="translate(-565.96 -314.18)"><path d="M565.96 314.18h150.01v125.79H565.96z" style="fill:none"/></clipPath><style>.cls-5{fill-rule:evenodd;fill:#e30613}</style></defs><path d="M0 0h150.01v125.79H0z" style="fill:#fff"/><g style="clip-path:url(#clip-path)"><path d="M638.45 345.37a31.81 31.81 0 0 0 5.07 63.41c16.44-1.23 30.16-15.9 28.86-34.34a31.67 31.67 0 0 0-33.93-29.07m11.39 12.18-1.56-.63 3.06-7.55 1.59.55Zm-5.16-4.43a19.6 19.6 0 0 1 1.9 3.2c-2-.32-1.93-.26-2.44-1.14-1.44-2.52-1-2-3.31-2.06v2.43l-1.65.08v-8.14c2.24 0 5.48-.46 6.84.82a2.72 2.72 0 0 1-.68 4.38c-.43.23-.34.08-.63.43Zm-13.29 2.6-.09 2.11c-.56.26-1 .61-1.64.86l.54-9.29 1.7-.6c.57.57 1.08 1.12 1.56 1.69l2.26 2.54a23 23 0 0 1 2.33 2.57l-1 .35c-1 .17-.79.08-2.27-1.52a18.7 18.7 0 0 0-3.37 1.29Zm21 1.94c.23-.34.15-.23.51-.51a2.4 2.4 0 0 1 .63-.4c.85 1.23 2.35 4.34 4.39 3.74.85-2.2-5.16-4.63-2.38-7.09 2.13-1.88 6.21 2 6.35 3.78a2.34 2.34 0 0 1-1.11.83c-.45-1.52-2.89-3.95-3.88-3.35-1.27.74 1.67 2.23 2.61 4.49 1 2.57-1.3 3.89-3.57 2.66a8.28 8.28 0 0 1-3.55-4.15m-28 2c.31.66 1.33 1 1.7 1.92-.51.34-.6.66-1.14 1-1.1-.8-1.95-1.8-3-2.66l-2.83-2.74 2.66-3.06c3.37-3.78 6.55-.26 5.24 2.49a26 26 0 0 1-2.63 3.08Zm-2.81 18.64a19.41 19.41 0 1 1 20.61 18.36c-10.89.77-19.84-7.58-20.61-18.36m.82 17.3s-.08.4-.9.14a2.55 2.55 0 0 1-1.53-2.23c.65.17.08-.17.85 1 .31.49.42.72 1.22.72.31-1.35-1.34-1.35-.83-3a1.88 1.88 0 0 1 2.36 1.86c-.85-.25-.2-.23-.85-1-.23-.26-1-.8-1.11-.23s1.59 1.6.79 2.72Zm39.41-1.29c-.57.34-1.73 0-2.95 0 .25.23 1.33 1.12 1.41 1.4.2.66.06.06 0 .32-.37 0-1.31-.92-1.9-1.49-1.34-1.17 1.47-.69 2.6-.63-.17-.2-.7-.77-1-1-.93-.83-.31-.83-.11-.72s.9.86 1.07 1c.43.37.94.65.86 1.11Zm-5 .92s0-.58.62.14l1.11 1.23c.45.4.39.2.45.8-.74 0-2-1.6-2.18-2.17m-32.18 3.57c-.19-.34-.19.26-.11-.57 0-.29.14-.49.17-.89l-1-.66c-.57.18-.68.4-1.31.32.32-.74.23-.34 1.48-1 2.58-1.32 1.81-.34 1.19 2-.17.72-.14.63-.46.83Zm1.31.77c-.23-.4 1.3-2.46 1.67-2.6.28.52-1.25 2.83-1.67 2.6m31.92-1.26c-.6.26-.57 0-1.19-.31l-1.08.66c.06.74.31 1-.17 1.34-.06-.08-1.13-3.34-.31-3.46.05 0 2.52 1.2 2.75 1.77m-30.42 2.38a7.4 7.4 0 0 1 1-2.32c.34-.57.12-.37.6-.46.42.63.4 2 .68 2.86.34-.54.59-1.46 1.16-1.86.43.66-1.13 2.78-1.22 2.83-.42-.22-.28.15-.54-1.31a6 6 0 0 0-.37-1.6c-.17.4-.31.63-.51 1.06-.45.83-.31.71-.79.8ZM653 401c-.54-.08-1-.62-1.62-.91.2.66.74 1.31.66 1.8-.57.14-.6-.43-.91-1.06a4.2 4.2 0 0 1-.62-1.6c.73-.17 1.47.69 2 1 .08-.68 0-1.71.31-2.17.48.06 1.64 2.26 1.47 2.75-.68-.18-.51-.69-1.25-1.61Zm-21.12-1.34c.4-.2.82.09 1.25.23 1.78.66 1 .09 1.19.71-.51.2-.48 0-1.08-.11l-.68 2c-.25.63-.08.32-.45.37-.26-.48.54-1.77.59-2.54-1.58-.83-.56-.2-.82-.63Zm15 .94c1.59-1.11 3.77-.74 2.55 1.09.62.6.65.54.71 1.06-.57 0-.57 0-1.19-.92l-1.11.29c.12.6.37.83.14 1.26-.45-.12-.17.45-.65-1.2-.14-.52-.31-1.12-.45-1.58m-2.95 1.4c.31.29 0 .12.48.23s.12-.17.6.09c-.23.6-.17.23-.91.46v.8c1.25.08 1.59-.43 2.18 0-.31.51-2 .51-2.58.57l-.37-2.95 1.85-.37c1.16 0 .28-.08.65.23-.26.2.25.06-.43.23-1.39.4-1.5-.34-1.5.71Zm-1.93 1.26c-.54-.4-.54.17-.93-.48a2.44 2.44 0 0 1 1.36-.12c.25 2.72-2.61 1.75-2.89.66-.63-2.17 2.35-2.83 2.83-1.46-.4.17-2.27-.88-2.44.77-.14 1.32 1.79 1.8 2.07.63m-3.37 9.55h4.76a8 8 0 0 1 2-.31 35.33 35.33 0 0 0 17-7 46 46 0 0 0 4.54-4.17 35.53 35.53 0 1 0-61.29-25.53c-.42 11.49 4.34 19.58 9.44 25.53 3.77 4.37 10.49 8.34 16.16 10a34.5 34.5 0 0 0 5.42 1.12 6.9 6.9 0 0 1 2 .31Zm-.51-68.72c10.29-1.15 19.39 3.48 24.72 8.17a32.93 32.93 0 1 1-42.32-1.14 32.46 32.46 0 0 1 17.6-7Zm9.81 30.73a38.4 38.4 0 0 0 4 5.77 30 30 0 0 0 5.16 4.69c1.33-2 2.1-6.26 1.93-9.12a18.19 18.19 0 0 0-15.51-16.95 37.5 37.5 0 0 0 4.37 15.61Zm-23.19 10.49c3-1.49 7.62-7.35 9.38-10.58a37.15 37.15 0 0 0 4.31-15.52 18.11 18.11 0 0 0-15.48 17.09c-.28 4.84 1 6.24 1.79 9Zm23.78 6.35c.88-4.26-2.35-7.44-5.33-8.32-6-1.75-11.68 3.91-9.24 9.8.48 1.15.68 1.17 1.9 1.52a17.66 17.66 0 0 0 9.07.31c2.19-.51 3-.4 3.6-3.31M621.27 357a25 25 0 0 0 2 1.71l1.7-1.83c.46-.54 1.39-1.63.32-2.48s-1.85.14-2.27.68c-.57.69-1.19 1.2-1.7 1.92Zm10.2-2.89 2.27-.8a18.4 18.4 0 0 0-2.13-2.49Zm15.93 46.8.12.6a1.58 1.58 0 0 0 1.05-.14c.65-.2.65-.12.59-.78a1.88 1.88 0 0 0-1.76.32m-3.2-51.83c-.51-.32-2.78-.2-3.37-.14l-.06 2.74h3c.74-.09.23 0 .42-.2a1.24 1.24 0 0 0 .06-2.43Zm-20 47.37.56.51.4-.94Zm31.21 1.74.62-.4-.76-.57Zm-19.51 4.12c.18-.12-.34-.34.66-.17.73.14.39.23.45.48-.93.4-1.11-.31-1.11-.31" style="fill:#004170;fill-rule:evenodd" transform="translate(-565.96 -314.18)"/><path d="M65.4 78.3c-1.16-5 3.51-10.32 9.41-10.4s10.35 4.31 9.75 10.43c2-.88 4.17-3.49 5.42-5.26l-2.3-2.17c-.79-.74-1.45-1.4-2.24-2.26a37.4 37.4 0 0 1-3.8-5.23H68.29a41.4 41.4 0 0 1-3.8 5.23l-4.53 4.43c.39.55.73 1 1.16 1.57.68.86 3.46 3.58 4.28 3.66M73.36 44.97a42 42 0 0 1-1.38 9.75c-1.11 4-1.68 4.54-3.18 7.86h12.33a37.26 37.26 0 0 1-4.53-17.64 6.8 6.8 0 0 0-3.24 0Z" class="cls-5"/></g></svg>