<svg xmlns="http://www.w3.org/2000/svg" data-name="Capa 1" viewBox="0 0 150.01 125.79"><defs><clipPath id="a" transform="translate(-565.96 -314.18)"><path d="M565.96 314.18h150.01v125.79H565.96z" style="fill:none"/></clipPath></defs><path d="M0 0h150.01v125.79H0z" style="fill:#fff"/><g style="clip-path:url(#a)"><path d="m585.72 393.86-1.93-.35-.87-5c1.64.09 1.78.57 2.49 1.55 1.33 1.77 3.68 5 6.72 3.31-.29-1.06-3.38-2.14-5.53-6 .94-1 2.15-1.69 2.24-3.61.23-5.8-6.41-3.77-10-3.23-1.25.18-1.42 0-1.67.86 2.29 1.4 1.56-1.54 2.95 6.49 1.55 9.09.51 4.8-.71 7.26a.4.4 0 0 0 .22.09c1.17.31 1.73 0 3.18-.23 3.68-.57 2.55-.2 2.86-1.14Zm-3.8-12.7c2.13-1 3.77.43 4.11 2.32.54 2.86-.85 3.8-3.37 4.06-.14-1.92-1-4.6-.74-6.38m23.3-.28c.85.88 1 8.66.91 9.8-1.13.63-1.13.32-1.36 1.12 5.61.2 11.76-.89 11.48-7.12a5.08 5.08 0 0 0-4.11-5.12 15.3 15.3 0 0 0-4.22 0c-1.11.09-3 0-3.83.66a1 1 0 0 1 .2.12l.42.2c.51.31.09-.12.51.37Zm3.18-.4c.79-.55 2.49-.06 3.15.28a3.33 3.33 0 0 1 1.89 2.29c.77 2.09.49 4.92-.82 6.32-.65.66-4 3.26-4.39-1.4-.06-1.06-.6-6-.28-6.84s-.37-.08.45-.65m39.54-2.26a3.2 3.2 0 0 1 1.42 2.51c.06 1.09-.06 2.52-.09 3.63-.08 2.43.29 4-.59 4.86s-.34-.34-1 .83c2 .78 11 1.09 9.49-4.06-.39-1.45-1.58-1.48-2.63-2.2 2.63-.85 3-3.83 1-4.91-1.39-.75-5.73-.63-7.6-.66m3.69 1.08c1.67-.31 2.8.29 2.8 2.09s-1.3 2.17-3 2.2Zm-.2 5.18c3.2-.26 4.53 2.6 2.86 4.4-.51.57-2.38 1.29-2.89-.11a23.7 23.7 0 0 1 0-4.29Zm41.13-2.89.57.72c1.24 1.4.62 1.94.17 5.54-.32 2.58-.09 4-1.17 4.78-.82.57-.53-.66-1 .8l5.1.68c-.39-.94-.39-.31-1-1.11-.82-1.2 0-3.69.26-4.12 3.06.6.42 5.69 6.35 6.15a34 34 0 0 1-3.15-6.18l.51-.4c2.81-2.08 2.3-4.37.88-5.4-1.14-.83-5.81-1.49-7.57-1.46Zm3.15 6.49c-.46-1.34.11-3.92.48-5.14 1.93-.06 2.95.74 2.66 2.91-.2 1.83-1.33 2.37-3.14 2.23m-62.11-2.51a5.81 5.81 0 0 0 6.86 4.91c7.43-1.08 6.32-14-2.18-12.38-3.15.58-5.22 3.63-4.68 7.47m4.39-6.32c5.16-2.6 6.52 8.29 3.09 10.12-4.67 2.46-7.17-8.06-3.09-10.12m-11.45 10.35a56 56 0 0 1-.4-7.32c-.08-2.55-.62-4.46.49-5.41s.65.09 1.1-1.05l-4.93.14c-1.11.14-.48-.09-1.22.31 1.53 2.78 1.62-3.83 2.07 8.41.34 8.26-.51 3.77-1.79 6 1.14.63 3.58.18 4.88.15 1.7-.06 3.46-.09 5.16-.26.31-1 .91-2.72.39-3.63-1.3.28-.62 1.49-1.92 2.4-.94.66-2.61.49-3.83.29Zm54.71-9.52.42.6c.83.94.8.25.88 1.57l-.93 8.8c-1.14.43-1.28-.11-1.73.83 1.39.52 7.51 1.35 8.87.86.37-.8 1-2.11.54-2.86-1.56.66-.91 3.26-5.41 1.43l.39-4.57 2.58.43c.57 1 0 .91 1.08 1.34l.4-3.75c-1.9.92 0 1.38-3.94 1.06l.42-4.46c1 0 2.41 0 3.06.55 1.08.88 0 1.51 1.5 1.77v-2.75ZM596.69 386a7.1 7.1 0 0 1-.51-2.57c-.17-1.69-.54-1.71.8-2 3.06-.69 2.26 1.31 4 1.66l-.48-2.8-8.08 1.11c1.08 1.26 1.19-.48 1.65 1.77.14.78.2 2.18.28 3a42 42 0 0 1 .43 5.57c-1 .92-1 .29-1.45 1.43l8.9-1.14.28-3.06c-1.41.54-.31-.35-1.19 1.26s-1.7 1.62-4.11 1.4a13.5 13.5 0 0 1-.42-4.58 4.6 4.6 0 0 1 2.15-.11c1.17.37.46.86 1.65 1.06a9.6 9.6 0 0 0-.6-3.69c-1.44 1 .26 1.6-3.26 1.68Zm80.08 5.58c-.42-.83-.28-.49-1.5-.8-.26-2.49.31-7.46.57-10.12 3.51-.55 2.26 1.83 3.79 2.4l.15-3.52a31.7 31.7 0 0 1-9.22-.51h-.31c-.03 0-.14.09-.14 0-.14-.43-.74 2.43-.4 3.26 1.93-.95-.05-2.2 3.8-2l-.54 9.43c-.56 1.8-1.27.08-1.7 1.51 1 .35 4.62.72 5.5.32Zm-16.19-1.29c6.18 2.58 9.13-2.8 5.45-5.8-1.22-1-4.45-2-3.21-4.35a1.79 1.79 0 0 1 2.64-.48c1 .71.57 1.57 1.59 2.17.42-.74.11-1.94 0-2.86-1.51-.34-3.26-.83-4.77.06a3.4 3.4 0 0 0-1.39 4.29c.57 1.48 1.76 1.8 3.24 2.77 1.24.8 2.18 2.63.59 3.8-2.35 1.43-3.43-1.83-3.8-2.37s-.05-.17-.45-.52Zm-1.64 9.32c4.28.6 3.26-2.94 2.78-3.54-1.42-1.69-4.25-.86-3.83 2.43Zm.17-1c-1.87-3.26 3.71-3.46 1.73.23Zm6.66.91c.09-1 .74 1 .29-2.6-.2-1.71-.2-1.91-2.81-1.51v4.29Zm-.59-2.88c-1 .6-.54.31-1.11 0 .43-.32-.59-.46.57-.52.74 0 .45.35.54.52m-.51 2.2c-1-.14-.29.17-.57-.72.14-.14-.45-.57.82-.34.82.14.43.29.57.63-.09.09 0 .51-.82.43m-59.53.89c-1.3-2.86.11-1-.14-3.06-.17-1.35-1.65-1.43-2.92-1.26v4.2a1.9 1.9 0 0 0 1.33-.83c0-.11.14-.11.23-.14.51 1 .11.88 1.5 1.09m-1.93-1.92c-.42-.74-.31-.57-.2-1.66 1.39.17 1.73 1.2.2 1.66m78.49 1.92c-1.33-2.81.12-1.06-.14-3.06-.17-1.35-1.61-1.4-2.92-1.29 0 1.23-.2 3.34.28 4.29.66-.32.12.06.54-.4l.34-.6c.57.31.09.05.51.4l.77.54c.45.23-.09 0 .62.12m-1.9-1.92c-.19-.34-.19 0-.28-.63a3 3 0 0 1 .09-1c1.41.23 1.61 1 .19 1.66Zm-49.29 1.89c1-.52.31-.69.91-1.55h.87c.66.75.12 1 .91 1.58.29-.41.34-.15.43-1.29.17-2.52.11-2.92-.82-3.12l-.09 2c-3 0-.48-1-2.21-2-.26.46-.14-.45-.31 1a7.9 7.9 0 0 0 .31 3.38m-23.39-3.38c1.11-.48 1 .23 2-.6-.71-.65-1.64-.45-2.86-.34v4.26a17 17 0 0 0 1.73.11c1.45-.11.8-.11 1.17-.43-.66-1-1.62-.11-1.87-.74 0-.08-.12-.11-.18-.17 1-.63.74.06 1.73-.57-.85-1.63-1.61.88-1.7-1.52Zm61.32 0c1.27-.43 0 0 .76 0h.2l.57-.25c-.94-1.17-2.64-1-2.44.57.17 1.4 1.3.63 1.84 2.11-1.81.29-.54-.14-2.07-.28.29 2 2 1.29 2.41.94 1.67-1.34-.82-2.29-1.27-3.06Zm-57.23 0c1.38-.54 0 .17 1 .09s.31.08.51-.72c-2.16-1-3.63.55-1.42 2 1.25.86.45-.11.82 1.09-2 0-.48-.4-2.07-.31.28 1.48 1.33 1.37 2.81.94v-1.63c-.76-.8-1.13-.46-1.72-1.49Zm16.12 0c1.19-.54 0 .23 1.59-.11-1.1-2.29-3.91.06-1.73 1.37 1.53.94.71-.26 1.11 1.29-2.07-.23-.51-.72-2.1-.29.43 1.29 1.53 1.37 2.75.69.62-2.43-.88-1.52-1.62-3Zm18.51 3.41c.85-.49 1.59-2.29 1.93-3.44v-1c-1 .43-.42-.25-1.5 2.46-.57-.66-.4-.66-.79-1.54-.57-1.37.17-.8-1.28-.86Zm-24.32-3.09c.66-.43-1.07-.52 2-.52v-.83h-2.81v4.38c1.25-.23.8.23.94-1.55 1.39 0 1.36.35 1.64-.63-1.33-.68-1.1.6-1.73-.88Zm-22.25-.4c.34-.06.8-.06 1-.09 1.19-.26.45-.06.93-.43-.51-.43.62-.31-1.19-.45h-1.64v2.55c0 1.6 0 1.31.42 1.89.77-.61.4-.21.51-1.61 1 0 1.05.23 1.7-.28-.34-.95-.45-.32-1.76-.72Zm71.41-.83c.65 1-.4.26 1.13.91.28 3.66-.45 2.72.57 3.38.2-.32.2-.09.31-.69a8 8 0 0 0 .06-.86c0-3.46.51-.83 1.21-2.86Zm-31.5 4.2a12 12 0 0 0 1.45.14 3 3 0 0 0 .82-.14l.45-.29c-.62-.77-.56-.42-1.87-.51 0-1.34.23-2.54-.31-3.52-.51.35-.57-.11-.54 1.92zm15.48 0a3.17 3.17 0 0 0 2.72-.26c-.48-.37.23-.37-1.73-.48-.28-1.52.43-3.23-.88-3.52l-.11 3.09Zm-30.08-4.26a9.14 9.14 0 0 0 0 4.41c1.11-.26.74-.89.74-2.21s.37-2-.74-2.2m18.71 0c-1 .23-.71.55-.71 1.89 0 2-.17 1.69.4 2.54.77-.54.37.52.57-1Zm34.1.23c-.45-.4 1.08-.54-2.8-.28a7.44 7.44 0 0 0 0 4.48c.39.06 2.49.26 2.63-.08 0-.09.14-.09.2-.12l-.11-.68a7 7 0 0 1-1.11 0c-.74-.17-.42-.17-.76-.43l.51-.17c1-.34.82.08 1-.32.06-.08.14-.05.23-.08-1-1.63-1.65.88-1.73-1.6 1.87-.15 1.75 0 1.92-.69Zm-25.88.17c-.45-.57 1-.6-2.75-.45a11.1 11.1 0 0 0-.11 4l.2.45 2.78-.43c-.88-.8-1-.25-2-.6.2-.74 0-.34.77-.6.08 0 .42-.08.48-.11l.43-.17c-.71-1.26-.23-.14-1.17-.57s-.48.57-.54-1.06Zm51.74-.23c1.47.46 1.13.15 1.47-.2l-.37-.42a1 1 0 0 0-.17-.09l-.23-.09c-1.75-.85-1.21-.43-1.41.43a1.65 1.65 0 0 0 .71.37m-66.19 1.69c-1.11-.31-1.56.14-1.19 1.29l1.1-.17Zm-20.53-.11-1.53.11a7 7 0 0 0 0-1.14c0-.55-.11-.43-.25-.72-.88.35-.43-.2-.71.72v3.28c.48.49-.65.29.82.49a1.4 1.4 0 0 0 .12-.26l.34-.77c.65-1.37-.57.12.36-.46 1.25.49.68 1.75.91 1.09 0-.06.06.14.09.2h.73v-3.6c-.17-1.26.06-.09-.25-.72-.65.32-.51-.23-.63 1.75Z" style="fill:#1a1a1a;fill-rule:evenodd" transform="translate(-565.96 -314.18)"/><path d="M624.73 357.92c.36-1.43.28-1.49 1.9-1.37-.4 1.48-.34 1.2-1.9 1.37m27.18 9.69 1.5-.31c-.42-.66-.22-.46-1.24-.89l-3.41-2a17.8 17.8 0 0 0-5.47-2.52c.54 1.32-.76.49 1.19 1.29a9.2 9.2 0 0 1 3.38 1.63c2 1.34 4.67 2 3.46 2.14m-31.81-6.8c0-1.66-.06-1.6 1.36-2-.08 1.54-.28 1.54-1.36 2m23-.83c-1 .29-.34-.14-.51-.37m-9.39 7.15-.19-1.32c3.57-.2 2.57-1.29 9.35-2.09 1.67-.2.82.69 1.25-.65l.08-.78c-1.95-.11-2.49.32-4-.54.15-2 1.22-1.49 2.84-1.4m12.36-2.77.85-.23c-1.36-1.49-4.34-1.77-6.58-1.6-3.57.28-3.17.45-5.41 2.77l-.06-.34c.74-.72 1.33-.95 1.5-2.09-1.61-1.26-3.23-.91-4.87 0l-.06 1.63-.14.54-4.79-.94h-2.24c-1.11-.77-4.45-.72-5.22.57a7.8 7.8 0 0 0-.42 5.46l.11 1.29c3.66 1.83 3.57 0 4.85 2.34a1.2 1.2 0 0 1 .11.2m10.58-6.86-.77.43c-.08 0-.17 0-.28.06-.77.25-.12-.26-.88.34l1.56.14 1.1-.51c-.17-.46-.39-.52.06-1.46l9.18-1.49m-11.79 1 1.33.18v1l-1.14-.46Zm11.79-1 1.82-.28c-.85-1-3.2-1.38-3.66-1.35-1.42.12-.54-.11-1 .69 1.16.46 1.9.26 2.86.94Zm-16.1-.65 3 .17v-1.6a3.54 3.54 0 0 0-3 1.43m11.74 4.68-.57.72c.94 1.4 4.14 3.2 6.07 3.51l2.21.49c-.06-.11-.14-.29-.17-.23s-.14-.14-.2-.17l-3.09-2c-1.25-.94-1.84-1.71-3.2-2.6Zm-11.31 6.89-.17 1c1.33 4 5.55 6.84 11 6.84 5.84 0 9.33-2.15 10.92-6.84l-.23-.54-.91.29c-2.52 1.8-7.48 1.88-10.4.65a3.8 3.8 0 0 1 0-1.26c.17-1.05.14-.45.28-.68l.06 1.31 4.45-1m-.59-.63-.2-.28h-2.21c-1.14.14-.66 0-1.17.6l-.34-.06c.37-.89.2-.12.26-1.06a17.6 17.6 0 0 0-10.72 1.49M624 361.97c.77 1.72.12 1.06 2.5 1.26l-.2-1.29a23 23 0 0 1 .08-3.4c.2-1.14.74-1.66.6-2.57-3.77-.46-3.09 3.17-3 6Zm29.31 5.18c.14.2-.22.23.85.65.17.06.77.21 1 .26a12.3 12.3 0 0 0 2.29.35c-.28-.95-.62-.72-1.75-.86l-.26-.17c-1.22-.23-.91-.4-2.1-.23Zm-35.09 2.54v3.23c1.81-.31 1.87-.68 2-2.48.2-2.09 1.08-.75.6-3.66 1.95-.49.59-.55 1.47-1.52.6-.69.71.26 1.19-1.34l-1.25-.09a8.3 8.3 0 0 0-3.09 2.2c-.93 1.17-1.53 2.2-1 3.66Zm5.5-11.92-.09-.26c.06-.08.15-.28.15-.23s.11-.2.11-.25c.2-1.46.08.31 0-.55a4.14 4.14 0 0 0-2.32.55 13.7 13.7 0 0 0 .36 5.37l.37 1.23 1.62-.2s.71-.63-.29-2.09Zm32.14-.57-1.07.14c.11-.11.05-.14.54-.37 1.44-.71 2.09-.43 4.47-2a49.5 49.5 0 0 1-7.82 2.14c-2.1.35-7.48.43-8.73 1.66.79.43 9.58-1.34 11.31-1.54l-.45.23a7 7 0 0 1-.68.22 8 8 0 0 1-1.25.23c-.85.15-1.93.32-2.81.46s-1.67.23-2.6.34l-2.58.55a1.7 1.7 0 0 0-.26.11c.06.06.17.06.17.17l.51.52a1 1 0 0 0 .14.14 2.3 2.3 0 0 0 .74.69l.57.57c2.32-.2 2-1.89 6-1.55 5.24 3.29 4.08 4.49 6 5.95a6.35 6.35 0 0 0 .45-5.14c-.37-1.38-1.47-3.78-2.61-3.52Zm-28.88 12.49-.71-3.11c-1.13.77-1.39.28.71 3.11m2.38-4.54c-1.25.88-.74 1.14.82 1.25l-.45-1c-.74-1.11-.74-.83-1.36-.88.31.65-.31.34 1 .63Zm6.35 1.54-.28.51c-.29.69 0-.37-.09.75l.8.94c.48-.74.14-.54.62-1.26l.08-.08.23-.32.31-.4 3.06-1c-1.9-1.31-3.65-1.14-4.73.83Zm-5 1.06c-.31-1.69-.26-.66-.62-1a1.85 1.85 0 0 0 .59 2.48 4.5 4.5 0 0 0 0-1.51Zm-5.07-1.37c0-.06.56.28.28-1-.23-1 .08-.25-.6-.54-.51.95-.39 1 .32 1.55Zm6.88-.4-.68.08c.2 1.06.34 1 1.34 1.49Zm-12-2.41c.4.83-.22.29.68.6.37-.42.6-.42.46-1.2l-.6-5.31c-3.6-.46-1.84 4.54-.54 5.91m13 4.92c-.29-.71-.06-.11-.43-.48-.71.85-.05 1 .63 1.48a2.5 2.5 0 0 0-.2-1m-14.29-4c.48.34-.79.57 1.11.28 0-1.11 0-.51-.34-.94a17.4 17.4 0 0 0-1.45-3.6c.06-1.66 0-.49-.31-.83-.88.86-.91.86-.8 2.4.49 1.23 1 2.35 1.79 2.69m15.39.91c.48 1 0 .49.8 1.06l.45-.88c2.3-.92 1.76-.83 2-1.38-1.61-.31-2.15 0-3.54.63Zm7.46-5.23-1.36-.14h-.2v.14c.31.86 1.13.34 1.53 0ZM617.72 367c.32.18.06.15.54.2a1.3 1.3 0 0 0 .37-.14c0-1.43.06-.48-.45-.91l-1.19-1c-.09.6-.26.45 0 1.17.39 1 .22.43.7.71Zm8-2.25c1.16-.2.34.34 1.1-.63-1.5-.29-.62.05-1.1.63m-8.17-1.75-.28-.74-.54.85.14.75c.34 1.17 1.25 2.4 2.5 1.54-.62-.63-1.22-1.66-1.82-2.4m24.13 4a1.5 1.5 0 0 0 .22-.11l.77-.2c.25-.06.94-.09 1.22-.12a9 9 0 0 1 2.35.15l-.45 1.14Z" style="fill-rule:evenodd;fill:#e2153c" transform="translate(-565.96 -314.18)"/></g></svg>