<svg xmlns="http://www.w3.org/2000/svg" data-name="Capa 1" viewBox="0 0 150.01 125.79"><defs><clipPath id="a" transform="translate(-565.96 -314.18)"><path d="M565.96 314.18h150.01v125.79H565.96z" style="fill:none"/></clipPath></defs><path d="M0 0h150.01v125.79H0z" style="fill:#fff"/><g style="clip-path:url(#a)"><path d="M634.42 375.62c-.85-.06-2.86-2.09-3.46-2.81-2.24-2.68-4.31-6.6-5.87-8.37a6.4 6.4 0 0 0-.76-.8c-.77-.57-1.47-.77-2.18 0-1.93 2 2.24 6.63 3.48 8.06s5 5.58 5.45 7.29c-2.78-.68-6.47-5.6-8.79-6.72a2.14 2.14 0 0 0-2.07 0c-2 1.35 4.25 6.29 5.19 7a51 51 0 0 0 6 4.06l.11.08c.06.06.09.06.11.09-1.16.83-3.34.17-4.62-.14a6.8 6.8 0 0 0-2.32-.32 1.39 1.39 0 0 0-1.33 1.49c.08 1.17 2.21 1.94 3.23 2.31 3.51 1.29 8.93 2.72 10 6.61.85 2.86.4 5.71-.34 8.54a10 10 0 0 0-.31 1.12h9.95a132 132 0 0 1 1-14.15 41.1 41.1 0 0 1 3.18-12 10.2 10.2 0 0 1 3.23-4.32c1.11-.94 3.57-2.88 2.75-4.51a2.72 2.72 0 0 0-2.3-1.43 4.1 4.1 0 0 0-2.43 1.37c-.66.54-2.75 3.12-3.55 4s-3 2.94-4.53 3-3.55-2-4.45-3.09c-2.27-2.65-4.09-6.08-6.32-8.8-.69-.83-2.78-3.32-4.77-2.49-1.56.6.94 4.2 1.48 5s1 1.52 1.5 2.23 1.05 1.55 1.5 2.32c.74 1.23 2.21 3.54 2.24 5.32Zm11 45.25h5v-2.29h-2.55v-13.43h-2.41Zm15.62.2h1.31l.37-.14a2.57 2.57 0 0 0 1.1-.8 3.56 3.56 0 0 0 .68-1.86 8.5 8.5 0 0 0-.93-4.17l-1.73-3.37a6 6 0 0 1-.8-3c.06-.48.17-.6.68-.6.57.72.37 1.4.51 2.35h2.19a6.65 6.65 0 0 0-.57-3.41c-1.3-2.17-6.49-1.45-5 4.09a13 13 0 0 0 1.19 2.78c.62 1.17 2.58 4.48 2 5.68a.45.45 0 0 1-.68.18c-.52-.35-.49-1.92-.49-2.46h-2.29c0 1.43.05 3.26 1.16 4.17a3.6 3.6 0 0 0 1.25.57Zm-41.33 0h1.16c.28-.14.59-.17.94-.34a3.11 3.11 0 0 0 1.41-2.46c.37-3.37-2.66-6.6-3.37-9.43-.14-.6-.31-2 .62-1.72.51.4.4 1.6.48 2.32h2.19a6.84 6.84 0 0 0-.4-3.06 2.16 2.16 0 0 0-2.04-1.38c-2.29-.26-3.4 1.4-3.32 3.6a12.15 12.15 0 0 0 1.88 5.15c.34.65 2.49 4.31 1.36 5.11-1 .35-1-1.68-1-2.51h-2.12c-.17.05-.06 0-.14.08a6.7 6.7 0 0 0 .36 3c.63 1.43 1.45 1.38 2 1.66Zm6.83 0h1.27l.31-.08a2.59 2.59 0 0 0 1.79-1.77 17.4 17.4 0 0 0 .2-3.86h-2.3v2.57c0 1.06-1 1-1.24.26-.12-.43 0-6.44 0-7.75a19 19 0 0 1 0-2.6c.11-.72 1.19-.78 1.24.31v2.63h2.3c0-2.54.4-5.09-1.93-5.69a3.75 3.75 0 0 0-3 .49 3.09 3.09 0 0 0-1.11 2.77v7.58c0 1.88-.37 4.23 1.73 5 .17.06.6.14.74.2Zm27.38-6.07c.06-.77.51-6.23.68-6.43l.6 6.43Zm-2.83 5.92h2.15l.43-3.69a2.2 2.2 0 0 1 .85-.05 4.6 4.6 0 0 1 .91 0l.39 3.65.14.06h2.3l-1.79-15.69h-3.6Zm-9.16-2.66a.57.57 0 0 1-.9.4c-.37-.25-.32-.74-.32-1.31 0-1.09-.05-9.12 0-9.49a.62.62 0 0 1 1-.37c.36.22.28.8.28 1.31 0 1.57.08 9-.06 9.46m-1.27 2.86H642c.34-.2 1.1-.17 1.73-.94a3.4 3.4 0 0 0 .74-2c0-.6.08-10.07-.06-10.81-.57-3.23-5.44-3.2-6.1-.08a43 43 0 0 0-.08 5.34v5.43a2.94 2.94 0 0 0 1.39 2.72c.34.17.79.23 1 .34Zm-9.56-.2h2.47v-6.69h1.25v6.69h2.41v-15.77h-2.41v6.63h-1.25v-6.63h-2.47Zm36.23-67.61a27.6 27.6 0 0 0-2.41-5.8 30.5 30.5 0 0 0-3.31-4.95 30 30 0 0 0-6.5-5.92 16 16 0 0 0-2.58-1.57c.29 3.83 3 8.58 5.45 11.12 1.53 1.6 4.73 4.6 7 5.41a5.5 5.5 0 0 1 2.35 1.71m-57.06 14.39v2.3l.37 2.63a14.3 14.3 0 0 0 .71 2.35 11.7 11.7 0 0 0 2.38 3.66 18 18 0 0 1 1.22 1.77c3.91 5.57 8.42 9.69 15 12.26a28.3 28.3 0 0 0 4.71 1.43 2.1 2.1 0 0 0-.34-2.26c-.6-.65-1.11-.62-2.13-.85a29 29 0 0 1-4.51-1.4 26.5 26.5 0 0 1-12.52-11.1 28 28 0 0 1-1.9-4c-.12-.37-1.36-4.29-1-4.77.19.08.08-.09.14.23.2 1 .11 1.14.45 2.54a23.8 23.8 0 0 0 1.9 4.86 13 13 0 0 0 1.3 2.15 79 79 0 0 0-1.78-9.41 36.4 36.4 0 0 0-2.24-6.15 12 12 0 0 0-.94-1.8c-.39.89-.73 5.43-.79 5.58Zm61.4-3v-1.95c0-.05-.26-2.14-.31-2.43a32.3 32.3 0 0 0-7.83-16.81 38.2 38.2 0 0 0-5.61-5.31 24 24 0 0 0-3.29-2.26l2.58 1.94a31.3 31.3 0 0 1 10.23 14.92 11 11 0 0 0 .57 1.69 9.7 9.7 0 0 1 .77 3.77l-1.25-1.34c-1.39-1.49-2.41-2.69-3.91-4.14s-4.06-3.83-6.27-4.49c.23 1.51 2.89 4.74 3.69 5.72a21.3 21.3 0 0 0 5 4.4c.93.66 1.92 1.17 2.92 1.8.56.37.45.37.59 1.74a10 10 0 0 1 0 2.26A30.65 30.65 0 0 1 659 384.28a26.3 26.3 0 0 1-4.05 3 30 30 0 0 1-3.07 1.63c-1.19.57-2.72 1.06-3.34 1.34l-.34 3.58a26 26 0 0 0 4.9-1.63 28 28 0 0 0 4.31-2.32 30.53 30.53 0 0 0 12-14.35 31.1 31.1 0 0 0 2-7.83c.06-.4.23-2.95.29-3Zm-59.93-10.49a1.7 1.7 0 0 0 .26-.21c.06 1-1 4.66.26 5.46l.34-.26c.36 1.34 1.21 5.37 1.78 6.09.31-.06.34-.23.57-.26s.2.17.51.2c0-.86-.54-.6-1.11-.91-.51-1.06.66-2.58.43-4.06-.34-.23-.77-.26-1.14-.46 0-.6.6-1.11.91-1.49a1.37 1.37 0 0 0 .17-1.71c-.28.08-1 1-1.13 1.26-.34 0-.43.05-.68-.12a10.43 10.43 0 0 1 1.93-5.66c1.13-1.11 1.44-.28 1.67-.2.14-.31.17-.46.45-.63a1.2 1.2 0 0 1 .71 1.6 3.67 3.67 0 0 0-.34 2.09c1.59-.34 1.28-3.49 2.89-4.37.65-.35 1.11-.38 1.59-.89 1-1.12.68-1.72 2.61-2.2 2.38-.6.93-1.75 3.79-1.66 0 .14-1.27 1.12-.31.89a7.3 7.3 0 0 0 2.38-.8c.12-.72-.65-.4-.79-.86.26-.43 1.36-.54 1-1.35-.2-.22-1.44.32-1.78.43s-.26.15-.46 0a4.55 4.55 0 0 1 2.81-.89c.45.08.79.43 1.25.57.68.23.82-.17 1.41-.29-.31 1-1.87.86-2.32 1.86a5 5 0 0 1 1.3 1.09 1.05 1.05 0 0 0 1.14-.72c.08-.65-.4-1.17-.43-1.4a5.5 5.5 0 0 1 .77-.37 2.19 2.19 0 0 0 1.24-2.17c-.14-.09-1-.09-.22-1a1.17 1.17 0 0 1 .71-.37 1.8 1.8 0 0 1 .25-.86c.29-.37.51-.2.43-.69-.48.15-1.22.75-1.79.4.09-.77 1.08-1.31.85-1.91-.31-.83-1.81.14-1.9.2s-.25.28-.51.45c-1 .66-4.56 3.23-5.47 3.23.17-.71.65-.62 1.14-1.48a2.1 2.1 0 0 0 .39-2 7.1 7.1 0 0 1 2.1-1.32 18 18 0 0 1 5.1-1.37h.17c.4 0-.28.4 1.53-.06.34-.08 1.16-.26 1.19-.51-.08-.49-1.07.2-2.15.23l.42-.2.43-.15c.82-.31.45-.34.51-.48a2.6 2.6 0 0 0 1.22-.52l.08-.08c-1.78-.12-2.52.85-4 1.05l-.06-.71a8 8 0 0 0-1.16.23 7.2 7.2 0 0 1 1.67-.8 45 45 0 0 0-4.36 1.28 28 28 0 0 0-4 1.69 27.8 27.8 0 0 0-5.36 3.23c-.54.4-1.16.8-1.64 1.2a32.5 32.5 0 0 0-5.56 5.89c-1.3 1.89-3.17 5-3.63 7.81Z" style="fill:#1b9698;fill-rule:evenodd" transform="translate(-565.96 -314.18)"/></g></svg>