<svg xmlns="http://www.w3.org/2000/svg" id="Capa_1" data-name="Capa 1" viewBox="0 0 150.01 125.79"><defs><clipPath id="clip-path" transform="translate(-565.96 -314.18)"><path d="M565.96 314.18h150.01v125.79H565.96z" style="fill:none"/></clipPath><style>.cls-5,.cls-6{fill-rule:evenodd}.cls-6{fill:#949ca1}</style></defs><path d="M0 0h150.01v125.79H0z" style="fill:#fff"/><g style="clip-path:url(#clip-path)"><path d="M647.43 397.43c-1 0-.65.29-1.13.29h-.34v-.12c.17-.05.2-.14.39-.23l1.34-.4c.17-.05.08-.08.22 0-.17.26-.42.26-.48.52Zm.4-61.29h.28c.37.14.82.63 1.08.65.11-.2-.09-.25.2-.28a1.4 1.4 0 0 1 .51 0c0 .28-.09.2-.37.2 0 .37.2.11.51.25-.09.35-.17.12-.51.09-.09.4-.14.4-.4.51.31.43.77 0 1.16 0 .18 0 .29 0 .35.11s.11 0-.06.17-.46.14-.68.14a1.22 1.22 0 0 0 .76.35c.06-.52.63-.26.94-.12 0-1.31.25-.4.37-1 0-.2 0-.28.28-.31.28.6-.62 1.06.45 1.31-.05-.11-.11-.17-.08-.31s.11.06 0-.29c.28 0 .65-.42.79.15a.66.66 0 0 1-.34.14 4 4 0 0 1-.11.71c.42.29.45.15.45-.37.31-.05.37-.05.28-.37.54 0 .49.54.66.94 0 .12.25.38.51.21s0-.35-.09-.52a1.3 1.3 0 0 1 .37.09c.17.05.17.05.2.25.28-.05.34 0 .48.2.31-.17.54-.23.82.12l.51.74a.53.53 0 0 1 .4-.11c.11.45.94.31 1.22.74.28-.17.14-.2.59-.2-.22-.43-.93-.63-1-1a2.8 2.8 0 0 1 1.45.86c.11.17.17.31.37.37a1.1 1.1 0 0 0 .08-.29.83.83 0 0 1 .63.32 6.4 6.4 0 0 1 1.1.74c.63.6.71.49 1.53 1.17.2.14.31.26.51.4s.43.2.48.4c-.28.12-.36-.08-.65-.11v.34c.31.2.17.2.65.2s.66.2 1 .63.23.14.51.29-.09.48.4.71c.25.14.79-.14.45.37a5.6 5.6 0 0 1 1 .8 3 3 0 0 0 .25.32c.29.31 1 .94 1.08 1.31a4.3 4.3 0 0 1-.51-.54c-.11-.09-1.22-1.06-1.08-.6.09.28.37.17.37.68.68.18.29.43.74.78a4.4 4.4 0 0 1 .82.57c-.28.14-.14-.17-.34 0s.6.54.74.71c-.09.43-.26.43.34.43-.06.26 0 .06-.2.26a.5.5 0 0 0 .17.28.7.7 0 0 0 .14.12v.06a1.6 1.6 0 0 1 .4.6c.11.2.34.28.42.45a5.5 5.5 0 0 0 .43.86c.57.89.51 1.75 1 2.06.43-.11.28-.54.14-.86l-.39-.83c.22.06.31.38.42.58l.71 2.14c.25 1.34.48 1.66.68 3.2l.28 1.66c0 .14.06.23.09.4s0 .23.11.4a10.8 10.8 0 0 1 0 2.72 11 11 0 0 1-.06 1.45c-.08.15-.08 0-.11 0-.4-.23.14 0-.11-.08-.46.43-.12 1-.23 1.6a2.5 2.5 0 0 0-.11.77c0 .17.17 0 .22-.11s0-.15.17-.26a2.1 2.1 0 0 1-.14.89 3.85 3.85 0 0 0-.34 1.62c0 .38 0 .15-.11.41a3 3 0 0 0-.11.4 18 18 0 0 0-.83 3.17c.51 0 .51-1.09.88-1.35a.54.54 0 0 1-.11.29 1 1 0 0 0-.11.23 2.3 2.3 0 0 0-.2.54c-.29 1-.09 1-.51 1.37s-.51 1.66-.82 1.75a.34.34 0 0 1 0-.32c0-.08 0-.05.06-.14s0-.08.06-.14c-.54 0-.74.83-.85 1.26-.06.2 0 .34-.17.45-.06-.45-.12-.4 0-.83a4.4 4.4 0 0 1 .34-.65l.46-1a7.7 7.7 0 0 0 1.05-3.26c-.15 0-.2.11-.32.23s0 0-.11.17a.54.54 0 0 0 0 .23 2.2 2.2 0 0 1-.34.68 5 5 0 0 0-.37.75c-.11.2-.31.37-.42.6a1.1 1.1 0 0 0-.14.4c0 .14-.12.2-.26.31a4.1 4.1 0 0 0-.76 1.83c.08.23.17.09.28 0a1.44 1.44 0 0 1-.4.89 8 8 0 0 0-.39.83c-.09.11-.23.17-.34.34s-.26 1-.57 1.23c-.31-.2-.09-.63-.06-1a4.3 4.3 0 0 0-.48.83 13 13 0 0 0-.6 1.26l-.59 1.28a4.6 4.6 0 0 1-.74 1.23c-.08.12-.17.2-.25.32-.31.31-.48.25-.63.68s-.36.35-.45.77c-.14 0-.14-.05-.25-.11a.74.74 0 0 1 .25-.51.92.92 0 0 0 .26-.52c.11-.37.62-.37.82-.66s-.06.23 0-.11a2.5 2.5 0 0 1 .22-.54c.34-.69.83-1.32 1.19-2l.49-.88c.28-.6.88-1.46.45-2.09a1.9 1.9 0 0 0-.6 1.11c-.08.38-.11.29-.25.58l-.37.51c-.14.23-.28.46-.42.72-.46.74-1.53 2.14-1.59 2.94-.23-.06-.2-.09-.34-.2-.11.46-.54.77-.71 1.2s.06.57-.2.74-.51.09-.59.35c.36.17.22-.06.53-.09a1.35 1.35 0 0 1-.68 1 .57.57 0 0 1 .2.4c-.31.14-.42 0-.62.11a.7.7 0 0 0-.2.49c-.06.31 0 .28-.23.45s-.42.52-.7.75a4.4 4.4 0 0 0-.91 1.17c-.2-.43.22-.83.51-1.09l.14-.14c.51-.4.31-.06.48-.52s.31-.17.31-.65a.75.75 0 0 0-.31-.15c-.2.2-.28.52-.48.72l-.57.57-.62.57a3.4 3.4 0 0 1-.57.57c-.08.09 0 0-.14.15l-1 1-1.75 1.63-.34.25a13 13 0 0 1-1.73 1.12c-.48.28-1 .54-1.51.86a11 11 0 0 1-1.41.82c.05-.2 0-.14.17-.25.56-.43 1.24-.69 1.78-1.09a5 5 0 0 1 .49-.37c.34-.2 1.21-.49 1.36-1.12a1.3 1.3 0 0 1-.34.12c-.68.26-1.31.71-2 1s-1.45 1-2.15 1.34a15 15 0 0 0-2.41 1.06 7.3 7.3 0 0 1-2.24 1.14c.11-.17.25-.14.39-.34-.31-.17-1.75.43-2.15.6a2.8 2.8 0 0 1-1.25.43c0-.23 0-.09.09-.2s.39-.26.48-.4c-.68 0-1.11.51-1.82.54-1.19.09-1.36.52-1.87.52a.6.6 0 0 0-.22 0 .5.5 0 0 0-.23.06c-.82.17-2.52.94-3.2 1 0-.43.39-.55.73-.63a7 7 0 0 1 1-.23c-.37-.49-1.73.26-2.21.29s-1 0-1.36.08a5.2 5.2 0 0 1-1.22.17l.12-.08c.08 0 .11 0 .14-.06l1.41-.43a3.6 3.6 0 0 0 1.68-.49 5 5 0 0 1 1.92-1c.54-.14 1.17-.31 1.71-.51a5.7 5.7 0 0 0 1-.46c.19-.11.19-.2.45-.23-.14.29-.26.29-.4.55a4.3 4.3 0 0 0 1.25-.32 22 22 0 0 0 2.58-1.37 11 11 0 0 0 1.59-.74 12.5 12.5 0 0 0 2.92-1.81 5.7 5.7 0 0 0-1.28.32 1.5 1.5 0 0 0-.57.23 3.7 3.7 0 0 0-.93.48s0 .06-.09.09a1.7 1.7 0 0 1-.54.26 13 13 0 0 0-1.61.71c-1.64.77-2.67.8-3.52 1.2a1.5 1.5 0 0 1-.28.14c-.71.29-1.16.78-1.76.95-.42.11-.34 0-.68 0s-.79.31-1.19.37a3.5 3.5 0 0 0-1.13.4 6 6 0 0 1-.91.26 2 2 0 0 0-.31.08 4 4 0 0 1-1.22.34c-.28 0-.31.12-.59.2a6.5 6.5 0 0 1-1.28.23c-.28 0-.26.12-.31.38-.46 0-.17-.15-.6-.2-.11.22-.34.77-.79.57a.86.86 0 0 0 .31.43c.26-.06.23-.15.43-.26a3.6 3.6 0 0 1 .56-.06 3.1 3.1 0 0 1 1.14-.08c-.06.17-.06.14-.2.2a5 5 0 0 1-1.48.25 1.4 1.4 0 0 1-.31.06c-.2 0-.08-.06-.28-.06-.37 0-.77.23-1.13.26a4.4 4.4 0 0 0-1.25.11 5 5 0 0 1-1.19.29c-.8 0 .11-.34-1.05-.09a5.5 5.5 0 0 1-1.25.12l-1.33.06c.08-.35.57-.35.85-.43a7 7 0 0 1 1.16-.12 9 9 0 0 0 1.22 0c.6-.14.06-.17 1-.17-.06-.69-1.56-.49-2.13-.37a24.8 24.8 0 0 1-5.07.26c-.34 0-.48.05-.82.05-.57 0-1.11.09-1.73.06a18 18 0 0 0-2.55-.11c-.31 0-.37.17-.65.11a.8.8 0 0 1 .05-.31c-.25 0-.34.17-.57.05.2-.28.71-.25 1.05-.25.12-.15.15-.06.15-.29-.12-.06-.34-.06-.49-.11.06-.18 0-.12.23-.18a5.6 5.6 0 0 1 1.16 0c-.17-.58-1.53-.2-2.1-.23.12-.18.2-.18.26-.35-.14-.08-.34-.05-.54-.17.23-.28.57-.06.6-.43a7 7 0 0 0-1 0c.09-.28.51-.34.8-.4s.54-.11.68-.43c-1.22-.11-1.28.23-2.16.26.09-.31.54-.49.83-.54-.2-.15-.57-.06-.83-.06 0-.11-.08-.14-.14-.26.71 0 1.5-.08 2.16-.14.48 0 1.92 0 2.24-.09 2.21-.4 2.24.26 3.51-.31a1.3 1.3 0 0 0 .2-.09l.17-.11a5 5 0 0 0-1.45.06c.17-.26.57-.23.85-.26a9 9 0 0 1 .94-.09c-.11-.23 0-.11-.2-.17a11.7 11.7 0 0 0-2.21.14 33 33 0 0 1-4.25.38h-1.28c-.62 0-1.19.18-1.78.18.08-.32.42-.35.79-.35-.06-.2 0-.17-.25-.17v-.14l.56-.14c-.08-.32-.28 0-.59 0 0-.35.25-.29.34-.55-.14-.08-.09-.05-.31-.05v-.09c.31-.09.62-.09.65-.37-.57-.12-1.14.14-1.39 0 .08-.26.45-.2.71-.2v-.09c.15-.26.43-.26.74-.26a.3.3 0 0 0 0-.14c.11-.23.17 0 .25-.28h-.79c.23-.32.43-.06.34-.4l.88-.18c.23-.05.42-.22.74-.31.76-.2.14-.31.51-.51.22-.09.59 0 .73-.26a4.5 4.5 0 0 0-.7-.17 4.4 4.4 0 0 0-1.54-.09 7 7 0 0 1-.76.06c.28-.4.93-.06 1.33-.23 0-.2 0-.23-.4-.32.23-.28 1.76-.2 2.19-.2s.39-.05.68-.05v-.09c-.29 0-.6.09-.74-.08a9.7 9.7 0 0 1 1.93-.18c.22 0 .71-.05.93-.08a7 7 0 0 1 .88-.12 1.67 1.67 0 0 0 .94 0 3.6 3.6 0 0 1 .82-.14 14 14 0 0 1 1.79-.26c-.17.26-.34.09-.54.38.68.31 4.65-.26 5.38-.4l2.92-.83 1.45-.78a4.2 4.2 0 0 0-1.31-.28l-.25.06c-.88.25-1.64-.15-2.07.08 0-.17 0-.11.14-.26a2.9 2.9 0 0 0 1.11-.08 1.4 1.4 0 0 1 .9-.2 5 5 0 0 0 1 .08c.34 0 .57-.08 1-.08 1.08 0 3.21.08 3.8-.8l-1.08-.06c-1.44 0-2.74.34-4.13.34a1.1 1.1 0 0 1-.32 0c-.36 0-.22-.2-.65-.11a13 13 0 0 1-2.1.11c0-.4.8-.08 2-.4-.09-.37-.37-.08-.68-.08a1.1 1.1 0 0 0-.06-.35c-.31-.08-.2 0-.54 0s-.45-.05-.59-.05c-.32 0-.43.43-.91.28-.23-.08-.14-.17-.4-.25s-.31 0-.56 0l-3.69-.05c-.42 0-.82 0-1.19-.06a5 5 0 0 1-.65 0h-.54c.25-.34 1 0 1.33-.2 0-.14 0-.17-.2-.23a2.26 2.26 0 0 0-1 .06 2.13 2.13 0 0 1-1.25 0c.06-.23.6-.31.85-.34-.11-.15-.14-.09-.39-.09s-.91 0-1-.4a2.2 2.2 0 0 1-.65-.06 6.4 6.4 0 0 0-1.22.06c-.25.06-.22 0-.54 0v-.06a15.5 15.5 0 0 0 2.36-.4 1.7 1.7 0 0 0 .71-.2.6.6 0 0 0-.4-.23v-.11c.17 0 .37-.09.59-.11l1.9-.29c-.05 0 0 0-.08-.06a2.7 2.7 0 0 0-.94 0c.31-.43 2-.17 2.55-.08a8.8 8.8 0 0 0 1.93-.06l.94-.06c1.16 0 2.49-.05 3.65-.2a10 10 0 0 1 1.82-.17c.37 0 .54-.06.93-.06s.63-.05.94-.05c1 0 .91-.32 1.47-.46-.17-.23-.54-.23-.88-.14a4.7 4.7 0 0 1-1.07.05 4 4 0 0 1-.57-.05h-1a1.4 1.4 0 0 0-.49 0l-1 .05a12.2 12.2 0 0 1-3.07-.28c.2-.29 1.25 0 1.59 0s.2-.06.43-.12a10.5 10.5 0 0 1 2.12-.05c1 0 2.21-.15 3.26-.15.68 0 1.5-.08 2.19-.14a1.4 1.4 0 0 0 .51 0c.25-.12-.26.14.08-.06l.09-.06a25 25 0 0 0 3.77-1l2-.89a20 20 0 0 0 2.21-1.23L646 378c.25-.29.42-.23.71-.43s.82-.66 1.19-1v-.06c.43-.37.77-.74 1.22-1.09.23-.17.31-.37.54-.57s.4-.23.57-.57a6 6 0 0 1 .4-.74c.17-.26.34-.37.53-.63l1.79-3.09a1 1 0 0 0 .11-.2 6.52 6.52 0 0 0-1.1-6.49 5.94 5.94 0 0 0-2.24-1.77c-.94-.4-1.73-1-2.69-1.32l-.77-.34c-.79-.4-1.08-.2-1.39-.37 0 0-.08 0-.08-.06a13 13 0 0 0-2-.68 7 7 0 0 1-.85-.32 7 7 0 0 1-.74-.4 10.9 10.9 0 0 0-2.63-.77 25 25 0 0 1-2.44-1 7.7 7.7 0 0 1-1.25-.49c-.14-.06-.2-.11-.37-.17.06-.17.26-.26.34-.37l.17-.37c-.31-.17-.82-.17-1-.4.34-.17.51 0 .85 0-.11-.43-.85-.38-1.05-.63.11-.15.09-.15.31-.15l-.08-.08-.31-.15a4 4 0 0 0-.4-.17V353h.45c-.22-.34-.65-.28-.85-.57a12 12 0 0 1 2.21.43c.09-.32.2 0 .2-.54a5.9 5.9 0 0 0-1.44-.63c-.2-.09-.26-.09-.29-.37.6-.12.54.08.85-.15-.08-.26-1-.4-1.16-.71s.14-.15-.2-.32-.76-.28-.85-.51c.4-.17.77.11 1.14.11-.12-.37-.43-.14-.46-.6.37 0 .31-.08.68 0a11 11 0 0 0 1.79.46c-.2-.31-.74-.4-1.22-.54s-.88-.35-.91-.78a3 3 0 0 1 .54 0 4 4 0 0 0 .54 0c-.09-.14 0 0-.09-.08s-.05 0-.08-.12a.8.8 0 0 1 .54.06 2 2 0 0 1 .22.09l.17.08c.26-.17.23-.26.65-.14a1.8 1.8 0 0 0 .74.14 1 1 0 0 1 .14-.28 2.2 2.2 0 0 1 .51.11c.23.06.37.06.49-.09l-1.93-.68c.25 0 .14-.06.37 0l1 .29c-.12-.4-.94-.6-1.28-.72s-1.39-.4-1.59-.4v-.08a1.4 1.4 0 0 1 .8.14 2.8 2.8 0 0 0 .68.2 1 1 0 0 1-.14-.12h-.12l-.59-.29c-.2-.11-.17-.06-.23-.23a3.1 3.1 0 0 1 .77.06c.22 0 .48.11.71.14-.12-.2-.17-.11-.29-.31 1 0 .74.43 2.1.63a11 11 0 0 0 1.25.31c-.09-.11-.09-.08-.12-.28a.8.8 0 0 1 .31.05c-.08-.25-.51-.4-.73-.45a.41.41 0 0 1 .39-.26c-.31-.46-.93-.4-1.44-.83s-.28-.09-.43-.32a.84.84 0 0 1 .68.18c.49.25.34.08.57.11a7 7 0 0 0 1.36.23 5 5 0 0 0-.85-.66c.11-.14 0-.08.2-.08-.14-.23-.37-.26-.68-.26v-.09c.34 0 1.05.17 2.07.17-.06-.68-2-.22-2.13-.94.29-.11.31.06.65.06a3.5 3.5 0 0 0-.76-.35c-.26-.08-.65-.11-.77-.28.15-.09.09-.06.29-.06-.26-.37-1-.26-1.19-.74 1-.23.85.6 2.77.6-.08-.09 0 0-.11-.09s-.2-.05-.23-.23c.23-.37.37 0 .88-.08-.11-.12-.31-.14-.45-.2s-1.28-.29-1.42-.52a3.5 3.5 0 0 1 1.11.15 3 3 0 0 0 1.08 0c.93-.15 1.33.51 1.61-.61.34 0 .23.18.57.26a2.9 2.9 0 0 0 1.13 0c.14 0 .14-.08.29-.05a.56.56 0 0 1 .42.37 1.84 1.84 0 0 1 1-.2c-.06-.2-.11-.06-.2-.26.48-.11.46.09.4-.34h.65c-.06-.23-.25-.29-.51-.35l-.57-.11a2.5 2.5 0 0 1 1.39.09c.42.14.65.43 1.07.14.49.11.46.34.94-.09-.17-.05-.51-.22-.74-.31-.88-.4-2.07-.14-2.24-.51v-.12a4 4 0 0 0-.62-.14c-.74-.09.23-.23-.79-.52-.4-.14-1.51-.28-2.33-.51-.2-.06-.39-.06-.45-.23a2 2 0 0 0 .42.09 2.5 2.5 0 0 0 .43 0 6 6 0 0 0 2.27.54c-.26-.23-1-.31-1.14-.54 1 0 1.48.4 2.67.4-.34-.29-.68-.2-.8-.72a3.1 3.1 0 0 0 .88.17c0-.25-.68-.28-.93-.31s-.77 0-.85-.34a9 9 0 0 1 2 .25c1 .2 1-.14 1.87-.14-.31-.46-.05-.26 1-.37v-.09c-.17-.05 0 0-.17-.08a.35.35 0 0 0-.17-.06l-.39-.11a8 8 0 0 0-.88-.06c0-.4.62-.17.93-.17-.08-.37-.39-.37-.73-.46a.23.23 0 0 1 .11-.11ZM623.34 396a.7.7 0 0 1 .42.11c0 .46-.88.43-1.27.49a1.4 1.4 0 0 1-.54-.06c0-.2 0-.17-.14-.26a1 1 0 0 1-.32-.08c.2-.29.29-.09.86-.14a5 5 0 0 1 1-.06Zm12.7.86c.05.17.11.11.14.34-.77.4-1.14-.06-1.79.29-.34.17.09.34-.71.6a5 5 0 0 1-.48.2c-.34.11-.79.11-1.13.22-1.14.38-3.09.63-4.37.95a6 6 0 0 1-1.16.17c-.25 0-.23-.06-.45-.06 0-.28.28-.43 0-.43l-1.53.09a6 6 0 0 1-.8.06l1.59-.58a8.2 8.2 0 0 1 1.84-.28c.32 0 1.05-.23 1.76-.32a7 7 0 0 1 1 0 11 11 0 0 1 1.16-.15c.34 0 .06.12.4-.05s.17-.06.43-.12a8 8 0 0 1 1.75-.51c.49 0 .43 0 .74-.32s.51-.14.91-.2c.91-.14 2.27-.88 2.52-.88a3.65 3.65 0 0 1-1.33.71c-.26.06-.37.11-.48.29Zm-19.82-2.26v-.09c.4 0 .68-.08 1.11-.08-.12.14-.2.17-.46.2s-.42 0-.65 0Zm33.78 1.54c-.11-.17-.11-.05-.05-.23.08-.54 3-1.8 3.31-1.85a19 19 0 0 1-3.26 2.08m-31.35-1.8c.26-.37.34-.11.91-.26a2.4 2.4 0 0 1 1.27-.08 3.27 3.27 0 0 1-2.18.34m43.68-6-.17-.12c.09-.08.34-.34.43-.31s-.2.37-.26.43m6.55-8.61c0-.11.09 0 0 0s0 .15 0 0m-34.66-26.13h.12Zm1-.71c.26 0 .4 0 .51.14l-.48-.11Zm2.67-10" style="fill:red;fill-rule:evenodd" transform="translate(-565.96 -314.18)"/><path d="M73.62 99.06c.28 0 .94-.06.94.23v3.4c0 .23-.29.14-.88.14v.69h2.75v-.7c-.94 0-.83.09-.83-.71v-2.83c.12.14 1.34 2.94 1.45 3.2s.17.34.26.54c.22.6.05.49 1.19.49.19 0 .42-.69.56-1l1.39-3.12.09-.11a28 28 0 0 1-.06 3.49c-.28.14-.79-.09-.79.2v.54h3.35v-.69c-1.19 0-.93.49-.93-3.37 0-.49.56-.4 1-.4v-.66h-3.26c-.06.26-1.33 2.95-1.42 3.29a4.6 4.6 0 0 1-.4-.8l-.76-1.72c-.17-.31-.26-.77-.46-.77h-3.17ZM37.62 99.74a1.39 1.39 0 0 0 1.13 1.49 26 26 0 0 0 3.24.52c.34 0 .73.11.76.45s-.25.55-.54.63c-1.25.43-3.68.06-3.71-1.26h-.74v2.06h.82v-.37a3.4 3.4 0 0 1 .51.14 3 3 0 0 0 .54.18 4.9 4.9 0 0 0 1.76.2c2.75 0 3.46-2 2.1-3-.77-.55-2.87-.63-3.91-.81s-.68-1.05.87-1.05c1 0 2.41.08 2.67 1.2h.71v-1.63c0-.23-.17-.14-.6-.14-.2 0-.17.17-.2.34a5.9 5.9 0 0 0-2.46-.6 5.5 5.5 0 0 0-1.93.4 1.48 1.48 0 0 0-1 1.28ZM53.64 99.06a2.6 2.6 0 0 1 .93.08c.11.49 0 2.81 0 3.49 0 .43-.94 0-.94.35s0 .54.15.54h2.83v-.7c-1.08 0-1 .09-1-.54v-2.29a2.5 2.5 0 0 1 .51.43l1.47 1.32a1.6 1.6 0 0 1 .23.22c.31.29 1.73 1.55 1.81 1.55 1.28 0 .94.23.94-.95v-2.28a3.6 3.6 0 0 1 0-1.15 2.7 2.7 0 0 1 .93-.08v-.66h-3v.66c1.33 0 .91.06 1 .91a12 12 0 0 1 .06 1.52c-.2-.06-.34-.29-.65-.54l-.85-.81c-.09-.08-.15-.08-.23-.2l-1.3-1.17c-.09-.08-.37-.37-.49-.37h-2.4ZM92.98 99.82c0 1.15 1.16 1.52 2.24 1.63.43 0 2 .23 2.47.34.82.2.68 1.26-1.19 1.26a3.36 3.36 0 0 1-2.33-.8c-.62-.63.34-.66-1-.66v2.06h.82v-.37a9 9 0 0 1 1.05.32c1.31.34 3.4.28 4.23-.66a1.49 1.49 0 0 0-.4-2.17c-1.59-.83-4.48-.4-4.48-1.21s4-1 4.14.55h.68v-1.63c0-.23-.17-.14-.57-.14-.23 0-.11.14-.2.34a6.2 6.2 0 0 0-2.46-.6 5.7 5.7 0 0 0-1.93.4 1.48 1.48 0 0 0-1 1.34ZM49.1 98.82a2.15 2.15 0 0 1 1.5.54.06.06 0 0 1 .06.06 2.09 2.09 0 0 1-1.36 3.54 2.12 2.12 0 0 1-1.85-.66 1.6 1.6 0 0 1-.39-.65 2.07 2.07 0 0 1 2-2.86Zm-3.8 2a2.5 2.5 0 0 0 .34 1.37 3.89 3.89 0 0 0 3.09 1.54 4.73 4.73 0 0 0 3-.71 2.61 2.61 0 0 0-.08-4.35c-2.21-1.45-6.38-.54-6.38 2.15ZM84.04 99.06h.88c.23 1-.17 2.66.23 3.57.31.74 1.36 1.09 2.44 1.14h1a4.2 4.2 0 0 0 1.41-.25c1.73-.72.71-3 1.08-4.46h.88v-.66h-2.92v.66a2.3 2.3 0 0 1 .88.08 24 24 0 0 1 .06 2.83c0 1.23-1.19 1.21-2 1.21a1.15 1.15 0 0 1-1.22-1.21 24 24 0 0 1 .05-2.83 1.8 1.8 0 0 1 .88-.08v-.66h-3.65ZM105.45 100.82a2.6 2.6 0 0 0 .77 2 4.42 4.42 0 0 0 2.75 1h.54a3.07 3.07 0 0 0 2.52-1.2 2 2 0 0 0 .37-.91c-1.11 0-.57-.06-1 .48-1.11 1.43-4.28 1.15-4.28-1.22 0-1.95 2.15-2.58 3.74-1.75a1.63 1.63 0 0 1 .82 1.09h.74v-1.8c0-.2-.23-.15-.74-.15v.35a1.6 1.6 0 0 1-.51-.23c-2.29-1.09-5.67.11-5.67 2.31ZM62.14 99.06c.57 0 .91-.06 1.28.4a3 3 0 0 0 .28.34l.91 1.06c.73.86.59.34.59 1.83 0 .37-.93-.12-.93.29s-.06.54.14.54h3.34v-.7c-1.13 0-1 .17-1-1.11 0-.32.91-1.2 1.16-1.49a7 7 0 0 1 .62-.71c.46-.49.2-.46 1.31-.46v-.66h-2.8v.66c.34 0 .79-.09.39.34a9 9 0 0 1-1.1 1.23l-.91-1.11c-.14-.18-.25-.2-.25-.43h.53v-.66h-3.56ZM100.89 99.06c1 0 .93 0 .93.43v3.33c-1 .22-.93-.38-.93.74h3.54v-.74c-.9 0-1 .12-1-.51a28 28 0 0 1 .06-3.23h.93v-.66h-3.54Z" class="cls-5"/><path d="m103.3 34.05.62.74c.37.37.12.35.65.75s.46.71.8 1.28a.47.47 0 0 0 .42.32l-.17-.43a2.4 2.4 0 0 1-.28-.46 4 4 0 0 0-.3-.43c-.12-.11-.29-.17-.4-.28-.4-.37-.85-1.32-1.36-1.46ZM49.1 70.61c0 .15 0 .12.11.17a3.5 3.5 0 0 0 1 0c.54 0 .88.12 1.13-.25-.31-.17-1.25.08-1.76 0a.37.37 0 0 0-.25 0c-.17 0-.14 0-.2.08ZM60.04 73.56c.4 0 .6.08 1 .08s.62-.25 1.07 0c0-.41-.28-.23-.68-.38s-.25 0-.82.09a.7.7 0 0 0-.54.23ZM75.41 26.73c1 0 1 .26 1.75.26.2 0 0 0 .17-.06-.22-.34-1-.37-1.5-.4-.28 0-.37 0-.42.2M83.97 83.39c.39 0 .62-.25.9-.4s.74-.2.77-.54a2.92 2.92 0 0 0-1.67.94M92.84 79.13l-1.48 1.09-.34.54c.15-.11.29-.26.46-.4a6 6 0 0 0 .74-.54c.22-.17.59-.4.62-.69M68.35 87.08c.51 0 1.13-.06 1.24-.46a6 6 0 0 0-.76.06c-.28.06-.43.14-.48.4M66.93 39.51c0 .34.31.49.74.4-.06-.2-.14-.11-.68-.46a1.3 1.3 0 0 0-.91-.28 1.24 1.24 0 0 0 .85.34M109.17 49.89c0 .23 0 .31.22.37a1.51 1.51 0 0 0-.08-1.35c0 .35-.14.63-.14 1ZM92.95 78.88a6.6 6.6 0 0 1 .74-.61c.34-.2.08-.11.25-.37s.29-.17.34-.37a3.2 3.2 0 0 0-1.33 1.35M75.89 85.74a2.4 2.4 0 0 1 .68-.17c.28 0 .48-.09.56-.35a2 2 0 0 0-1 .26c-.15.06-.17.06-.2.26ZM52.39 72.1a4 4 0 0 0 .93.17 1.1 1.1 0 0 0-.08-.37c-.31-.06-.65-.11-.85.2M79.74 22.96c.37.08 1 .28 1.19 0-.51-.12-1.1-.35-1.19 0M108.51 42.82a2 2 0 0 0-.28-1 2.4 2.4 0 0 1-.14-.8c-.06-.23 0-.11-.11-.23a2 2 0 0 0 0 .55 5.4 5.4 0 0 0 .26 1 .72.72 0 0 0 .22.42ZM89.58 81.45v.11a1.53 1.53 0 0 0 1-.57c.14-.14.2-.06.31-.23-.54 0-.85.57-1.33.69ZM78.04 23.07c.6 0 1 .17 1.22-.11-.17-.09-1-.23-1.22.11M74.47 86.22c.14 0 .09 0 .23-.08.34-.09.42.14.65-.32a1.46 1.46 0 0 0-.79.17c-.12.09-.09 0-.09.23M108.46 43.82a.8.8 0 0 0 .08.34c.09.2.14.2.23.2 0-.26 0-.77-.2-.94a.85.85 0 0 0-.11.4M91.04 24.56a1.5 1.5 0 0 0 .74.48.27.27 0 0 0 .26-.14c-.2-.08-.29 0-.51-.17s-.4-.29-.49-.17M67.75 32.22c.2 0 .26.06.43.06s.25 0 .31-.17a1.5 1.5 0 0 0-.43-.12c-.17 0-.28-.06-.31.23M58.85 73.64l.6.06c.14 0 .17-.11.2-.26h-.4a.48.48 0 0 0-.4.2M78.1 26.73c.42.06.08.2.76.2a.45.45 0 0 0-.76-.2M109.31 48a1.3 1.3 0 0 0-.12-.63c-.08-.23 0-.11-.14-.14 0 .34 0 .63.26.77M69.68 27.82a2.4 2.4 0 0 0 .6 0v-.18c-.4 0-.6-.17-.6.18M47.37 77.13a3 3 0 0 0 .74-.06c-.12-.14-.17-.08-.43-.11s-.28 0-.31.17M78.95 26.82c.31 0 .48 0 .48-.25h-.14a.31.31 0 0 0-.34.25M74.9 26.82c0 .18.14.2.36.2s0 0 .15-.05c-.06-.12 0-.06-.12-.12s-.31-.14-.39 0ZM76.6 82.99h.22a1.1 1.1 0 0 0 .12-.34c-.26.06-.34 0-.34.34M67.04 86.54h.09l.08-.06c.26-.17.23 0 .28-.25-.34 0-.48.11-.48.37ZM76.82 22.67v.09a2.3 2.3 0 0 0 .6 0v-.15ZM70.04 86.68c.25 0 .37 0 .39-.26h-.19c-.17 0-.17.12-.2.26M83.14 83.88h.15c0-.23.08 0 .08-.37-.23.05-.28.17-.23.37M92.83 79.13h.06l-.06-.05zM86.57 23.5h.03zM103.3 34.05l-.06-.06Z" class="cls-6"/></g></svg>