<svg xmlns="http://www.w3.org/2000/svg" id="Capa_1" data-name="Capa 1" viewBox="0 0 150.01 125.79"><defs><clipPath id="clip-path" transform="translate(-565.96 -314.18)"><path d="M565.96 314.18h150.01v125.79H565.96z" style="fill:none"/></clipPath><style>.cls-4{fill:#e58fd6;fill-rule:evenodd}</style></defs><path d="M0 0h150.01v125.79H0z" style="fill:#fff"/><g style="clip-path:url(#clip-path)"><path d="m106.62 68.82 2.35-.4.45 4.78a3.4 3.4 0 0 1-.85-.95 12 12 0 0 0-.74-1 6.45 6.45 0 0 1-1.21-2.41Zm3.88-11.32c.08-2.4.82-7.66 3.71-7.94.54 1.25-1.36 6.43-1.78 7.94Zm-2-.2c-3.68.37-4.59-2-5.52 0 .82 1.26 3.82 1.17 5.47 1.2 1.84 7.09-5.95 5.21-7.17 3.89s-.63-2.14-.12-3.57c-2.52.14-2.12 1.14-3 2.46l-2.91-.15c-.37.86-.37 1.4-1.22 1.72-.74-.52-1.34-2.12-2.73-1.66s-.56 2.06-3 1.83c-.62-.86-.74-2.2-2.07-1.89-.28 1.43 1.16 2.81 2.24 3.09 1.9.52 2.75-1.14 4.25-1.17.17.06 1.76 3 3.6.31.71-1.08.6-1.17 2.07-1.4.91.86 1.14 1.8 4.17 2.18a11 11 0 0 0 5.95-.69l.23 3.77c-2.47 1.15-5.53.09-1.31 5.66.57.78 3 4.38 3.55 2a3.5 3.5 0 0 0 0-1l-.46-5.81c1.19-.14 2.41-.37 3.69-.54 2.75-.4 3.26.4 3.37-.94-.74-.46-2.66 0-3.68.05-.63 0-1.28 0-1.88.12-1.61.23-1.81.83-2-2.38-.14-2.37.62-1.94 3-5.89h3.07c.28 2.57-1.11 4.74 1.53 6.34 1.58.95 5.5 1.06 5.47-1.48-1.08.57-2.95 2.28-4.65.63-1.16-1.15-1.11-3.86-.51-5.41 1.81-.71 12.7-.23 15.84-.08 1.73.08 3.29.42 5 .48-.45-1.23-2.69-1.11-4.34-1.26-6-.51-11.08 0-16.18-.34.08-1.17 1.3-3.23 1.08-4.4a.35.35 0 0 0-.06-.17l-.17-.35c-1-.77-1.59 2.86-2.67 5.06h-2.94a30.6 30.6 0 0 0 1.67-5.06c.42-1.8 1.27-5.23-1.73-3.94a8.5 8.5 0 0 0-3.37 3.46c-1.45 2.37-.94 2.71-1.68 5.34ZM36.94 81.33c-2.75-6.14 4.45-14.15 6-14.63.23 4.89-1.25 15.41-6 14.63m-6.35-17.81c-.4-1.8 1.19-3.91 2.69-2.51-.2 1.14-.2.11-.82 1.37a3.7 3.7 0 0 1-.68 1.32Zm17.06-1.77c-.9-2.49 1-10.35 2.64-12.92 4.17-6.66 3.52 4-.37 10.43 0 .09-1.9 3.12-2.15 2.46h-.12Zm-1.27 1.66-1.45.54-.45-1.86a2.24 2.24 0 0 0-2.3.2c-1.3.63-1 0-2.18-.37-2-.6-3 1.78-4.82.52-.37-.4.63-3.83-3.82-2.49-2.9.86-3.94 4-1.71 4.52 1.48.37 2.27-.32 4.34-.2s3.43-1.4 5.25-1.55l.39 1.66c2.3.17 1.56-1 3.09-1.34.6 4.51-2 2.46-5.64 8.4-7 11.61 3.6 15.18 6.46 4.09 1.76-6.89 0-10.61 2.87-11.43.22.22 1.73 4.63 6.35 3.77 1.13-.23.73-.12 1-.69-.06 0-.14-.08-.17-.05l-.48-.09a5.5 5.5 0 0 1-2.38-.17 4.86 4.86 0 0 1-2-1.8c-.82-1.26-.85-1.49.09-2.52a19 19 0 0 0 1.58-2.14c1.62-2.52 6.21-12.21 3.35-14.07-2.55-1.66-5.22 2.72-6 4.52a22 22 0 0 0-1.64 5.8 16.8 16.8 0 0 0 .31 6.75Z" class="cls-4"/><path d="M78.64 69.61c.85-.34 1.44.4 2.58.06l.28-1.6c-1.05-.49-2.92-1.29-4.22-1-.68.54-2 2.6-.94 3.72a9.74 9.74 0 0 0 4 1.54c3.26.23 6.21-2 5.44-5.32-1-4.17-9.35-5.74-12.92-9.23a6.1 6.1 0 0 1-.37-7.95 12.08 12.08 0 0 1 12.3-3.63 9.1 9.1 0 0 1 3.71 2 6.48 6.48 0 0 1 2.21 3.29 6.1 6.1 0 0 1 .29 2.52c-.14 1.11-.48.54-.71 1.23v.31000000000000005l.09.34c2.66.78 4.7-9.09-5.1-11.86-8.71-2.46-19.65 6.55-14.46 14.35 1.22 1.8 4 3.43 6.29 4.46 14.4 6.38 3.77 9.41 1.62 6.83ZM11.17 50.34c-.59 4 4.28 1 9.07-.28a110 110 0 0 1 23.56-3.89c2.15-.14 3.26 1.26 4.19-.6-.62-1.54-2.49-1.14-4.36-1-10.63.72-13.58 1.57-23.67 3.69l-6.38 1.69c-1.47.08-1.16-.2-2.41.42ZM24.67 57.72c0 2.34-.43 12.18.85 12.66 1.21.06 1.81-1 2.12-2.31-.14-1.12-1.19 1-1.13-5.52 0-2.11.14-4.26.22-6.37 0-1 .63-6.52-1.38-4.52-.91.86-.68 4.49-.68 6.06M59.87 62.01c-3.46 1.6-4-.83-5.38-1-2.13-.26-4.51.94-4.26 2.91 1.42 2.15 4 .2 5.48-.4a53 53 0 0 1 6.46-1.06c.28.92-.34 2.18.39 3 1 1 2.13.17 2.5-.72l-.65-.31c-.94-.43-1-.6-.82-1.95.28-2.45-.49-1.63-2.16-1.48l-.31-1.72c-.82.09-.85.32-1.16 1.09a1.83 1.83 0 0 0-.09 1.63ZM101.46 51.82a3.43 3.43 0 0 0 2.6-.37c-.17-.63-.31-.57-.51-1.32s0-1.25-.79-1.11c-1.13.2-1.62 1.46-1.3 2.8" class="cls-4"/></g></svg>