<svg id="Capa_1" data-name="Capa 1" xmlns="http://www.w3.org/2000/svg" xmlns:xlink="http://www.w3.org/1999/xlink" viewBox="0 0 150.01 125.79"><defs><style>.cls-1{fill:none;}.cls-2{fill:#fff;}.cls-3{clip-path:url(#clip-path);}</style><clipPath id="clip-path" transform="translate(-565.96 -314.18)"><rect class="cls-1" x="565.96" y="314.18" width="150.01" height="125.79"/></clipPath></defs><rect class="cls-2" width="150.01" height="125.79"/><g class="cls-3"><path d="M578.64,378.45v-.6h126v.6Zm3.71-8c0,1.37,0,2.49.06,3.06s.11.71.53.77a5.76,5.76,0,0,0,.66.06s.08.06.08.08-.06.12-.2.12c-.79,0-1.67,0-1.73,0l-1.36,0c-.17,0-.22,0-.22-.12s0-.08.11-.08a1.94,1.94,0,0,0,.4-.06c.28-.06.36-.34.42-.77s.06-1.69.06-3.06v-6l-2.07,0c-.85,0-1.19.09-1.42.43a2.22,2.22,0,0,0-.25.46c0,.11-.09.14-.15.14s0-.06,0-.14.28-1.34.31-1.46.08-.28.14-.28a2.42,2.42,0,0,0,.62.17c.4.05.94.08,1.11.08h5.22a5.09,5.09,0,0,0,1-.08l.37-.06c.08,0,.08.09.08.17,0,.43-.06,1.4-.06,1.54s0,.21-.08.21-.11-.06-.11-.26l0-.15c0-.42-.37-.74-1.7-.77l-1.76,0Zm9.47-2.49c0-2.2,0-2.57,0-3s-.14-.71-.6-.8a2.36,2.36,0,0,0-.48,0c-.06,0-.11,0-.11-.09s.08-.11.22-.11c.63,0,1.51.05,1.59.05s1.22-.05,1.65-.05a4.24,4.24,0,0,1,2.55.62,2.43,2.43,0,0,1,1,1.92,4.34,4.34,0,0,1-1.67,3.26c1.13,1.49,2.1,2.74,2.89,3.6a3,3,0,0,0,1.7,1,5.1,5.1,0,0,0,.57,0,.14.14,0,0,1,.11.08c0,.09-.08.12-.34.12h-1a2.85,2.85,0,0,1-1.5-.26,7.14,7.14,0,0,1-1.87-2.09c-.6-.77-1.25-1.71-1.54-2.08a.19.19,0,0,0-.17-.09L593,370c-.06,0-.09.06-.09.12v.34c0,1.37,0,2.49.06,3.06s.11.71.54.77a5.78,5.78,0,0,0,.62.06.1.1,0,0,1,.11.08c0,.09,0,.12-.22.12-.77,0-1.65,0-1.71,0l-1.33,0c-.14,0-.2,0-.2-.12s0-.08.12-.08a1.76,1.76,0,0,0,.39-.06c.29-.06.37-.34.43-.77s.06-1.69.06-3.06Zm1.13,1.23h0c0,.09,0,.15.09.17a3.34,3.34,0,0,0,1.47.23,1.85,1.85,0,0,0,1-.25,2.66,2.66,0,0,0,.85-2.18c0-1.77-.94-2.83-2.41-2.83a5.19,5.19,0,0,0-1,.09.17.17,0,0,0-.09.17Zm11.4-1.23c0-2.2,0-2.57,0-3s-.14-.71-.6-.8a2.36,2.36,0,0,0-.48,0c-.06,0-.11,0-.11-.09s.08-.11.22-.11c.63,0,1.48.05,1.62.05s1-.05,1.39-.05c.14,0,.22,0,.22.11s-.05.09-.11.09a2.11,2.11,0,0,0-.37,0c-.37.06-.48.32-.51.8s0,.83,0,3v2c0,2,.46,2.89,1.05,3.46a2.71,2.71,0,0,0,2.13.8,2.94,2.94,0,0,0,2.18-1,5.5,5.5,0,0,0,.82-3.46V368c0-2.2,0-2.57,0-3s-.15-.71-.63-.8a2.3,2.3,0,0,0-.45,0c-.06,0-.12,0-.12-.09s.06-.11.23-.11c.63,0,1.39.05,1.48.05s.76-.05,1.16-.05c.17,0,.22,0,.22.11s-.05.09-.11.09a2.28,2.28,0,0,0-.34,0c-.37.09-.48.32-.51.8s0,.83,0,3v1.52c0,1.51-.17,3.23-1.3,4.23a4,4,0,0,1-2.86,1,4.33,4.33,0,0,1-2.9-1c-.68-.66-1.21-1.66-1.21-3.72Zm25.39,4.78c.06.48.15,1.28.77,1.48a3.12,3.12,0,0,0,.91.12c.05,0,.11,0,.11.08s-.14.12-.31.12-1.82,0-2.33-.09c-.31,0-.39-.05-.39-.14s0-.09.11-.09.08-.25.06-.51l-.68-7.26h-.06l-3.4,7.32c-.31.63-.34.74-.48.74s-.17-.14-.43-.63c-.37-.71-1.56-3.14-1.64-3.29l-1.85-4h0l-.57,6.52v.74a.45.45,0,0,0,.37.43,2.15,2.15,0,0,0,.54.06.09.09,0,0,1,.08.08c0,.09,0,.12-.22.12-.54,0-1.19,0-1.31,0s-.79,0-1.19,0c-.14,0-.23,0-.23-.12s.06-.08.15-.08a2.64,2.64,0,0,0,.42,0c.46-.09.48-.63.54-1.17l1-9.21c0-.14.06-.25.14-.25s.14.05.23.22l4.28,8.87,4.11-8.87c.06-.11.11-.22.2-.22s.14.11.17.4Zm7.09-4.78c0-2.2,0-2.57,0-3s-.14-.71-.62-.8a2.16,2.16,0,0,0-.46,0,.1.1,0,0,1-.11-.09c0-.09.06-.11.23-.11.62,0,1.44.05,1.56.05.31,0,1.13-.05,1.78-.05a3.41,3.41,0,0,1,2.58.8,2.5,2.5,0,0,1,.71,1.68,3.27,3.27,0,0,1-3.43,3.38,1.09,1.09,0,0,1-.31,0c-.06,0-.14,0-.14-.09s.08-.14.37-.14a2.34,2.34,0,0,0,2.43-2.29,3,3,0,0,0-.79-2.17,2.42,2.42,0,0,0-1.93-.72,1.66,1.66,0,0,0-.59.09c-.09,0-.12.14-.12.26v5.8a26.5,26.5,0,0,0,.09,3.06c0,.43.11.71.54.77a6,6,0,0,0,.62.06c.09,0,.11.06.11.08s-.05.12-.22.12c-.77,0-1.65,0-1.73,0l-1.33,0c-.15,0-.23,0-.23-.12a.1.1,0,0,1,.11-.08,2,2,0,0,0,.43-.06c.28-.06.34-.34.4-.77a29.8,29.8,0,0,0,.08-3.06Zm15.7,6.41c-.19-.12-.22-.15-.22-.55a12.35,12.35,0,0,1,.08-1.48c0-.17,0-.23.12-.23s.08,0,.08.14a1.85,1.85,0,0,0,.06.54,1.9,1.9,0,0,0,2.07,1.43,1.86,1.86,0,0,0,2-1.88c0-1-.4-1.52-1.61-2.52l-.63-.54c-1.47-1.23-1.81-2.09-1.81-3.06,0-1.52,1.13-2.54,2.89-2.54a4.94,4.94,0,0,1,1.3.14,2.85,2.85,0,0,0,.48.08c.12,0,.15,0,.15.09s-.06.54-.06,1.51c0,.21,0,.32-.09.32s-.08-.09-.11-.17A2.91,2.91,0,0,0,657,365c-.08-.17-.48-.74-1.76-.74a1.6,1.6,0,0,0-1.73,1.63c0,.8.37,1.31,1.71,2.37l.39.32c1.65,1.31,2,2.17,2,3.31a3,3,0,0,1-1.19,2.35,3.78,3.78,0,0,1-2.09.57,4.24,4.24,0,0,1-1.88-.37ZM668.1,363.7a5.14,5.14,0,0,1,5.5,5.31,5.51,5.51,0,0,1-5.59,5.75,5.26,5.26,0,0,1-5.41-5.55,5.43,5.43,0,0,1,5.5-5.51Zm.31,10.54h0c1.25,0,3.85-.74,3.85-4.86,0-3.37-2-5.2-4.25-5.2s-4.08,1.55-4.08,4.66c0,3.26,2,5.4,4.48,5.4Zm19.42-3.77c0,1.37,0,2.49,0,3.06s.12.71.54.77a6,6,0,0,0,.62.06c.09,0,.12.06.12.08s-.06.12-.23.12c-.76,0-1.64,0-1.7,0l-1.39,0c-.14,0-.23,0-.23-.12a.14.14,0,0,1,.12-.08,1.77,1.77,0,0,0,.42-.06c.29-.06.37-.34.43-.77s.06-1.69.06-3.06V369a.1.1,0,0,0-.09-.11h-5.92c-.06,0-.09,0-.09.11v1.46c0,1.37,0,2.49.06,3.06s.14.71.56.77a4.94,4.94,0,0,0,.63.06.1.1,0,0,1,.11.08c0,.09-.08.12-.23.12-.76,0-1.64,0-1.72,0l-1.37,0c-.17,0-.22,0-.22-.12a.1.1,0,0,1,.11-.08,2.59,2.59,0,0,0,.43-.06c.25-.06.34-.34.39-.77s.06-1.69.06-3.06V365c-.06-.48-.14-.71-.62-.8a2.46,2.46,0,0,0-.49,0s-.08,0-.08-.09.06-.11.2-.11c.65,0,1.53.05,1.59.05s1-.05,1.38-.05c.15,0,.2,0,.2.11a.09.09,0,0,1-.08.09,2,2,0,0,0-.37,0c-.37.06-.48.32-.51.8s0,.83,0,3v.32c0,.06,0,.08.09.08h5.92a.09.09,0,0,0,.09-.08V368c0-2.2,0-2.57,0-3s-.14-.71-.6-.8a2.36,2.36,0,0,0-.48,0c-.06,0-.11,0-.11-.09s.08-.11.22-.11c.63,0,1.51.05,1.59.05s.94-.05,1.36-.05c.17,0,.23,0,.23.11s-.06.09-.12.09a2.28,2.28,0,0,0-.34,0c-.39.06-.51.32-.53.8v5.52Zm11.33-6.77a5.12,5.12,0,0,1,5.48,5.31,5.49,5.49,0,0,1-5.56,5.75,5.26,5.26,0,0,1-5.44-5.55,5.43,5.43,0,0,1,5.52-5.51Zm.29,10.54h0c1.24,0,3.85-.74,3.85-4.86,0-3.37-2-5.2-4.25-5.2s-4.08,1.55-4.08,4.66c0,3.26,1.95,5.4,4.48,5.4Zm-117,14.58c0,.52,0,.95,0,1.15s0,.26.2.28a.69.69,0,0,0,.23,0c.06,0,.06,0,.06.06a.13.13,0,0,1-.09,0c-.31,0-.65,0-.68,0l-.54,0c-.06,0-.08,0-.08,0s0-.06,0-.06a.32.32,0,0,0,.17,0c.12,0,.15-.11.15-.28s0-.63,0-1.15v-.51s0,0,0,0H579.6s0,0,0,0v.51a11,11,0,0,0,0,1.15c0,.17,0,.26.2.28a.64.64,0,0,0,.22,0,.06.06,0,0,1,.06.06.12.12,0,0,1-.08,0c-.32,0-.66,0-.68,0l-.54,0c-.06,0-.09,0-.09,0s0-.06,0-.06a.34.34,0,0,0,.17,0c.11,0,.11-.11.14-.28a11,11,0,0,0,0-1.15v-2.08c0-.17-.06-.26-.23-.29l-.19,0a0,0,0,0,1,0,0s0-.05.08-.05c.26,0,.6,0,.63,0l.53,0c.06,0,.09,0,.09.05s0,0-.06,0a.2.2,0,0,0-.11,0c-.17,0-.2.12-.2.29V388s0,0,0,0h2.27s0,0,0,0v-1.28c0-.17,0-.26-.22-.29l-.2,0a0,0,0,0,1,0,0s0-.05.09-.05c.25,0,.59,0,.62,0l.54,0c.06,0,.08,0,.08.05s0,0,0,0a.23.23,0,0,0-.12,0c-.14,0-.17.12-.19.29v2.08Zm4.11-2.54a2,2,0,0,1,2.15,2,2.12,2.12,0,0,1-2.18,2.15,2,2,0,0,1-2.13-2.09,2.08,2.08,0,0,1,2.16-2.06Zm.11,4h0c.51,0,1.47-.26,1.47-1.81,0-1.28-.76-1.94-1.61-1.94a1.51,1.51,0,0,0-1.56,1.72,1.8,1.8,0,0,0,1.7,2Zm5.13-1.41a11,11,0,0,0,0,1.15c0,.17,0,.26.2.28a.77.77,0,0,0,.25,0,.06.06,0,0,1,.06.06.13.13,0,0,1-.09,0c-.31,0-.65,0-.68,0l-.56,0c-.06,0-.09,0-.09,0s0-.06,0-.06a.34.34,0,0,0,.17,0c.11,0,.14-.11.17-.28a11,11,0,0,0,0-1.15v-2.23h-.8c-.34,0-.48.06-.56.18s-.06.14-.09.17,0,.05-.05.05a.07.07,0,0,1,0-.05c0-.06.11-.52.11-.57s0-.09.06-.09.08,0,.25.06a2.5,2.5,0,0,0,.43,0h2c.2,0,.31,0,.4,0a1.09,1.09,0,0,0,.17,0V387s0,.08-.06.08,0,0-.06-.08v-.06c0-.17-.11-.29-.65-.32h-.68Zm3.34-.94a11.15,11.15,0,0,0,0-1.14c0-.17,0-.26-.23-.29,0,0-.11,0-.17,0s-.06,0-.06,0,0-.05.09-.05c.25,0,.62,0,.65,0h1.3a2.23,2.23,0,0,0,.23,0l.09,0s0,0,0,.06,0,.08,0,.22a1.76,1.76,0,0,1,0,.38l0,0c-.06,0-.06,0-.06-.08a.56.56,0,0,0,0-.17c0-.09-.09-.15-.4-.18l-.8,0s0,0,0,.05v1.46s0,.06,0,.06.8,0,.91,0,.23,0,.29-.06.05-.08.08-.08,0,0,0,0,0,.12-.06.29,0,.31,0,.34,0,.12,0,.12a.06.06,0,0,1-.06-.06.34.34,0,0,0,0-.17c0-.09-.06-.14-.25-.17s-.74,0-.83,0,0,0,0,0v1.37c0,.34.11.43.65.43a1.66,1.66,0,0,0,.54-.06.45.45,0,0,0,.25-.37c0-.06,0-.09.06-.09s0,0,0,.09a4.24,4.24,0,0,1-.06.51c0,.15-.08.15-.31.15-.4,0-.71,0-.94,0a3.11,3.11,0,0,0-.45,0,1.25,1.25,0,0,0-.26,0h-.31s-.08,0-.08,0a.06.06,0,0,1,0-.06l.17,0c.09,0,.12-.11.15-.28s0-.63,0-1.15Zm4.65.94c0,.8,0,1.12.12,1.21s.28.14.71.14a1,1,0,0,0,.68-.17.68.68,0,0,0,.11-.32s0-.06.06-.06.05,0,.05.09-.05.37-.08.54-.06.15-.37.15-.68,0-.94,0-.42,0-.59,0a.86.86,0,0,0-.23,0H599c-.06,0-.09,0-.09,0s0-.06,0-.06.14,0,.17,0,.12-.11.14-.28a11,11,0,0,0,0-1.15v-2.08c0-.17,0-.26-.22-.29l-.17,0s-.06,0-.06,0,0-.05.08-.05c.26,0,.6,0,.63,0l.59,0c.06,0,.09,0,.09.05a0,0,0,0,1,0,0,.54.54,0,0,0-.2,0c-.14,0-.17.12-.2.29v2.08Zm6.38,1.06a2.05,2.05,0,0,1-.68-1.6,2.1,2.1,0,0,1,.62-1.43,2.26,2.26,0,0,1,1.65-.57,3.6,3.6,0,0,1,.79.06,5.14,5.14,0,0,0,.57.08c.06,0,.08,0,.08.06a2.33,2.33,0,0,0,0,.29,4,4,0,0,0,0,.54c0,.08,0,.11-.06.11s-.06,0-.06-.11a.69.69,0,0,0-.22-.52,1.61,1.61,0,0,0-1-.28,1.82,1.82,0,0,0-1.25.34,1.77,1.77,0,0,0-.48,1.4,1.9,1.9,0,0,0,2,1.92,1.21,1.21,0,0,0,.9-.23.93.93,0,0,0,.2-.46c0-.06,0-.08.06-.08s0,.05,0,.08a4.27,4.27,0,0,1-.11.69c-.06.08-.06.11-.14.14a3.23,3.23,0,0,1-1,.12,2.54,2.54,0,0,1-1.79-.55Zm6.58-3.6a2,2,0,0,1,2.15,2,2.12,2.12,0,0,1-2.18,2.15,2,2,0,0,1-2.16-2.09,2.09,2.09,0,0,1,2.19-2.06Zm.11,4h0c.48,0,1.47-.26,1.47-1.81,0-1.28-.76-1.94-1.61-1.94a1.52,1.52,0,0,0-1.59,1.72,1.8,1.8,0,0,0,1.73,2Zm4.14-.58c0,.43.06.58.23.6a.87.87,0,0,0,.25,0,.06.06,0,0,1,.06.06s0,0-.12,0c-.31,0-.51,0-.56,0s-.29,0-.54,0c-.06,0-.09,0-.09,0a.06.06,0,0,1,.06-.06.79.79,0,0,0,.23,0c.14,0,.14-.17.14-.65v-3.06c0-.2,0-.26.08-.26s.15.11.2.14.88.95,1.73,1.83l1.31,1.37-.06-2.65c0-.35-.06-.46-.23-.52l-.25,0a.1.1,0,0,1-.06,0s.06-.05.11-.05c.26,0,.51,0,.57,0s.26,0,.48,0c.06,0,.09,0,.09.05a.1.1,0,0,1-.06,0,.34.34,0,0,0-.14,0c-.17,0-.17.14-.17.46l0,3.12c0,.34,0,.37,0,.37s-.11,0-.42-.32c-.06-.05-.85-.83-1.42-1.43s-1.25-1.31-1.42-1.51Zm5.56-1.77v-1.14c0-.17-.06-.26-.23-.29l-.2,0a0,0,0,0,1,0,0s0-.05.09-.05c.25,0,.59,0,.62,0s.43,0,.74,0a2.93,2.93,0,0,1,2.18.63,1.78,1.78,0,0,1,.54,1.34,2.11,2.11,0,0,1-2.24,2.12l-.77,0-.45-.06a1,1,0,0,1-.23,0h-.31c-.05,0-.08,0-.08,0s0-.06,0-.06a.36.36,0,0,0,.17,0c.11,0,.11-.11.14-.28a11,11,0,0,0,0-1.15Zm.51.57h0v1.17a1.3,1.3,0,0,0,.05.38c.09.11.26.23.91.23a1.82,1.82,0,0,0,1.28-.49,1.87,1.87,0,0,0,.42-1.29,1.82,1.82,0,0,0-.51-1.31,2.25,2.25,0,0,0-1.76-.6,1.44,1.44,0,0,0-.34,0c-.05,0-.05,0-.05.09Zm6.8-2.17a2,2,0,0,1,2.15,2,2.12,2.12,0,0,1-2.18,2.15,2,2,0,0,1-2.15-2.09,2.1,2.1,0,0,1,2.18-2.06Zm.11,4h0c.48,0,1.48-.26,1.48-1.81,0-1.28-.77-1.94-1.62-1.94a1.53,1.53,0,0,0-1.59,1.72,1.8,1.8,0,0,0,1.73,2Zm8.11-.55c0,.2.06.49.28.55a1.27,1.27,0,0,0,.37,0s0,0,0,0,0,.06-.11.06-.71,0-.91,0-.17,0-.17-.06a0,0,0,0,1,0,0s0-.11,0-.2l-.26-2.68h0L636,390.08c-.12.23-.14.29-.2.29s-.06-.06-.17-.26-.51-.94-.65-1.23-.6-1.23-.68-1.46h0l-.2,2.4a1,1,0,0,0,0,.29c0,.09.06.12.14.14a.62.62,0,0,0,.2,0,.1.1,0,0,1,.06,0c0,.06,0,.06-.11.06s-.46,0-.49,0-.31,0-.48,0-.08,0-.08-.06,0,0,.05,0a.38.38,0,0,0,.17,0c.17,0,.17-.22.2-.43l.4-3.45c0-.06,0-.09.06-.09s.08,0,.11.09l1.64,3.28,1.59-3.28c0-.06.06-.09.11-.09s.06,0,.06.14Zm2.89-.86a11,11,0,0,0,0,1.15c0,.17,0,.26.2.28a.8.8,0,0,0,.25,0s0,0,0,.06a.12.12,0,0,1-.08,0c-.29,0-.66,0-.68,0l-.54,0c-.06,0-.09,0-.09,0a.06.06,0,0,1,.06-.06.4.4,0,0,0,.17,0c.08,0,.11-.11.14-.28s0-.63,0-1.15v-.94a7.45,7.45,0,0,0,0-1.14c0-.17-.06-.26-.17-.29s-.11,0-.17,0,0,0,0,0,0-.05.09-.05l.54,0,.53,0c.09,0,.09,0,.09.05s0,0,0,0a.29.29,0,0,0-.14,0c-.14,0-.17.12-.2.29v2.08Zm2.78.83c0,.43.06.58.2.6a1.06,1.06,0,0,0,.28,0s0,0,0,.06,0,0-.09,0c-.31,0-.53,0-.59,0s-.26,0-.51,0c-.06,0-.09,0-.09,0s0-.06,0-.06a.69.69,0,0,0,.23,0c.14,0,.17-.17.17-.65v-3.06c0-.2,0-.26.06-.26s.17.11.22.14.88.95,1.73,1.83c.54.57,1.11,1.2,1.28,1.37l-.06-2.65c0-.35,0-.46-.2-.52s-.23,0-.28,0a0,0,0,0,1,0,0s0-.05.11-.05.48,0,.57,0,.23,0,.45,0c.06,0,.12,0,.12.05a.13.13,0,0,1-.09,0,.27.27,0,0,0-.11,0c-.2,0-.2.14-.2.46V390c0,.34,0,.37-.06.37s-.11,0-.42-.32l-1.42-1.43c-.62-.68-1.25-1.31-1.42-1.51Zm6-.83c0,.52,0,.95,0,1.15s0,.26.2.28a.86.86,0,0,0,.26,0s0,0,0,.06a.13.13,0,0,1-.09,0c-.28,0-.65,0-.68,0l-.54,0c-.05,0-.08,0-.08,0s0-.06,0-.06.12,0,.15,0,.14-.11.17-.28,0-.63,0-1.15v-.94a11.15,11.15,0,0,0,0-1.14c0-.17-.06-.26-.17-.29a1.39,1.39,0,0,1-.17,0s0,0,0,0,0-.05.08-.05l.54,0,.54,0c.08,0,.08,0,.08.05s0,0,0,0a.33.33,0,0,0-.15,0c-.14,0-.17.12-.19.29v2.08Zm2.38-.94v-1.14c0-.17-.06-.26-.23-.29l-.2,0a0,0,0,0,1,0,0s0-.05.09-.05c.25,0,.57,0,.62,0l.54,0c.09,0,.11,0,.11.05s0,0,0,0a.22.22,0,0,0-.14,0c-.15,0-.17.12-.2.29v1.88a1.69,1.69,0,0,0,.39,1.32,1.18,1.18,0,0,0,.83.29,1.13,1.13,0,0,0,.85-.38,2,2,0,0,0,.31-1.28v-.69c0-.83,0-1,0-1.14s0-.26-.23-.29a1.39,1.39,0,0,0-.17,0s-.05,0-.05,0,0-.05.08-.05c.26,0,.57,0,.6,0l.45,0c.09,0,.09,0,.09.05s0,0,0,0a.34.34,0,0,0-.14,0c-.15,0-.17.12-.2.29v1.71a2.12,2.12,0,0,1-.51,1.6,1.61,1.61,0,0,1-1.14.38,1.64,1.64,0,0,1-1.13-.38,1.66,1.66,0,0,1-.48-1.37Zm9.55,1.8c0,.2.06.49.28.55a1.07,1.07,0,0,0,.34,0s.06,0,.06,0-.06.06-.11.06-.74,0-.94,0-.14,0-.14-.06,0,0,0,0,0-.11,0-.2l-.26-2.68h0l-1.3,2.71c-.11.23-.14.29-.2.29s-.08-.06-.17-.26-.51-.94-.65-1.23-.6-1.23-.68-1.46h0l-.23,2.4v.29c0,.09.06.12.15.14a.57.57,0,0,0,.19,0,.1.1,0,0,1,.06,0c0,.06-.06.06-.11.06-.2,0-.46,0-.51,0l-.46,0s-.08,0-.08-.06,0,0,.05,0a.4.4,0,0,0,.15,0c.19,0,.19-.22.22-.43l.4-3.45c0-.06,0-.09.06-.09s.08,0,.11.09l1.64,3.28,1.59-3.28q0-.09.09-.09s.08,0,.08.14Zm5.3,0c0,.43.06.58.2.6a1.1,1.1,0,0,0,.28,0s0,0,0,.06,0,0-.08,0c-.32,0-.54,0-.57,0s-.28,0-.54,0c-.06,0-.08,0-.08,0s0-.06,0-.06a.66.66,0,0,0,.23,0c.14,0,.17-.17.17-.65v-3.06c0-.2,0-.26.06-.26s.17.11.22.14.88.95,1.73,1.83c.54.57,1.11,1.2,1.28,1.37l-.06-2.65c0-.35,0-.46-.2-.52s-.22,0-.28,0a0,0,0,0,1,0,0s0-.05.12-.05.51,0,.56,0,.23,0,.46,0c0,0,.11,0,.11.05a.1.1,0,0,1-.06,0,.29.29,0,0,0-.14,0c-.17,0-.2.14-.2.46V390c0,.34,0,.37-.05.37s-.12,0-.43-.32c0-.05-.82-.83-1.42-1.43s-1.24-1.31-1.39-1.51Zm5.56-1.77a7.45,7.45,0,0,0,0-1.14c0-.17,0-.26-.23-.29,0,0-.11,0-.17,0s0,0,0,0,0-.05.08-.05c.26,0,.62,0,.65,0h1.31c.08,0,.19,0,.22,0l.09,0s0,0,0,.06,0,.08-.06.22a1.76,1.76,0,0,1,0,.38s0,0-.06,0,0,0,0-.08a.38.38,0,0,0,0-.17c0-.09-.09-.15-.4-.18l-.79,0s0,0,0,.05v1.46s0,.06,0,.06.79,0,.9,0,.23,0,.29-.06,0-.08.08-.08,0,0,0,0,0,.12-.06.29,0,.31,0,.34,0,.12,0,.12a.06.06,0,0,1-.06-.06.34.34,0,0,0,0-.17c0-.09,0-.14-.25-.17s-.74,0-.85,0a0,0,0,0,0,0,0v1.37c0,.34.11.43.65.43a1.66,1.66,0,0,0,.54-.06.43.43,0,0,0,.25-.37c0-.06,0-.09.06-.09s0,0,0,.09a4.24,4.24,0,0,1-.06.51c0,.15-.08.15-.31.15-.4,0-.71,0-.93,0a3.22,3.22,0,0,0-.46,0,1.13,1.13,0,0,0-.25,0h-.31c-.06,0-.09,0-.09,0a.06.06,0,0,1,.06-.06s.11,0,.17,0,.11-.11.14-.28a11,11,0,0,0,0-1.15Zm7.71,1.69h0c.14-.43.62-2,.82-2.63a1.28,1.28,0,0,0,0-.35c0-.08,0-.17-.28-.17a.1.1,0,0,1-.06,0s0-.05.09-.05c.28,0,.51,0,.57,0s.25,0,.42,0,.09,0,.09.05a.1.1,0,0,1-.06,0s-.11,0-.17,0-.26.29-.37.57c-.23.69-.76,2.38-1,3-.14.37-.17.43-.23.43s-.11-.06-.2-.26l-1.05-2.92c-.19.46-.93,2.4-1.13,2.92-.08.23-.11.26-.2.26s-.08,0-.2-.4l-1-3.15c-.08-.29-.14-.37-.28-.4l-.26-.06s0,0,0,0,0-.05.08-.05c.28,0,.6,0,.65,0s.31,0,.57,0c.08,0,.11,0,.11.05s0,0,0,0a.25.25,0,0,0-.2.06.1.1,0,0,0-.09.11c0,.06.06.23.12.49s.65,2.29.7,2.49h0l1.14-2.95c.08-.23.11-.25.14-.25s.08.05.14.25ZM687,389a.9.9,0,0,0-.12-.55c0-.08-.76-1.28-1-1.54a1.33,1.33,0,0,0-.37-.4.37.37,0,0,0-.23-.09s0,0,0,0,0-.05.08-.05l.54,0s.25,0,.45,0,.09,0,.09.05a.37.37,0,0,1-.09.06s-.05,0-.05.09a.53.53,0,0,0,.05.2l1,1.66c.11-.23.79-1.38.9-1.55a.61.61,0,0,0,.09-.26c0-.08,0-.14-.09-.14l-.08-.06s0-.05.08-.05.34,0,.4,0l.51,0c.06,0,.08,0,.08.05a.09.09,0,0,1-.08,0,.54.54,0,0,0-.26.09,1,1,0,0,0-.25.26,15.94,15.94,0,0,0-1.08,1.68,1.32,1.32,0,0,0,0,.55v.45c0,.09,0,.32,0,.52s0,.26.2.28a.86.86,0,0,0,.26,0s0,0,0,.06a.13.13,0,0,1-.09,0c-.31,0-.65,0-.68,0l-.54,0c-.05,0-.08,0-.08,0a.06.06,0,0,1,0-.06s.12,0,.15,0,.17-.11.17-.28v-1Zm5.18-2.72a2,2,0,0,1,2.16,2,2.1,2.1,0,0,1-2.19,2.15,2,2,0,0,1-2.12-2.09,2.07,2.07,0,0,1,2.15-2.06Zm.14,4h0c.49,0,1.48-.26,1.48-1.81a1.71,1.71,0,0,0-1.65-1.94,1.51,1.51,0,0,0-1.55,1.72,1.79,1.79,0,0,0,1.72,2Zm3.92-2.35a7.45,7.45,0,0,0,0-1.14c0-.17,0-.26-.2-.29l-.2,0s-.06,0-.06,0,0-.05.12-.05.59,0,.62,0l.68,0a1.74,1.74,0,0,1,1,.25.9.9,0,0,1,.4.72,1.53,1.53,0,0,1-.68,1.2c.45.57.82,1.06,1.13,1.37s.48.37.63.37a.45.45,0,0,0,.17,0,.06.06,0,0,1,0,.06s0,0-.11,0h-.37a1,1,0,0,1-.57-.12,2.72,2.72,0,0,1-.73-.77c-.23-.28-.48-.63-.6-.77s0,0-.08,0l-.68,0a.06.06,0,0,0-.06.06v.11a11,11,0,0,0,0,1.15c0,.17,0,.26.22.28a.79.79,0,0,0,.23,0c.06,0,.06,0,.06.06a.13.13,0,0,1-.09,0c-.28,0-.65,0-.68,0l-.54,0s-.08,0-.08,0a.06.06,0,0,1,.06-.06.36.36,0,0,0,.17,0c.08,0,.11-.11.14-.28a11,11,0,0,0,0-1.15Zm.45.46h0a.06.06,0,0,0,.06.06,1.58,1.58,0,0,0,.59.08.67.67,0,0,0,.4-.08.89.89,0,0,0,.34-.8c0-.69-.37-1.06-.94-1.06-.17,0-.34,0-.39,0s-.06,0-.06.05Zm4.45-.46v-1.14c0-.17-.06-.26-.23-.29l-.2,0s0,0,0,0,0-.05.08-.05c.23,0,.57,0,.6,0l.54,0c.08,0,.11,0,.11.05s0,0-.06,0a.36.36,0,0,0-.14,0c-.14,0-.17.12-.2.29v1.46h0l1.25-1.26c.17-.17.31-.32.31-.4s0-.09-.09-.12,0,0,0,0a.05.05,0,0,1,0-.05l.4,0,.54,0s.08,0,.08.05,0,0,0,0a.74.74,0,0,0-.32.09c-.22.08-.31.23-.56.46s-1.08,1-1.19,1.14c.14.17,1.27,1.31,1.5,1.51.45.41.51.49.79.58a1.5,1.5,0,0,0,.34.08.06.06,0,0,1,.06.06.16.16,0,0,1-.11,0h-.68a1.14,1.14,0,0,1-.66-.34c-.25-.21-1.38-1.41-1.64-1.72h0v.51a11,11,0,0,0,0,1.15c0,.17,0,.26.2.28a.66.66,0,0,0,.23,0s0,0,0,.06a.09.09,0,0,1-.08,0c-.26,0-.6,0-.62,0l-.54,0c-.06,0-.09,0-.09,0s0-.06,0-.06a.34.34,0,0,0,.17,0c.11,0,.11-.11.14-.28a11,11,0,0,0,0-1.15Z" transform="translate(-565.96 -314.18)"/></g></svg>