<svg xmlns="http://www.w3.org/2000/svg" id="Capa_1" data-name="Capa 1" viewBox="0 0 150.01 125.79"><defs><clipPath id="clip-path" transform="translate(-565.96 -314.18)"><path d="M565.96 314.18h150.01v125.79H565.96z" style="fill:none"/></clipPath><style>.cls-4{fill:#333;fill-rule:evenodd}</style></defs><path d="M0 0h150.01v125.79H0z" style="fill:#fff"/><g style="clip-path:url(#clip-path)"><path d="M47.77 51.6c.68-2 3.57-6.09 5.13-7.77l1.61-1.66c.23-.17.4-.29.63-.49 2.35-2.17 8-5.66 11.11-6.23-.2.4-.23.31-.48.57s-.17.4-.37.74-.31.23-.57.49a5.06 5.06 0 0 0-1.1 2.37 3.46 3.46 0 0 1-.82 1.52 5 5 0 0 0-.94 1.34c-1.13 2.29-.51 2.29-.23 3.55a6.5 6.5 0 0 1 .06 2.2c.31.54.4.43.62 1.09a5 5 0 0 0 .51 1.28c.4-.57.09-1.57-.11-2.17-.28-.94-.62-1.77 0-2.09a.1.1 0 0 1 0 .06l.08.23a11 11 0 0 0 .23 1.14 13.7 13.7 0 0 0 1.84 3.63 6 6 0 0 1-.34.63c.2.32.23.06.31.54v.2c.74.12.91.43 1.39.78s1.22.25 2 .25h4.42a8 8 0 0 0 .37-1.11 7.6 7.6 0 0 1 .51-1.17 2 2 0 0 1-1.25-.26c-.43.37-.57 1.23-.94 1.54a3.8 3.8 0 0 1-2.24.35 4.3 4.3 0 0 1-1.1-2.72c.14-1.43 1-3 2.69-3.12.88 0 1 .32 1.62-.05s.82-.17 1.56-.09.93-.31 1.73-.14c.45.74.51 2.37 1.41 2.4.26-1.43-.42-1.72-.59-2.74-.14-.86 1.08-1.26 1.59-1.66a4.45 4.45 0 0 0 1.33-2.09c.59-1.32 1.3-.57 1.42-2.06a2.15 2.15 0 0 0 1.5-.28c.14-.09.08-.06.17-.18-.48-.42-1.56-.6-1-1.45 1.07-.18 2.09.74 2.75-.23l-3-1.95c-.34.12-.48.38-1 .2s-.85-.8-1.53-.85h-.6c-.26 0-.17-.17-.39-.09-.48.8.2.89.68 1.32l-.14.05a.1.1 0 0 0-.06 0l-.37.12-.2 1.28a.91.91 0 0 1-1-.43c-.59-.77-.17-.62-2-1a5.4 5.4 0 0 1-1.19-.37c.2-.94 2.47-2 3.74-2.34 4.34-1.15 10.89 1.51 14.29 3.54a33 33 0 0 1 5.27 3.89 28.6 28.6 0 0 1 4.25 4.92c.4.6.83 1.23 1.22 1.88a12.2 12.2 0 0 0 1.11 2 22.7 22.7 0 0 0-1.93-4 29.38 29.38 0 0 0-26.16-15c-7.57.18-13 2.29-17.69 5.86a27 27 0 0 0-5.73 6c-1.07 1.54-3.71 6-4 7.77ZM81.36 72.16c.65.57 1 .54 1.44 1.54s-.28.37-.31 2.35c-.08 2.71-.48 1.25-.68 2.37-.54 3.31-1.64 3.43-1.73 4.26 0 .68.34.4 0 1.11a5.5 5.5 0 0 0-.37 1.12c-.22.94.14 1.77 1.11 1.71 0-.28-.12-.2-.23-.48.31-.46.65-.49 1.14-.78a1.17 1.17 0 0 0-.12-.71 2.51 2.51 0 0 0 1.73-1.77c1.28-.17 1.16-.52 2.21-.86 1.79-.6 1.42 0 1.65-1.37.36-.23.79-.35 1.13-.55 2.41-1.37 3.32-3.68 3.8-4.17.79-.77 1.16-.63 2.38-.8 1.19-1.6.54-.63 1.16-2.12a5.8 5.8 0 0 1 .71-1c.31-.48-.06-.57.11-1.28H79.8Z" class="cls-4"/><path d="M52.19 81.16c-1.08-1.23-3.94-5.37-4.31-6.77.4 1.8 2.95 6.09 4.08 7.6 5.28 7 13.16 11.89 23.05 11.87s18.11-4.06 23.72-11.3c1.22-1.54 3.89-5.46 4.37-7.34l-2.13 3.51a29.4 29.4 0 0 1-5.32 5.83 31.35 31.35 0 0 1-43.46-3.4M86.63 58.82c1.39-.08 4.11-.45 4 1.38-.12 1.68-2.52 1.48-4 1.4Zm-3.88-2.34c.25.51.62.46.62 1.11v8.92c0 .78-.28.63-.59 1.23h4.45c-.15-.31 0 0-.12-.23l-.39-.51a15.5 15.5 0 0 1-.09-3.29h1.41a24 24 0 0 1 2.18 3.2c-.19.4-.36.38-.56.83h4.76a22 22 0 0 0-1.47-2.26 16 16 0 0 1-1.42-2.17c1-.71 1.3-.57 1.95-1.63a3.5 3.5 0 0 0 .37-2.83c-.51-1.88-2.38-2.4-4.62-2.4ZM36.43 56.52c.2.57.59.37.62 1.23v5.23c-.68-.4-5.38-6.37-5.86-6.49h-3.32c.2.4.57.69.59 1.06v9.27a1.16 1.16 0 0 1-.28.49 1.5 1.5 0 0 0-.2.22c-.11.2 0-.08-.11.23h3.77c-.28-.54-.62-.6-.65-1.23 0-1.65.08-3.54 0-5.31.37.08.37.28.82.74l5 5.43c.54.6.74.37 2.81.32v-8.89c0-2.54.19-1.22.62-2.34ZM11.43 56.49c.54 1.37.62-.77.62 3.95 0 4.46-.71 7.51 5.64 7.54 2.89 0 5.05-.6 5.47-3.34.26-1.72-.17-6.83.2-7.46.09-.12.2-.23.29-.35.22-.28 0 0 .22-.34h-4.53c.56 1.26.62-.17.62 2.55 0 1.14.2 4.94-.28 5.68-.77 1.18-3.35 1.23-4.11 0-.4-.72-.23-4.66-.23-5.72 0-2.52-.06-1.17.62-2.46ZM99.27 67.21c1 .06 4.28 1.66 7.26.43a3.14 3.14 0 0 0 2-2.23c1.14-4.75-6.15-4.29-6.57-5.8-.4-1.29 2.15-1 3-.78a25 25 0 0 1 3.14 1v-3.61l-.85.78c-2.18-.63-4.56-1.38-7-.12a3 3 0 0 0-.22 5.32c2.09 1.46 6.37 1.54 5 3.09-.59.65-2.63.25-3.48 0a15 15 0 0 1-2.89-1.23v4a2 2 0 0 0 .73-.83ZM68.04 56.49a2.8 2.8 0 0 1 .62 1.06v7.69c0 2.6.06 1.26-.62 2.54h10.4v-2.96c-.65.26-.34.6-1.22.6h-5.33v-2.14a24 24 0 0 1 2.52 0c1.62 0 .91.08 1.9.63v-3.43c-1 .57-.28.6-2 .6h-2.47v-2.26c1-.11 2.5 0 3.55 0 3.62 0 1.81.12 3 .63v-3ZM116.28 63.72c.06-.17 1.45-3.43 1.73-3.83.14-.17 0 0 .17-.14.37.89 1.62 3.23 1.79 4Zm-.14-7.23c.54 1.23.25 1.06-.6 2.92l-2.66 5.51a30 30 0 0 0-1.3 2.86h3.94l-.63-.85.6-1.21h5.33l.51 1.2c-.23.4-.4.4-.6.83h4.59l-5.47-11.26ZM57.52 67.75h2.35l5.22-11.26H61.2a4.6 4.6 0 0 0 .63.86l-2.79 6.17c-.26-.25-1.36-2.94-1.64-3.54s-.51-1.17-.8-1.8c-.48-1.17-.22-.77.29-1.69h-4.54ZM128.5 56.49a4.4 4.4 0 0 1 .62 1.06v7.69c0 2.54.09 1.26-.59 2.54h10.06v-3c-.43.29-.6.6-1.19.63h-5c-.08-2.12 0-4.89 0-7.18 0-1.42.12-.74.66-1.74ZM44.82 67.82h4.54c-.2-.34-.54-.65-.6-.94v-9.29c.06-.37.43-.63.63-1.06h-4.54c.62 1.29.62-.08.62 2.55v7.71c0 .46-.39.63-.62 1Z" class="cls-4"/></g></svg>