<svg xmlns="http://www.w3.org/2000/svg" data-name="Capa 1" viewBox="0 0 349.99 201.72"><defs><clipPath id="a" transform="translate(-507.52 -283.29)"><path d="M507.52 283.29h349.99v201.72H507.52z" style="fill:none"/></clipPath></defs><path d="M0 0h349.99v201.72H0z" style="fill:#fbfbfb"/><g style="clip-path:url(#a)"><path d="M612.6 429h3v5.09h1.93v.91h-5v-.88h2v-4.2h-2Zm73.19-80.28c5.47 1.83 16.44-6.31 15.45-17.84-7.29.12-16.13 8.09-15.45 17.84m31.49 39.4c-2.75-1.89-4.28-2.09-6.72-5.35-4.68-6.23-4.82-15.24-.28-20.9.54-.65 1.08-1.08 1.59-1.63 2-2.11 1.47-1.28 2.83-2.4l.54-.51c-3.2-5.81-12.45-8.84-19.84-6.95-3.09.77-7.46 3.49-10.63 2.6-6.27-1.77-12.31-6.14-21.29.23C643 367.82 662 407.76 674 408.76c3.29.29 7.57-2.34 11.09-2.94 5-.83 7.34 1 11.37 2.23 5.61 1.74 9-.83 12-4.15l4.37-6.09a39.7 39.7 0 0 0 4.42-9.66Zm-102.81 39.34a.54.54 0 0 1 .17-.43.52.52 0 0 1 .45-.17.56.56 0 0 1 .45.17.53.53 0 0 1 .15.43.56.56 0 0 1-.15.43.6.6 0 0 1-.45.17.55.55 0 0 1-.45-.17.57.57 0 0 1-.17-.43m9.89 4a5 5 0 0 1-.08.86 4.6 4.6 0 0 1-.2.85 5.5 5.5 0 0 1-.37.78 2.3 2.3 0 0 1-.54.6 3.1 3.1 0 0 1-.68.43 3.2 3.2 0 0 1-.91.14 3 3 0 0 1-.88-.14 2.54 2.54 0 0 1-1.24-1.06 5 5 0 0 1-.37-.75 4.4 4.4 0 0 1-.2-.85 4.3 4.3 0 0 1-.09-.86v-.92c0-.28 0-.57.06-.88a7 7 0 0 1 .23-.83 2.8 2.8 0 0 1 .37-.77 1.9 1.9 0 0 1 .53-.63 2.7 2.7 0 0 1 .69-.43 2.8 2.8 0 0 1 .9-.14 2.7 2.7 0 0 1 .88.14 2.5 2.5 0 0 1 .71.43 1.8 1.8 0 0 1 .54.63 7 7 0 0 1 .37.74 5.3 5.3 0 0 1 .2.86 5 5 0 0 1 .08.88Zm-1-.94a5 5 0 0 0-.06-.6 2.5 2.5 0 0 0-.11-.61c-.06-.2-.12-.4-.2-.6a2 2 0 0 0-.34-.48 1.3 1.3 0 0 0-.45-.34 1.4 1.4 0 0 0-.63-.12 1.4 1.4 0 0 0-.62.12 1.4 1.4 0 0 0-.46.34 2 2 0 0 0-.34.48 5 5 0 0 0-.22.6c0 .2-.09.4-.12.63s0 .4 0 .58v1.54a4.4 4.4 0 0 0 .15.6 3.5 3.5 0 0 0 .19.6 1.7 1.7 0 0 0 .34.49 1.6 1.6 0 0 0 .46.34 1.7 1.7 0 0 0 .62.14 1.4 1.4 0 0 0 .63-.14 1.7 1.7 0 0 0 .48-.34 2.6 2.6 0 0 0 .31-.49 4 4 0 0 0 .23-.57c0-.23.08-.43.08-.63a5 5 0 0 0 .06-.6Zm6.72 2.45a1.2 1.2 0 0 0-.17-.62 1.5 1.5 0 0 0-.43-.43 3 3 0 0 0-.59-.29 5 5 0 0 0-.6-.2 6 6 0 0 1-.85-.34 3.8 3.8 0 0 1-.79-.46 2.2 2.2 0 0 1-.6-.69 1.77 1.77 0 0 1-.23-.88 2.15 2.15 0 0 1 .23-.95 2.25 2.25 0 0 1 .6-.68 2.2 2.2 0 0 1 .82-.43 3.3 3.3 0 0 1 .93-.14 2.8 2.8 0 0 1 1 .17 2.8 2.8 0 0 1 .85.48 2.2 2.2 0 0 1 .6.78 2.2 2.2 0 0 1 .23 1h-1a2.2 2.2 0 0 0-.17-.63 1.4 1.4 0 0 0-.34-.49 1.8 1.8 0 0 0-.51-.34 2 2 0 0 0-.66-.09 1.9 1.9 0 0 0-.56.06 1.7 1.7 0 0 0-.49.26 1.5 1.5 0 0 0-.34.4 1.4 1.4 0 0 0-.14.57 1.4 1.4 0 0 0 .2.6 1.8 1.8 0 0 0 .43.4 3.3 3.3 0 0 0 .56.29l.57.17c.2.08.4.14.6.23l.56.25a4 4 0 0 1 .54.37 4 4 0 0 1 .43.43 4 4 0 0 1 .28.55 2.2 2.2 0 0 1 .08.65 2.14 2.14 0 0 1-.22.95 2.3 2.3 0 0 1-.63.65 2.2 2.2 0 0 1-.85.41 2.9 2.9 0 0 1-1 .14 3.3 3.3 0 0 1-1-.17 3 3 0 0 1-.94-.46 3.6 3.6 0 0 1-.65-.77 2.1 2.1 0 0 1-.25-1h1a2 2 0 0 0 .2.66 2.3 2.3 0 0 0 .39.51 2.4 2.4 0 0 0 .57.29 1.8 1.8 0 0 0 .68.11 2 2 0 0 0 .6-.09 1.5 1.5 0 0 0 .51-.22 1.25 1.25 0 0 0 .36-.4 1.13 1.13 0 0 0 .15-.58Zm9.18 2v-8h1.84a3.7 3.7 0 0 1 1.51.29 3.3 3.3 0 0 1 1.1.74 3 3 0 0 1 .68 1.17 4.4 4.4 0 0 1 .26 1.52v.6a4.3 4.3 0 0 1-.26 1.51 3 3 0 0 1-.68 1.17 3.8 3.8 0 0 1-1.1.78 4.2 4.2 0 0 1-1.51.25Zm1.05-7.2v6.37h.79a2.8 2.8 0 0 0 1.14-.22 2.16 2.16 0 0 0 .76-.6 2.5 2.5 0 0 0 .48-.92 4.6 4.6 0 0 0 .15-1.14v-.6a3.9 3.9 0 0 0-.17-1.15 2.2 2.2 0 0 0-.46-.91 2.3 2.3 0 0 0-.76-.6 2.75 2.75 0 0 0-1.14-.23Zm8.42 7.32a3.1 3.1 0 0 1-1.16-.2 2.7 2.7 0 0 1-.88-.6 2.6 2.6 0 0 1-.6-.95 2.9 2.9 0 0 1-.2-1.14v-.2a3.6 3.6 0 0 1 .23-1.28 3.2 3.2 0 0 1 .62-1 2.7 2.7 0 0 1 .85-.6 2.6 2.6 0 0 1 1-.23 2.8 2.8 0 0 1 1.13.23 2.4 2.4 0 0 1 .79.63 3.2 3.2 0 0 1 .49.92 5.4 5.4 0 0 1 .14 1.17v.46h-4.23a2.2 2.2 0 0 0 .15.77 2.8 2.8 0 0 0 .39.63 2.3 2.3 0 0 0 .57.43 2.3 2.3 0 0 0 .76.14 2.14 2.14 0 0 0 1-.23 2.3 2.3 0 0 0 .71-.57l.59.48a1.4 1.4 0 0 1-.37.43 2.3 2.3 0 0 1-.51.38 1.8 1.8 0 0 1-.65.25 3.2 3.2 0 0 1-.79.09Zm-.14-5.35a1.2 1.2 0 0 0-.57.12 1.3 1.3 0 0 0-.51.31 2.4 2.4 0 0 0-.37.54 2.8 2.8 0 0 0-.2.75h3.18v-.09a1.4 1.4 0 0 0-.12-.6 1.07 1.07 0 0 0-.28-.51.92.92 0 0 0-.45-.37 1.3 1.3 0 0 0-.68-.15m6.57 3.78.09.37.11-.37L657 429h1l-2.41 6h-.76l-2.47-6h1.05Zm7 1.57a3 3 0 0 1-1.13-.2 2.6 2.6 0 0 1-.91-.6 2.4 2.4 0 0 1-.57-.95 2.9 2.9 0 0 1-.22-1.14v-.2a3.6 3.6 0 0 1 .22-1.28 3 3 0 0 1 .63-1 2.6 2.6 0 0 1 .85-.6 2.7 2.7 0 0 1 1-.23 2.7 2.7 0 0 1 1.1.23 2.2 2.2 0 0 1 .8.63 2.45 2.45 0 0 1 .48.92 4 4 0 0 1 .14 1.17v.46h-4.22a1.9 1.9 0 0 0 .17.77 1.9 1.9 0 0 0 .37.63 2.6 2.6 0 0 0 .59.43 2.2 2.2 0 0 0 .74.14 2.1 2.1 0 0 0 1-.23 2.2 2.2 0 0 0 .71-.57l.63.48a5 5 0 0 1-.37.43 6 6 0 0 1-.51.38 2.4 2.4 0 0 1-.68.25 3.3 3.3 0 0 1-.8.09Zm-.11-5.35a1.34 1.34 0 0 0-.6.12 1.2 1.2 0 0 0-.48.31 1.9 1.9 0 0 0-.37.54 2.5 2.5 0 0 0-.22.75h3.2v-.09c0-.2-.06-.4-.11-.6a2 2 0 0 0-.29-.51 1.15 1.15 0 0 0-.48-.37 1.1 1.1 0 0 0-.65-.15m4.39-3.26h3v7.61h1.92v.91h-5v-.88h2v-6.72h-2Zm6.3 5.46a3.4 3.4 0 0 1 .19-1.2 3.2 3.2 0 0 1 .51-1 3.1 3.1 0 0 1 .85-.66 3 3 0 0 1 1.14-.23 2.9 2.9 0 0 1 1.13.23 2.3 2.3 0 0 1 .85.66 3.5 3.5 0 0 1 .54 1 4.2 4.2 0 0 1 .17 1.2v.12a4.2 4.2 0 0 1-.17 1.2 3.5 3.5 0 0 1-.54 1 2.25 2.25 0 0 1-.85.63 2.9 2.9 0 0 1-1.13.23 3.1 3.1 0 0 1-1.14-.23 3 3 0 0 1-.85-.63 3.2 3.2 0 0 1-.51-1 3.4 3.4 0 0 1-.19-1.2Zm1 .12a4.2 4.2 0 0 0 .08.86 2.9 2.9 0 0 0 .34.68 1.7 1.7 0 0 0 .51.49 1.64 1.64 0 0 0 .74.17 1.44 1.44 0 0 0 1.27-.66 2.5 2.5 0 0 0 .32-.68 5 5 0 0 0 .08-.86V432a5 5 0 0 0-.08-.85 2.8 2.8 0 0 0-.34-.69 1.6 1.6 0 0 0-.51-.49 1.7 1.7 0 0 0-1.48 0 1.7 1.7 0 0 0-.51.49 2.8 2.8 0 0 0-.34.69 4 4 0 0 0-.08.85Zm11 0a5 5 0 0 1-.14 1.2 3.3 3.3 0 0 1-.45 1 2.1 2.1 0 0 1-.74.63 2.2 2.2 0 0 1-1 .23 2.6 2.6 0 0 1-1-.17 2.1 2.1 0 0 1-.71-.52v2.89h-1V429h.9l.06.66a2 2 0 0 1 .71-.58 2.6 2.6 0 0 1 1-.2 2.1 2.1 0 0 1 1.73.86 3.3 3.3 0 0 1 .45 1 5.3 5.3 0 0 1 .14 1.23Zm-1-.12a3.8 3.8 0 0 0-.08-.83 2.8 2.8 0 0 0-.28-.68 1.6 1.6 0 0 0-.51-.49 1.56 1.56 0 0 0-.74-.17 1.27 1.27 0 0 0-.82.23 1.64 1.64 0 0 0-.54.57v2.89a1.64 1.64 0 0 0 .54.57 1.47 1.47 0 0 0 .82.23 1.56 1.56 0 0 0 .74-.17 2 2 0 0 0 .51-.49 3 3 0 0 0 .28-.71 3.8 3.8 0 0 0 .08-.83Zm5.39 3.15a3.1 3.1 0 0 1-1.16-.2 2.5 2.5 0 0 1-.88-.6 2.7 2.7 0 0 1-.6-.95 2.9 2.9 0 0 1-.19-1.14v-.2a3.6 3.6 0 0 1 .22-1.28 3 3 0 0 1 .6-1 2.6 2.6 0 0 1 .88-.6 2.4 2.4 0 0 1 1-.23 2.9 2.9 0 0 1 1.13.23 2.6 2.6 0 0 1 .8.63 3.5 3.5 0 0 1 .48.92 5.4 5.4 0 0 1 .14 1.17v.46h-4.22a2.2 2.2 0 0 0 .14.77 2 2 0 0 0 .39.63 1.9 1.9 0 0 0 .57.43 2.3 2.3 0 0 0 .77.14 2.2 2.2 0 0 0 1-.23 1.9 1.9 0 0 0 .68-.57l.62.48a2 2 0 0 1-.36.43 2.8 2.8 0 0 1-.51.38 2.2 2.2 0 0 1-.66.25 3.4 3.4 0 0 1-.79.09Zm-.14-5.35a1.2 1.2 0 0 0-.57.12 1.1 1.1 0 0 0-.51.31 2.8 2.8 0 0 0-.37.54 2.8 2.8 0 0 0-.2.75h3.18v-.09a1.6 1.6 0 0 0-.11-.6 1.2 1.2 0 0 0-.29-.51 1.07 1.07 0 0 0-.45-.37 1.3 1.3 0 0 0-.68-.15m8.13-.86a1 1 0 0 1 .29 0 1 1 0 0 1 .31 0h.25a1.2 1.2 0 0 1 .2.06l-.14 1-.57-.09a3 3 0 0 0-.53 0 2 2 0 0 0-1.17.32 1.8 1.8 0 0 0-.65.91V435h-1v-6h1l.06.94a2.85 2.85 0 0 1 .85-.77 2.6 2.6 0 0 1 1.16-.29Zm10.69 2.86V435h-1v-8h2.58a3.3 3.3 0 0 1 1 .17 2.7 2.7 0 0 1 .82.46 2.25 2.25 0 0 1 .6.74 2.5 2.5 0 0 1 .19 1 2.3 2.3 0 0 1-.19 1 1.9 1.9 0 0 1-.6.74 2.6 2.6 0 0 1-.82.49 4 4 0 0 1-1 .14Zm0-.83h1.59a1.6 1.6 0 0 0 .65-.11 1.2 1.2 0 0 0 .51-.31 1.3 1.3 0 0 0 .34-.49 1.4 1.4 0 0 0 .11-.63 1.45 1.45 0 0 0-.11-.66 1.5 1.5 0 0 0-.34-.51 2.1 2.1 0 0 0-.51-.32 2.8 2.8 0 0 0-.65-.11h-1.59Zm9.52-2a1 1 0 0 1 .29 0 1.1 1.1 0 0 1 .31 0h.26a2 2 0 0 1 .19.06l-.14 1-.57-.09a3.3 3.3 0 0 0-.56 0 2 2 0 0 0-1.14.32 1.8 1.8 0 0 0-.65.91V435h-1v-6h1l.05.94a2.85 2.85 0 0 1 .85-.77 2.6 2.6 0 0 1 1.16-.29Zm2.56 3.06a4.2 4.2 0 0 1 .19-1.2 3.3 3.3 0 0 1 .54-1 2.4 2.4 0 0 1 .85-.66 2.9 2.9 0 0 1 1.11-.23 2.8 2.8 0 0 1 1.13.23 2.3 2.3 0 0 1 .85.66 2.9 2.9 0 0 1 .54 1 3.4 3.4 0 0 1 .2 1.2v.12a3.4 3.4 0 0 1-.2 1.2 2.9 2.9 0 0 1-.54 1 2.25 2.25 0 0 1-.85.63 2.8 2.8 0 0 1-1.1.23 2.9 2.9 0 0 1-1.14-.23 2.3 2.3 0 0 1-.85-.63 3.3 3.3 0 0 1-.54-1 4.2 4.2 0 0 1-.19-1.2Zm1 .12a2.9 2.9 0 0 0 .11.86 2 2 0 0 0 .31.68 1.5 1.5 0 0 0 .54.49 1.5 1.5 0 0 0 .74.17 1.6 1.6 0 0 0 .73-.17 1.7 1.7 0 0 0 .51-.49 1.85 1.85 0 0 0 .32-.68 3.2 3.2 0 0 0 .11-.86V432a3.1 3.1 0 0 0-.11-.85 1.8 1.8 0 0 0-.32-.69 1.44 1.44 0 0 0-1.27-.66 1.38 1.38 0 0 0-1.25.66 2 2 0 0 0-.31.69 2.8 2.8 0 0 0-.11.85Zm5.84-.12a5.3 5.3 0 0 1 .14-1.23 3.4 3.4 0 0 1 .48-1 2.1 2.1 0 0 1 1.73-.86 2.6 2.6 0 0 1 1 .2 2 2 0 0 1 .71.58l.06-.66h.9v5.86a3 3 0 0 1-.17 1.06 3.1 3.1 0 0 1-.53.77 2.5 2.5 0 0 1-.77.49 3 3 0 0 1-1 .17 4 4 0 0 1-.54-.06 2.5 2.5 0 0 1-.59-.17 6 6 0 0 1-.6-.32 2.6 2.6 0 0 1-.48-.51l.54-.6a2.3 2.3 0 0 0 .37.4 4 4 0 0 0 .39.23 4 4 0 0 0 .43.14 1.6 1.6 0 0 0 .4 0 2.3 2.3 0 0 0 .65-.09 1.1 1.1 0 0 0 .48-.31 1.14 1.14 0 0 0 .31-.49 1.65 1.65 0 0 0 .11-.68v-.52a1.9 1.9 0 0 1-.68.52 2.5 2.5 0 0 1-.93.17 2.2 2.2 0 0 1-1-.23 2.1 2.1 0 0 1-.74-.63 3.4 3.4 0 0 1-.48-1 5 5 0 0 1-.14-1.2Zm1 .12a2.9 2.9 0 0 0 .11.83 2 2 0 0 0 .28.68 1.44 1.44 0 0 0 .49.49 1.5 1.5 0 0 0 .73.17 2 2 0 0 0 .46-.06 1.3 1.3 0 0 0 .39-.2 1.2 1.2 0 0 0 .29-.25 1.6 1.6 0 0 0 .22-.38v-2.74a2 2 0 0 0-.22-.34 2.5 2.5 0 0 0-.29-.26.9.9 0 0 0-.39-.17 1.1 1.1 0 0 0-.46-.06 1.5 1.5 0 0 0-.73.17 1.2 1.2 0 0 0-.49.49 2 2 0 0 0-.28.68 2.9 2.9 0 0 0-.11.83Zm9.81-3.18a1 1 0 0 1 .28 0 1.1 1.1 0 0 1 .31 0h.26a2 2 0 0 1 .19.06l-.14 1-.56-.09a3.4 3.4 0 0 0-.57 0 2 2 0 0 0-1.13.32 1.76 1.76 0 0 0-.66.91V435h-1v-6h1v.94a2.85 2.85 0 0 1 .85-.77 2.6 2.6 0 0 1 1.17-.29Zm6.74 6.09a.44.44 0 0 1-.08-.28 1.4 1.4 0 0 1-.06-.37c-.11.11-.23.22-.34.31a3 3 0 0 1-.42.23 1.4 1.4 0 0 1-.49.17 3.3 3.3 0 0 1-.54.06 2.1 2.1 0 0 1-.87-.14 1.5 1.5 0 0 1-.63-.38 1.2 1.2 0 0 1-.42-.54 1.9 1.9 0 0 1-.14-.71 1.75 1.75 0 0 1 .19-.86 1.43 1.43 0 0 1 .54-.6 2.7 2.7 0 0 1 .88-.37 4 4 0 0 1 1.11-.15h1.1v-.45a1.5 1.5 0 0 0-.08-.49 1.8 1.8 0 0 0-.29-.37 1.6 1.6 0 0 0-.45-.23 1.8 1.8 0 0 0-.57-.09 1.5 1.5 0 0 0-.54.09 1.4 1.4 0 0 0-.42.2 1.5 1.5 0 0 0-.26.29 1.1 1.1 0 0 0-.08.37h-1a1.35 1.35 0 0 1 .17-.63 1.44 1.44 0 0 1 .48-.57 1.7 1.7 0 0 1 .74-.4 2.5 2.5 0 0 1 1-.18 3.5 3.5 0 0 1 .94.15 1.6 1.6 0 0 1 .73.37 2.1 2.1 0 0 1 .51.63 1.9 1.9 0 0 1 .17.86v2.8a5 5 0 0 0 .06.63 2.8 2.8 0 0 0 .14.57v.08Zm-1.78-.77a2 2 0 0 0 .54-.08 1.6 1.6 0 0 0 .48-.2 2.6 2.6 0 0 0 .37-.29 2 2 0 0 0 .22-.34v-1.2h-.93a3.1 3.1 0 0 0-1.39.25.91.91 0 0 0-.48.83 2 2 0 0 0 0 .43 1.2 1.2 0 0 0 .23.32 1 1 0 0 0 .37.2 1.9 1.9 0 0 0 .54.08Zm5.1-5.2v.57a1.6 1.6 0 0 1 .48-.49 1.44 1.44 0 0 1 .71-.2 1.1 1.1 0 0 1 1.1.66 1.27 1.27 0 0 1 .46-.46 1.17 1.17 0 0 1 .71-.2 1.3 1.3 0 0 1 1 .4 1.92 1.92 0 0 1 .34 1.23V435h-1v-4.46c0-.51-.23-.77-.68-.74a1 1 0 0 0-.32 0 .55.55 0 0 0-.19.14.36.36 0 0 0-.15.2l-.08.23V435h-1v-4.46a1 1 0 0 0-.14-.57.59.59 0 0 0-.51-.17.73.73 0 0 0-.48.12.62.62 0 0 0-.28.34V435h-1v-6Z" style="fill:#505c64" transform="translate(-507.52 -283.29)"/></g></svg>