<svg xmlns="http://www.w3.org/2000/svg" id="Capa_1" data-name="Capa 1" viewBox="0 0 349.99 201.72"><defs><clipPath id="clip-path" transform="translate(-507.52 -283.29)"><path d="M507.52 283.29h349.99v201.72H507.52z" style="fill:none"/></clipPath><style>.cls-7{letter-spacing:.01em}</style></defs><path d="M0 0h349.99v201.72H0z" style="fill:#fbfbfb"/><g style="clip-path:url(#clip-path)"><path d="m667.82 396.47 29.42-.09c-4.71 1.17-6 3.12-14.71 3.12s-10.29-2.06-14.71-3Zm5.55-12-4.31.34v5h-2.21c-1 0-1.56-.29-1.81.46v4.86c-4.85-1.72-11.59-8.66-14.37-13.18-7.94-12.87-8.05-29.93.88-42.37a27.4 27.4 0 0 1 3.09-3.86c1-1 2.12-2.34 3.31-3.32 3.75-3 7.09-4.63 8-5.4l.65 1h2.8c-.08 9.64 0 19.33 0 29 0 4.6.26 9.95-.11 14.44-.37 4.26 3 7.32 5.87 8.38a4.7 4.7 0 0 1-1.73.51Zm-.57-52.57c.74.57.51.43 1 1.31.91 1.6 2.07 2.89 2.13 4.55l-.06 26.38a12.8 12.8 0 0 1-3.14 1.72Zm3.49 5.69a30 30 0 0 1 2.84 4.43c1 1.63.65 4.37.65 6.57 0 4.18.37 10.55-.09 14.47l-3.43.91Zm7.71 12.68c.74.83 8.19 13.12 8.42 14a28.5 28.5 0 0 0-8.45-1.69Zm-3.85-6.35a24 24 0 0 1 2.24 3.4c1.07 1.78 1.27 1.75 1.24 4.29 0 3.4.23 7.72-.05 11l-3.46.25Zm-8.7-19.12c36.19-9.84 59.61 28.33 44.13 55.11a33.6 33.6 0 0 1-4.85 6.81c-1.58 1.57-3.91 4.34-6.23 5.52v-2.32l-5.28-.11-.05-5h-4.08l-.17-4.55-1.82-.63a9.45 9.45 0 0 0 5.5-5.37c1.19-3.41-1-6.24-2.29-8.41-2.75-4.52-5.5-9.15-8.23-13.66s-5.38-9-8.22-13.64Zm-30.19 33.33v6.38l.25.74c.45 1.91.28 3.26 1.39 7.2a39 39 0 0 0 2.64 7.06 41 41 0 0 0 26.19 21.87c1.67.46 7.28 1.2 8.11 1.58h5.89l.68-.23c1.79-.46 3.55-.35 7.17-1.4a41.55 41.55 0 0 0 28.69-29.08c.54-2 1.08-7.12 1.56-8.2v-5.92c-.37-.71-.88-5.4-1.67-8.15a44.6 44.6 0 0 0-2.58-6.83 42.58 42.58 0 0 0-19-19.15c-8-3.92-13.53-3.61-14.89-4.32h-6.09c-1.28.63-6.15 1.09-8.11 1.66a39.4 39.4 0 0 0-7 2.66 41.66 41.66 0 0 0-22.85 32.21l-.25 1.46c0 .06-.06.26-.09.23a1 1 0 0 1-.08.23Z" style="fill:#505c64;fill-rule:evenodd" transform="translate(-507.52 -283.29)"/><text style="fill:#505c64;font-size:18.45px;font-family:Rockwell-Bold,Rockwell;font-weight:700" transform="matrix(.98 0 0 1 141.54 142.02)"><tspan style="letter-spacing:.02em">Pr</tspan><tspan x="21.13" y="0" class="cls-7">e</tspan><tspan x="31.93" y="0" style="letter-spacing:.01em">m</tspan><tspan x="50.36" y="0" style="letter-spacing:.01em">i</tspan><tspan x="57.1" y="0" class="cls-7">o</tspan><tspan x="67.9" y="0"> </tspan></text><text style="fill:#505c64;font-size:18.45px;font-family:Rockwell-Bold,Rockwell;font-weight:700;letter-spacing:.01em" transform="matrix(.98 0 0 1 153.06 161.36)">A<tspan x="13.05" y="0" style="letter-spacing:.06em">r</tspan><tspan x="22.48" y="0" style="letter-spacing:.01em">p</tspan><tspan x="34.18" y="0" style="letter-spacing:0">a</tspan></text></g></svg>