<svg xmlns="http://www.w3.org/2000/svg" data-name="Capa 1" viewBox="0 0 349.99 201.72"><defs><clipPath id="a" transform="translate(-507.52 -283.29)"><path d="M507.52 283.29h349.99v201.72H507.52z" style="fill:none"/></clipPath></defs><path d="M0 0h349.99v201.72H0z" style="fill:#fbfbfb"/><g style="clip-path:url(#a)"><path d="M633.43 421.77c-.37-.52-2.49-10.18-2.89-11.07h-3.91l5.1 16.3h3.4l2.35-9.15c.06-.23.12-.43.17-.69l.23-.6 2.69 10.44H644l5-16.29h-3.85l-2.81 11.1c-.43-.72-2.24-9.92-2.72-11.1h-3.57Zm89.46-7.77c5.16-1 5.73 9 1.25 9.84-2.66.45-4.08-1.89-4.22-4.29-.17-2.72.73-5.09 3-5.55Zm-55.13-3.28h-3.91c-.6 1.62-2.33 10.32-2.81 11.12-.48-2.38-1.39-5.81-2-8.38-.2-.8-.43-2.06-.68-2.74h-3.63l-2.58 11.12a2.1 2.1 0 0 1-.34-.78c-.09-.28-.17-.54-.29-.82-.25-.83-1.44-4.46-1.64-4.75a28 28 0 0 0-.88 2.83c-.59 1.92-.74 1.74-.37 2.94.6 1.95 1.14 3.86 1.76 5.81h3.43c.34-1.23 2.52-10.06 2.75-10.41l2.71 10.34h3.46Zm18.74 0h-3.86c-.42 1-2.44 10.4-2.86 11.12l-2.67-11.12h-3.6l-2 8.37c-.23.94-.4 1.86-.71 2.75l-2.18-6.35a30 30 0 0 0-.91 2.83c-.54 1.83-.71 1.77-.34 3 .6 1.92 1.16 3.83 1.76 5.78h3.37c.43-.69 2.38-9.81 2.81-10.44L678 427h3.46Zm10.31 9.49c0 3.63-3.85 4.2-4.79 3.23a1.88 1.88 0 0 1 .66-2.95c.93-.4 3-.25 4.13-.28m-75.62 0a3.18 3.18 0 0 1-1.45 3c-.88.6-2.49 1.06-3.35.2a1.9 1.9 0 0 1 .57-2.92c.88-.43 3.09-.25 4.23-.28m121.15-5a21.4 21.4 0 0 0 2.35-2.2 5.85 5.85 0 0 0-7.14-2.17 4.73 4.73 0 0 0-2.07 6.83 6 6 0 0 0 3.06 2.09c1.05.43 2.89.91 3.26 1.8.45 1.17-.6 2.66-2.61 2.17-1.36-.37-1.9-1.43-2.46-2.63l-3 1.72a6.75 6.75 0 0 0 2.3 3.06c3.54 2.71 9.1 1.17 9.49-3.55.46-5.06-5.47-4.77-6.83-6.29a1.27 1.27 0 0 1 .12-1.86 2.2 2.2 0 0 1 2.15-.11 2.88 2.88 0 0 1 1.42 1.14Zm-27.67-4.49c-2.52-.57-4.08-.31-5.84 1.58l-.71 1v-2.57h-3.91v16.35l3.8-.09c.11-.14.08-.17.08-.54 0-2.46-.14-6.61.37-8.66s1.56-3.61 3.55-3.75a3.22 3.22 0 0 1 2 .43ZM748 424.83c.28 3.37 5.61 3.06 5.19-.69a2.62 2.62 0 1 0-5.19.69m-86.2-57.38 7.77-26.45h10.24l7.71 26.47 8.73-26.47h10.6l-15.31 46h-7.28l-9.61-32-9.53 32h-7.28l-15.31-46h10.6Zm47.53 17.27a7.78 7.78 0 0 1 5.48-13.3 7.78 7.78 0 1 1-5.48 13.3m-93.6 31c.37-1.55 1.88-2 3.35-1.83 1.76.23 2.13 1.26 2.13 3.09-2.53-.06-4.85-.12-6.84 1a4.94 4.94 0 0 0-2.43 5.28c.62 4.06 4.87 4.66 7.34 3.46a7.2 7.2 0 0 0 2.21-1.74 11 11 0 0 1 .4 2h3.2v-8.52c0-2.83-.2-5.17-1.9-6.6-3.26-2.75-9.95-1.75-10.72 3.08Zm75.55 0c.48-.66.76-2.17 3.43-1.83 1.76.23 2.15 1.23 2.12 3.09-2.43 0-5-.15-6.83 1a4.92 4.92 0 0 0-2.44 5.28c.71 4.58 6 4.86 8.56 2.69a13 13 0 0 1 1-1 5.7 5.7 0 0 0 .43 2h3.12v-8.52c0-2.83 0-4.66-1.9-6.58-1.33-1.34-4.4-1.85-6.66-1.25a5.45 5.45 0 0 0-4.06 4.31Zm35.52-3.63a5.4 5.4 0 0 0-3.63-1.63c-4.76-.17-7.37 3.31-7.34 8.55s2.92 8.66 7.56 8.31a4.68 4.68 0 0 0 3.41-1.82v1.57h3.89v-23h-3.88Z" style="fill:#505c64;fill-rule:evenodd" transform="translate(-507.52 -283.29)"/></g></svg>