<svg xmlns="http://www.w3.org/2000/svg" id="Capa_1" data-name="Capa 1" viewBox="0 0 349.99 201.72"><defs><clipPath id="clip-path" transform="translate(-507.52 -283.29)"><path d="M507.52 283.29h349.99v201.72H507.52z" style="fill:none"/></clipPath><style>.cls-4{fill:#505c64;fill-rule:evenodd}</style></defs><path d="M0 0h349.99v201.72H0z" style="fill:#fbfbfb"/><g style="clip-path:url(#clip-path)"><path d="M236.83 98.43c2-2.41 4.17-5.81 6.27-8.24 1.27 1.83-.12 4.55-1.31 5.52-1.73 1.46-3.4 1.74-5 2.72Zm10.65-15.53c1.47 2 3.63 8.32 2.24 12-2.18 5.8-5.64 7.8-6.24 8.89 1.25-3.29 2.64-4.55 3.63-8.95s.51-7.52.37-12Zm8.93 15.58c.71-1.51 1.84-2.06 2.55-4.49 1.64-5.66-3.66-11.43-5.81-15.12a21.4 21.4 0 0 1 4.48 3.52c7.31 7.26 1.81 14.92-1.22 16.09m14.48 2.49v-.51c-2.57-.78-2.4-1.23-5.72-1.32.65-1.23 3.29-2.6 4.73-5.46a21 21 0 0 1 1-2.34v-2.52c-.68-1-1.21-2.86-1.81-3.83-1.45-2.35-3.37-4.6-4.39-6.89-1.17-2.75.39-7.32-4.74-12.21-.93-.91-5.75-4.11-7.34-3.31 1.7 1.71 3 2.28 4.31 4.57 1.42 2.52-.23 5.2-1.9 6.37-3.68 2.61-9.52 2.64-13.72 4.69-2.27 1.12-.76 4.86-.68 7.49.14 3.49-1.22 4.46-3.37 5.92l-8.39 5.43a3.45 3.45 0 0 1-1.31 1l-1.22.29-.17.09H226a.7.7 0 0 1-.17.09c2.7 2.17 7-3 7.66 1-.06.34-2.72 2.83-5.08 2.23-1.27-.35-3.82-1.78-4.39-3 .77-.89 2.44-1 1.76-2.32a7.7 7.7 0 0 0-3.29-.49c-1 .12-.68.35-1.25.83-3 2.49-.14-7.43-.11-8.37.11-1.95-1.08-1.18-1.16-3.81a47 47 0 0 0-.15-5.31c-3.23 4.4.09 7.57 0 9.06-.31 3-2.18 8.2-.12 10.41 1.71 1.77 5.25 2.65 5.62 3.68.48 1.32-.23 1.63-1 2-2.75 1.17-6 2.94-5.9 6.74 1.47-.37 3.12-3.26 7.48-3.43-.51.77-4.13 3.29-5.07 4-1.28 1-3.46 3.26-3.15 6.06 1.76-.75.29-2.43 6-3.69a20 20 0 0 0 3.94-.89c1.22-.6 1.62-1.83 2.52-2.54l-.48 1.83c1.14-.46 4-3.52 9.13-4.4-1 .77-2.38 1.45-3.57 2.23-11.82 7.4-15.14 12.57-23.61 18.61-1.79 1.25-5.45 3.6-7.86 4.2-3.57.86-6.54-2.06-10.29.14-2 1.17-.85 1.49-2.46 3.43a5 5 0 0 0-.65 5c.56 1.6.87.71 3.79 2.11s2.24.46 4.91.32c3.77-.26 7.65.94 11.34.31 5.95-1 7.82-8.41 24.83-11.26 9.64-1.63 10.49-1.2 15.82-8.21 6.18-8.15 8.07-7.43 16.63-7.69-1.38-2.92-11.76-4.06-18.45 1-4 3-4.48 7.38-14.85 10-9.61 2.4-13.78 3.63-20.72 9.95-3 2.74-4.28 5-11.12 2.8a8 8 0 0 0-2-.32l-.79-.28c.9-1.57 2.94-.43 6.54-2.37 1.05-.58 1.28-.58 1.7-1.55-1.67 0-4.81 1-7.08 1.26-5.7.63-2.27 3.26-4.51 3.95-1.64-4.92 5-4.49 8.28-5.61 3.12-1.06 6.74-3.4 9.44-5.09 13.74-8.54 14.45-12.58 34.27-23.55a50 50 0 0 1 22.5-6.55ZM172.23 108.06l-12.75-20.9h-7.76v34.19l8.47-.05-.28-20.27c.06.06.14.11.17.14l11.04 17.54c.57.91.91 1.54 1.59 2.63l7.6-.09V87.16l-8.39.06ZM128.07 94.65c12-3.29 15.73 16 4.67 19.16-11.76 3.31-16.35-16-4.67-19.16m-15.68 10.06a17.65 17.65 0 0 0 18.48 17.18 16.94 16.94 0 0 0 12.36-5.51 17.2 17.2 0 0 0 5-12.67c-.28-5.69-3.29-11.72-8.14-14.46a17.34 17.34 0 0 0-10.48-2.72 17.6 17.6 0 0 0-17.22 18.18" class="cls-4"/><path d="M207.48 111.18c0-4.75-3.12-7.29-6.72-9.07-1.67-.83-5.61-2.43-7.06-3.43a2.45 2.45 0 0 1-.59-3.4 3 3 0 0 1 3.57-1.14c1.62.54 1.28 1.46 2 3.08h8.45c1.67-13.86-23.44-14.18-23.19-.48.17 9.75 12.51 9.52 14.57 13.35 1.51 2.8-2.4 5.8-4.9 3.63-1.36-1.2-.88-2.17-1.56-3.83h-8.59c-.11 7.77 3.89 11.46 11.2 12 7.51.51 12.84-3.09 12.84-10.72Z" class="cls-4"/><path d="M211.48 97.34c.79-4.09-2.36-5.83-3.8-13.24-.79-4 1.81-2.74 3.94-7.72.68-1.6.74-2.83 1.64-4.26a46.5 46.5 0 0 1 5.25-6.37c-2.61 8.86-9.47 13.61-8.68 19.44a18.8 18.8 0 0 0 1.85 5.17c2.29 4.78-.83 6.66 2.18 11.67a9.73 9.73 0 0 0 3.4 3.69c-.79-3.29-2.3-.23-.74-8.47.71-3.74-.17-5.94-1.27-9-1.42-3.95-.74-5.09 1-8.21a21.6 21.6 0 0 0 3.2-7.63c.74-3.63.4-5.46 2.92-7.81 4.31-4.06 13.32.2 14.71 3.69 1.11 2.86-2.29 5.06-1.61 8.29 1.58 0 7.05-5.23 8.3-6.37s2.78-2.49 2.27-5.06c-.71-3.72-9.64-3.18-12.47-6-1-.94-.8-1.17-2.13-1.69-4.65-1.85-6.55 1.75-10.57 3.49-3.72 1.6-7.8 1.69-10.4 4.43-2 2.15-1.08 6-3.77 11.15-.88 1.66-2.1 2.89-2.24 5.23s.62 4.24 1.27 6.24c1.11 3.31 1.7 4.8 3.88 7.14a8.6 8.6 0 0 1 .8 1c.59.82.31.65 1 1.14ZM79.11 121.33l18.8.03-.09-7.81-9.92-.14.03-26.24h-8.82zM148.67 85.22h5.76l-.2-13.47c.59.29 5.9 9.12 6.41 9.95a39 39 0 0 1 2.12 3.52h5.27v-23.1l-5.72-.09.17 14c0-.06-.06-.2-.09-.14l-8.5-13.87h-5.22ZM126.14 85.07l5.75.12-.14-13.48c.77.92 7.71 11.78 8.48 13.5h5.27V62.05h-5.76l.17 13.87c-1.87-1.75-7.93-13.64-9.07-13.87h-4.7ZM100.23 121.3h8.56c.28-1.15.28-33 0-34.14h-8.62ZM79.11 71.21v4.14c.48.95.6 2.46 1.25 3.69 5 9.72 20.21 8.32 22.39-2.71h-6.38c-1.41 5.68-11.22 5.31-11.33-2.75a6.37 6.37 0 0 1 4.53-6.46c3.43-1.06 5.7 1.37 6.89 3.66l6.26.06c-1.56-5.84-5.84-9.38-11.79-9.21a11.43 11.43 0 0 0-7.68 2.75 10.1 10.1 0 0 0-2.47 2.94l-1.16 2.66a2 2 0 0 1-.23.6 2.2 2.2 0 0 1-.28.6ZM113.38 69.71l2.1 7.21-4.39-.09Zm-11.65 15.41h6.46l1.22-3.35h7.8l1.08 3.35h6.35l-9-23.1h-4.65ZM191.05 77.41h-5.64c.09 4.83 2.1 7.66 6.66 8.06 4.85.43 8.87-1.17 9.5-5.43 1.41-9.6-11.11-8-9.81-12.15a1.85 1.85 0 0 1 2.3-1.11c1.21.2 1.13.8 1.58 2.09h5.76c1.07-9.17-15.39-9.74-15.68-.65-.2 6.63 7.77 6.83 9.53 8.89a2.14 2.14 0 0 1-.23 2.8 2.06 2.06 0 0 1-3.4-.94c-.14-.38-.12-.49-.23-.81-.25-.77.2.46-.14-.4ZM171.24 85.14l12.84.05v-5.26l-7.11-.08.05-3.78h6.81l-.03-5.4-6.75.06-.08-3.35 7.06-.03.05-5.2-12.84-.11z" class="cls-4"/><path d="M233.66 57.89c.59 2.46 6.18 1.63 9 2.31 2.61.69 5.33 2.92 5.76 5.49.88 5.4-10.72 7.78-11.17 11.29 1.7.2 10.15-2 12.27-2.6 12.19-3.31 2.67-11.92-3.11-15.12-2.07-1.17-2.73-1.86-5.56-1.94a28.3 28.3 0 0 0-7.14.57Z" class="cls-4"/><path d="m218.21 79.71 3.43-3.77c1.27-1.55 2.18-2.38 3.6-4.06s2.32-2.72 5.3-1.75c3.43 1.12 1.56 2.72 2.58 5 1.27-.23 1.87-1.81 2.44-3.43s1-3.09-.35-4.29-6.34-3.32-8.58-3c-3.94.6-3.86 3.65-5 6.83-.68 1.8-3.35 7.32-3.4 8.43ZM224.73 92.71c1-1.09.45-3.26.59-4.61.74.41.4.18 1.19.26s1 0 1.25.26c.68 1.4-.51 3.23-.54 4.83 1.45-.71 8.25-12.86 8.45-15.18-2 .52-1.93 2.32-4.28 3.09-1.93.63-2.78 2.11-4.34 3.11-3.8 2.38-4.48-1-4.34 2.49.06 1.46-.17 2.26.54 3.32a10 10 0 0 1 .77 1.06 10.4 10.4 0 0 0 .71 1.37" class="cls-4"/></g></svg>