<svg xmlns="http://www.w3.org/2000/svg" id="Capa_1" data-name="Capa 1" viewBox="0 0 349.99 201.72"><defs><clipPath id="clip-path" transform="translate(-507.52 -283.29)"><path d="M507.52 283.29h349.99v201.72H507.52z" style="fill:none"/></clipPath><clipPath id="clip-path-2" transform="translate(-507.52 -283.29)"><path d="M682.53 392.09a36.88 36.88 0 1 1 36.54-36.88 36.72 36.72 0 0 1-36.54 36.88" style="fill:none;clip-rule:evenodd"/></clipPath><style>.cls-5{fill:#505c64}</style></defs><path d="M0 0h349.99v201.72H0z" style="fill:#fbfbfb"/><path d="M703.16 408.47a3.45 3.45 0 0 0-.73-2.28 2.37 2.37 0 0 0-2-.89 2.29 2.29 0 0 0-1.93.89 3.43 3.43 0 0 0-.7 2.28v1.46a3.58 3.58 0 0 0 .7 2.32 2.35 2.35 0 0 0 1.93.86 2.46 2.46 0 0 0 2-.86 3.7 3.7 0 0 0 .71-2.32Zm.71 1.46a4 4 0 0 1-.93 2.75 3.15 3.15 0 0 1-2.5 1.05 3.07 3.07 0 0 1-2.44-1.05 3.93 3.93 0 0 1-.9-2.75v-1.43a4 4 0 0 1 .9-2.77 3 3 0 0 1 2.44-1.06 3.13 3.13 0 0 1 2.5 1.06 4.05 4.05 0 0 1 .93 2.77Zm-8.87 3.69h-.71v-8.83h.71Zm-7.29-1.06 3.26-7.77h.88v8.83h-.74v-7.4l-3.11 7.4h-.54l-3.21-7.6v7.6h-.71v-8.83h1Zm-6.35-3.23h-3.91V413H682v.63h-5.25v-8.83H682v.62h-4.51v3.32h3.91Zm-11.9-.33h2.1a2.6 2.6 0 0 0 1.73-.49 1.61 1.61 0 0 0 .53-1.29 1.66 1.66 0 0 0-.53-1.34 2.5 2.5 0 0 0-1.65-.49h-2.18Zm0 .6v4h-.74v-8.81h2.92a3.4 3.4 0 0 1 2.16.6 2.23 2.23 0 0 1 .73 1.83 2 2 0 0 1-.39 1.26 2.16 2.16 0 0 1-1.14.8 2 2 0 0 1 1.19.75 2.3 2.3 0 0 1 .34 1.31v.83a1.9 1.9 0 0 0 .12.74 1.15 1.15 0 0 0 .31.55v.14h-.74a1.33 1.33 0 0 1-.31-.63 3.4 3.4 0 0 1-.09-.8v-.8a1.63 1.63 0 0 0-.53-1.29 2.1 2.1 0 0 0-1.45-.48Zm-7.57-.29h2.3a2.3 2.3 0 0 0 1.61-.54 1.92 1.92 0 0 0 .54-1.4 1.88 1.88 0 0 0-.54-1.4 2.18 2.18 0 0 0-1.61-.58h-2.3Zm40.48 37.88h3.37l-1.64-4.69Zm3.63.63h-3.86l-.88 2.46h-.73l3.2-8.81h.68l3.18 8.81h-.74Zm-6.72-1.8h-3.91v3.66h4.51v.6h-5.25v-8.81h5.22v.63h-4.48v3.29h3.91Zm-6.86 4.26h-.74l-5-7.55v7.52H686v-8.81h.73l5 7.52v-7.52h.74ZM684 439h.88l-1.5 1.58h-.63Zm-.45 11.27h-.71v-8.81h.71Zm-6.95-.6h4.51v.6h-5.24v-8.81h.73Zm-6 .6h-.71l-5-7.55h-.06v7.52h-.7v-8.81h.7l5 7.52h.06v-7.52h.71ZM739 425.2l1.14 3.17h-2.38Zm-3.94 10.12 1.14-3h5.35l1.08 3h4.23l-6.5-17.93h-2.58l-7 17.93Zm-6 0v-17.9h-3.94v17.9ZM712.4 424.4v-3h4.79a2 2 0 0 1 .94.29c.37.2.6.46.6 1.2a1.17 1.17 0 0 1-.6 1.2 2.5 2.5 0 0 1-.94.29Zm0 6.94v-3h4.85a2.5 2.5 0 0 1 .91.29c.31.17.57.43.57 1.23s-.29 1.05-.57 1.2a2.35 2.35 0 0 1-1 .25Zm4.79 4a5.86 5.86 0 0 0 4-1.6 5.13 5.13 0 0 0 1.5-3.83 5.58 5.58 0 0 0-1.13-3.55 5.28 5.28 0 0 0 1.13-3.43 5.41 5.41 0 0 0-5.35-5.49h-8.88v17.9Zm-25.17 0v-7.46l3.66 7.46h2.81l3.43-7.23v7.23h3.94v-17.9h-3.21L697 429.17l-5.75-11.75h-3.21v17.9H692Zm-15-14a5 5 0 1 1-5 5.09 5 5 0 0 1 5-5.09m0 14a9 9 0 1 0-8.87-8.92 8.93 8.93 0 0 0 8.87 8.92m-10 0v-4h-8.67v-13.86h-3.91v17.84Zm-23.7-14a5 5 0 1 1 0 10.09 5 5 0 0 1 0-10.09m0 14a9 9 0 1 0-8.87-8.92 8.94 8.94 0 0 0 8.87 8.92m-16.24.06a8.83 8.83 0 0 0 6.58-2.95l-2.87-2.63a5 5 0 0 1-3.71 1.69 5.09 5.09 0 0 1 0-10.18 5 5 0 0 1 3.71 1.69l2.87-2.6a8.92 8.92 0 1 0-6.58 15Zm35 10.66h-3.94v3.66h4.53v.6h-5.24v-8.81h5.22v.63h-4.51v3.29h3.94Zm-.2-36.08v3.66h-.71v-8.83h3a3.06 3.06 0 0 1 2.12.71 2.75 2.75 0 0 1 0 3.75 3.1 3.1 0 0 1-2.12.71Z" class="cls-5" style="clip-path:url(#clip-path)" transform="translate(-507.52 -283.29)"/><g style="clip-path:url(#clip-path-2)"><path d="M143.83 93.85c-30.08-32-2.64-58.75 34-59.66-21.94 9.46-30.59 24.07-3.46 55-9.49 8.69-19.53 8.46-30.58 4.63Z" class="cls-5"/><path d="M187.71 45.71c-.43-6.49-4.11-8.26-7.37-10.75 61 6.54 18 114.61-35.24 61.15 42.61 16.52 59.81-55.35 35.24-61.15-21.32 6.63-23.64 22.47-17.21 34.7 3.74-10.89 11.28-19.29 24.58-24Z" class="cls-5"/><path d="M175.83 54.43a27.44 27.44 0 0 1 11 15.26c3.32-6 4-13.8 2.44-23.12a21.16 21.16 0 0 0-13.49 7.86ZM215.63 102.71c13.52 5.32-5.19-33.44-5.25-40.08 2.89 12.67-5.41 35.6-16.38 41.51 4.31-2.43 19.61 4.18 21.63-1.43" class="cls-5"/></g></svg>