<svg xmlns="http://www.w3.org/2000/svg" id="Capa_1" data-name="Capa 1" viewBox="0 0 349.99 201.72"><defs><clipPath id="clip-path" transform="translate(-507.52 -283.29)"><path d="M507.52 283.29h349.99v201.72H507.52z" style="fill:none"/></clipPath><style>.cls-4,.cls-5{fill:#505c64}.cls-4{fill-rule:evenodd}</style></defs><path d="M0 0h349.99v201.72H0z" style="fill:#fbfbfb"/><g style="clip-path:url(#clip-path)"><path d="m156.98 91.51 4.31-1.18 5.55 8.44a18.3 18.3 0 0 1-7.62-4.49 9.4 9.4 0 0 1-2.24-2.77m26.25 7.29c1.53-2.58 3.91-5.21 4.9-8.47 2 .35 3.66.49 4.85 1.95a23.74 23.74 0 0 1-9.75 6.52m-16.27-9.69 5.55-.49v8.32c-.82-.54-.36-.14-1-.8 0 0-.68-.77-.74-.86-1.5-1.74-3.37-4-3.74-6.17Zm10.52 7.94v-8.26l5.64.32c-.53 2.31-3.74 6.83-5.64 7.94m-26.26-18.34c7.8 0 7.32-1.54 8.22 6.63l-5.38 2.06c-1.73-2.06-2.5-5.55-2.84-8.69m45 8.72-5.74-1.96 1.27-6.68 6.86-.09c.26 3.29-1.44 6.32-2.32 8.72Zm-10.63-3.29-8-.51v-4.86h8.87Zm-22.2-5.32 9-.08.11 4.72-8 .94Zm14.15-10 7.85-.37 1.22 5.26h-9.1Zm-13.1-.72 7.94.75.11 4.66-9 .23Zm-6.09 5.41-7.06.26a18.8 18.8 0 0 1 .79-4.61l2-4.06 5.36 1.75Zm32.13-6.56 5.64-2a19.9 19.9 0 0 1 2.6 8.72h-7.08Zm-13-11.64c1.62.83 4.93 5.38 5.61 7.92l-5.61.4Zm-10.6 8c.71-2.57 3.8-7.06 5.64-7.83v5.69l-.04 2.54Zm21.6-1.28c-.85-1.48-1.56-2.94-2.41-4.31a35 35 0 0 1-2.66-4c3.88 1.15 8.42 4.46 9.69 7Zm-31.49-1.2a17.86 17.86 0 0 1 9.72-7.15l-5.35 8.35Zm14.71-13.61a29.17 29.17 0 1 0 32 25.19c-1.79-14.69-15.4-27.16-32-25.19" class="cls-4"/><path d="M145.81 22.47a3.4 3.4 0 0 0-1.28.23 2.63 2.63 0 0 0-1.41 2.71v1.3h-1.34v2.32h1.34v6.68h2.69v-6.66h1.84l.26-2.32h-2.1v-1a1.5 1.5 0 0 1 .11-.69.8.8 0 0 1 .74-.29h1.22v-2.28Zm10 5.6c-.42-.86-1.5-1.32-3.26-1.32h-2.74l-.23 2.29h2.55a1.8 1.8 0 0 1 1 .23c.2.11.28.46.28 1.09v.35h-1.27a4.94 4.94 0 0 0-2.35.32 2.08 2.08 0 0 0-1.14 2.14v.06a3.06 3.06 0 0 0 .48 1.68 2.36 2.36 0 0 0 2 .95h.23a5 5 0 0 0 2.43-.66 1.6 1.6 0 0 0 .09.4s0 .11.06.17h2.26v-5.56a4.84 4.84 0 0 0-.37-2.14Zm-2.33 4.43v1a3.1 3.1 0 0 1-1.27.37.76.76 0 0 1-.6-1.2 1.67 1.67 0 0 1 1-.17Zm7.86-5.86a3.75 3.75 0 0 0-3.52 1.66 4.85 4.85 0 0 0-.48 2.63v.6a5.9 5.9 0 0 0 .28 2.23c.6 1.4 1.82 2.09 3.72 2.09.51 0 1-.06 1.33-.09a6.6 6.6 0 0 0 1.47-.31v-2.21a15 15 0 0 1-2.32.32h-.2a1.55 1.55 0 0 1-1.27-.4c-.17-.12-.26-.57-.26-1.32v-1.13c0-.83.09-1.29.28-1.4a1.86 1.86 0 0 1 1.31-.34 17 17 0 0 1 2.49.28v-2.24a11 11 0 0 0-2.8-.37Zm11.42 1.8c-.57-1.23-1.76-1.83-3.6-1.83a6 6 0 0 0-1.87.29 3 3 0 0 0-2 3.14v2.15a4.9 4.9 0 0 0 .31 1.65c.57 1.32 1.85 2 3.8 2a20 20 0 0 0 2-.12 7.7 7.7 0 0 0 1.38-.26v-2.25a14.5 14.5 0 0 1-3 .31h-.23a4.6 4.6 0 0 1-1-.11c-.34-.15-.54-.52-.54-1.12v-.26h5v-1.6a5.3 5.3 0 0 0-.31-2Zm-2.44 1.57v.18h-2.24v-.43c0-.69.31-1 1.11-1a1.16 1.16 0 0 1 .73.2c.26.11.4.48.4 1.08Zm11.51-2.14c-.4-.83-1.36-1.23-3-1.23a7.4 7.4 0 0 0-2 .31v-4.24l-2.73.48v12.32a18.5 18.5 0 0 0 3.63.38 5 5 0 0 0 3.4-.95 2.34 2.34 0 0 0 .6-.83 7 7 0 0 0 .31-2.71v-.89a6.7 6.7 0 0 0-.31-2.6Zm-2.44 2.12v2.28a4 4 0 0 1 0 .52c-.15.54-.63.77-1.39.77h-1.02v-4.2a2.4 2.4 0 0 1 1.27-.37h.43a.92.92 0 0 1 .76 1Zm11.23-1.21c-.54-1.4-1.7-2.14-3.63-2.14h-.26a4.8 4.8 0 0 0-1.58.26 3.14 3.14 0 0 0-2.27 3.34v2a3.8 3.8 0 0 0 .4 1.83c.53 1.18 1.72 1.81 3.54 1.81a5.6 5.6 0 0 0 2.18-.4c1.22-.55 1.82-1.66 1.82-3.41v-1.66a5.6 5.6 0 0 0-.2-1.63m-2.53 1.52v2.41a1.12 1.12 0 0 1-1.19.86h-.08a1 1 0 0 1-1.19-1.17v-2.26a1.7 1.7 0 0 1 .08-.55 1.08 1.08 0 0 1 1-.62h.2a1 1 0 0 1 .54.11c.4.11.59.54.59 1.23Zm10.92-1.52c-.51-1.4-1.67-2.14-3.6-2.14h-.26a5 5 0 0 0-1.61.26 3.12 3.12 0 0 0-2.24 3.34v2a4.2 4.2 0 0 0 .37 1.83c.56 1.18 1.75 1.81 3.57 1.81a5.5 5.5 0 0 0 2.15-.4c1.22-.55 1.84-1.66 1.84-3.41v-1.66a4.7 4.7 0 0 0-.22-1.63m-2.5 1.52v2.4a1.1 1.1 0 0 1-1.2.86 1 1 0 0 1-1.19-1.17v-2.26a1.7 1.7 0 0 1 .08-.55 1 1 0 0 1 1-.62h.23a1.1 1.1 0 0 1 .54.11c.4.11.59.54.59 1.23Zm6.3-7.63-2.75.48v12.56h2.75v-4.17l2.47 4.17h3l-2.8-4.61 2.72-4.35h-3l-2.41 3.96ZM147.14 134.07h-2.66l-1.14 8.58-1.47-8.58h-2.64l-1.47 8.58-1.14-8.58h-2.63l2.52 12.13h2.5l1.53-8.58 1.56 8.58h2.49Zm8 6.07c0-1.63.06-3.84-.9-5a3.12 3.12 0 0 0-2.64-1.2 3.06 3.06 0 0 0-2.61 1.2c-1 1.14-.9 3.35-.9 5s-.06 3.83.9 5a3 3 0 0 0 2.61 1.23 3.06 3.06 0 0 0 2.64-1.23c1-1.14.9-3.34.9-5m-2.4 0a11.2 11.2 0 0 1-.26 3.57.88.88 0 0 1-.82.49.85.85 0 0 1-.79-.49 20.4 20.4 0 0 1 0-7.09.83.83 0 0 1 .79-.46.86.86 0 0 1 .82.46 11.2 11.2 0 0 1 .32 3.55Zm11.05 6.06-1.76-5.24c1.16-.74 1.36-1.88 1.36-3.2 0-2.28-.71-3.69-3.31-3.69h-3.43v12.13h2.38v-4.72h.79l1.48 4.72Zm-2.78-8.44c0 .72 0 1.55-1 1.55h-1v-3h1c.91 0 1 .8 1 1.48Zm9.67 8.44v-2.18h-3.15v-9.95h-2.38v12.13Zm8.25-6.06c0-1.58 0-3.75-.91-4.89a3.19 3.19 0 0 0-2.64-1.18h-3.37v12.13h3.37a3.19 3.19 0 0 0 2.64-1.18c1-1.11.91-3.31.91-4.88m-2.41 0a10.2 10.2 0 0 1-.29 3.34.93.93 0 0 1-.87.54h-1v-7.74h1a.9.9 0 0 1 .87.51 10.4 10.4 0 0 1 .29 3.35m13.55 6.06v-12.13h-2.39v4.89h-2v-4.89h-2.38v12.13h2.38v-5.06h2v5.06Zm9.55 0-3.09-12.13h-2.35l-3.09 12.13h2.49l.4-1.89h2.75l.4 1.89Zm-3.34-4.06h-1.8l.94-4.49Zm10.77.6h-2.41a2.5 2.5 0 0 1-.17.94.85.85 0 0 1-.82.49.79.79 0 0 1-.8-.49 18.7 18.7 0 0 1 0-7.09.77.77 0 0 1 .8-.46.78.78 0 0 1 .79.46 2.5 2.5 0 0 1 .2.94h2.38a4 4 0 0 0-1-2.71 3.2 3.2 0 0 0-2.32-.86 3.15 3.15 0 0 0-2.64 1.2c-1 1.14-.88 3.37-.88 5s-.08 3.81.88 4.95a3.46 3.46 0 0 0 5 .34 4 4 0 0 0 1.08-2.71Zm8.87 3.46-2.78-7.09 2.41-5h-2.41l-2.27 5.21v-5.21h-2.39v12.13h2.41v-2.81l.77-1.62 1.73 4.43Zm-79.23 15.15v-1.64l-1.27-2 1.27-1.94v-1.63l-2.21 3.66Zm-2.55 0v-1.64l-1.28-2 1.28-1.94v-1.63l-2.27 3.57Zm84-3.55-2.29-3.57v1.63l1.27 1.94-1.27 2v1.6Zm-2.55 0-2.3-3.57v1.63l1.28 1.94-1.28 2v1.6Zm-71.8 1.18a3.4 3.4 0 0 0-.74-2.46 1.57 1.57 0 0 0-.82-.46 2 2 0 0 0 .77-.49 2.9 2.9 0 0 0 .7-2.2 3.16 3.16 0 0 0-.68-2.43 2.44 2.44 0 0 0-2-.71h-2.15v12.12h2.15a2.72 2.72 0 0 0 2.1-.69 3.62 3.62 0 0 0 .71-2.68Zm-1 0c0 1.94-.65 2.45-1.79 2.45h-1.19v-4.91H141c1.14 0 1.79.68 1.79 2.46m-.12-5.61c0 1.63-.59 2.26-1.67 2.26h-1.19v-4.49H141c1.08 0 1.67.49 1.67 2.23m8 6.46v-9.6h-1v9.69a1.5 1.5 0 1 1-3 0v-9.69h-1v9.6a2.7 2.7 0 0 0 .71 1.95 2.58 2.58 0 0 0 1.78.71 2.48 2.48 0 0 0 1.76-.71 2.6 2.6 0 0 0 .71-1.95Zm6.38 2.52v-.92h-3.18v-4.72h2.75v-.92h-2.75v-4.69h3.18v-.91h-4.17v12.12Zm7.28 0v-12.12h-1v9.46l-3.38-9.46h-1v12.12h1v-9.44l3.38 9.44Zm7.37-6.06c0-3.72-.08-4.66-.85-5.46a2.35 2.35 0 0 0-1.81-.72 2.29 2.29 0 0 0-1.79.72c-.77.8-.85 1.74-.85 5.46s.08 4.66.85 5.49a2.4 2.4 0 0 0 1.79.71 2.46 2.46 0 0 0 1.81-.71c.77-.83.85-1.78.85-5.49m-1 0c0 3.54-.09 4.26-.57 4.86a1.36 1.36 0 0 1-1.07.43 1.3 1.3 0 0 1-1-.43c-.51-.6-.6-1.32-.6-4.86s.09-4.26.6-4.83a1.23 1.23 0 0 1 1-.46 1.29 1.29 0 0 1 1.07.46c.48.57.57 1.28.57 4.83m7.82 2.89c0-1.75-.25-2.69-1.56-3.24l-1.27-.51c-1.11-.46-1.3-.89-1.3-2.26a2.36 2.36 0 0 1 .53-1.74 1.4 1.4 0 0 1 1-.4 1.34 1.34 0 0 1 1.11.46 2.2 2.2 0 0 1 .45 1.65h1a3.1 3.1 0 0 0-.71-2.34 2.5 2.5 0 0 0-1.82-.66 2.57 2.57 0 0 0-1.76.63 3.35 3.35 0 0 0-.82 2.4c0 1.83.37 2.52 1.59 3l1.28.55c1 .4 1.27 1 1.27 2.45a2.54 2.54 0 0 1-.48 1.92 1.43 1.43 0 0 1-1.13.4 1.53 1.53 0 0 1-1.14-.4 2.32 2.32 0 0 1-.48-1.8h-1a3.17 3.17 0 0 0 .71 2.49 3.18 3.18 0 0 0 3.77 0 3.53 3.53 0 0 0 .73-2.63Zm10.35 3.17-2.64-12.12h-.9l-2.7 12.12h1.08l.65-3.32h2.78l.68 3.32Zm-1.9-4.23h-2.41l1.19-6.09Zm4.14 4.23v-12.12h-1v12.12Zm7.68 0-1.87-5.6c1-.38 1.47-1.29 1.47-3.15 0-2.83-1.13-3.37-2.58-3.37h-2.38v12.12h1v-5.43h1.56l1.72 5.43Zm-1.39-8.75c0 1.54-.37 2.43-1.56 2.43h-1.41v-4.89h1.41c1.19 0 1.56.89 1.56 2.46m7.51 8.75v-.92h-3.2v-4.72h2.77v-.92h-2.8v-4.69h3.2v-.91h-4.19v12.12Zm6.69-3.17c0-1.75-.25-2.69-1.56-3.24l-1.27-.51c-1.11-.46-1.3-.89-1.3-2.26a2.36 2.36 0 0 1 .53-1.74 1.4 1.4 0 0 1 1-.4 1.34 1.34 0 0 1 1.11.46 2.2 2.2 0 0 1 .45 1.65h1a3.1 3.1 0 0 0-.71-2.34 2.5 2.5 0 0 0-1.82-.66 2.53 2.53 0 0 0-1.75.63 3.3 3.3 0 0 0-.83 2.4c0 1.83.37 2.52 1.59 3l1.28.55c1 .4 1.27 1 1.27 2.45a2.54 2.54 0 0 1-.48 1.92 1.43 1.43 0 0 1-1.13.4 1.53 1.53 0 0 1-1.14-.4 2.32 2.32 0 0 1-.48-1.8h-1a3.17 3.17 0 0 0 .71 2.49 3.18 3.18 0 0 0 3.77 0 3.53 3.53 0 0 0 .73-2.63Zm-48.72 7.94h-2.64l-1.14 8.59-1.5-8.55h-2.63l-1.49 8.55-1.13-8.55h-2.64l2.52 12.12h2.5l1.56-8.57 1.53 8.57h2.52Zm3.4 12.12v-12.12h-2.41v12.12Zm8.81 0v-12.12h-2.41v5.92l-2.49-5.92h-2.1v12.12h2.39v-5.91l2.52 5.91Zm8.85 0v-12.12h-2.38v5.92l-2.5-5.92h-2.1v12.12h2.39v-5.91l2.55 5.91Zm7.4 0v-2.17h-3.15v-2.86h2.69v-2.17h-2.69v-2.74h3.15v-2.18h-5.56v12.12Zm8.61 0-1.75-5.26c1.16-.71 1.36-1.88 1.36-3.17 0-2.31-.74-3.69-3.35-3.69h-3.43v12.12h2.41v-4.71h.8l1.44 4.71Zm-2.8-8.43c0 .72 0 1.54-1 1.54h-1v-3.05h1c.94 0 1 .82 1 1.51" class="cls-5"/><path d="M201.17 106.26c-3.91-.94-8.62 3.83-9.78 6l-.62-2.06c-5 .15-11.28 4.75-11.51 9 5.58.51 10.4-3.4 11.31-6-.28 1.45-.82 2-.31 3.4 1.92.57 4.67-1 6.06-2.2 2.24-1.83 2.38-2.78 4-5.44l1.13 2.09a11.23 11.23 0 0 0 6.15-13.55c-2.92.89-5.64 5.15-6.46 8.75ZM148.56 111.06c.57-.66.34-.2.71-1.29a6.6 6.6 0 0 0 .25-1.31c1.9 4.66 6.72 9.29 10.26 8.15 1.22-3.49-3.85-7.84-6.51-9.49a7.2 7.2 0 0 0-1.85-.86 7.4 7.4 0 0 0-1.3-.23l-1.33-.29c-1-2.83-3.12-7.26-6.35-8.23-2.07 4.89 1.22 11.84 6.12 13.55M201.48 44.42c1.39 2.12 3 3.23 6 4.29-.94.49-.74.17-1.56.94 1.39 3.15 5.52 7.52 10.43 7 .28-3.52-3.77-5.92-6.41-7.21l2.33-1.25c-2-2.18-5.62-6.41-10.75-3.78ZM137.87 48.28l2.75 1.06c-3.14 1.2-7 3.72-6.91 7.38 4.87.28 9.12-3.78 10.29-6.89-.54-1 .22-.06-.54-.66l-.54-.37a2.4 2.4 0 0 1-.34-.15 10.22 10.22 0 0 0 6-4.23c-3.91-2-8.19.09-10.69 3.86ZM141.3 116.89c2.7 3 11.31 4 14.54.78-.28-1.15-.56-1.55-2.55-2.43a12 12 0 0 0-4.33-1.09c-3.12-.2-6.61.66-7.66 2.74" class="cls-4"/><path d="M183.79 120.38c.57 2.12 3.75 3.06 6.24 3.46a13.9 13.9 0 0 0 8.36-1.17c-1.78-4.09-11.17-6.09-14.6-2.29M170.81 119.21c-.76-4.58-6.46-9-12-9 0 5.95 6.58 9.52 12 9M126.73 99.45c1.28 5.49 12 9 13.1 6.84.34-.69-1-2.38-1.53-3a8.66 8.66 0 0 0-2.92-2.49c-3.09-1.89-4.82-1.86-8.65-1.32ZM151.65 122.71a14.25 14.25 0 0 0 8.39 1.14c2-.31 5.64-1.37 6.18-3.46-1.64-1.66-5.36-2.37-8.31-1.8a8.68 8.68 0 0 0-6.26 4.12M202.64 112.63c4.2 2.75 12.56.49 14.57-2.71-3.62-4.12-12.78-1.15-14.57 2.71" class="cls-4"/><path d="M223.34 99.45c-4.31-.57-8.76-.08-11.45 3.52-5.84 7.86 6.26 2.06 6.26 2.06 2-1.2 4.56-3.35 5.19-5.58M194.11 117.26c1.76 3.89 11.88 2.35 14.66-.37-2.53-4.11-12.13-3.31-14.66.37M133.62 90.99c3.83-2 3.8-12.52 1.14-14.75-1.79 1.14-3.07 3.77-3.41 6.58-.28 2.54.12 6.69 2.27 8.17M132.86 109.92c1.78 3.31 10.51 5.26 14.57 2.69a9.54 9.54 0 0 0-6.16-4.24c-2.8-.74-7.11-.34-8.41 1.55M215.68 98.65a12.83 12.83 0 0 0 7.4-3c1.22-.94 4.54-4.12 3.89-6.46-5.47-.71-11.48 4.55-11.29 9.43ZM213.39 82.39c0 2.94.79 7.4 3.06 8.57 3.37-2.48 3.26-12.55-1.53-14.78a16.2 16.2 0 0 0-1.53 6.21M122.65 89.51c1.67 4.54 6 9.06 11.74 9.14-.06-3.28-2-5.34-3.83-6.94-1.28-1.15-5.41-3.72-7.91-2.2M209.93 102.14c4.71-2.29 5.9-11.49 3.06-14.35-3.09 1-6.23 10.84-3.06 14.35" class="cls-4"/><path d="M140.14 102.14c1.76-1.66 1.47-5.34.77-8.09-.49-1.83-2-5.69-3.83-6.26-3.83 4.35-.34 12.58 3.06 14.35M214.15 68.04c0 4.48 2.38 10.37 5.76 11.26 2.38-5.43-1-13-5.39-13.95-.08 1-.37 1.6-.37 2.69M128.24 79.76a12.67 12.67 0 0 0-2.61-7.92c-1.14-1.4-4.4-3.86-6.83-3.66-.46 4.86 5.16 11.23 9.44 11.58M130.56 89.76c-.14-5.66-4.93-10.69-10.74-10.46.71 4.32 5.72 10.61 10.74 10.46M221.81 79.84c5.89-1 10.12-8.8 9.32-11.52-2-.6-9.44 2.75-9.32 11.52M129.4 73.87c0 2.14-.17 3.46.73 5.43 5.5-1.4 5.53-9.55 5.39-13.95-2.58.48-6.12 5.14-6.12 8.52" class="cls-4"/><path d="M221.92 71.81c2.07-.29 4.34-2.83 5.44-4.72a15.44 15.44 0 0 0 2.12-8.38c-4.45.32-8.56 6.09-7.57 13.07ZM128.04 71.71c1.53-5.51-2.87-12.6-7.46-13a14.2 14.2 0 0 0 2.1 8.35c1.13 1.95 3.57 4.66 5.36 4.63ZM219.48 89.76c5.3.06 9.75-6.11 10.74-10.46-5.84-.26-10.65 4.86-10.74 10.46" class="cls-4"/><path d="M124.81 53.71c0 3.83 1.55 9.58 4.59 10.12 2.41-5.26.22-12.58-3.83-13.6a12.3 12.3 0 0 0-.76 3.48M220.56 63.89c2.3-.63 3.4-3.4 4-5.46 1-3.66.76-4.77-.06-8.2-4.54 1.05-5.84 7.89-3.94 13.66M130.56 66.12c5.07-.29 9.13-5.09 9.95-9.32-5.44 0-9.84 3.83-9.95 9.32M219.48 66.12a9.72 9.72 0 0 0-3-6.66 8.9 8.9 0 0 0-6.92-2.66c.8 4.43 5.08 9.06 9.95 9.32ZM132.09 54.86c2.86-5.18 1.28-11.27-1.93-12.47-1.81 2.46-1.64 8.44.65 11.44 1 1.26.2.6 1.28 1ZM216.48 48.71c0 2.83.06 3.69 1.53 6.18 3.09-1.4 4.25-9.81 1.76-12.61a8.46 8.46 0 0 0-3.29 6.43M175.4 110.35c-4.42 2-3 8.72-.65 9.12 2 .34 5.56-5.12.65-9.12M186.15 125.81c-.71-3.48-6-4.66-9.95-4.66-.06 4.43 5.61 6.18 9.95 4.66M173.84 121.21a15.1 15.1 0 0 0-6.2 1c-1 .43-4.65 2.34-3.43 3.63 1.61 1.75 9.58.12 9.63-4.63M134.39 41.71c0 2.34.14 4.11 1.53 5.86 3.2-1.89 3.77-9.24.39-11.3a13.3 13.3 0 0 0-1.92 5.44M211.48 41.31c0 2.11.65 6 3.06 6.2.68-3 2-4.35.37-8.89-.51-1.46-.48-1.69-1.67-2.35-.8 1.46-1.76 2.72-1.76 5Z" class="cls-4"/></g></svg>