<svg xmlns="http://www.w3.org/2000/svg" data-name="Capa 1" viewBox="0 0 349.99 201.72"><defs><clipPath id="a" transform="translate(-507.52 -283.29)"><path d="M507.52 283.29h349.99v201.72H507.52z" style="fill:none"/></clipPath></defs><path d="M0 0h349.99v201.72H0z" style="fill:#fbfbfb"/><g style="clip-path:url(#a)"><path d="M631.73 358.1a6.31 6.31 0 0 0 0 12.61 6.06 6.06 0 0 0 6.07-5.29v-1.6h-6.75v1.63h4.59a3.69 3.69 0 0 1-3.91 3.43 4.48 4.48 0 0 1 0-8.95 3.48 3.48 0 0 1 3.29 1.89h2.41a5.84 5.84 0 0 0-5.7-3.72m17.27 7.61a4.95 4.95 0 1 0-9.89 0 4.75 4.75 0 0 0 4.85 5.06 4.9 4.9 0 0 0 5-5.06Zm-7.85 0c0-2.23 1.33-3.29 2.86-3.29s2.92 1.06 2.92 3.29a3 3 0 0 1-3 3.28c-1.51 0-2.81-1.08-2.81-3.28Zm19.08 0a5 5 0 1 0-9.9 0 4.76 4.76 0 0 0 4.85 5.06 4.9 4.9 0 0 0 5-5.06Zm-7.86 0c0-2.23 1.37-3.29 2.87-3.29s2.92 1.06 2.92 3.29a3 3 0 0 1-3 3.28c-1.5 0-2.81-1.08-2.81-3.28Zm9.19-.06c0 3 2 5.12 4.56 5.12a4.21 4.21 0 0 0 3.38-1.63v1.63a2.61 2.61 0 0 1-2.73 2.91 2.68 2.68 0 0 1-2.74-1.71h-2c.26 2.17 2.19 3.46 4.76 3.46a4.41 4.41 0 0 0 4.74-4.66v-9.95h-2v1.4a4.13 4.13 0 0 0-3.38-1.57c-2.55 0-4.56 2-4.56 5Zm7.94.06a3 3 0 0 1-2.95 3.28 3.08 3.08 0 0 1-3-3.34 3 3 0 0 1 3-3.23 3 3 0 0 1 2.95 3.29m4.64 4.88h2v-13.15h-2Zm8.74-8.23a2.52 2.52 0 0 1 2.72 2.46h-5.36a2.63 2.63 0 0 1 2.64-2.46m4.56 5.32h-2.18a2.32 2.32 0 0 1-2.27 1.37 2.68 2.68 0 0 1-2.78-2.6h7.43c0-.32.05-.66.05-1a4.54 4.54 0 0 0-4.7-4.83c-2.89 0-4.85 2-4.85 5.06a4.73 4.73 0 0 0 4.85 5.06 4.48 4.48 0 0 0 4.45-3.09Zm8.82-3.75v-4h2.21c1.58 0 2.26.75 2.26 2s-.68 2-2.26 2Zm6.54-2c0-2-1.41-3.69-4.33-3.69h-4.23v12.35h2v-5h2.21c3.2 0 4.33-1.91 4.33-3.66Zm1.93 8.66h2v-13.15h-2Zm4-4.94c0 3 2 5.12 4.53 5.12a4.14 4.14 0 0 0 3.41-1.63v1.45h2v-9.77h-2v1.4a4.2 4.2 0 0 0-3.35-1.57c-2.55 0-4.59 2-4.59 5m7.94.06a3 3 0 0 1-2.92 3.28 3.07 3.07 0 0 1-3-3.34 3 3 0 0 1 3-3.23 3 3 0 0 1 2.92 3.29m8.5 2.57-2.75-7.46h-2.22l3.8 9.6-2 4.78h2.07l5.95-14.38H728Zm-90.92 14.52H627v22.41h7.25c7.12 0 11.8-4.23 11.8-11.12s-4.68-11.29-11.8-11.29m-3.63 19.41V385.8h3.63c5.25 0 8 3.15 8 8.29s-2.8 8.12-8 8.12Zm26.45-11.95c2.72 0 4.85 1.72 4.93 4.46h-9.75a4.78 4.78 0 0 1 4.82-4.46m8.25 9.67h-3.94a4.24 4.24 0 0 1-4.14 2.48 4.86 4.86 0 0 1-5-4.71h13.44a10 10 0 0 0 .14-1.8c0-5.24-3.54-8.75-8.56-8.75-5.21 0-8.79 3.57-8.79 9.17s3.75 9.18 8.79 9.18a8.06 8.06 0 0 0 8.08-5.57Zm2-12.5 6.68 17.78h4.34l6.72-17.78h-3.88l-5 14.5-5-14.5Zm27.9 2.83c2.72 0 4.87 1.72 4.93 4.46h-9.75a4.82 4.82 0 0 1 4.82-4.46m8.25 9.67h-3.92a4.3 4.3 0 0 1-4.16 2.48 4.86 4.86 0 0 1-5-4.71h13.47a14 14 0 0 0 .11-1.8c0-5.24-3.54-8.75-8.56-8.75-5.22 0-8.79 3.57-8.79 9.17s3.74 9.18 8.79 9.18a8 8 0 0 0 8.08-5.57Zm4.08 5.28h3.63v-23.87h-3.63Zm25.2-8.89c0-5.6-3.94-9.17-9-9.17a8.72 8.72 0 0 0-9 9.17c0 5.58 3.79 9.18 8.81 9.18a8.84 8.84 0 0 0 9.13-9.18Zm-14.26 0c0-4 2.47-6 5.22-6s5.33 1.94 5.33 6-2.7 6-5.42 6-5.13-1.95-5.13-6m21.51-6.26v-2.63h-3.63v26.22H740v-11a8 8 0 0 0 6.15 2.86c4.65 0 8.27-3.77 8.27-9.26s-3.62-9.09-8.27-9.09a7.73 7.73 0 0 0-6.15 2.91Zm10.71 6.18c0 3.86-2.61 6.06-5.36 6.06s-5.35-2.15-5.35-6 2.63-6 5.35-6 5.36 2.06 5.36 5.89Zm14.74-6c2.72 0 4.88 1.72 4.93 4.46h-9.75a4.78 4.78 0 0 1 4.82-4.46m8.25 9.67h-3.94a4.24 4.24 0 0 1-4.14 2.48 4.86 4.86 0 0 1-5-4.71h13.47a14 14 0 0 0 .11-1.8c0-5.24-3.54-8.75-8.56-8.75-5.22 0-8.79 3.57-8.79 9.17s3.74 9.18 8.79 9.18a8.06 8.06 0 0 0 8.08-5.57Zm7.71-4.06c0-3.78 1.67-4.92 4.34-4.92h.93v-3.8a5.73 5.73 0 0 0-5.28 2.87v-2.6h-3.66v17.78h3.66Zm21.77 4.37c-.2-6.4-10.15-4.4-10.15-8 0-1.18 1.05-2 3-2s3.17 1.06 3.29 2.6h3.65c-.2-3.54-2.8-5.71-6.8-5.71-4.17 0-6.78 2.28-6.78 5.14 0 6.49 10.24 4.49 10.24 8 0 1.23-1.14 2.14-3.23 2.14s-3.41-1.2-3.52-2.66h-3.77c.14 3.23 3.12 5.75 7.34 5.75s6.75-2.26 6.75-5.26Zm-240.3 8.28.22-.14a22 22 0 0 1 1.53-1.6c.57-.52 1-1.06 1.59-1.6l9.61-9.67c3.37-3.4 6.29-6.43 9.55-9.66a9 9 0 0 0 .8-.83c.25-.28 2.12-2 2.41-2.46 0-.43-.39-.52-.73-1l-2.41-2.4c-.43-.43-.2-.25-.82-.83-.15-.14-.29-.25-.43-.37a3 3 0 0 0-.37-.43l-.76-.83a14 14 0 0 1-1.65-1.63c-.2-.28-.57-.48-.82-.77s-.51-.51-.82-.8l-1.56-1.68-.2-.2-1.42-1.38a11 11 0 0 0-1.24-1.23 4 4 0 0 1-.4-.4l-8.59-8.74-.2-.2-.4-.41a2 2 0 0 1-.42-.37c-.11-.11-.06-.08-.17-.2l-1-1c-.31-.4-1.05-.91-1.13-1.28h-.23c-1.22 1-1 4.2-1 5.71v44a3.7 3.7 0 0 0 1 2.4Zm1.36-53.29c.11.4.85.92 1.16 1.29l1 1a1.4 1.4 0 0 1 .17.2c.12.14.31.26.46.4l.39.37c.09.12.09.09.2.2l8.59 8.75a5 5 0 0 0 .4.4 16 16 0 0 1 1.24 1.23l1.42 1.37s.17.2.2.2l1.56 1.69a7.4 7.4 0 0 1 .79.8c.26.29.65.51.85.77a17 17 0 0 0 1.62 1.63l.79.83a5 5 0 0 1 .37.43 2.2 2.2 0 0 0 .43.37c.62.57.39.43.82.83l2.38 2.4c.34.46.74.57.76 1l1-1a4 4 0 0 0 .51-.51c.37-.43 1-.92 1.28-1.32.74-.83 2.47-2.43 3.4-3.4l1-1a10.5 10.5 0 0 1 1.08-1.06l.28-.34c0-.14.09-.14-.45-.4l-.54-.28-6.52-3.75c-.14-.09 0-.06-.25-.14l-9.44-5.41c-1.36-.91-4.23-2.37-5.76-3.31l-7.37-4.18-.28-.14c-.2-.06-.14 0-.28-.08a1.4 1.4 0 0 0-.63-.23 3 3 0 0 0-2.66.45Zm25.54 28.48c-.31.43-2.19 2.14-2.44 2.46a10 10 0 0 1-.77.83c-3.28 3.2-6.18 6.26-9.58 9.66l-9.58 9.66c-.54.54-1 1.09-1.59 1.6a14 14 0 0 0-1.53 1.6l.12.15a.6.6 0 0 1 .2.11c.08 0 .14.09.19.11a3.47 3.47 0 0 0 2.92-.11c.2-.09.23-.17.49-.2 0 0-.15 0 0-.26.39.2.22.12.45-.05l1.67-.95a1.2 1.2 0 0 0 .34-.17c.37-.26.82-.4 1.25-.74.14-.12 0 0 .23-.12l8.78-5c.23-.11.32-.2.49-.29l.48-.25c.71-.46 2.49-1.4 3.34-1.92l1.42-.8.48-.26a9 9 0 0 1 .94-.54l6.57-3.74c.46-.26 3.66-2.06 3.83-2.23-.14-.26-5.7-5.78-6.41-6.49a19.5 19.5 0 0 0-2.21-2.15Zm9.22-9.49a11.5 11.5 0 0 0-1 1.05l-1 1c-.93 1-2.66 2.58-3.4 3.41-.34.4-.94.88-1.28 1.31-.11.14-.34.34-.51.52l-1.05 1 .08-.05a16.3 16.3 0 0 1 2.16 2.16c.71.72 6.27 6.23 6.38 6.49.17.06.11 0 .23.2a17 17 0 0 0 1.7-1c.59-.34 1.1-.63 1.73-1 2.21-1.32 4.62-2.6 6.8-3.92 1.05-.63 2.27-1.63 2.1-3.29-.12-.11-.06 0-.14-.31a.64.64 0 0 0-.12-.29 3 3 0 0 0-.28-.51 5.4 5.4 0 0 0-.79-.8 5.8 5.8 0 0 0-1.48-.92c-.57-.31-.91-.48-1.5-.85l-2.5-1.43c-.31-.23-.05-.17-.51-.23v-.09c.06-.2.06.06 0-.08a1.7 1.7 0 0 1-.73-.29l-3.43-2a5.2 5.2 0 0 0-1-.52c-.15.15-.17.26-.43.38Zm-34.7 34.16-.25.14a2 2 0 0 0 1 .72c1.42.48 2.75-.2 3.88-.86 4.23-2.49 8.51-4.83 12.73-7.32 1.42-.83 2.86-1.63 4.28-2.43.6-.34 12.53-7.15 12.73-7.32-.12-.17-.06-.14-.2-.2-.17.17-3.37 2-3.83 2.23l-6.57 3.75a9 9 0 0 0-.94.54c-.17.11-.34.17-.48.26l-1.42.8c-.85.51-2.63 1.46-3.34 1.91a2.2 2.2 0 0 1-.48.26 3.5 3.5 0 0 1-.49.29l-8.78 5c-.23.09-.09 0-.23.11-.43.35-.88.49-1.25.75-.2.17-.17.08-.34.17l-1.67.94c-.23.17-.06.26-.45.06-.15.23 0 .26 0 .26-.26 0-.29.11-.49.2a3.47 3.47 0 0 1-2.92.11l-.19-.11a1 1 0 0 0-.2-.12Zm-.25-52s.2.08.23 0a3 3 0 0 1 2.66-.46 1.5 1.5 0 0 1 .63.23c.14.08.08 0 .28.08a2 2 0 0 1 .28.15l7.37 4.17c1.53.94 4.4 2.4 5.76 3.32l9.44 5.37a.8.8 0 0 1 .25.17l6.52 3.75.54.28c.54.26.4.26.45.4l.26-.25c-.2-.2-15.62-9-17-9.78s-2.78-1.6-4.25-2.43l-8.51-4.86c-1.19-.69-3-1.63-4.42-.6-.2.14-.37.23-.45.46Zm34.38 17.46-.28.35c.23-.12.25-.23.4-.38a3.9 3.9 0 0 1 1 .52h.06l3.43 2a1.7 1.7 0 0 0 .73.29c0 .14.06-.12 0 .08v.09c.48.06.19 0 .51.23l2.52 1.43c.57.37.93.54 1.47.85a5.6 5.6 0 0 1 1.48.92 5 5 0 0 1 .79.8 1.8 1.8 0 0 1 .28.51.64.64 0 0 1 .12.29c.08.29 0 .2.17.31a4 4 0 0 0-2.41-2.85c-1.08-.63-2.21-1.32-3.29-1.92s-2.21-1.26-3.32-1.89c-.45-.25-3.09-1.83-3.34-1.88Z" style="fill:#505c64;fill-rule:evenodd" transform="translate(-507.52 -283.29)"/></g></svg>