<svg xmlns="http://www.w3.org/2000/svg" data-name="Capa 1" viewBox="0 0 349.99 201.72"><defs><clipPath id="a" transform="translate(-507.52 -283.29)"><path d="M507.52 283.29h349.99v201.72H507.52z" style="fill:none"/></clipPath></defs><path d="M0 0h349.99v201.72H0z" style="fill:#fbfbfb"/><g style="clip-path:url(#a)"><path d="M614 439.55v-.8l.68-.17a3.4 3.4 0 0 0 1-.29 2 2 0 0 0 .42-.66l2.1-6.06 2.44-7.12h1.16l.08.23 1.79 4.69c.42 1 .79 2 1.11 2.92s.59 1.71.82 2.31c.14.35.34.89.56 1.6.15.4.32.89.57 1.49a1.34 1.34 0 0 0 .34.54.93.93 0 0 0 .6.23 3 3 0 0 1 .9.26 2.4 2.4 0 0 1 .06.57v.26c-.51 0-1.08 0-1.7-.09s-1.16-.08-1.64-.08h-1.2l-1.75.08h-.51a7 7 0 0 1 0-.77l1.16-.26a2 2 0 0 0 .59-.23.5.5 0 0 0 .12-.25 1.2 1.2 0 0 0-.06-.32l-.43-1.11-.82-2.26h-3.94c-.14.37-.45 1.26-.9 2.68a2.8 2.8 0 0 0-.2.83c0 .2 0 .32.14.4a1.6 1.6 0 0 0 .91.32 4.4 4.4 0 0 0 .73.11v.57a.7.7 0 0 1 0 .26c-.42 0-1.44-.06-3.06-.17l-.42.09a9.5 9.5 0 0 1-1.45.14Zm4.88-6.43H622c-.2-.69-.48-1.49-.8-2.38s-.62-1.6-.82-2.08Zm8.64-2.83h1.05c.43 0 .83.06 1.19.06s.66 0 1.17-.08a7 7 0 0 1 .9-.06h.37a1.7 1.7 0 0 1 0 .37.8.8 0 0 1 0 .26.84.84 0 0 1-.37.08 2.3 2.3 0 0 0-.62.23c-.06 0-.09.06-.09.14.06.23.12.43.17.6l1 2.58c.34.83.62 1.48.87 2 .15.34.23.57.29.69a20.6 20.6 0 0 0 1.47-3.61l-.48-1.08q-.3-.69-.6-1.29l-.39-.11a5 5 0 0 1-.71-.23v-.63h1.05a8.5 8.5 0 0 0 1.39.06h2.41v.66c-.09 0-.26 0-.54.05a2.8 2.8 0 0 0-.71.17c.34.95.57 1.52.68 1.75l.11.26 1.11 2.65.4.92.39-1c.34-.8.54-1.29.6-1.49.2-.54.31-.89.34-1a4.4 4.4 0 0 0 .48-1.69.36.36 0 0 0-.2-.28 3 3 0 0 0-.76-.29c-.34-.06-.57-.11-.68-.14v-.6a.8.8 0 0 1 .26 0 9 9 0 0 1 .93.06l1 .08c.29 0 .68 0 1.22-.08h.57v.7a4.7 4.7 0 0 0-1.28.55c-.05 0-.08.08-.14.2l-1.56 3.94c-.28.6-.73 1.8-1.39 3.55-.08.22-.14.43-.19.54h-.77l-1.76-4.35-.19-.42a3.4 3.4 0 0 0-.2-.43l-.09.17-1.25 2.86c-.19.43-.36.83-.53 1.14a10 10 0 0 0-.43 1h-.93l-1.54-3.75-1.76-4.18a1.5 1.5 0 0 0-.31-.45 1.24 1.24 0 0 0-.57-.26.8.8 0 0 1-.39-.14v-.32a1.6 1.6 0 0 1 0-.31Zm23.82 7.09.22.17a.36.36 0 0 1 .12.2v.06a2.6 2.6 0 0 1-.66 1.4 1.37 1.37 0 0 1-1 .4 1.7 1.7 0 0 1-1-.38 3.24 3.24 0 0 1-.79-1.31 3.3 3.3 0 0 1-1.28 1.31 4.1 4.1 0 0 1-2 .43 2.32 2.32 0 0 1-1.59-.48 1.8 1.8 0 0 1-.51-1.32 2.7 2.7 0 0 1 .14-.77 3.4 3.4 0 0 1 .51-.77 4.2 4.2 0 0 1 1.08-.83 6 6 0 0 1 .79-.4l2.58-1.14a9 9 0 0 0 0-.89 4.34 4.34 0 0 0-.34-2.09.75.75 0 0 0-.71-.34 2.1 2.1 0 0 0-1 .2 1.6 1.6 0 0 0-.65.57 3.1 3.1 0 0 0-.23 1 2.2 2.2 0 0 1-.14.57 1.3 1.3 0 0 1-.57.4c-.28.11-.45.2-.56.25a2.2 2.2 0 0 1-.88.32.45.45 0 0 1-.14-.4 2.34 2.34 0 0 1 .25-1.12 4.9 4.9 0 0 1 1.11-1.28 5.2 5.2 0 0 1 1.41-.86 6.2 6.2 0 0 1 2.19-.34 2.8 2.8 0 0 1 1.41.34 1.94 1.94 0 0 1 .85 1 8.6 8.6 0 0 1 .23 2.4v3.6a1.3 1.3 0 0 0 .11.66.34.34 0 0 0 .29.17.6.6 0 0 0 .2-.05l.31-.55Zm-3.41-2.63a5.6 5.6 0 0 0-1.33.71 3.3 3.3 0 0 0-1.05 1 1.84 1.84 0 0 0-.22.92 1.3 1.3 0 0 0 .28.82.84.84 0 0 0 .62.32 1.48 1.48 0 0 0 1-.37 2.45 2.45 0 0 0 .65-.77 10 10 0 0 0 .08-1.66v-1Zm4 4.23a.9.9 0 0 1 .34-.2 2.8 2.8 0 0 0 1-.46 10 10 0 0 0 .09-1.86c0-1.91 0-3.23-.11-3.91a.41.41 0 0 0-.17-.32 2.7 2.7 0 0 0-.69-.26.3.3 0 0 1-.25-.25v-.4a3.74 3.74 0 0 0 2.33-1.55 2.7 2.7 0 0 1 .28-.4h.74a4 4 0 0 1 0 .43v1.92a7.3 7.3 0 0 1 .63-1.06 4.3 4.3 0 0 1 .54-.57 1.23 1.23 0 0 1 .79-.29 1.42 1.42 0 0 1 1.36 1.37 1.48 1.48 0 0 1-.31 1 .9.9 0 0 1-.79.43 1.37 1.37 0 0 1-.94-.43.82.82 0 0 0-.45-.25h-.09a.8.8 0 0 0-.4.46 2.55 2.55 0 0 0-.28 1.17v.31c0 .57 0 1.89.06 3.95a1.1 1.1 0 0 0 .19.57 1 1 0 0 0 .37.23 3 3 0 0 0 .68.11 2 2 0 0 1 .57.14.43.43 0 0 1 .11.35 1.6 1.6 0 0 1 0 .31h-1l-2-.08h-2.61a1 1 0 0 1 0-.26 1 1 0 0 1 0-.25Zm9.24-8.21a4.3 4.3 0 0 1 1-.57 6 6 0 0 1 1.33-.26h.57a3.37 3.37 0 0 1 2.18.86v-2.26a6.3 6.3 0 0 0-.28-2.46.54.54 0 0 0-.54-.31 2 2 0 0 1-.62-.17v-.52a1.5 1.5 0 0 1 .51-.08 7.6 7.6 0 0 0 1.22-.23l.34-.09 1-.25a2.4 2.4 0 0 1 .4-.09.5.5 0 0 1 .17 0V434a8 8 0 0 0 0 .92v3.29a2.2 2.2 0 0 0 .91.17 1.8 1.8 0 0 1 .42.06 1 1 0 0 1 0 .25.6.6 0 0 1-.06.29 5 5 0 0 1-.9.17 5.5 5.5 0 0 0-2 .57 1 1 0 0 1-.42.17h-.26v-.28a6 6 0 0 0-.06-1 4 4 0 0 0-.36.25 5 5 0 0 1-1.28.63 4.2 4.2 0 0 1-1.3.18 3.5 3.5 0 0 1-2.07-.55 4.17 4.17 0 0 1-1.59-1.91 7 7 0 0 1-.45-2.46 5 5 0 0 1 1.92-4Zm3.21 7.55a1.8 1.8 0 0 0 .37 0 2.5 2.5 0 0 0 .73-.14 5 5 0 0 0 .82-.46v-.49c0-2.4 0-3.86-.08-4.34a2.5 2.5 0 0 0-.68-1.55 1.83 1.83 0 0 0-1.36-.54 1.7 1.7 0 0 0-.85.2 1.53 1.53 0 0 0-.68.51 3.3 3.3 0 0 0-.57 1.15 5.7 5.7 0 0 0 .43 4.52 2.62 2.62 0 0 0 1.87 1.11Zm11.22-12.81v-.88l2.47.17h1.53c.42 0 1.08 0 1.95-.09l1-.06a10.5 10.5 0 0 1 2 .15 3.9 3.9 0 0 1 1.62.74 4.2 4.2 0 0 1 1 1.43 4.3 4.3 0 0 1 .42 1.74 4.5 4.5 0 0 1-1.13 3.23 3.77 3.77 0 0 1-2.89 1.26 3.4 3.4 0 0 1-1.13-.17 3.6 3.6 0 0 1-1-.46 8 8 0 0 1 0-.91h.79a2.06 2.06 0 0 0 1.5-.55 2.81 2.81 0 0 0 .83-2.25 4 4 0 0 0-.37-1.86 2 2 0 0 0-.82-1 3.35 3.35 0 0 0-1.51-.35 1.9 1.9 0 0 0-1.13.26c0 .09-.06.17-.09.29l.06 5.37v6.72l2.1.29a4 4 0 0 1 0 .45 1.7 1.7 0 0 1 0 .46 3 3 0 0 1-.37.06c-.23 0-.63 0-1.22-.09s-1.28-.08-2-.08a16 16 0 0 0-2.44.17 3 3 0 0 1-.62.06 3 3 0 0 1 0-.49v-.31l.65-.23a4.3 4.3 0 0 0 1.11-.55 2.5 2.5 0 0 0 .08-.6v-4.46l-.11-3.63c-.06-1.71-.09-2.66-.11-2.77a1.4 1.4 0 0 0-.26-.54 1.1 1.1 0 0 0-.59-.26c-.57-.11-.94-.2-1.14-.26ZM688.14 439a.8.8 0 0 1 .34-.2 3 3 0 0 0 1-.46 10 10 0 0 0 .09-1.86 38 38 0 0 0-.12-3.91.67.67 0 0 0-.17-.32 2.5 2.5 0 0 0-.71-.26.26.26 0 0 1-.22-.25v-.4a3.3 3.3 0 0 0 1.39-.6 4.2 4.2 0 0 0 .93-1 4 4 0 0 1 .29-.4h.73a2.4 2.4 0 0 1 0 .43v1.92a6.7 6.7 0 0 1 .62-1.06 3.7 3.7 0 0 1 .54-.57 1.2 1.2 0 0 1 .8-.29 1.42 1.42 0 0 1 1.36 1.37 1.75 1.75 0 0 1-.31 1 1 1 0 0 1-.83.43 1.36 1.36 0 0 1-.9-.43.86.86 0 0 0-.49-.25c-.17.05-.29.2-.4.46a2.5 2.5 0 0 0-.31 1.17v.31c0 .57.05 1.89.05 3.95a1.4 1.4 0 0 0 .2.57 1 1 0 0 0 .4.23 2.6 2.6 0 0 0 .65.11 2.5 2.5 0 0 1 .6.14.63.63 0 0 1 .11.35 1 1 0 0 1-.08.31h-1l-2-.08h-2.61a1 1 0 0 1 0-.26 1 1 0 0 1 0-.25Zm15.7-7.78a4.8 4.8 0 0 1 1 1.63 5.8 5.8 0 0 1 .32 1.74 6 6 0 0 1-.43 2.46 4.5 4.5 0 0 1-1.73 2.09 4.73 4.73 0 0 1-2.55.69 4.63 4.63 0 0 1-2.75-.8 4.9 4.9 0 0 1-1.59-1.83 5.56 5.56 0 0 1-.48-2.52 4.8 4.8 0 0 1 .23-1.54 4.68 4.68 0 0 1 2.89-3.09 6 6 0 0 1 1.7-.23 4.16 4.16 0 0 1 3.37 1.4Zm-5.64 4c.06.94.09 1.48.12 1.62a4 4 0 0 0 .42 1.32 1.5 1.5 0 0 0 .65.63 1.9 1.9 0 0 0 1.08.28 1.66 1.66 0 0 0 1.28-.54 3.17 3.17 0 0 0 .73-1.66 15 15 0 0 0 .14-2.43 5.2 5.2 0 0 0-.62-3 1.87 1.87 0 0 0-1.61-.86 1.83 1.83 0 0 0-1.31.49 2.8 2.8 0 0 0-.74 1.46 17 17 0 0 0-.14 2.66Zm9.95 5.91a4 4 0 0 1-1.87-.91 1.7 1.7 0 0 1-.45-1.17 1.08 1.08 0 0 1 .25-.78 14.5 14.5 0 0 1 2.27-1.57 4.4 4.4 0 0 1-1.42-1.28 3 3 0 0 1-.48-1.63 5.2 5.2 0 0 1 .26-1.55 3.82 3.82 0 0 1 1.58-1.71 5 5 0 0 1 2.61-.6 4.5 4.5 0 0 1 1.1.07 4 4 0 0 1 .71.23l.39.17a5.7 5.7 0 0 1 .94.74 10 10 0 0 0 1.44-.4 2.3 2.3 0 0 1 .66-.11.38.38 0 0 1 .34.2 2 2 0 0 1 .11.89 1.75 1.75 0 0 1-.14.88c-.12.17-.2.26-.31.26a1.2 1.2 0 0 1-.37-.17 3 3 0 0 0-1.14-.37 4.8 4.8 0 0 1 .26 1.48 3.32 3.32 0 0 1-1.65 2.8 4.14 4.14 0 0 1-2.15.66 8 8 0 0 1-.94-.05 7.5 7.5 0 0 1-1-.21 6.2 6.2 0 0 0-1.24.92.6.6 0 0 0-.17.43.57.57 0 0 0 .17.43 1.2 1.2 0 0 0 .62.23l.23.05c.36 0 .85.06 1.44.06h.74a1.2 1.2 0 0 1 .31 0 5.35 5.35 0 0 1 3.46.86 2.85 2.85 0 0 1 1 2.15 2.8 2.8 0 0 1-.34 1.31 3.8 3.8 0 0 1-.93 1.06 6 6 0 0 1-1.73.71 8 8 0 0 1-2.39.32 9.4 9.4 0 0 1-2.46-.29 3.5 3.5 0 0 1-1.73-1 1.54 1.54 0 0 1-.45-1.06 1.38 1.38 0 0 1 .39-1 5.6 5.6 0 0 1 2.07-1.06Zm2.58-4.6a1.43 1.43 0 0 0 1.19-.66 3.42 3.42 0 0 0 .51-2.06 4.47 4.47 0 0 0-.45-2.45 1.47 1.47 0 0 0-1.25-.63l-.54.05a1.63 1.63 0 0 0-.9.78 3.63 3.63 0 0 0-.4 1.83c0 .2 0 .6.06 1.2a2 2 0 0 0 .17.68 2.5 2.5 0 0 0 .36.69 1.5 1.5 0 0 0 .57.4 1.55 1.55 0 0 0 .68.17m.6 8.21a4.34 4.34 0 0 0 2.38-.92 1.21 1.21 0 0 0 .54-.91 1 1 0 0 0-.12-.49 1.3 1.3 0 0 0-.39-.49 2 2 0 0 0-.68-.31 6 6 0 0 0-1.39-.12h-1.28a4.25 4.25 0 0 0-2.27.45 1.56 1.56 0 0 0-.56 1.2 1.15 1.15 0 0 0 .34.8 2 2 0 0 0 1.07.63 5.5 5.5 0 0 0 1.62.23c.17 0 .43 0 .74-.05ZM717 439a1.2 1.2 0 0 1 .36-.2 3.3 3.3 0 0 0 1-.46 11.5 11.5 0 0 0 .08-1.86c0-1.91-.06-3.23-.11-3.91a.76.76 0 0 0-.17-.32 2.5 2.5 0 0 0-.71-.26.31.31 0 0 1-.26-.25v-.4a3.26 3.26 0 0 0 1.39-.6 3.5 3.5 0 0 0 .91-1 3.3 3.3 0 0 1 .31-.4h.74v2.35a6.7 6.7 0 0 1 .62-1.06 3.7 3.7 0 0 1 .54-.57 1.14 1.14 0 0 1 .79-.29 1.21 1.21 0 0 1 .94.43 1.23 1.23 0 0 1 .42.94 1.67 1.67 0 0 1-.31 1 1 1 0 0 1-.82.43 1.5 1.5 0 0 1-.94-.43.73.73 0 0 0-.45-.25h-.09c-.14.05-.25.2-.39.46a2.8 2.8 0 0 0-.29 1.17v.31c0 .57.06 1.89.06 3.95a1.3 1.3 0 0 0 .2.57 1 1 0 0 0 .39.23 2.8 2.8 0 0 0 .66.11 2.6 2.6 0 0 1 .59.14.56.56 0 0 1 .09.35.7.7 0 0 1-.06.31h-1l-2-.08h-2.63v-.51Zm16.13-1.6.22.17a.24.24 0 0 1 .12.2v.06a3 3 0 0 1-.65 1.4 1.5 1.5 0 0 1-1 .4 1.73 1.73 0 0 1-1.05-.38 3.24 3.24 0 0 1-.79-1.31 3 3 0 0 1-1.25 1.31 4.3 4.3 0 0 1-2 .43 2.36 2.36 0 0 1-1.62-.48 1.8 1.8 0 0 1-.51-1.32 2 2 0 0 1 .17-.77 2.5 2.5 0 0 1 .48-.77 4.8 4.8 0 0 1 1.08-.83 6 6 0 0 1 .79-.4l2.61-1.14v-.89a4.34 4.34 0 0 0-.34-2.09.81.81 0 0 0-.74-.34 2.2 2.2 0 0 0-1 .2 1.33 1.33 0 0 0-.62.57 2.34 2.34 0 0 0-.26 1c-.06.34-.08.54-.14.57a1.13 1.13 0 0 1-.57.4c-.28.11-.45.2-.56.25a2.1 2.1 0 0 1-.88.32.56.56 0 0 1-.15-.4 2.34 2.34 0 0 1 .26-1.12 5.2 5.2 0 0 1 1.13-1.28 4.8 4.8 0 0 1 1.39-.86 6.2 6.2 0 0 1 2.19-.34 2.7 2.7 0 0 1 1.41.34 1.8 1.8 0 0 1 .85 1 9 9 0 0 1 .23 2.4v3.6a1.3 1.3 0 0 0 .11.66.35.35 0 0 0 .32.17.7.7 0 0 0 .19-.05l.32-.55Zm-3.41-2.63a5.6 5.6 0 0 0-1.33.71 3.3 3.3 0 0 0-1 1 1.84 1.84 0 0 0-.2.92 1.28 1.28 0 0 0 .26.82.9.9 0 0 0 .62.32 1.48 1.48 0 0 0 1-.37 2.1 2.1 0 0 0 .65-.77 6.7 6.7 0 0 0 .11-1.66c0-.35 0-.69-.06-1Zm4.09 4a1 1 0 0 1 .22-.06 2.6 2.6 0 0 0 1-.23.3.3 0 0 0 .11-.14c0-.09 0-.77.06-2.09v-3.34a1.23 1.23 0 0 0-.23-.78 3.05 3.05 0 0 0-1.19-.57v-.45c.14 0 .28-.09.48-.12a4.9 4.9 0 0 0 1.56-.63 3.5 3.5 0 0 0 1-.91h.57v1.68A6.6 6.6 0 0 1 739 430a4.1 4.1 0 0 1 1.51-.29 3.5 3.5 0 0 1 1.58.4 3 3 0 0 1 1.28 1.32 6.6 6.6 0 0 1 1.22-1.12 4 4 0 0 1 .93-.37 4.4 4.4 0 0 1 1.14-.17 2.77 2.77 0 0 1 2.26 1 3.8 3.8 0 0 1 .85 2.63v4.6a1.1 1.1 0 0 0 .11.43 3.5 3.5 0 0 0 .74.26 1.2 1.2 0 0 1 .39.14v.57a1.2 1.2 0 0 1-.39.06 5 5 0 0 1-.52 0 10 10 0 0 0-1.07 0c-1 0-1.87 0-2.5.08a1.8 1.8 0 0 1-.08-.46v-.14a7 7 0 0 1 .88-.37.55.55 0 0 0 .14-.29 6.6 6.6 0 0 0 0-1.2v-3.23a5.6 5.6 0 0 0-.12-1.34 2.3 2.3 0 0 0-.28-.83 1.56 1.56 0 0 0-.57-.51 1.46 1.46 0 0 0-.71-.2 2.4 2.4 0 0 0-1.16.37 3.34 3.34 0 0 0-1.07 1.08v5.15a1.6 1.6 0 0 0 .14.89c.14.17.48.25 1 .31l.31.11a1.8 1.8 0 0 1 .09.43 2 2 0 0 1-.06.29h-.91a13 13 0 0 0-1.53-.09h-1.1a10 10 0 0 0-1.39.11h-.2v-.71a6 6 0 0 1 1.13-.15.4.4 0 0 0 .15-.05.7.7 0 0 0 .11-.23 3.6 3.6 0 0 0 .06-.94v-2.95a11 11 0 0 0-.11-2.2 1.53 1.53 0 0 0-.59-.92 1.92 1.92 0 0 0-1.14-.34 2.4 2.4 0 0 0-1.44.43c-.43.31-.68.57-.74.8v.43a1.6 1.6 0 0 1-.06.31v4.9a1.2 1.2 0 0 0 0 .28v.17c.2.06.37.12.51.15a1.4 1.4 0 0 1 .57.2 1 1 0 0 1 0 .25 1.3 1.3 0 0 1-.09.43h-.22l-1.05-.08h-1.13a17 17 0 0 0-2 .11h-.31a2 2 0 0 0 0-.4 2 2 0 0 1 .06-.31Zm-43.63-84.87 1.22 3.77h3.94l-3.2 2.35 1.22 3.77-3.18-2.34-3.18 2.34 1.21-3.77-3.17-2.35H689Zm-21.85-15.21 1.21 3.77h3.92l-3.18 2.34 1.22 3.77-3.17-2.34-3.18 2.34 1.22-3.77-3.2-2.34h3.94Zm28.4 0 1.19 3.77h3.94l-3.18 2.34 1.22 3.77-3.17-2.34-3.18 2.34 1.22-3.77-3.2-2.34h3.94Zm-21.88 15.21 1.21 3.77H680l-3.2 2.33 1.22 3.77-3.17-2.34-3.18 2.34 1.22-3.77-3.18-2.35h3.94Zm7.68-26.22 1.19 3.78h3.94l-3.18 2.31 1.22 3.78-3.17-2.35-3.18 2.35 1.22-3.78-3.2-2.31h3.94ZM663 329.51a5.5 5.5 0 0 0 1.39 0 2.8 2.8 0 0 0 1-.45c1.61-.95 2.52-4.32 2.58-6.21a9.6 9.6 0 0 0-2.16 1c-1.59.92-3.49 2.43-3.15 4.58.15 1.08.54.63-.11 1.6a46.5 46.5 0 0 0-4.19 7.4c-4.45 9.9-5 20.39 1 29.68a37.5 37.5 0 0 0 4.16 5.23 49 49 0 0 0 4.94 4.4l.9.66c.34.23.63.46.94.66a77 77 0 0 0 9.84 5.66 79 79 0 0 1-7.57 2.66c-.6.17-4.48 1.25-4.71 1.37l.57 1.94a.4.4 0 0 0 .06.12v.08c1-.23 4.28-1.37 5.45-1.74 2.35-.8 4.62-1.69 6.88-2.63.26-.09 1.51-.66 1.68-.69l5.13 2.09c.56.2 1.13.43 1.7.63 1.13.4 6 2.09 7.17 2.34l.62-2.11a12 12 0 0 0-1.56-.49c-1.58-.4-3.14-.88-4.7-1.4-.94-.31-5.47-1.8-6-2.17.71-.37 1.36-.66 2.07-1 2.32-1.23 3.65-2 5.89-3.4 1.28-.8 2.53-1.66 3.69-2.55.62-.48 1.13-.94 1.76-1.4s1.1-1 1.64-1.46 1.08-1 1.56-1.57a31.5 31.5 0 0 0 6.32-9.26 28 28 0 0 0 1.56-4.69 28.6 28.6 0 0 0 .25-11.29 38 38 0 0 0-1.21-5 46.6 46.6 0 0 0-3.86-8.64c-.57-1-1.16-2-1.81-2.94l-.63-.89c-.17-.31.57-1.11.09-2.63-.6-1.74-2.55-2.89-4.08-3.66a7 7 0 0 0-1.08-.43c0 2 1 5.21 2.63 6.26a3.44 3.44 0 0 0 2.3.43 6 6 0 0 1 .57.83 62 62 0 0 1 3.34 6.23c2.5 5.61 4 11.78 3.26 18.24a26 26 0 0 1-1.67 6.52c-.23.6-.57 1.32-.85 1.89a38 38 0 0 1-2 3.46 34.6 34.6 0 0 1-5.13 5.8 54.5 54.5 0 0 1-6.18 4.69 64 64 0 0 1-7 3.89c-.46.23-3.55 1.66-3.77 1.66s-3.4-1.46-3.83-1.66a63.5 63.5 0 0 1-7-3.92 57 57 0 0 1-4.74-3.43 19 19 0 0 1-1.44-1.29 36 36 0 0 1-5.13-5.77 30 30 0 0 1-2-3.46 25 25 0 0 1-2.55-8.43 32.5 32.5 0 0 1 1.73-14.33c.51-1.4 1-2.6 1.56-3.91s1.16-2.43 1.82-3.63a33 33 0 0 1 2.06-3.38Zm45-4.8c-1.3 1.4-3.4 4.69-3.17 6.78a3 3 0 0 0 .37 1.25l.36.55c.34.43.37.6 1.53 0a2.8 2.8 0 0 0 1-.74c2-2.29.48-7.29-.09-7.92Zm-50.91 0-.14.23a18 18 0 0 0-.74 2.23c-.42 2.14-.48 5.09 1.7 6.17a3 3 0 0 0 1.22.38 6.3 6.3 0 0 0 .74-.92 4.63 4.63 0 0 0-.17-4.06 18 18 0 0 0-2.61-4Zm7.12 58a10.5 10.5 0 0 0 2.52.82 8.7 8.7 0 0 0 3 .18 3.61 3.61 0 0 0 3.06-2c.49-.94.54-1.25-.68-1.91-2.55-1.37-6.26 1.37-7.93 2.89Zm42.26-5a16.5 16.5 0 0 0-4.62-2.06c-1.44-.31-2.72-.43-3.91.63-.37.32-.68.57-.54.95 1.53 4.34 8 1.51 9.07.48m2.35-37.65a3.5 3.5 0 0 0 2.84-1.4 6.92 6.92 0 0 0 1-4.32 13.2 13.2 0 0 0-.48-2.91c-.77.34-2.64 2.74-3.2 3.6a5.8 5.8 0 0 0-.91 2.46 3.45 3.45 0 0 0 .14 1.46 9 9 0 0 0 .62 1.11Zm1.36 4.86a3.5 3.5 0 0 0 .49 1.77 3.45 3.45 0 0 0 2.6-.6c2-1.31 2.47-5.54 2-7.4-1.65 1-5.11 3.63-5.11 6.23Zm-51.58 32.82a.8.8 0 0 0 .26.2 11.4 11.4 0 0 0 4.59 1.66c2.21.17 3.63-.71 4.22-2.34.12-.38-.22-.66-.59-1-1.14-1-2.44-.94-3.89-.6a15.9 15.9 0 0 0-4.59 2.06Zm-1.13-10.63a3.5 3.5 0 0 1 .51-.46c-.48-3.49-6-3.49-8.65-3.2 1 2 4.45 5.77 7.54 4.09a2.7 2.7 0 0 0 .6-.43m43.37 15.61-.43-.38a15.2 15.2 0 0 0-3.51-2.28c-1.11-.49-2.78-1-4-.2a4 4 0 0 0-.9.71c-.17.23.31 4.15 6.37 3a11.3 11.3 0 0 0 2.5-.82Zm-44.62-42.63a7 7 0 0 0 .63-1.09 3.4 3.4 0 0 0 .17-1.42 5.8 5.8 0 0 0-.91-2.49c-.54-.83-2.52-3.38-3.21-3.63a14 14 0 0 0-.48 2.71 10.3 10.3 0 0 0 .26 3 3.63 3.63 0 0 0 3.54 2.94Zm55.33 31.33c-2.52-.74-7-2.28-8.9.6-.37.55-.2.58.14 1.06 2.7 3.66 8.4-.91 8.76-1.66m-58 0c.37.75 2.89 2.29 3.94 2.66 2 .75 3.77.43 4.82-1 .34-.51.48-.51.11-1.11a3.61 3.61 0 0 0-3.31-1.6 17 17 0 0 0-5.56 1.05m.91-24.7a3.36 3.36 0 0 0 .31-2.74 6.3 6.3 0 0 0-1.25-2.15 16.1 16.1 0 0 0-3.68-3.11 10.7 10.7 0 0 0-.06 3 9 9 0 0 0 .65 2.57 3.9 3.9 0 0 0 1.39 1.8 3.5 3.5 0 0 0 2.64.63m57.8 13.93a4.91 4.91 0 0 0 3.54-2.15 11 11 0 0 0 1.81-3.83 17.3 17.3 0 0 0-4.9 1.52c-1.33.68-2.69 1.68-2.61 3.71a3.85 3.85 0 0 0 2.16.75m-57.77-2.83c-1.31-1.83-4.68-2.78-7-3.15a10.9 10.9 0 0 0 2.36 4.46c1.1 1.14 2.72 2.09 4.73 1.06.57-.32.51-.4.4-1.17a3.4 3.4 0 0 0-.51-1.2Zm52.64 8.83a3.8 3.8 0 0 0 2.32 1.29 4.63 4.63 0 0 0 2.81-.75 10.5 10.5 0 0 0 3.48-3.74 17 17 0 0 0-5.55.31 3.55 3.55 0 0 0-3.06 2.89m-53.15-13.24a3.29 3.29 0 0 0-.29-2.74 9.5 9.5 0 0 0-3.6-3.09 5 5 0 0 1-.54-.31l-1.64-.78a9 9 0 0 0 .45 2.92 6 6 0 0 0 2.81 4 3.94 3.94 0 0 0 2.81 0m57.2 0a5 5 0 0 0 1.44.26c2.36 0 3.58-2.32 4.17-4.32a9.2 9.2 0 0 0 .45-2.86c-.34.18-.73.35-1.13.52s-.71.4-1.1.6a9.4 9.4 0 0 0-3.58 3.09 3.45 3.45 0 0 0-.25 2.71m-48.81-6a8.6 8.6 0 0 0-4.6 1.52 3.67 3.67 0 0 0-1.22 4.28c.12.26.18.26.52.29a2 2 0 0 0 .73 0 4.1 4.1 0 0 0 2.58-2 21.3 21.3 0 0 0 2-4.09Zm40.42 0a18.7 18.7 0 0 0 2 4.15c.88 1.2 1.79 2.05 3.35 1.94.34 0 .34 0 .45-.26a3.62 3.62 0 0 0-1.28-4.31 8.1 8.1 0 0 0-4.53-1.52Zm-46-1c2.55 1.17 4.25-.86 5.76-2.63a11.3 11.3 0 0 0 1.27-1.8c-2.27-.37-5.44-.06-6.63 2a3.48 3.48 0 0 0-.4 2.46Zm1.65 13.81c1.61 0 2.58-1.4 3-2.6a19.3 19.3 0 0 0 .88-4.75 9.5 9.5 0 0 0-2.21 1.09 6.2 6.2 0 0 0-1.7 1.51 3.7 3.7 0 0 0 0 4.75ZM701.29 342a10.3 10.3 0 0 0 1.25 1.74 12 12 0 0 0 1.81 1.95 5 5 0 0 0 1.42.88 3 3 0 0 0 2.5-.11c.42-.37-.15-2-.32-2.4a3.6 3.6 0 0 0-1.56-1.49 8.73 8.73 0 0 0-5.1-.57m3.4 17.41a2.86 2.86 0 0 0 2 .83 3.71 3.71 0 0 0 0-4.75 8.6 8.6 0 0 0-3.89-2.6c0 1.63.63 5.23 1.9 6.52Zm-9.24-27.53c1.48 1.46 5.45 4.26 7.71 2.26a2.2 2.2 0 0 1 .43-.37 3.58 3.58 0 0 0-3.18-2.86 9.74 9.74 0 0 0-5 1Zm3.29 4.92a13.4 13.4 0 0 0 1.5 1.51c1 .89 2.47 2.06 3.94 2.2a2.89 2.89 0 0 0 2.36-.74 3.57 3.57 0 0 0-2.67-3.29 9.2 9.2 0 0 0-5.13.32m-40.22 3a2.9 2.9 0 0 0 2.29.74c1.56-.11 3.72-1.83 4.74-2.88a7 7 0 0 0 .73-.83 9.2 9.2 0 0 0-5.13-.32 3.5 3.5 0 0 0-2.63 3.29M671 367.14c-1.84 2.11-3.46 6.48-.34 8.2.6.34 1.42-.77 1.65-1.2 1-1.92-.43-5.49-1.31-7m-9.49-33.42c.48.28.65.85 1.95 1 1.84.29 4.4-1.43 5.78-2.57.15-.11.26-.26.4-.37a9.9 9.9 0 0 0-5-1 3.7 3.7 0 0 0-2 .91 3.37 3.37 0 0 0-1.1 2Zm14 36.5a9.7 9.7 0 0 0-1.16 1.86 8.7 8.7 0 0 0-.74 2.29 3.73 3.73 0 0 0 1.73 4.09c.28.14.31.08.54-.09 1.3-.89 1.56-2.17 1.3-3.83a14.2 14.2 0 0 0-1.67-4.32m18.62-3.08a15.8 15.8 0 0 0-1.59 4.46 4.46 4.46 0 0 0 .29 2.54c.2.43 1 1.51 1.64 1.2a3.67 3.67 0 0 0 1.67-4.15 9.54 9.54 0 0 0-2-4.05Zm-29.68-8.7a18 18 0 0 0-1.87 1.09c-1.84 1.32-3.26 3.69-1.87 6 .37.63.46.6.82.51 2.1-.51 2.64-2.71 2.81-4.72a15 15 0 0 0 .11-2.83Zm36.23 0a17 17 0 0 0 .48 5c.63 1.74 1.16 2.26 2.81 2.63 2.38-2.8.23-5.55-2.3-7.09-.31-.2-.68-.34-1-.54Zm-2.86 4.6c-.06.43-.2.8-.29 1.26-.34 2.05-1 5.63 1.48 6.74.51.26.56.12.91-.23a3.84 3.84 0 0 0 .59-4.51 8.8 8.8 0 0 0-1.16-1.8 9 9 0 0 0-1.53-1.46m-30.53 0a9.55 9.55 0 0 0-2.69 3.31 3.79 3.79 0 0 0 .59 4.46c.4.38.43.49 1 .23a3.41 3.41 0 0 0 1.76-2.77 10.8 10.8 0 0 0-.11-2.74c-.14-.92-.46-2.06-.51-2.49Zm22.22 7.32-.05.11a2 2 0 0 0-.12.26l-.71 1.54a7 7 0 0 0-.39 1.12c-1.28 4 1 5.34 1.53 5.09a3.47 3.47 0 0 0 1.47-1.58 4.23 4.23 0 0 0 .28-2.57 10.7 10.7 0 0 0-1.89-4.12Zm-66.92 50.57c4.36 0 10.14-2.89 14.31-6a127 127 0 0 0 10.77-9.78c-2.27 2.86-6.46 10-8.9 13.41-.26.34-.45.85-.11 1.14s.56-.09 1.07-.54c2.41-2.29 4.85-4.49 8-7.29 2.77-2.43 5.64-4.81 8.44-6.92h.06a56.3 56.3 0 0 0-7 7.52c-1.82 2.31-3.18 4.31-3.12 5.83 0 1.23.85 1.63 1.9 1.57a7 7 0 0 0 3.43-1.68c1-.86 1.81-1.55 2.35-2 .31-.32.48-.49.4-.6s-.31 0-.51.2c-.46.42-1.19 1.05-2 1.74a6.57 6.57 0 0 1-3.2 1.74.51.51 0 0 1-.54-.54c0-1.57 2.3-4.6 4.48-7.35 2-2.51 5-5.8 7-7.92a6.4 6.4 0 0 0 1.59-2.14c.23-.46.17-1.14-.11-1.06s.08.34-.46 1a6.6 6.6 0 0 1-2.83 1.95 13.6 13.6 0 0 1-4.31.77 17.5 17.5 0 0 1-3.09-.23 5 5 0 0 0 .59-.66c.6-.69.68-1 .06-1.11-.42 0-1 .42-1.36.77a8 8 0 0 0-.79.77 63 63 0 0 0-8.62-1.12c-6.55-.25-10.38 2.35-10.8 6.29a4.75 4.75 0 0 0 3.49 5.12c.45.12.76.09.79-.06s-.17-.05-.51-.2a4 4 0 0 1-2.86-4.74c.82-3.83 5.21-5.55 9.8-5.55a46 46 0 0 1 8.34.66c-4.17 3.92-7.88 7.72-11.74 10.58-4.42 3.29-10.09 5.92-13.72 5.92-2.09 0-3.17-.63-3-1.49.08-.46.39-.66.79-1.06a2.1 2.1 0 0 0 .91-1.43c.08-.86-.62-1.46-1.59-1.46a2.75 2.75 0 0 0-2.52 2.89c.11 2.43 2.63 3.06 5 3.06Zm20.29-5.35c2-2.74 5.08-8.43 7.15-11.4a26 26 0 0 0 3.23.23 13.9 13.9 0 0 0 4-.69c-2.18 1.54-4.19 3.11-6.49 5-2.92 2.4-6.26 5.35-7.91 6.83ZM662 414a1.15 1.15 0 0 0-.91-1.6 7.64 7.64 0 0 0-4.2 1.2 18 18 0 0 0-1.92 1.17 14 14 0 0 0-1.28 1c-.45.4-.65.66-.57.8s.2 0 .37-.14a4 4 0 0 0 .51-.43h.06a4.3 4.3 0 0 0-1.19 2.2c-.17 1.38.79 1.75 1.73 1.72 1.58-.09 3.54-1.49 4.62-2.49v.06a2.17 2.17 0 0 0-.59 1.51c0 .52.42.92 1.22.92a6.3 6.3 0 0 0 3.6-1.72c.82-.63 1.81-1.51 2.35-2s.68-.62.57-.77-.34.09-.6.32c-.45.43-1.13 1-2 1.71a11.3 11.3 0 0 1-1.9 1.32c-.34.17-.77.34-1 .17s-.17-.46.11-1a19 19 0 0 1 1.47-2.06c.88-1.12 1.82-2.17 2.36-2.8s.34-.72-.54-.69c-.68 0-1.39.54-2.38 1.6Zm-1.08-1.17c.48 0 .82.2.76.77s-1.56 2.49-2.89 3.69a7.2 7.2 0 0 1-3.54 2 .48.48 0 0 1-.54-.43c-.08-.54.62-1.63 2.35-3.34 1.51-1.52 3-2.66 3.86-2.66Zm13.63 7.09a7.5 7.5 0 0 0 3.77-1.72 31 31 0 0 0 2.53-2.2c.31-.28.42-.45.34-.54s-.2-.06-.54.26-1.31 1.17-2 1.71a10.2 10.2 0 0 1-2 1.32c-.34.17-.82.34-1 .17s-.17-.37.17-.92a16 16 0 0 1 1.39-1.85 7.35 7.35 0 0 0 1.67-2.61c.09-.71-.42-1.14-1.3-1.14-1.25 0-3.09 1.2-4.56 2.29s-2.87 2.34-3.89 3.17c.46-.68 1.34-1.83 2-2.69a3.4 3.4 0 0 0 .91-1.8c0-.48-.26-.94-1.08-.94a4.93 4.93 0 0 0-2.83 1.4c-.77.6-1.71 1.49-2.19 1.95s-.73.68-.65.8.31 0 .71-.38c.59-.54 1.27-1.14 1.81-1.6a9.6 9.6 0 0 1 1.65-1.14c.25-.14.51-.23.62-.06s0 .35-.28.72c-.46.6-1.22 1.57-1.67 2.2-.69.91-1.56 2.31-1.88 2.86s0 .68.57.68a1.4 1.4 0 0 0 1.08-.4c1.84-1.43 2.86-2.4 4.7-3.86a20.6 20.6 0 0 1 3.29-2.14c.43-.23.88-.4 1.11-.26s.11.37-.06.57c-.51.6-1.13 1.32-1.76 2.09-.79 1-1.73 2-1.78 3 0 .72.48 1.12 1.27 1.12Zm12-8.06c2.27-3.06 3.35-4.41 6.44-8.12 2.18-2.6 4.19-4.66 5.58-6.06.88-.83 2-1.69 2.72-1.69a.65.65 0 0 1 .71.8c-.17 1.89-3.91 5.26-7.93 8.78-1.93 1.71-3.52 2.77-7.52 6.29m5.13 6.34c.88-.68 2.13-1.83 2.53-2.2s.39-.45.31-.54-.2-.06-.54.26-1.3 1.17-2 1.71a9.3 9.3 0 0 1-2 1.32c-.34.17-.8.34-1 .17s-.11-.4.18-.92a14 14 0 0 1 1.38-1.85 7.5 7.5 0 0 0 1.68-2.61c.08-.71-.4-1.14-1.31-1.14-1.24 0-3.09 1.2-4.56 2.29s-2.86 2.34-3.88 3.17c1-1.48 2.77-4.09 3.48-4.89 3.12-2.74 6-4.77 8.56-6.89 4.26-3.57 8.31-7 8.62-9a1.19 1.19 0 0 0-1.3-1.52c-1.22 0-2.38.83-3.57 1.69-2.19 1.54-7.32 7-9.76 9.81-1.87 2.14-3.65 4.43-5.07 6.34-1 .8-2.58 2.2-2.72 2.38s-.26.25-.23.4.23.05.46-.15l1.61-1.43c-.51.63-.93 1.2-1.27 1.69a28 28 0 0 0-1.7 2.86c-.32.6-.06.68.53.68a1.4 1.4 0 0 0 1.08-.4c1.87-1.43 2.86-2.4 4.71-3.86a20 20 0 0 1 3.29-2.14c.42-.23.87-.4 1.1-.26s.11.37-.06.57c-.51.66-1.13 1.32-1.75 2.09-.8 1-1.73 2-1.76 3-.06.72.4 1.12 1.25 1.12 1.3 0 2.94-1.09 3.79-1.72Zm10.49-4.2a1.12 1.12 0 0 0-.88-1.6 7.6 7.6 0 0 0-4.19 1.2 17 17 0 0 0-1.93 1.17 15 15 0 0 0-1.27 1c-.46.4-.68.66-.6.8s.23 0 .4-.14a6 6 0 0 0 .54-.49 4.45 4.45 0 0 0-1.19 2.2c-.17 1.38.8 1.75 1.73 1.72 1.59-.09 3.52-1.49 4.62-2.49v.06a2.3 2.3 0 0 0-.57 1.51c0 .52.4.92 1.22.92a6.26 6.26 0 0 0 3.6-1.72c.8-.63 1.82-1.51 2.35-2s.68-.62.57-.77-.34.09-.59.32c-.49.43-1.14 1-2 1.71a11 11 0 0 1-1.9 1.32c-.34.17-.76.34-1 .17s-.17-.46.11-1a19 19 0 0 1 1.48-2.06c.88-1.12 1.81-2.17 2.35-2.8s.34-.72-.54-.69c-.68 0-1.39.54-2.41 1.6Zm-1-1.17c.49 0 .8.2.77.77s-1.56 2.49-2.89 3.69a7.2 7.2 0 0 1-3.55 2c-.28 0-.51-.11-.53-.43-.09-.54.62-1.63 2.35-3.34 1.5-1.52 3-2.66 3.85-2.66Zm6.78 1.74c-1.22 1.6-2.18 3.12-2.27 4.18-.06.65.28 1.2 1.25 1.2a6.85 6.85 0 0 0 3.88-1.75 32 32 0 0 0 2.55-2.23c.31-.31.4-.42.31-.51s-.39.11-.59.29c-.51.42-1.22 1.11-2 1.68a11.2 11.2 0 0 1-1.9 1.29 1.46 1.46 0 0 1-1 .17c-.31-.17-.2-.77 0-1.23a31 31 0 0 1 3-4.66c1-.06 1.64-.06 2.55-.06.34 0 .71.06.76-.2s-.25-.25-.59-.25h-2.38c.82-1.08 1.58-2 2.55-3.11s2.07-2.29 2.55-2.77c0-.12-.2-.26-.62-.26-.88 0-1.9 1-2.64 1.74-1 .95-2.66 2.8-4 4.4a10 10 0 0 0-1.16.06c-.68 0-1.11.09-1.13.26s.17.2.45.2h1.53l-3.05 2.73c-.28.25-.37.42-.28.51s.19 0 .51-.2a19 19 0 0 1 1.67-1.49Zm7 0c-1.22 1.6-2.18 3.12-2.27 4.18-.06.65.28 1.2 1.25 1.2a6.9 6.9 0 0 0 3.88-1.75 32 32 0 0 0 2.55-2.23c.29-.31.37-.42.29-.51s-.37.11-.57.29c-.51.42-1.22 1.11-2 1.68a11.2 11.2 0 0 1-1.9 1.29 1.48 1.48 0 0 1-1 .17c-.34-.17-.2-.77 0-1.23a31 31 0 0 1 3-4.66c1-.06 1.64-.06 2.58-.06.34 0 .71.06.74-.2s-.23-.25-.57-.25h-2.41c.85-1.08 1.61-2 2.58-3.11s2-2.29 2.55-2.77c0-.12-.2-.26-.62-.26-.88 0-1.9 1-2.67 1.74-1 .95-2.64 2.8-3.94 4.4a10 10 0 0 0-1.16.06c-.68 0-1.11.09-1.16.26s.17.2.48.2h1.5c-.79.72-1.93 1.74-3.06 2.75-.28.25-.37.42-.28.51s.19 0 .48-.2c.51-.49 1-.94 1.7-1.49Zm13.35-.57a1.12 1.12 0 0 0-.88-1.6 7.6 7.6 0 0 0-4.19 1.2 16 16 0 0 0-1.93 1.17 14 14 0 0 0-1.28 1c-.45.4-.68.66-.59.8s.22 0 .39-.14a4 4 0 0 0 .54-.49 4.43 4.43 0 0 0-1.16 2.2c-.17 1.38.79 1.75 1.73 1.72 1.59-.09 3.51-1.49 4.62-2.49v.06A2.24 2.24 0 0 0 725 419c0 .52.4.92 1.22.92a6.36 6.36 0 0 0 3.6-1.72c.79-.63 1.81-1.51 2.35-2s.68-.62.54-.77-.31.09-.57.32c-.48.43-1.13 1-2 1.71a9.8 9.8 0 0 1-1.87 1.32c-.34.17-.76.34-1 .17s-.17-.46.11-1a15.6 15.6 0 0 1 1.48-2.06c.87-1.12 1.81-2.17 2.35-2.8s.34-.72-.54-.69c-.68 0-1.39.54-2.41 1.6Zm-1-1.17c.45 0 .79.2.77.77s-1.56 2.49-2.89 3.69a7.2 7.2 0 0 1-3.55 2c-.28 0-.51-.11-.54-.43-.08-.54.63-1.63 2.36-3.34 1.5-1.52 3-2.66 3.85-2.66Zm13.64 7.09c1.3 0 2.92-1.09 3.77-1.72s2.15-1.83 2.52-2.2.42-.45.34-.54-.2-.06-.54.26-1.3 1.17-2 1.71a9.4 9.4 0 0 1-2 1.32c-.34.17-.8.34-1 .17s-.17-.37.17-.92a16 16 0 0 1 1.39-1.85 8.4 8.4 0 0 0 1.68-2.61c.08-.71-.43-1.14-1.31-1.14-1.27 0-3.12 1.2-4.59 2.29s-2.86 2.34-3.86 3.17h-.05c.48-.68 1.36-1.83 2-2.69a3.53 3.53 0 0 0 .88-1.8c0-.48-.25-.94-1-.94a5 5 0 0 0-2.86 1.4c-.74.6-1.67 1.49-2.18 1.95s-.71.68-.63.8.29 0 .71-.38c.6-.54 1.28-1.14 1.82-1.6a9.5 9.5 0 0 1 1.64-1.14c.26-.14.51-.23.62-.06s0 .35-.28.72c-.48.6-1.22 1.57-1.7 2.2a33 33 0 0 0-1.84 2.86c-.34.6 0 .68.54.68a1.4 1.4 0 0 0 1.1-.4c1.84-1.43 2.86-2.4 4.71-3.86a19.3 19.3 0 0 1 3.28-2.14c.4-.23.88-.4 1.08-.26s.14.37 0 .57l-1.78 2.09c-.8 1-1.7 2-1.76 3 0 .72.45 1.12 1.28 1.12Z" style="fill:#505c64" transform="translate(-507.52 -283.29)"/></g></svg>