<svg xmlns="http://www.w3.org/2000/svg" data-name="Capa 1" viewBox="0 0 349.99 201.72"><defs><clipPath id="a" transform="translate(-507.52 -283.29)"><path d="M507.52 283.29h349.99v201.72H507.52z" style="fill:none"/></clipPath></defs><path d="M0 0h349.99v201.72H0z" style="fill:#fbfbfb"/><g style="clip-path:url(#a)"><path d="M579 355.27h118.13V413H579Zm16.69 29.45h5.42l2.63-11.35v11.35h6V365h-8.59l-2.72 11.52L595.7 365h-8.59v19.73h6V373.4Zm25.51.45a10 10 0 0 0 5.22-1.31 8.7 8.7 0 0 0 3.4-3.6 11.84 11.84 0 0 0 1.19-5.41 11.64 11.64 0 0 0-1.19-5.37 8.94 8.94 0 0 0-3.4-3.63 11.25 11.25 0 0 0-10.46 0 8.9 8.9 0 0 0-3.46 3.63 11.64 11.64 0 0 0-1.19 5.37 11.84 11.84 0 0 0 1.19 5.41 8.64 8.64 0 0 0 3.46 3.6 10 10 0 0 0 5.24 1.31m0-5.34a5 5 0 0 1-.93-.12 3.1 3.1 0 0 1-1-.45 3.4 3.4 0 0 1-.9-.86 3.8 3.8 0 0 1-.65-1.43 8 8 0 0 1-.29-2.12 7.7 7.7 0 0 1 .29-2.08 3.8 3.8 0 0 1 .65-1.43 3.05 3.05 0 0 1 .9-.89 3.3 3.3 0 0 1 1-.43 3.7 3.7 0 0 1 .93-.11 3.7 3.7 0 0 1 .91.11 3.6 3.6 0 0 1 1 .43 3.2 3.2 0 0 1 .88.89 4.3 4.3 0 0 1 .63 1.43 7.8 7.8 0 0 1 .25 2.08 8 8 0 0 1-.25 2.12 4.3 4.3 0 0 1-.63 1.43 3.6 3.6 0 0 1-.88.86 3.4 3.4 0 0 1-1 .45 5 5 0 0 1-.91.12m11.4 4.89h10.12a7.73 7.73 0 0 0 5.13-1.63 5.42 5.42 0 0 0 2-4.29 4.86 4.86 0 0 0-2.78-4.57 4.64 4.64 0 0 0 1.9-4 4.57 4.57 0 0 0-1.93-3.86 8.73 8.73 0 0 0-5.22-1.43h-9.18Zm9.21-8c1.22 0 1.84.46 1.84 1.4s-.62 1.4-1.84 1.4h-3.14v-2.8Zm-.14-6.6h.37a1.3 1.3 0 0 1 .4.08 1.1 1.1 0 0 1 .39.2.8.8 0 0 1 .26.4 1.5 1.5 0 0 1 .11.63 1.7 1.7 0 0 1-.11.66 1 1 0 0 1-.26.37 1.2 1.2 0 0 1-.39.23 3 3 0 0 1-.4.06h-3.37v-2.63Zm9.33 14.6h6.15V365H651Zm8.13 0h14.43v-5.49h-8.31V365h-6.12Zm15.93 0h15.54v-5.43h-9.42v-2h7.66v-5h-7.66v-1.95h9.3V365h-15.41Zm-40.28 21.7h14.43v-5.52h-8.31v-14.21h-6.12Zm15.9 0h6.13v-19.73h-6.13Zm8.11 0H665v-6.78h7.49v-5H665v-2.55h8.7v-5.43h-14.9Zm16.27 0h15.54V401h-9.42v-2h7.66v-5h-7.66v-1.95h9.3v-5.43h-15.41ZM786 385.15h-88.87v22.61H786Zm-70.41 20.18h1.5l-6.21-16h-1.44l-6.21 16h1.5l1.7-4.52h7.43ZM710.16 391l3.24 8.49h-6.47Zm20.36 14.29h1.61l4-16h-1.5l-3.35 14-4.19-14h-1.56l-4.23 14-3.34-14h-1.5l4 16h1.62l4.22-14.09Zm17.32 0h1.5l-6.21-16h-1.42l-6.2 16H737l1.67-4.52h7.46ZM742.42 391l3.23 8.49h-6.46Zm15.14-1.72h-6.75v16h1.45V399h5.3a7 7 0 0 0 .77 0l3.4 6.38h1.56l-3.6-6.66a4 4 0 0 0 2.12-1.63 5.1 5.1 0 0 0 .77-2.89 4.73 4.73 0 0 0-1.33-3.57 5.07 5.07 0 0 0-3.69-1.26Zm-.11 1.29a4.07 4.07 0 0 1 2.69.85 4.15 4.15 0 0 1 0 5.38 4.08 4.08 0 0 1-2.69.86h-5.19v-7.09Zm7.55 14.76h5.11a7.13 7.13 0 0 0 5.47-2.17 9.63 9.63 0 0 0 0-11.7 7.2 7.2 0 0 0-5.47-2.14H765Zm5.16-14.75a5.5 5.5 0 0 1 4.31 1.77 8.28 8.28 0 0 1 0 9.92 5.5 5.5 0 0 1-4.27 1.73h-3.71v-13.42Z" style="fill:#505c64;fill-rule:evenodd" transform="translate(-507.52 -283.29)"/></g></svg>