<svg xmlns="http://www.w3.org/2000/svg" data-name="Capa 1" viewBox="0 0 349.99 201.72"><defs><clipPath id="a" transform="translate(-507.52 -283.29)"><path d="M507.52 283.29h349.99v201.72H507.52z" style="fill:none"/></clipPath></defs><path d="M0 0h349.99v201.72H0z" style="fill:#fbfbfb"/><g style="clip-path:url(#a)"><path d="M682.53 342.81a41.35 41.35 0 0 1 37.84 57 183.7 183.7 0 0 0-75.69 0 41.35 41.35 0 0 1 37.85-57m13 32c.4-7.92-6.4-5.55-10.83-6h-.25c-.25 0-.2 0-.31-.11-.74.29-2.07-.17-2.67.14l.51.29a3.3 3.3 0 0 1 .6.26c1.5.85 1.22 2 1.22 3.68 0 1.92.14 15.36-.09 16.24-.37 1.29-1.56.77-1.93 1.37a47.5 47.5 0 0 0 7.35 0c-.6-.77-2.61.58-2.64-3.08v-17.44c1.73-.49 3.09-.69 4.5.37 2.44 1.83 3.07 6.15.94 8.49-1.36 1.49-2.18 1.23-4.39 1.49.36.65 2.32.45 3.09.28 2.55-.6 4.39-3.06 4.87-6Zm-26.76 13.58a1.7 1.7 0 0 1-.45 1.54 1.6 1.6 0 0 1-.6.4 2.3 2.3 0 0 1-.37.12l-.36.22c.31.15 5 0 5.84.06 7.14.14 5.81.6 6.43-2.91 0-.09.06-.38.06-.43l-.06-.46c-.37.51-.37 1-.88 1.6a3.44 3.44 0 0 1-1.59 1 5.18 5.18 0 0 1-4.13-.66c-1.45-.91-1.05-2-1.05-4.06v-5.23c7.39-.28 4.73 1.26 6.15 2.29v-.09a19.7 19.7 0 0 0 .54-4.23c-1.3.26-1.25.77-2.92.74h-3.85V370c2.38 0 5.58-.52 6.12 1.63a1.5 1.5 0 0 0 .31.8 13.3 13.3 0 0 0 .74-3.35v-.6c-3 .69-8.93.26-12.3.26.48.86 1.33.51 2 1s.45 1.45.45 2.28v13.67a15 15 0 0 1-.11 2.54.4.4 0 0 1-.06.12Zm34.67-15.64a41 41 0 0 1 1.3 4.06 36 36 0 0 1 1.22 4.12h-5.24Zm-3.91 6.46a64 64 0 0 1-2.27 6.63 18 18 0 0 1-1.33 3.12c-.94 1.46-2.24 1.2-2.78 1.71.14.09 4.54-.08 5.36 0s.82.12 1.07-.14c-1-.34-1.7-.2-1.53-1.43.12-.86 1.85-6.75 2.41-6.89h6l2.86 7.58a8 8 0 0 0-.87.37c-.46.2-.54.14-.74.54 1.1.06 2.52-.17 3.68-.17.68 0 1.22.09 1.85.14a6 6 0 0 0 1 0 3.4 3.4 0 0 0 .45-.05c.28-.06.14 0 .31-.09l-.48-.2c-2.3-.63-2.32-1.14-3.71-4.06-.91-1.94-1.73-3.86-2.58-5.86l-4.62-12c-.4.29-1.79 4.49-2.1 5.38s-1.64 5.06-2 5.43ZM662 389.32a13 13 0 0 0 1.16-1.12 5.1 5.1 0 0 0 .94-1.54c.82-2.06-.12-3.43-.17-4.2-.35-.29-.88-1.35-1.79-2.23-1.84-1.86-5.05-3.8-6-6a3.54 3.54 0 0 1 5.61-4 4.5 4.5 0 0 1 1.13 1.83 1.47 1.47 0 0 0 .34.77 15.1 15.1 0 0 0 .57-4.09 1.36 1.36 0 0 0-.57-.26 7 7 0 0 0-.73-.11c-3-.46-7 .4-8.56 2.91-4 6.06 11.73 11.58 7.51 17a5 5 0 0 1-4.93 1.41c-3-.92-2.44-3.21-2.78-4-.51.29-.74 2.89-.65 3.38.31 2.37 3.85 2.46 6 1.8a10.8 10.8 0 0 0 2.92-1.46Zm16.72-23.44 2.07.08c-.2-.17-.42-.25-.62-.4a28 28 0 0 1 .37-5.06c.48.52 1.58 3.63 2.8 5.41.82-.8 1.84-4.41 2.72-5.38a18 18 0 0 1 .34 5.4h2.19c-1.22-.62-1.11-.05-1.48-3.4-.11-.88-.2-3.89-.54-4.37a56 56 0 0 0-3 6.32s-.06-.09-.06-.06-.06-.06-.06-.09v-.05l-.26-.52c-.14-.34-.22-.51-.39-.86-.4-.82-2.16-4.6-2.58-4.71l-.68 6.26c-.09.83 0 1.31-.8 1.43Zm-12.39-7.15c1.28-.43 2.13.57 2.22 1.74.11 1.58-.74 2.15-2.3 1.72a18 18 0 0 1 .08-3.46m-1 .89v5c0 .86-.19.89-.68 1.32h2.5c-1.14-.23-.88-1.72-.88-3 1.64-.26 2 .88 2.69 1.8s1.42 1.74 3.06 1.25c-.53-.34-1.24-.25-2.09-1.34a19 19 0 0 1-1.51-2.11 7.1 7.1 0 0 0 1-1.52c1.13-3.12-3.32-2.66-4.74-2.63l.23.23c.37.34.42.4.42 1.06Zm30.79-.89c4-1.37 5.61 5.63 2 6.83-3.85 1.26-5.78-5.51-2-6.83m.31-.51c-5.87 1.31-3.2 8.54 1.33 7.86a3.8 3.8 0 0 0 3.18-4.69c-.4-1.69-2.27-3.69-4.51-3.17m-23.22.14.74.43c.11.77.06 4.54.06 5.8 0 .8 0 1-.6 1.32h4l.17-1.14c-.77.86-1.3 1.17-2.61.26v-3c2.33 0 1.59.15 2.13.72l.23-1.4a7.4 7.4 0 0 1-2.38.23v-2.89c1.7 0 1.73-.14 2.21.83l.32-1.32Zm-13.86.88v3.61c0 2.71.29 2.54-.62 3.08h2.41l-.74-.28c-.11-.57-.28-6.49 0-6.81 1.16-.57 2.07.49 2.18 1.55.2 2-1.41 1.91-1.9 2.06 2.47.94 4.2-3.92 1.05-4.06-.54 0-2.66-.2-3.06.17.54 0 .54.11.65.68Zm43.68-.71c-1.3 1.63-1.27 1.54.49 3.49.79.86 2.75 2.46 1.13 3.37a1.8 1.8 0 0 1-1.67.06c-.54-.32-.46-.63-.71-1.2-.31 1.51 0 2.28 1.87 1.77a2.34 2.34 0 0 0 1.9-2.29c-.11-1-1.22-1.83-1.81-2.28s-1.56-1.4-1-2.29c.32-.52 0-.17.29-.23a1 1 0 0 1 .59-.37c1.05-.17 1.33.89 1.53 1.17l.17-1.46-1.22-.11Zm-13.23 7.38h2.43c-1.16-.57-.82-.74-.82-3.71 0-2.46-.37-3.38.65-3.8h-2.36c.79.37.71.34.71 1.45v4.46c0 1.09 0 1.09-.68 1.58Zm19.75 49.25a29 29 0 0 1-2.43 2 28 28 0 0 0-6.32-.45c1.19-1.26 4.64-2.29 7-2a7 7 0 0 1 1.78.45Zm-3.77 2.95c-.82.6-1.67 1.14-2.55 1.66a5 5 0 0 1-2.29-1.46c1.81-.14 3.14 0 4.84-.2m-9.42 4.89-1.76.6v-.2a3.6 3.6 0 0 0-1.44.26.62.62 0 0 0-.37.45c-.63.17-1.28.32-1.93.46a1.79 1.79 0 0 1 1.11-1.86 7.5 7.5 0 0 1 2.63-.48c.06-1.09-1.58-.95-2.35-.72-.37.12-.62.29-.88.26v-1.46c1.13-.37 4.14-.71 4.88.8a2 2 0 0 1 .11.32Zm-6.07 1.68a38 38 0 0 1-5.55.66v-5.14h1.84v.6a4.5 4.5 0 0 1 1.22-.69 2.3 2.3 0 0 1 1.59.17c1.16.72 1.5 2.89.9 4.43Zm-6.18.69c-.51 0-1 .06-1.58.06-1.22 0-2.41-.06-3.6-.17a2.6 2.6 0 0 1-.51-1 4.3 4.3 0 0 1 .11-2.4 2.78 2.78 0 0 1 1.3-1.49c1.08-.54 3.26-.6 4 .83a3.8 3.8 0 0 1 .34 1 5.5 5.5 0 0 1 0 1.34h-4c.12 1.77 2.22 1.69 3.41 1 .22-.14.22-.23.53-.23Zm-6.66-.28c-.76-.09-1.5-.21-2.24-.32a.9.9 0 0 0 .51-.37.64.64 0 0 0-.28-.94 4 4 0 0 0-1.11-.35 4.2 4.2 0 0 1-2-.83 2.3 2.3 0 0 1 .6-3.74 4.34 4.34 0 0 1 2.32-.43 7 7 0 0 1 2.33.51v1.83c-.29 0-.4-.2-.94-.48-1.19-.63-3-.57-3 .43s2.41.48 3.77 1.91a2.39 2.39 0 0 1 .29 2.26 1.5 1.5 0 0 1-.26.52Zm-3.31-.55-.83-.17c-.28-.11-.56-.23-.85-.37l-.53-.43c-.17-.14-.17.09-.37-.17a6.6 6.6 0 0 1-.77-1.09 4.5 4.5 0 0 1-.62-1.06 8 8 0 0 1-.71-1.57A12.5 12.5 0 0 1 669 418a12.3 12.3 0 0 1-.31-3.11A13 13 0 0 1 680 402.18a12.78 12.78 0 0 1 8.3 1.75c.37.23.68.43 1 .68a7.6 7.6 0 0 1 .91.75 13.07 13.07 0 0 1 4.36 9.4 16 16 0 0 0 1.71 0c0 .12-.12.2-.18.32-.31.46-3 4.26-3.06 4.31s-.31-.45-.39-.57c-.32-.48-2.7-3.94-2.7-4.06h2a10.4 10.4 0 0 0-11.82-9.92 10.13 10.13 0 0 0-5.56 2.69 9 9 0 0 0-.65.72 11.5 11.5 0 0 0-1.64 2.45 10.7 10.7 0 0 0-.91 5.81c0 .23.2 1 .2 1.14l.05.14c.12.35.15.52.29.92s0 .23-.12.4-.14.28-.22.4a5 5 0 0 0-.2.74v.89c.05.14 0-.09 0 .06v.05a4 4 0 0 0 .39.92c.12.05.14.2.43.4a4 4 0 0 0 1.7.71 3.8 3.8 0 0 1 1.44.46.33.33 0 0 1 0 .57 1.5 1.5 0 0 1-.73.2 1.5 1.5 0 0 1-.51 0Zm-2-.48a5 5 0 0 1-.54-.15.13.13 0 0 0 0-.08c.17-.06.28.05.51.23Zm-10.21-4.26c-.88-.52-1.73-1.06-2.55-1.63 1.67.14 3 0 4.82.17a5 5 0 0 1-2.27 1.46m-3.93-2.64c-.85-.62-1.65-1.31-2.44-2a6.8 6.8 0 0 1 1.76-.45c2.32-.29 5.78.74 7 2a28 28 0 0 0-6.32.45m23-6.66c0 .12-.09.09-.09.09h-.08Zm1.93-2.05a.1.1 0 0 1 0-.06c0-.09 0-.12-.14-.14s.09.08.14.14h.16l-.19.09Zm-.06.08v.17-.08.17c.2-.06 0 0 .15 0s.08 0 .17-.06a.13.13 0 0 1 0 .06l.2.11v.06c0 .06-.17 0-.25 0a1 1 0 0 1-.26.11c.06-.08 0-.31-.08-.4l.06-.05v-.09Zm.4.17.22.23zm3.54-.63a2 2 0 0 1-.2-.17 3.2 3.2 0 0 0-.59-.46l-.06-.05c-.06 0 0 0-.09-.06l-.45-.29a3 3 0 0 0-.65-.34 8 8 0 0 0-1.67-.57 7.5 7.5 0 0 0-1.31-.23 8.85 8.85 0 0 0-3.63.52c-.11.05-.17.05-.25.14a6.9 6.9 0 0 0-2 1.11c-.08 0-.39.32-.51.4l-.2.23a1.2 1.2 0 0 0-.22.26.9.9 0 0 0-.29.29 1.3 1.3 0 0 0-.25.31 8.63 8.63 0 0 0-1.42 7.78c.11.4.28.71.4 1.05l.54-.11a3 3 0 0 1 .53-.09 10 10 0 0 1 1.25 0 7 7 0 0 1 2 .6v2.29c-.74 0-.42 0-.82-.23a2.8 2.8 0 0 0-.65-.37 2.84 2.84 0 0 0-1.73-.29 3.6 3.6 0 0 0 .71.8 2 2 0 0 0 .88.6 5.4 5.4 0 0 1 1 .49c.51.34.34.51.9.66a3.5 3.5 0 0 1 .32-1 2.9 2.9 0 0 1 1.73-1.52l.51-.11a5.6 5.6 0 0 1 1.22-.06 3.7 3.7 0 0 1 1.19.35l.51.34c.09.09.17.12.26.2s0 .06.08.12l.12.11a.7.7 0 0 0 .14.23c.05.08.05.14.11.23a3 3 0 0 0 .17.43 1.7 1.7 0 0 0 .09.42 4.3 4.3 0 0 0 0-1 7 7 0 0 0 0-1.12v.49l-.06-.8.28-.12v.4h-.17 2.38v.29a1.8 1.8 0 0 0 .51-.26c.32-.12.26-.06.46-.34a4.8 4.8 0 0 0 .62-1 4 4 0 0 0 .63-1.43l.34-1.14a8.3 8.3 0 0 0 .05-2.77c-.05-.4-.22-1.15-.22-1.23-.17-.4-.26-.8-.46-1.17a8 8 0 0 0-.57-1 4.2 4.2 0 0 0-.65-.92l-.37-.43c-.14-.17-.28-.22-.42-.4Zm-2.1 11.35-.31.09-.06-.63c.06.06.06-.06.06 0v-.06c0-.06.14 0 .25 0v.14c0-.23 0 0 .06-.08ZM679 407.67c-.06.06-.06.09-.17 0s.08 0 0-.08h.12v.05Zm-.86.09c0 .14 0 0 .06.06h.26c.08-.08 0 0 .11-.14 0 .09-.06.06 0 .17s0 .09.06.09h.08s-.08-.06-.08 0v.06h-.23c-.11 0 0 0 0 .08s-.17.15-.48 0a.16.16 0 0 1 .14-.05l.08-.06h-.22v-.09c.06 0 0 .06.06-.08-.2.08-.25.29-.37.17s0 0 .06-.09 0-.14.28-.14h.09Zm2.39 14.35h1.58a.66.66 0 0 0-.79-.66.79.79 0 0 0-.79.66m7.73-6.69c0 .09 0 .23-.11.29 0 .14-.14.17-.25.23s-.29.08-.4.14 0 0-.06.06-.73 0-.9 0c-.46 0-.49 0-.71.28l-.49.32a.6.6 0 0 1-.22.05.86.86 0 0 1-.71-.17 3.6 3.6 0 0 1-.37-.48.5.5 0 0 0-.08-.2c-.06-.12-.12-.2-.17-.32a2.5 2.5 0 0 1-.12-.4c-.08-.2-.28-.63-.19-.85l.11-.09a6.2 6.2 0 0 0 .51 1.6c.17.37.34.74.79.8a.84.84 0 0 0 .77-.28 1.6 1.6 0 0 1 .31-.23c.77-.43 1.64.28 2.27-.75l.05-.11Zm-.51 2c.06 0 .12.09.2-.23l.14-.94c0-.17 0-.14.09-.28s.06-.2.08-.29 0-.4.26-.46a8 8 0 0 1-.14 2.2c0 .15 0 .38-.14.43s-.88.49-1.08.6v-.05c0-.12 0 0-.09-.12.06-.23.15-.26.32-.48l.08-.09c.11-.11.14-.06.23-.2s0 0 0-.06Zm-.76 1.18a.85.85 0 0 0 .37-.15l.79-.43.06-.05h.05l-.28.8a.78.78 0 0 0-.62.17c-.23.17-.17 0-.6.23v-.09a3 3 0 0 1 .17-.34Zm-8.85-3.12c0 .14 0 0 .06.11s0 0 .06.06a1.4 1.4 0 0 1 .11.2 3 3 0 0 1 .29.37l.42.49a3 3 0 0 1 .88.31l.14.09h.06v.05c.09.09.51.61.46.75s-.26.06-.37.08 0 0-.09 0h-.31c0-.06.06.06 0 0l-.25-.2-.14-.11-.06-.06a.16.16 0 0 1-.08-.08 1.7 1.7 0 0 1-.34-.32l-.34-.28a1.5 1.5 0 0 1-.2.22l-.31-.31c-.29-.37-.09-.09-.23-.4s-.2-.14-.23-.37a2.2 2.2 0 0 1-.08-.54Zm2.84 2.52a3.2 3.2 0 0 1 .2.74l-.06-.12c-.08-.14-.2-.08-.25-.17a1.5 1.5 0 0 1-.2-.4Zm3-10.35c-.12-.14-.12 0-.17-.14l-.06-.29c.26-.26.12-.08.17-.28l.06-.06-.09-.06.09.06Zm-4.65-.46q.075 0 0 0c-.06-.09 0 .08-.26-.09.09-.08 0-.14.37 0-.06.06-.08.06-.11.12Zm3.74-.57c.23 0 .23.05.31.17-.17.06-.14 0-.28 0s0-.14 0-.17Zm-3.6.91.08-.06c0 .09 0 .18.15.18v-.15l.06-.08c.51.17.22.05.42 0s.06.05.23 0a1.2 1.2 0 0 1 .34 0c.14 0 0-.06 0 0s0 .09.12.09h.13c.15 0 .09.06.2 0v.14h-.28c-.03 0 0 .09.17.12h.2l-.26.06c.09.12.09.06.23.06-.2.09-.54-.09-.74 0s0 0-.11.06-.06 0-.09 0a.8.8 0 0 1 .29-.09l-.06-.11v-.15c0-.03-.17 0-.28-.05h-.23a1.4 1.4 0 0 1-.57.11c0 .06 0 0 0 0v-.05h-.14Zm0-.28h-.12l.17-.06h-.06s.11 0 0-.11h.11-.31l.2-.06a1.3 1.3 0 0 1 .6-.23v.06l-.09.06c-.17.2 0 .11-.17.25l.06.09c-.09 0-.14 0-.31.09Zm.59-.35h.09c0-.11 0 0-.09-.08a.23.23 0 0 0 .06-.12c.11-.11.11 0 .23-.11s0 0 0-.11.31-.12.51-.12v-.11a1.9 1.9 0 0 0 .57.11l.51.12c-.11.08 0 0 0 .08h.42a.5.5 0 0 0-.17.09h.26c.11.17.05.11 0 .25.11.09.11 0 .11.18l1.45.6a.8.8 0 0 1-.51-.2c-.32-.23-.12-.23-.46-.38s-.34 0-.39-.14l-.09.09c-.06 0-.06-.09-.06.11s0 0 .06.09l.2.17.08.08c0 .06 0 0 .06 0l-.37.06a2 2 0 0 1-.37-.12c-.05 0 0-.05-.05-.05h-.2c-.23-.06-.12-.06-.2-.12s0 0 .05-.08c-.11 0-.08 0-.11.05 0-.14.06-.14-.08-.2a.7.7 0 0 0-.32 0h-.09l-.2-.09a.76.76 0 0 0-.51 0c-.25.11-.17 0-.31 0a.1.1 0 0 1 0-.06Zm2.89 1.83v.05Zm1.75-1.63v.06Zm.12.09a.3.3 0 0 1 .14 0 3 3 0 0 1-.62.57v.06a.13.13 0 0 0 .14.08h-.06Zm-3.4 9.55-.06.11v-.2l.26.09-.06.05c-.08 0 0 0 0 0Zm-4.23-1.12h.29a3 3 0 0 1 .08.4v.32l.06.08v.18a.65.65 0 0 1-.17-.26l-.2-.26c-.14-.17-.06 0-.23-.14a1 1 0 0 0-.08-.12v-.14Zm.26-.74c-.06.08 0 .23 0 .31a1.2 1.2 0 0 1 .06.32l-.6.06a2.2 2.2 0 0 1-.14-.46h.14c.08 0-.08-.06-.11-.15a1 1 0 0 1-.2-.51c-.06-.17 0 .06-.11-.34 0-.17-.17-.23-.09-.35-.25 0 .14.12-.45.06a1 1 0 0 1-.14-.51c.08.08.22.34.39.28.09-.23-.22-.34-.28-.8h.34a4.6 4.6 0 0 0 .17.78c.08.08.17 0 .25.11s0 .09 0 .11v.12a.5.5 0 0 0 0 .2c0-.06 0-.09.09-.12.34-.14.28.58.25.6.17.15.09 0 .23.09s0 0 .06.17a1 1 0 0 1 .08.14c0-.65-.11-1.25-.08-2 0 .66.14 1.29.17 1.89Zm-1-2.12c-.06-.08 0 0-.11-.05h-.37v-.09a.11.11 0 0 0 0-.09c0-.22-.11-.45-.11-.65h-.4l.25-1h-.11c0-.43-.06-.55.09-.75a.5.5 0 0 1 .17 0h.14-.26c0-.15 0-.12.11-.2s0-.12.06-.2.09-.06 0-.17-.14-.2-.37-.06c0-.09-.06-.09.06-.17s.14-.12.28-.17 0 0 .09.08.17 0 .25.17 0 .09.06.26.05.06.05.23h.15c.09 0 0 .05-.06.11l-.14-.06v.12a.5.5 0 0 0 0 .11c-.06-.05-.09 0-.26 0 .09 0 0 0 0 .15v.23a4 4 0 0 0 0 .85c0 .15 0 .29.06.4a.65.65 0 0 1 .36.06c.06.23 0 .2-.22.31.08.15.11.09.11.26s-.17.09-.14.2.42.06.59.06.23 0 .29-.06c-.06.14 0-.06 0 .09-.09 0-.48.08-.71.11Zm7.62 1.29s.85-.31 1-.37l1-.37c.11.23.2.63.28.85-.17 0-.14 0-.28.09s-.11.06-.25 0l-.15-.06s-.2-.28-.28-.08c-.09-.06 0-.06-.14-.15h-.06c.09 0 .09 0 .06-.06h-.06v-.09.09c0 .05 0 0-.06.05-.12-.17 0-.05-.06-.08s-.14 0-.23.11-.08.06-.22.06-.12.06-.2.09 0 0-.23-.06h-.06Zm-.85-.71h.17c0-.06 0-.17-.14-.17a.82.82 0 0 1 .66 0 .7.7 0 0 0-.29.11c-.2.15 0 .06-.2.09Zm-.22-.26v.06h-.09a.24.24 0 0 0-.14 0h-.14v-.11c-.4.05.14-.06-.6-.06a.5.5 0 0 0-.45.14c-.06 0 0 0 0 0 0-.11 0-.14.2-.2.37-.14.51 0 .9 0h.29Zm-6.27-2.72c0 .12 0 .12.09.17-.12 0-.2-.11-.26-.17Zm4.76 4.35a3.2 3.2 0 0 1-1.07.25c0-.17-.09-.37-.12-.51l.15-.06c.22 0-.06.12.36.17s.2.09.66 0Zm-1.3-.2c0 .14 0 0 .06 0l.08.43a9.2 9.2 0 0 1-1.76.32l-.39-.63c-.15-.29-.4-.57-.4-.86s-.17-.31-.26-.43l.2.09c.06.06 0 .11.06.23s.14 0 .17.08 0 .06.14.15c.11-.06.09 0 .11-.09s0-.11-.08-.17l-.06-.06-.08-.14-.06-.12c-.08-.14-.2-.14-.23-.34v-.06c-.2-.05-.06 0-.17-.17.17 0 .05 0 .17.17v.06h.12v.06l.14.14.05.05.06.12c0 .08.06 0 .2.11s.2.12.31.29a.5.5 0 0 1 .06.26v-.17c0-.69-.25-1-.25-1.55v-.91c0-.54-.17-.49-.23-.74s.14 0 .25.28c.17.6-.17 1.14.14 2a1.82 1.82 0 0 1 .06 1.23 3 3 0 0 1 .31.12c.26.11.6.11.71.17a.6.6 0 0 0 .37 0Zm2.07-4.29s.06 0 0 .08l-.17.15v.28a.31.31 0 0 1 0 .26c-.09 0-.06 0-.09-.08-.17-.23-.06-.26-.06-.26l.15.17v-.14c0-.58 0-.17.25-.46Zm-1.62 2.06v.05l.09.09h-.11c-.23.05-.14 0-.2 0l.25-.06-.17-.09c0-.05 0-.05.17-.05Zm-.31-1.92c0-.06 0-.2.34-.2 0 .2 0 .14-.11.29s.06.06.08.14 0 .2-.11.2-.17-.23-.14-.4Zm1 0c.06-.2 0-.11.14-.2s.06-.05.14 0 0 .06 0 .12-.14 0-.23.05Zm-.68-.17h.14c.06.2.06.14.17.23s0 0 .06 0-.09 0-.14-.09l-.09.09v-.2Zm-.82.12c.06-.18 0-.06.17-.23a.36.36 0 0 1 .45-.12c.17.09.14.06.17.15s0 0 0 .05 0 0-.06 0l-.11.06h-.15l-.12.09h-.25Zm6.83 11.52a1.65 1.65 0 0 1 1.56-.17c.68.4.71 2.37 0 3a1.64 1.64 0 0 1-1.59.17Zm-6.41.6c.06-.69.4-1.17 1.11-1.17s1 .42 1.11 1.17c-.26.05-1.82 0-2.22 0m-9.66-8.06h.37v.29l-1.28-.09a1.5 1.5 0 0 1 0-.62c0-.2.11-.32.31-.35a.42.42 0 0 1 .48.17.93.93 0 0 1 .09.58Zm5.16-8.75c-.06 0-.17 0-.26-.06v-.26h.28c-.14-.48-.7-.46-.79 0a.41.41 0 0 0 .74.32Zm-5.36 6.4c0 .09.25.23.31.26l.11-.32Zm2-4.2c0 .14.14.2.2.37a.5.5 0 0 0 .2-.29Zm-2.46 6.52h.39c0-.2 0-.46-.2-.46s-.22.26-.19.46m1.07-4.38.32.17c.42-.6-.17-.82-.32-.17m21 1.04c.17.89 1.17.46.74-.23Zm.94 2.12a.4.4 0 1 0 .2.77.4.4 0 0 0-.2-.77m-.57.54a.67.67 0 1 1 1.31-.31.67.67 0 1 1-1.31.31m-21.06-1.8h-.28a1.2 1.2 0 0 0-.14.57.9.9 0 0 1 .22.17l-.05.26a3.7 3.7 0 0 1-.57-.43 5 5 0 0 0-.57-.4l.06-.29 1.39-.2Zm20.38-1 1.19-.43c.17.26.46 1.09-.17 1.34a.63.63 0 0 1-.73-.2 2.2 2.2 0 0 1-.29-.71m-21.12-.74a2.6 2.6 0 0 1 .46-.78.45.45 0 0 1 .45 0c.14.09.17.17.2.4l.54-.08-.14.31c-.43 0-.54 0-.6.26l.37.2-.14.23Zm20.07-1.23c.29-.15 1-.6 1.11-.66.06.14.14.17.11.29a3 3 0 0 0-.11.28 2.3 2.3 0 0 0-.23.57c.23-.05.46-.28.68-.37l.14.23-1.1.66c-.09-.09-.14-.15-.11-.26a9 9 0 0 0 .34-.89 6 6 0 0 0-.68.4.7.7 0 0 1-.15-.25m-17.64-.96c-.08.14-.28.32-.31.46l.14.26-.14.22a1.8 1.8 0 0 1-.37-.62c-.08-.15-.31-.49-.37-.63l.17-.18a13 13 0 0 1 1.34.35l-.15.23Zm18-.83a1.5 1.5 0 0 1-.32.29c-.17.17-.59.68-1 .2s-.06-.69.19-.92c.06-.05.06-.08.12-.14a2.4 2.4 0 0 0 .28-.26 2 2 0 0 1 .2.2c-.14.23-.88.6-.6.92s.63-.17 1-.49Zm-16.3-1.77a.68.68 0 0 1 1.36 0l.17.06v.2H676a.68.68 0 0 1-1.3-.26m13.52-.69c.08.06.14.12.22.17v.63a1.5 1.5 0 0 0 .48-.17c.17-.08.23 0 .37.12-.09.11-.68 1-.77 1.05l-.2-.14a6 6 0 0 1 .46-.68l-.6.22a2.2 2.2 0 0 0 0-.63l-.45.66-.26-.17Zm-10.49.2c-.65.26-.82-.45-1-1l.25-.08c.23.48.29 1 .66.88s0-.82-.12-1.11l.26-.09c.14.52.65 1.15 0 1.43Zm7.17-1.65.26.08-.29 1 .6.17-.09.26-.88-.29Zm-5-.29.06.2a2.3 2.3 0 0 1-.68.14l.05.29.6-.12v.23l-.57.12v.25c.17.06.48-.08.71-.08v.23l-1 .17L679 403Zm2.75-.12 1 .12v.26l-.68-.09v.29l.59.05v.23c-.19 0-.42-.08-.62 0v.26l.68.09v.23l-1-.12Zm20.41 4.35c1.84 2.69.06 7.95-3.86 8.86-.48-2.08-1-3.57.12-5.69a7.15 7.15 0 0 1 3.74-3.17m-41 0c-1.87 2.69-.08 7.95 3.83 8.86.48-2.08 1-3.57-.11-5.69a7.1 7.1 0 0 0-3.72-3.17m-1.9 6c-.14-3.11-3.77-4.28-7-4.54a4.78 4.78 0 0 0 2.07 3.94c1.56 1 2.92.8 4.9.6Zm44.85 0c.14-3.11 3.74-4.28 7-4.54a4.8 4.8 0 0 1-2.07 3.94c-1.58 1-3 .8-4.9.6Zm-25.34-85.07 3.29 3.4 3.31-3.35 2.87 3.75 3.68-2.92 2.38 4.06 4-2.46 1.9 4.35 4.28-2 1.36 4.51 4.48-1.46.85 4.66 4.59-.88.28 4.71 4.68-.34-.26 4.72 4.68.2-.82 4.66 4.62.77-1.42 4.56 4.51 1.31-1.87 4.32 4.3 1.86-2.36 4.08 4.09 2.37-2.84 3.74 3.74 2.83-3.26 3.41 3.43 3.23-3.65 3 3 3.63-3.94 2.51 2.55 4-4.22 2 2.07 4.26-4.45 1.51 1.56 4.46-4.57 1 1 4.64-4.67.42.48 4.69-4.68-.11-.08 4.72-4.63-.69-.65 4.69-4.5-1.23-1.19 4.57-4.34-1.77-1.7 4.4-4.11-2.26-2.21 4.18-3.83-2.77-2.67 3.86-3.45-3.17-3.12 3.52-3.09-3.58-3.52 3.15-2.6-3.92-3.86 2.69-2.15-4.2-4.14 2.23-1.65-4.44-4.36 1.72-1.11-4.6-4.56 1.17-.57-4.69-4.62.6v-4.72l-4.67.06.53-4.69-4.67-.48 1.1-4.61-4.56-1 1.62-4.43-4.43-1.58 2.13-4.23-4.2-2.08 2.61-3.95-3.94-2.63 3.06-3.61-3.6-3 3.46-3.2-3.23-3.43 3.8-2.77-2.78-3.8 4.11-2.29-2.33-4.12 4.34-1.77-1.81-4.37 4.5-1.26-1.27-4.55 4.62-.68-.74-4.69 4.68-.14-.2-4.72 4.65.4.37-4.72 4.59 1 .91-4.63 4.42 1.49 1.45-4.49 4.25 2 1.95-4.32 4 2.52 2.44-4 3.66 3Z" style="fill:#505c64;fill-rule:evenodd" transform="translate(-507.52 -283.29)"/></g></svg>