<svg xmlns="http://www.w3.org/2000/svg" data-name="Capa 1" viewBox="0 0 349.99 201.72"><defs><clipPath id="a" transform="translate(-507.52 -283.29)"><path d="M507.52 283.29h349.99v201.72H507.52z" style="fill:none"/></clipPath></defs><path d="M0 0h349.99v201.72H0z" style="fill:#fbfbfb"/><g style="clip-path:url(#a)"><path d="M663.88 309.73h97.31l-31 76.79h-21.6l-29 72h-75.75Zm46.28 78.33h43.29L725.16 457h-43.28Zm-22.25-49.57h-4.08v16.95h4.11v-4.8c0-1.14-.28-3.32 1.45-3.4a1.32 1.32 0 0 1 1.39 1 13 13 0 0 1 .08 2.34v4.83H695v-5.11a12.1 12.1 0 0 0-.45-4.66 3.63 3.63 0 0 0-2.92-2.18 4 4 0 0 0-3 .75c-.08 0-.11.08-.17.11s-.34.37-.48.52Zm36.34 11.72a2.78 2.78 0 0 0-2.29 3.17 2.65 2.65 0 0 0 3.12 2.23 2.74 2.74 0 0 0 2.26-3.14 2.62 2.62 0 0 0-3.09-2.26m8.42-11.66v-.06h-4.87l-4.37 10.63h4.88Zm-19.78 11.23a2.32 2.32 0 1 1 2.55 2.15 2.28 2.28 0 0 1-2.55-2.15m1.78-6.34a6.17 6.17 0 1 0 6.75 5.6 6.1 6.1 0 0 0-6.75-5.6m-10.32 6.46a2.28 2.28 0 0 1-2.6 2 2.37 2.37 0 0 1 .62-4.69 2.33 2.33 0 0 1 2 2.66Zm-2.8-6.46a6.17 6.17 0 1 0 6.72 5.6 6 6 0 0 0-6.72-5.6m-45 .31a5 5 0 0 1 .43 1l4.42 10.52c.12.32.14.23 0 .52l-1.28 3c-.11.31-.31.71-.42 1h4.3c.08 0 1.61-3.8 1.67-4 .54-1.34 1.1-2.68 1.67-4 .06-.17 3.26-7.89 3.29-8.09h-4.31l-2.69 6.86a14 14 0 0 1-.68-1.68l-2-5.18h-4.45Zm22.06 6.15a2.4 2.4 0 1 1-2.07-2.72 2.41 2.41 0 0 1 2.07 2.72m-.09 4.46v1.08h4v-11.72h-4v1.09a3.5 3.5 0 0 0-1.1-.89c-3.43-1.66-7.57 1.18-7.57 5.69a6.52 6.52 0 0 0 1.64 4.46 5.3 5.3 0 0 0 1.11.92 4.84 4.84 0 0 0 5.44-.09c.17-.14.31-.34.48-.51Zm25.23 7.43a1.34 1.34 0 0 1 .34 2.66 1.34 1.34 0 1 1-.34-2.66m-13.09-5.29a1.36 1.36 0 0 0-1.19 1.52 1.4 1.4 0 0 0 1.53 1.17 1.36 1.36 0 0 0-.34-2.69m-1.05 9.95H692v-6.63h-2.41Zm29.36.2h.57c.14-.06.48-.09.68-.14a4.5 4.5 0 0 0 .62-.23v-2.2c-.08 0-.22.14-.34.17a1.2 1.2 0 0 1-.39.14c-2 .49-2.64-1.94-1-2.51a2.06 2.06 0 0 1 1.72.28V360a3.65 3.65 0 0 0-1.55-.34c-4.28 0-4.74 5.86-1.14 6.86.23.08.65.11.82.17Zm-34.21-6.86h-.88v1.94h.85v4.69h2.38v-4.69h1.61v-2h-1.61a1 1 0 0 1 .42-1 1.51 1.51 0 0 1 1.28 0v-2a3.3 3.3 0 0 0-1.64-.17 2.43 2.43 0 0 0-1.36.51 2.92 2.92 0 0 0-1.11 2.69Zm38.92 2.57a1 1 0 0 1 1.1-.91 1 1 0 0 1 1.11.91Zm.74 4.29h.88c.14-.09.65-.12.87-.2a2.7 2.7 0 0 0 .74-.34 3 3 0 0 0 1.08-1.09l-2-.8a1.36 1.36 0 0 1-1.36.51 1.09 1.09 0 0 1-.94-1h4.56a3.46 3.46 0 0 0-5.64-3.34 3.71 3.71 0 0 0-1.13 3.89 3.34 3.34 0 0 0 3 2.37ZM711 360.53v-.71h-2.41v6.66H711a35 35 0 0 1 .06-4 .81.81 0 0 1 .76-.63c1 0 .85 1.08.85 1.88v2.75H715v-2.95a6.45 6.45 0 0 0-.28-2.68 2.1 2.1 0 0 0-1.73-1.2 2.5 2.5 0 0 0-1.25.2 2.1 2.1 0 0 0-.82.71Zm-15.56 0v-.74H693v6.66h2.41c0-.72-.06-3.6.05-4a.83.83 0 0 1 .77-.63c1 0 .85 1.08.85 1.88s-.06 1.89 0 2.75h2.41v-2.95a6.4 6.4 0 0 0-.29-2.68 2 2 0 0 0-1.75-1.2 2.13 2.13 0 0 0-1.87.71c-.06.06-.12.14-.17.2Zm7.48 6.12h.65a3.6 3.6 0 0 0 .94-.32 1.9 1.9 0 0 0 .68-.57v.69h2.38v-6.66h-2.38v.68a2.1 2.1 0 0 0-1.16-.74 3 3 0 0 0-3.6 2c-.71 1.95.17 4.43 2.26 4.86h.2Zm-44.12 81.79c.23.26.88 1.17 1.19 1.52h.48c0-.38.06-2.23 0-2.46h-.52a14 14 0 0 0 0 1.45 7 7 0 0 1-.71-.88c-.57-.69-.31-.57-1-.57v2.5h.57Zm-15 .34h.08a7 7 0 0 0-.85-.55 2.5 2.5 0 0 1 .15.6l-.12.55a8 8 0 0 0 .74-.55Zm2 0h.06a3 3 0 0 0-.32-.25 1.8 1.8 0 0 0-.39-.26 2.3 2.3 0 0 0-.6-.4v-.09l-1.68-1.2v.15a1.9 1.9 0 0 0 .06.57.91.91 0 0 0 .48.8c.26.17.51.37.77.54 0 0 .05 0 .08.06s0 0 .06.11l-1 .75a.65.65 0 0 0-.31.6 3.6 3.6 0 0 0-.12.77c.09 0 .09-.06.15-.12a16 16 0 0 0 1.55-1.11 4 4 0 0 0 .66-.43c.19-.14.39-.31.62-.46Zm8.5-1.28c-.08.28 0 2 0 2.46h.56v-2c0-.57.14-.48-.54-.48Zm12.19 1.74c-.08.09-.28.26-.31.37a1.61 1.61 0 0 0 1.33.37.75.75 0 0 0 .57-1.05c-.23-.43-.79-.38-1.16-.58s-.12-.4.22-.4a1.3 1.3 0 0 1 .63.23 2.6 2.6 0 0 0 .28-.4 1.48 1.48 0 0 0-1.36-.23.7.7 0 0 0-.25 1.12c.28.31 1.07.31 1.16.57s-.43.46-1.11 0m-14.34 0a1.8 1.8 0 0 0-.34.4 1.58 1.58 0 0 0 1.28.37.74.74 0 0 0 .68-1c-.17-.43-.66-.43-1.11-.6s-.09-.71.77-.2l.28-.4a1.45 1.45 0 0 0-1.31-.25.65.65 0 0 0-.45.4.76.76 0 0 0 .09.71c.28.34 1.05.34 1.16.54s-.23.35-.48.32a1.3 1.3 0 0 1-.57-.29m11.45-1.68c0 1.14-.28 2.48 1.11 2.48s1-1.37 1.07-2.51h-.56v1.25c0 .43-.09.75-.54.72s-.54-.32-.54-.75v-1.22Zm5.59 1.45h1v1h.54v-2.51h-.54v.94h-1v-.94h-.54v2.5h.54Zm-19-1a6 6 0 0 1 .73 0c.57 0 .6.09.6-.11 0-.4 0-.37-.12-.37h-1.75c-.06.17 0 2.11 0 2.46h1.9v-.49h-1.33v-.5h1.16v-.45a7.3 7.3 0 0 0-1.16 0Zm11.45 0c.39 0 1-.11 1 .34s-.57.38-1 .35Zm1 1.06a.81.81 0 0 0 .28-1.32c-.37-.34-1.27-.25-1.87-.25v2.5h.57v-.78h.38c.14.18.43.72.57.78h.59a2.7 2.7 0 0 0-.31-.46 3 3 0 0 1-.25-.43Zm-4.91.51v-1.05h-1.07v.48h.57v.32c-.74.4-1.34-.12-1.25-.72a.74.74 0 0 1 1-.63 4 4 0 0 1 .37.2 1.16 1.16 0 0 0 .31-.43 1.36 1.36 0 0 0-2.27 1 1.29 1.29 0 0 0 1.73 1.15c.23-.06.57-.2.65-.38ZM647.35 448a1.5 1.5 0 0 1 .85.12.74.74 0 0 1 0 1.23 1.55 1.55 0 0 1-.82.11Zm-.57 1.95a12 12 0 0 0 1.19 0 1.24 1.24 0 0 0 .77-2.12 1.47 1.47 0 0 0-.85-.34h-.6c-.22 0-.45 0-.51.05s0 2.12 0 2.41m27-39.14.2-1.06h-.85l.31-1h-1.13l-.31 1h-.68l.31-1h-1.13l-.32 1h-.93l-.23 1.06h.85l-.31.88h-1l-.2 1.06h.85l-.31 1h1.13l.31-1h.68l-.31 1h1.14l.31-1h1l.2-1.06h-.82l.28-.88Zm-2.4.88h-.66l.29-.88h.65Zm2.94 2H676l.71-3.63h1.44l.26-1.31h-4.51l-.26 1.31h1.42Zm4.88.06a2.22 2.22 0 0 0 2.38-2.2c0-1.09-.79-1.77-2.07-1.77a2.22 2.22 0 0 0-2.38 2.2c0 1.09.82 1.77 2.07 1.77m.11-1.26a.53.53 0 0 1-.56-.6c0-.51.25-.85.68-.85a.53.53 0 0 1 .56.6c0 .51-.28.85-.68.85m5.16-2.71a1.4 1.4 0 0 0-1 .4l.06-.35h-1.48l-1.05 5.28h1.59l.34-1.78a1.22 1.22 0 0 0 1.11.46 2.11 2.11 0 0 0 2-2.2 1.63 1.63 0 0 0-1.56-1.77Zm-.71 2.71a.53.53 0 0 1-.56-.6c0-.51.28-.85.68-.85a.53.53 0 0 1 .56.6c0 .51-.28.85-.68.85m6.21-2.48.26-1.26H687l-.83 3h1.48c.45 0 .62.11.62.31s-.25.43-.71.43a2.2 2.2 0 0 1-1.24-.37l-.77 1.17a3.45 3.45 0 0 0 1.9.52c1.42 0 2.47-.72 2.47-1.92 0-.91-.66-1.4-1.82-1.4h-.1l.11-.48Zm-54.28 8.8a1.28 1.28 0 0 0 .88-1.2c0-.77-.6-1.2-1.76-1.2h-2.58l-1 4.95h2.83c1.25 0 2.27-.49 2.27-1.58a1 1 0 0 0-.65-1Zm-1.28-1.23c.28 0 .43.12.43.32s-.17.43-.54.43h-.82l.14-.75Zm-.25 2.6h-1.08l.17-.77h1.05c.22 0 .42.12.42.32s-.25.45-.56.45m4.16-2.28.09-.4H637l-.76 3.86h1.59l.34-1.78a.86.86 0 0 1 1-.77 1.4 1.4 0 0 1 .34 0l.28-1.4a2 2 0 0 0-1.36.46Zm3.94-.4-.08.4a1.2 1.2 0 0 0-1.08-.46 2.11 2.11 0 0 0-2 2.2 1.65 1.65 0 0 0 1.56 1.77 1.5 1.5 0 0 0 1.05-.4l-.09.35h1.51l.76-3.86Zm-1.61 2c0-.51.28-.88.71-.88a.57.57 0 0 1 .56.63c0 .51-.28.86-.71.86a.54.54 0 0 1-.56-.61m6-2.11a1.64 1.64 0 0 0-1.14.46l.09-.4h-1.5l-.77 3.86H645l.37-1.86c.08-.49.34-.75.71-.75s.39.15.39.43v.23l-.47 2.04h1.58l.43-2.15a2.6 2.6 0 0 0 .06-.48 1.23 1.23 0 0 0-1.39-1.29Zm4.9-1.32-.34 1.78a1.19 1.19 0 0 0-1.08-.46 2.11 2.11 0 0 0-2 2.2 1.65 1.65 0 0 0 1.56 1.77 1.47 1.47 0 0 0 1-.4l-.08.35h1.5l1-5.24Zm-1.87 3.43c0-.51.28-.88.71-.88a.57.57 0 0 1 .57.63c0 .51-.29.86-.71.86a.55.55 0 0 1-.57-.61m8.56 1.81h1.64l-1.16-4.95h-1.61L654 421.4h1.73l.51-.86h1.84Zm-1.24-1.97.71-1.26.22 1.26Zm6.26-1.8-.11.6a1.11 1.11 0 0 0-1.16-.66 2 2 0 0 0-2 2 1.6 1.6 0 0 0 1.64 1.66 1.46 1.46 0 0 0 1-.35v.09a.84.84 0 0 1-1 .74 2 2 0 0 1-1.24-.4l-.66 1.09a3.36 3.36 0 0 0 1.87.49 2.43 2.43 0 0 0 2.64-2.21l.6-3.08Zm-1.73 1.91a.67.67 0 0 1 .68-.74.5.5 0 0 1 .54.51.65.65 0 0 1-.68.72.48.48 0 0 1-.54-.49m7.23-.28a1.71 1.71 0 0 0-2-1.69 2.19 2.19 0 0 0-2.36 2.2c0 1.09.83 1.77 2.1 1.77a3 3 0 0 0 1.67-.45l-.68-1a1.34 1.34 0 0 1-.82.26c-.4 0-.65-.11-.74-.46h2.7a4.4 4.4 0 0 0 .08-.65Zm-2-.6a.51.51 0 0 1 .57.51H666a.65.65 0 0 1 .68-.51Zm4.93-1.09a1.58 1.58 0 0 0-1.13.46v-.4h-1.47l-.76 3.86h1.58l.37-1.86c.09-.49.34-.75.71-.75s.4.15.4.43v.23l-.4 1.95h1.59l.42-2.15a2.6 2.6 0 0 0 0-.48 1.22 1.22 0 0 0-1.36-1.29Zm3.49 4a2.23 2.23 0 0 0 2-1.05l-1.16-.69a.71.71 0 0 1-.71.49.56.56 0 0 1-.59-.61.79.79 0 0 1 .73-.88.66.66 0 0 1 .63.51l1.33-.63a2 2 0 0 0-1.9-1.11 2.25 2.25 0 0 0-2.41 2.2c0 1.09.82 1.77 2.1 1.77Zm3.32-4.23a.91.91 0 0 0 1-.88c0-.43-.34-.72-.91-.72a.89.89 0 0 0-1 .86c0 .43.34.74.88.74Zm-1.71 4.18h1.56l.77-3.86h-1.59Zm6.33-2.23c0-1-.74-1.69-2-1.69a2.18 2.18 0 0 0-2.35 2.2c0 1.09.85 1.77 2.09 1.77a3.06 3.06 0 0 0 1.68-.45l-.65-1a1.5 1.5 0 0 1-.86.26c-.39 0-.65-.11-.73-.46h2.7a2.3 2.3 0 0 0 .09-.65Zm-2-.6c.34 0 .57.17.57.51h-1.25a.66.66 0 0 1 .68-.51m3.21 2.88c1.19 0 2.15-.45 2.15-1.43 0-1.28-1.93-.91-1.93-1.28 0-.09.12-.17.48-.17a2.27 2.27 0 0 1 1.14.28l.54-1.08a3.3 3.3 0 0 0-1.48-.29c-1.19 0-2.15.46-2.15 1.46 0 1.28 1.93.91 1.93 1.26 0 .11-.12.17-.49.17a2.8 2.8 0 0 1-1.33-.35l-.54 1.09a3.7 3.7 0 0 0 1.68.34m-45 3.43a.89.89 0 0 0 1-.88c0-.43-.34-.72-.88-.72a.91.91 0 0 0-1 .86c0 .43.34.74.91.74Zm-1.73 4.18h1.59l.76-3.86h-1.58Zm5.16-3.92a1.67 1.67 0 0 0-1.13.46l.08-.4h-1.5l-.77 3.86H641l.37-1.86c.11-.49.34-.74.71-.74a.37.37 0 0 1 .4.42.7.7 0 0 1 0 .23l-.4 1.95h1.59l.42-2.15a2.6 2.6 0 0 0 .06-.48 1.23 1.23 0 0 0-1.39-1.29m7.51-1-.45 2.32-1.42-2.32H647l-1 4.95h1.61l.46-2.29 1.39 2.29h1.36l1-4.95Zm5.42 2.72a1.7 1.7 0 0 0-1.93-1.69 2.21 2.21 0 0 0-2.38 2.2c0 1.09.85 1.77 2.1 1.77a2.9 2.9 0 0 0 1.67-.45l-.65-1a1.42 1.42 0 0 1-.83.25c-.42 0-.68-.11-.73-.45h2.66a2.4 2.4 0 0 0 .09-.66Zm-2-.6c.34 0 .57.17.57.51h-1.25a.7.7 0 0 1 .68-.51m7.43-1-1.08 2-.28-2h-1.33l-1.11 2-.25-2h-1.45l.62 3.86h1.54l.93-1.8.28 1.8h1.54l2.06-3.86Zm8.45-1.09h-1.65l-1.36 1.72-.68-1.72h-1.64l1.22 3.15-.37 1.8h1.64l.37-1.8Zm.56 5a2.23 2.23 0 0 0 2.39-2.2c0-1.08-.8-1.77-2.07-1.77a2.22 2.22 0 0 0-2.38 2.2c0 1.09.82 1.77 2.06 1.77m.12-1.25a.53.53 0 0 1-.57-.6c0-.52.26-.89.68-.89a.56.56 0 0 1 .57.63c0 .51-.29.86-.68.86m4.11-2.26.08-.4h-1.47l-.77 3.86h1.56l.37-1.8a.87.87 0 0 1 1-.75 1.5 1.5 0 0 1 .34 0l.28-1.4a1.9 1.9 0 0 0-1.36.46Zm5.89-.4h-1.92l-1.33 1.02.48-2.48h-1.56l-1 5.23h1.59l.14-.75.4-.37.65 1.12h1.87l-1.24-2.12Zm26.73-11.47h2.64a2.8 2.8 0 0 0 3.06-2.83c0-1.31-1-2.11-2.49-2.11h-2.29Zm1.93-1.28.46-2.35h.62c.68 0 1 .32 1 .89a1.32 1.32 0 0 1-1.33 1.46Zm5.62 1.34a2.23 2.23 0 0 0 2.38-2.2c0-1.09-.8-1.77-2.07-1.77a2.22 2.22 0 0 0-2.38 2.2c0 1.09.82 1.77 2.07 1.77m.08-1.26a.55.55 0 0 1-.57-.6c0-.51.29-.85.71-.85a.54.54 0 0 1 .57.6c0 .51-.28.85-.71.85m5.5-2.66-.11.61a1.12 1.12 0 0 0-1.17-.66 2 2 0 0 0-2 2 1.6 1.6 0 0 0 1.65 1.66 1.4 1.4 0 0 0 1-.35v.09a.82.82 0 0 1-.93.74 1.9 1.9 0 0 1-1.25-.4l-.68 1.09a3.4 3.4 0 0 0 1.9.48 2.42 2.42 0 0 0 2.61-2.2l.59-3.09Zm-1.73 1.92a.64.64 0 0 1 .68-.71.51.51 0 0 1 .57.48.67.67 0 0 1-.68.72c-.37 0-.57-.2-.57-.49m5 2a2.22 2.22 0 0 0 2.38-2.2c0-1.09-.82-1.77-2.07-1.77a2.22 2.22 0 0 0-2.38 2.2c0 1.09.79 1.77 2.07 1.77m.08-1.26a.53.53 0 0 1-.56-.6c0-.51.28-.85.68-.85a.52.52 0 0 1 .56.6c0 .51-.25.85-.68.85m-17.15 9a2.7 2.7 0 0 0 2.24-1l-1-1a1.34 1.34 0 0 1-1.08.58.94.94 0 0 1-1-1 1.34 1.34 0 0 1 1.31-1.48 1.09 1.09 0 0 1 1 .57l1.16-.94a2.22 2.22 0 0 0-2-1 2.9 2.9 0 0 0-3.09 3 2.24 2.24 0 0 0 2.49 2.2Zm4.11-3.57.09-.4H709l-.77 3.86h1.56l.37-1.78a.86.86 0 0 1 1-.77 1.4 1.4 0 0 1 .34 0l.29-1.4a1.93 1.93 0 0 0-1.37.46Zm5 1.23a1.7 1.7 0 0 0-1.93-1.69 2.19 2.19 0 0 0-2.38 2.2c0 1.09.85 1.77 2.1 1.77a2.9 2.9 0 0 0 1.67-.45l-.65-1a1.42 1.42 0 0 1-.82.26c-.43 0-.68-.11-.74-.46h2.67a2.8 2.8 0 0 0 .08-.65Zm-2-.6c.34 0 .56.17.56.51h-1.24a.67.67 0 0 1 .68-.51m5-1-.09.4a1.21 1.21 0 0 0-1.11-.46 2.11 2.11 0 0 0-2 2.2 1.64 1.64 0 0 0 1.56 1.77 1.35 1.35 0 0 0 1-.4l-.06.35h1.48l.76-3.86Zm-1.62 2c0-.51.28-.88.68-.88a.56.56 0 0 1 .57.63c0 .51-.29.86-.68.86a.54.54 0 0 1-.57-.61m4.93-.68h.77l.25-1.14h-.79l.23-1.09h-1.59l-.23 1.09h-.51l-.23 1.14h.51l-.17 1a3 3 0 0 0-.05.37c0 .77.54 1.2 1.39 1.2a2.1 2.1 0 0 0 1.05-.23l-.2-1.05a.8.8 0 0 1-.34.08c-.17 0-.29-.08-.29-.26V420Zm2.27-1.69a.9.9 0 0 0 1-.88c0-.43-.34-.72-.88-.72a.91.91 0 0 0-1 .86c0 .43.34.74.91.74Zm-1.73 4.18h1.59l.73-3.86H723Zm5.3-3.86-1.22 2.08-.37-2.08h-1.56l.8 3.86h1.61l2.3-3.86Zm2.75 3.91a2.22 2.22 0 0 0 2.38-2.2c0-1.08-.79-1.77-2.07-1.77a2.22 2.22 0 0 0-2.38 2.2c0 1.09.82 1.77 2.07 1.77m.09-1.25a.55.55 0 0 1-.57-.61c0-.51.28-.88.71-.88a.57.57 0 0 1 .56.63c0 .51-.28.86-.7.86m-27.61 9a2.63 2.63 0 0 0 2.21-1l-1-.94a1.41 1.41 0 0 1-1.07.57.94.94 0 0 1-1-1 1.36 1.36 0 0 1 1.33-1.49 1 1 0 0 1 1 .57l1.19-.94a2.22 2.22 0 0 0-2-1 2.91 2.91 0 0 0-3.09 3 2.24 2.24 0 0 0 2.5 2.2Zm4.08-.06a2.22 2.22 0 0 0 2.38-2.2c0-1.08-.82-1.77-2.07-1.77a2.22 2.22 0 0 0-2.38 2.2c0 1.09.79 1.77 2.07 1.77m.08-1.25a.54.54 0 0 1-.56-.6c0-.52.28-.89.71-.89a.57.57 0 0 1 .56.63c0 .51-.28.86-.71.86m4.14-2.26.09-.4h-1.51l-.76 3.86h1.59l.37-1.8a.85.85 0 0 1 .93-.75 1.3 1.3 0 0 1 .34 0l.28-1.4a1.88 1.88 0 0 0-1.33.46Zm3.8-.46a1.37 1.37 0 0 0-1 .4l.06-.34h-1.48l-1 5.23H713l.34-1.77a1.23 1.23 0 0 0 1.11.45 2.11 2.11 0 0 0 2-2.2 1.63 1.63 0 0 0-1.56-1.77Zm-.71 2.72a.53.53 0 0 1-.57-.6c0-.52.29-.89.69-.89a.56.56 0 0 1 .56.63c0 .51-.28.86-.68.86m2.78 1.25a1 1 0 0 0 1-1 .81.81 0 0 0-.88-.83 1 1 0 0 0-1 1 .82.82 0 0 0 .88.82Zm-15.42 20.5 1-.94a1.24 1.24 0 0 0 .45-.92c0-.48-.36-.77-.93-.77a1.33 1.33 0 0 0-1 .4l.2.2a1 1 0 0 1 .79-.34c.43 0 .68.23.68.54s-.08.4-.4.72l-1.19 1.17v.23h2v-.29Zm3.94.29c.65 0 1.13-.54 1.13-1.46s-.48-1.46-1.13-1.46-1.13.55-1.13 1.46.48 1.46 1.13 1.46m0-.26c-.48 0-.85-.43-.85-1.2s.37-1.2.85-1.2.85.43.85 1.2-.34 1.2-.85 1.2m2.81 0 1-.94a1.19 1.19 0 0 0 .48-.92c0-.48-.37-.77-1-.77a1.35 1.35 0 0 0-1 .4l.22.2a.9.9 0 0 1 .77-.34c.45 0 .68.23.68.54s-.06.4-.4.72l-1.19 1.17v.23h2v-.29Zm3.91.29c.68 0 1.16-.54 1.16-1.46s-.48-1.46-1.16-1.46-1.14.55-1.14 1.46.49 1.46 1.14 1.46m0-.26c-.48 0-.82-.43-.82-1.2s.34-1.2.82-1.2.85.43.85 1.2-.34 1.2-.85 1.2" style="fill:#505c64;fill-rule:evenodd" transform="translate(-507.52 -283.29)"/></g></svg>