<svg xmlns="http://www.w3.org/2000/svg" data-name="Capa 1" viewBox="0 0 349.99 201.72"><defs><clipPath id="a" transform="translate(-507.52 -283.29)"><path d="M507.52 283.29h349.99v201.72H507.52z" style="fill:none"/></clipPath></defs><path d="M0 0h349.99v201.72H0z" style="fill:#fbfbfb"/><g style="clip-path:url(#a)"><path d="m620.28 368.16 10.17 5.64c-2.94 1.6-6.88 4-10.23 5.23Zm-9.44-8.16c-6.49.68-6.55 4.14-6.83 10.52-.94 19.84 2.61 17.86 16.78 18 21.63.17 23.33 1.14 23.84-11 .14-4.09.31-13.06-1.79-15.64-2.29-2.77-10.6-2.26-15.08-2.26-5.41 0-11.71-.17-16.92.35Zm52.35 22.3h-3.91v-7l-6.12-10.72h4.31l3.8 6.6 3.8-6.6h4.22l-6.1 10.72Zm9.33-6.81a3.87 3.87 0 0 0 .91 2.72 3.2 3.2 0 0 0 2.41 1.08 3.08 3.08 0 0 0 2.41-1.08 4 4 0 0 0 1-2.72 4 4 0 0 0-1-2.74 3 3 0 0 0-2.41-1.09 3.06 3.06 0 0 0-2.41 1.09 3.82 3.82 0 0 0-.91 2.74m10.49 0a6.9 6.9 0 0 1-2 5 7.42 7.42 0 0 1-10.24 0 7.16 7.16 0 0 1 0-10 7.47 7.47 0 0 1 10.24 0 7 7 0 0 1 2 5m11.51.54v-7.4h3.8v13.67h-3.8v-1.78a4.18 4.18 0 0 1-3.63 2 5.3 5.3 0 0 1-3.74-1.4 5.58 5.58 0 0 1-1.5-4.17v-8.32h3.79v7.46c0 2.12.74 3.15 2.3 3.15a2.87 2.87 0 0 0 2-.83 3.26 3.26 0 0 0 .8-2.38ZM709.2 368v14.33h-3.91V368h-5v-3.4h13.89v3.4Zm14.94 8.06v-7.4H728v13.67h-3.83v-1.78a4.15 4.15 0 0 1-3.57 2 5.3 5.3 0 0 1-3.74-1.4 5.4 5.4 0 0 1-1.51-4.17v-8.32h3.8v7.46c0 2.12.74 3.15 2.24 3.15a2.75 2.75 0 0 0 2-.83 3.3 3.3 0 0 0 .79-2.38Zm15.22-7.6a5.67 5.67 0 0 1 4.28 1.94 6.88 6.88 0 0 1 1.84 5 7.17 7.17 0 0 1-1.89 5.12 5.71 5.71 0 0 1-4.29 2.05 4.77 4.77 0 0 1-4-2v1.78h-3.8v-18.82h3.8v6.69a5 5 0 0 1 4-1.77Zm-4.05 7.06a3.73 3.73 0 0 0 .91 2.72 2.81 2.81 0 0 0 2.18 1.08 3 3 0 0 0 2.29-1.08 3.76 3.76 0 0 0 1-2.72 4.23 4.23 0 0 0-.91-2.74 2.93 2.93 0 0 0-2.3-1.15 2.65 2.65 0 0 0-2.23 1.15 3.83 3.83 0 0 0-.91 2.74Zm24.74 4.86a7.78 7.78 0 0 1-5.35 2.17 7.12 7.12 0 0 1-5.16-1.94 6.74 6.74 0 0 1-2-5.15 6.87 6.87 0 0 1 2-5.11 7 7 0 0 1 4.88-1.89 6.88 6.88 0 0 1 4.71 1.72 5.84 5.84 0 0 1 2 4.66v2h-9.89a2.86 2.86 0 0 0 1.16 1.8 3.65 3.65 0 0 0 2.21.74 4.45 4.45 0 0 0 3.26-1.34Zm-2.75-6.26a2.41 2.41 0 0 0-.9-1.83 2.8 2.8 0 0 0-1.87-.71 3.84 3.84 0 0 0-2.1.71 2.9 2.9 0 0 0-1.08 1.83Zm-119 36.54-.91-2.23h-4.31l-1 2.23h-2.41l4.45-10.32h2.18l4.45 10.32Zm-3.06-7.26-1.28 3h2.52Zm7.93 7.37a3.38 3.38 0 0 1-2.55-1.2 4.3 4.3 0 0 1-1.08-3 4 4 0 0 1 1.08-2.89 3.34 3.34 0 0 1 2.5-1.17 3.08 3.08 0 0 1 2.38 1v-3.89h2.18v11h-2.18v-1a2.9 2.9 0 0 1-2.33 1.14Zm-1.39-4.09a2.23 2.23 0 0 0 .54 1.58 1.77 1.77 0 0 0 1.36.62 1.67 1.67 0 0 0 1.31-.62 2.36 2.36 0 0 0 .51-1.58 2.6 2.6 0 0 0-.5-1.68 1.65 1.65 0 0 0-1.31-.63 1.68 1.68 0 0 0-1.36.63 2.56 2.56 0 0 0-.54 1.63Zm12.36 1.49a2.44 2.44 0 0 1-.82 1.89 3.58 3.58 0 0 1-2.21.71 5.9 5.9 0 0 1-1.82-.28 7.4 7.4 0 0 1-1.72-1l1-1.4a4.28 4.28 0 0 0 2.64.92.86.86 0 0 0 .65-.18.41.41 0 0 0 .25-.4.54.54 0 0 0-.34-.51 3.6 3.6 0 0 0-1-.49 8 8 0 0 1-1-.34 6.5 6.5 0 0 1-.8-.43 1.81 1.81 0 0 1-.87-1.66 2.15 2.15 0 0 1 .87-1.77 3.53 3.53 0 0 1 2.3-.74 4.86 4.86 0 0 1 2.78 1l-.85 1.43a3.6 3.6 0 0 0-2-.69c-.68 0-1 .17-1 .57a.47.47 0 0 0 .28.46 6 6 0 0 0 1.1.43c.46.17.85.31 1.05.4a2.3 2.3 0 0 1 .77.37 1.74 1.74 0 0 1 .79 1.66Zm4.25 2.49v-10.33h2.27v8.26h4.4v2.06Zm13.38-1.18a4.47 4.47 0 0 1-6.09.18 4.15 4.15 0 0 1-1.16-3 4 4 0 0 1 1.22-3 4.17 4.17 0 0 1 5.58-.08 3.27 3.27 0 0 1 1.13 2.68v1.2h-5.75a1.54 1.54 0 0 0 .68 1.06 2 2 0 0 0 1.28.43 2.5 2.5 0 0 0 1.89-.77Zm-1.56-3.6a1.64 1.64 0 0 0-.51-1.11 1.75 1.75 0 0 0-1.13-.4 2.1 2.1 0 0 0-1.19.43 1.31 1.31 0 0 0-.62 1.08Zm9 4.78h-2.07v-.95a2.51 2.51 0 0 1-2.07 1.06 3.3 3.3 0 0 1-2.12-.71 2.44 2.44 0 0 1-.82-2 2.2 2.2 0 0 1 .82-1.83 4.54 4.54 0 0 1 2.41-.6H677a1.13 1.13 0 0 0-1.3-1.29 4.6 4.6 0 0 0-1.22.2 3.2 3.2 0 0 0-1.05.6l-1-1.43a5.88 5.88 0 0 1 3.54-1.17 3.78 3.78 0 0 1 2.38.74 2.82 2.82 0 0 1 .88 2.29Zm-2.21-3v-.4h-1.39c-.88 0-1.3.31-1.3.83a.79.79 0 0 0 .34.65 1.36 1.36 0 0 0 .88.23 1.8 1.8 0 0 0 1-.34 1.15 1.15 0 0 0 .45-1Zm5.84 3.14a3.2 3.2 0 0 1-2.49-1.2 4.3 4.3 0 0 1-1.11-3 3.87 3.87 0 0 1 1.08-2.89 3.35 3.35 0 0 1 2.52-1.17 2.92 2.92 0 0 1 2.32 1v-3.89h2.22v11h-2.22v-1a2.79 2.79 0 0 1-2.32 1.14Zm-1.39-4.09a2.14 2.14 0 0 0 .6 1.58 1.69 1.69 0 0 0 1.36.62 1.54 1.54 0 0 0 1.24-.62 2.12 2.12 0 0 0 .57-1.58 2.32 2.32 0 0 0-.57-1.63 1.66 1.66 0 0 0-2.6 0 2.45 2.45 0 0 0-.6 1.63m13.32 2.8a4.4 4.4 0 0 1-3.14 1.29 4.3 4.3 0 0 1-3-1.11 4.17 4.17 0 0 1-1.13-3 4 4 0 0 1 1.19-3 4.12 4.12 0 0 1 2.83-1.11 4 4 0 0 1 2.75 1 3.28 3.28 0 0 1 1.14 2.68v1.2h-5.76a1.7 1.7 0 0 0 .68 1.06 2 2 0 0 0 1.31.43 2.58 2.58 0 0 0 1.9-.77Zm-1.61-3.6a1.73 1.73 0 0 0-.51-1.11 1.64 1.64 0 0 0-1.11-.4 2.1 2.1 0 0 0-1.22.43 1.62 1.62 0 0 0-.62 1.08Zm6.4-1.26a1.55 1.55 0 0 0-1.41.75 3 3 0 0 0-.51 1.83v3.46h-2.24v-8h2.21v1.06a3.6 3.6 0 0 1 1-.8 3.06 3.06 0 0 1 1.3-.4v2.08Zm4.91-2.08a3.34 3.34 0 0 1 2.49 1.17 3.9 3.9 0 0 1 1.11 2.89 4.07 4.07 0 0 1-1.14 3 3.15 3.15 0 0 1-2.49 1.2 2.85 2.85 0 0 1-2.32-1.14v1h-2.21v-11h2.21v3.89a3 3 0 0 1 2.35-1Zm-2.35 4.14a2.36 2.36 0 0 0 .51 1.58 1.64 1.64 0 0 0 1.3.62 1.82 1.82 0 0 0 1.36-.62 2.23 2.23 0 0 0 .54-1.58 2.56 2.56 0 0 0-.54-1.63 1.75 1.75 0 0 0-1.36-.63 1.62 1.62 0 0 0-1.3.63 2.6 2.6 0 0 0-.51 1.63m7.82 0a2.23 2.23 0 0 0 .54 1.58 1.67 1.67 0 0 0 1.39.62 1.69 1.69 0 0 0 1.39-.62 2.16 2.16 0 0 0 .56-1.58 2.36 2.36 0 0 0-.56-1.63 1.84 1.84 0 0 0-1.39-.6 1.81 1.81 0 0 0-1.39.6 2.45 2.45 0 0 0-.54 1.63m6.12 0a4.08 4.08 0 0 1-4.19 4.09 4.07 4.07 0 0 1-3-1.2 3.86 3.86 0 0 1-1.16-2.89 4 4 0 0 1 1.16-2.94 4.32 4.32 0 0 1 3-1.2 4.2 4.2 0 0 1 3 1.2 4.14 4.14 0 0 1 1.19 2.94m6.75 4h-2.07v-.95a2.49 2.49 0 0 1-2.07 1.06 3.27 3.27 0 0 1-2.1-.71 2.49 2.49 0 0 1-.85-2 2.17 2.17 0 0 1 .85-1.83 4.5 4.5 0 0 1 2.41-.6h1.65a1.15 1.15 0 0 0-1.31-1.29 4.6 4.6 0 0 0-1.24.2 3.7 3.7 0 0 0-1.08.6l-1-1.43a5.94 5.94 0 0 1 3.57-1.17 3.65 3.65 0 0 1 2.35.74 2.82 2.82 0 0 1 .88 2.29Zm-2.18-3v-.4h-1.39c-.91 0-1.33.31-1.33.83a.7.7 0 0 0 .31.65 1.47 1.47 0 0 0 .93.23 1.9 1.9 0 0 0 1-.34 1.21 1.21 0 0 0 .46-1Zm6.83-3a1.67 1.67 0 0 0-1.48.75 3 3 0 0 0-.51 1.83v3.46h-2.18v-8h2.18v1.06a4.2 4.2 0 0 1 1.11-.8 3 3 0 0 1 1.27-.4v2.08Zm3.4 6.15a3.18 3.18 0 0 1-2.5-1.2 4.08 4.08 0 0 1-1.1-3 4 4 0 0 1 1-2.89 3.38 3.38 0 0 1 2.49-1.17 3.09 3.09 0 0 1 2.38 1v-3.89h2.19v11h-2.19v-1a2.91 2.91 0 0 1-2.32 1.14Zm-1.42-4.09a2.27 2.27 0 0 0 .6 1.58 1.7 1.7 0 0 0 2.63 0 2.38 2.38 0 0 0 .54-1.58 2.62 2.62 0 0 0-.54-1.63 1.71 1.71 0 0 0-1.3-.63 1.75 1.75 0 0 0-1.37.49 2.42 2.42 0 0 0-.57 1.63Zm-146.12-9.15a19 19 0 0 0 3.37-4.28l-5.39-1a23 23 0 0 0 .88 2.88 5.05 5.05 0 0 0 1.14 2.43Zm-9.32-33a31 31 0 0 0 3.77 3.57c.65-.8.48-.85.73-2.48.2-1.06.4-2 .51-3.15-1.41.43-4.11 1.23-5 2.06ZM573 379a11.3 11.3 0 0 0 4.74 2.6l-.17-5.37c-.88 0-4 2-4.57 2.77m7.86-34.91a19.2 19.2 0 0 0 2.72 4.66l.34-.31a2.7 2.7 0 0 0 .45-.57 14 14 0 0 0 .65-1.29 13 13 0 0 0 1.28-2.77Zm-7.26 42.06a13.7 13.7 0 0 0 4.88 2.23l-.57-5.32c-1.14-.11-3.49 2.14-4.31 3.09m11.82 17.41c1.11-.63 2.75-3.49 3.18-4.72l-5.42-.46Zm.45 4.77a14.15 14.15 0 0 0-2.58 5l5.5-.2Zm-10.37-50.88c.48 1.08 2.64 3.17 3.54 4 .85-.83 1.53-4.21 1.7-5.35Zm16.53 67.12a12.5 12.5 0 0 0 5.24-1.23 25.5 25.5 0 0 0-3.69-3.94c-.19.25 0-.18-.36.6Zm.56-6c-.11-1.08-2.38-3.74-3.17-4.43a5.8 5.8 0 0 0-1.19 2.4 17.7 17.7 0 0 0-.88 2.66Zm-6.74-14.32c.25.46.25.83.62 1.49.23.4.51.77.76 1.17l1.17 1.77s.14.23.17.17.14.15.17.2a17.5 17.5 0 0 0 2.46-4.88Zm-11-10.89 5.22 1.66-1.28-5.61a16.1 16.1 0 0 0-3.94 3.95m7.71 9a18.7 18.7 0 0 0-2.77 4.61l5.41.37c-.4-1.06-.77-1.72-1.25-2.75a5.16 5.16 0 0 0-1.39-2.23m13.89 16.78c.2-.28.12-.05.4-.74l1.13-4.54-5.35 1.28a14 14 0 0 0 1.67 2.12Zm-16.15-53.28 5.13-1.83c-.63-1.15-3-3-4.2-3.78Zm.85 25.44a13.5 13.5 0 0 0 4-3.83l-5.25-1.66Zm-1.15-6.18 3.37-2.46c1.08-.92.37.23.94-1.17l-5-2Zm-.43-12.84 4.88-2.29a13.1 13.1 0 0 0-4.54-3.28Zm-2.52 27.87a13.35 13.35 0 0 0 5.3 1.09 21 21 0 0 0-2-5.17Zm15.28 14.18a16.2 16.2 0 0 0 2-5.14l-5.41.71Zm-14.49-63.72a25.7 25.7 0 0 0 3.24 4.49l2.26-5.2Zm4.06 9a12.6 12.6 0 0 0 5.18-1.49l-3.4-3.95Zm2.07-6 5.33-.77a19 19 0 0 0-3.12-4.4Zm-10.8 18.22 4.42 3.08.37-5.54Zm6.26 6.86a15.1 15.1 0 0 0 4.68-2.86 14.6 14.6 0 0 0-4.85-2.72Zm201.46-2.86c1 .83 3.34 2.66 4.65 2.77l.22-5.49a17.1 17.1 0 0 0-4.87 2.72m-1 11.63 3.21 3.54c.43.34.09.14.6.34l1.47-5.29Zm7.57-12.55 4.45-3.08a16.6 16.6 0 0 0-4.79-2.46Zm-4.76 26.39a14.3 14.3 0 0 0 5.27-1.12c-.37-.74 0-.2-.65-1l-2.92-2.61c-.37.66-.09 0-.37.69a8.4 8.4 0 0 0-.4 1.23 15 15 0 0 0-.93 2.83Zm-4.77-43.17c1.14.89 3.69 1.26 5.16 1.6l-1.76-5.52Zm-4 46.17 2.35 4.8c.88-.8 2.84-3.8 2.78-4.86Zm4.5-11 3.38 4.28a2 2 0 0 1 .11-.2l1-2.23a21 21 0 0 0 .85-2.83Zm2.24-23.39 4.74 2.52-.31-5.61a13.3 13.3 0 0 0-4.43 3.09m3.21-14.69a28.6 28.6 0 0 0 3.37-4.49l-5.39-.92Zm-15.34 64a14.4 14.4 0 0 0 3.83-4.06L767 414l1.33 5c0-.06.11.17.14.22Zm11-55.14 5 2-.87-5.66a14.1 14.1 0 0 0-4.17 3.69Zm1.9-15.33a19.9 19.9 0 0 0 2.69-4.68l-5.41-.32 2.18 4.52c.4.46.17.2.54.48m-5.36 61.18-5.44-.68a14 14 0 0 0 .93 2.83l.8 1.86s.14.25.17.2.11.14.17.2l1.84-2.21a9.2 9.2 0 0 0 1.53-2.2m9.67-48.28c1.07-1.09 3.2-2.95 3.77-4.2l-5.29-1.45Zm-18 61.69a13 13 0 0 0 5.22 1.23c-.17-.91-.48-1.91-.68-2.8l-.77-2.17c0-.12 0-.15-.14-.2a32 32 0 0 0-3.63 3.94m7.86-9.18c-.8.72-3.12 3.41-3.18 4.49l5.25.57a22.5 22.5 0 0 0-2.07-5.06m0-61.63a14.9 14.9 0 0 0 5.39 1.08c-.23-1-1.42-4.43-2.21-5.17Zm5.08 29c.51 1.25-.09.25 2 2a8.2 8.2 0 0 0 2.27 1.55l.79-5.58Zm4 13.37 5.3-1.45a13.6 13.6 0 0 0-3.88-4Zm1.65-6.54a14.8 14.8 0 0 0 4.93-2.23c-.74-.83-3.21-3.15-4.28-3.09ZM785.17 407a15.7 15.7 0 0 0-2.78-4.6l-.88 1.06c-.22.43-.39.89-.62 1.37-.4.92-.79 1.55-1.13 2.55Zm-8.84 6.15 3.17.14h.62l1.62-.11c-.48-1.49-1.45-3.92-2.55-4.92Zm10.91-31.62A15.5 15.5 0 0 0 792 379c-.71-.77-3.6-2.77-4.59-2.77Zm0-13.38a28 28 0 0 0 3.77-3.57 20.8 20.8 0 0 0-5-2.06c.17 1.43.54 4.78 1.28 5.63Zm-10.83 30.62c.48 1.34 2 4.09 3.2 4.72l2.24-5.09Z" style="fill:#505c64" transform="translate(-507.52 -283.29)"/></g></svg>